<svg xmlns="http://www.w3.org/2000/svg" width="270.244" height="269.083" viewBox="0 0 270.244 269.083">
  <g id="Digital_nomad-cuate_1_" data-name="Digital nomad-cuate (1)" transform="translate(-38.64 -36.492)">
    <g id="freepik--background-complete--inject-53" transform="translate(39.551 36.492)">
      <path id="Path_4108" data-name="Path 4108" d="M42.91,211.168s48.312-29.608,78.269-29.608c35.98,0,70.962,13.189,84.2,17.551,34.835,11.444,102.288,12.057,102.288,12.057Z" transform="translate(-41.091 -82.684)" fill="#dbdbdb"/>
      <path id="Path_4109" data-name="Path 4109" d="M338.931,216.954S311.5,199.73,280.512,199.73c-21.634,0-52.678,3.565-81.913,9.413-11.137,2.2-69.089,7.811-69.089,7.811Z" transform="translate(-72.328 -88.469)" fill="#c7c7c7"/>
      <path id="Path_4110" data-name="Path 4110" d="M62.941,150.524c3.369,0,87.584-.627,111.334-.627,1.662,0-.441-3.067-1.355-3.285-2.928-.682-5.971-.682-8.95-1.043a27.858,27.858,0,0,1-8.522-2.277,31.573,31.573,0,0,0-7.2-2.726c-4.9-.818-9.2,2.045-13.79,3.258a9.871,9.871,0,0,1-8.356-1.213c-2.122-1.363-4.053-2.985-6.271-4.185a32.494,32.494,0,0,0-27.49-1.363,31.529,31.529,0,0,0-6.022,3.285c-2.244,1.568-4.175,3.578-6.393,5.126-4.987,3.442-11.156,2.324-16.59,4.294C63,149.924,62.66,150.524,62.941,150.524Z" transform="translate(-48.278 -67.747)" fill="#ebebeb"/>
      <path id="Path_4111" data-name="Path 4111" d="M305.445,53.033c4.475,0,79.516.525,84.234.361a.373.373,0,0,0,.3-.279.4.4,0,0,0-.117-.4c-2.973-1.574-6.342-1.254-9.436-2.365a10.166,10.166,0,0,1-4.194-3.408,8.624,8.624,0,0,0-3.906-2.726,7.773,7.773,0,0,0-4.251-.143,35.206,35.206,0,0,0-4.3,1.9c-3.606,1.452-7.109.075-9.685-2.767-2.122-2.345-4.213-4.56-7.1-5.821a8.871,8.871,0,0,0-7.518-.109c-2.755,1.363-4.641,4-7.23,5.609-3.062,1.908-6.732,1.459-10.114,2.045s-5.984,3.619-8.95,5.371a6.08,6.08,0,0,1-3.235,1.07,15.453,15.453,0,0,1-1.969-.3,2.6,2.6,0,0,0-2.685.8C305.119,52.092,305.157,53.033,305.445,53.033Z" transform="translate(-135.695 -36.492)" fill="#ebebeb"/>
      <path id="Path_4112" data-name="Path 4112" d="M40.26,88.524c3.26,0,58.055.389,61.494.273a.289.289,0,0,0,.141-.525C99.721,87.12,97.26,87.351,95,86.54a7.091,7.091,0,0,1-3.062-2.461A6.321,6.321,0,0,0,89.089,82.1a5.669,5.669,0,0,0-3.107-.1,29.4,29.4,0,0,0-3.139,1.363c-2.634,1.063-5.191.055-7.071-2.045a15.686,15.686,0,0,0-5.178-4.246,6.5,6.5,0,0,0-5.492-.082c-2.007.975-3.388,2.924-5.274,4.09-2.238,1.4-4.916,1.07-7.39,1.486S48.072,85.2,45.9,86.479a4.477,4.477,0,0,1-2.365.784,11.463,11.463,0,0,1-1.438-.218,1.884,1.884,0,0,0-1.956.586C40.023,87.842,40.023,88.524,40.26,88.524Z" transform="translate(-40.064 -49.205)" fill="#ebebeb"/>
      <path id="Path_4113" data-name="Path 4113" d="M363.213,143.79c3.254,0,58.048.382,61.494.266a.288.288,0,0,0,.134-.525c-2.174-1.145-4.635-.913-6.892-1.724a7.4,7.4,0,0,1-3.062-2.467,6.372,6.372,0,0,0-2.851-1.983,5.645,5.645,0,0,0-3.1-.1,25.93,25.93,0,0,0-3.139,1.363c-2.634,1.056-5.191.055-7.071-2.045a15.709,15.709,0,0,0-5.185-4.246,6.465,6.465,0,0,0-5.485-.082c-2.014.968-3.388,2.924-5.281,4.09-2.238,1.363-4.91,1.063-7.384,1.486s-4.373,2.638-6.54,3.919a4.428,4.428,0,0,1-2.359.777,12.873,12.873,0,0,1-1.438-.218,1.9,1.9,0,0,0-1.963.593C362.97,143.1,363.008,143.79,363.213,143.79Z" transform="translate(-156.556 -66.799)" fill="#ebebeb"/>
      <path id="Path_4114" data-name="Path 4114" d="M187.5,128.844c.064.2,86.369,0,85.276,0-.492,0,.754-.791.268-1.043-2.807-1.486-5.882-1.534-8.95-1.833a13.063,13.063,0,0,1-5.229-1.363c-1.624-.907-2.64-2.481-3.791-3.94a15.683,15.683,0,0,0-14.736-5.95c-6.137,1.022-10.977,6-17.12,6.925-3.7.552-7.186-.975-10.8-1.513a12.536,12.536,0,0,0-8.068,1.595,14.419,14.419,0,0,1-5.945,2.045c-1.688.129-3.382-.082-5.076-.1a10.978,10.978,0,0,0-7.518,3.2C185.559,127.119,184.689,128.844,187.5,128.844Z" transform="translate(-92.518 -61.341)" fill="#ebebeb"/>
    </g>
    <g id="freepik--Trees--inject-53" transform="translate(41.984 49.638)">
      <path id="Path_4115" data-name="Path 4115" d="M44.788,157.287c1.119,1.193,14.128,1.724,18.859,1.724s17.734-.532,18.853-1.724S67.861,63.91,63.648,63.91,43.676,156.1,44.788,157.287Z" transform="translate(-44.182 -58.369)" fill="#36ccb4"/>
      <path id="Path_4116" data-name="Path 4116" d="M44.216,133.8c3.2,1.309,15.119,6.475,17.689,7.981v-1.731q-4.315-2.726-8.637-5.371a101.825,101.825,0,0,1-9.289-5.889c-.141-.109-.064-.416.128-.327a74.012,74.012,0,0,1,9.091,5.35c2.96,1.854,5.824,3.715,8.707,5.616q0-6.625.051-13.25a96.164,96.164,0,0,1-13.528-7.354c-.147-.1-.051-.382.121-.307a97.044,97.044,0,0,1,13.425,7.068c0-2.3,0-4.594.045-6.891.121-11.826.141-23.671.422-35.5-2.819-1.506-5.7-2.869-8.547-4.383-.185-.1-.058-.45.141-.368,2.864,1.2,5.619,2.61,8.458,3.926.153-6.134.371-12.207.716-18.3a.147.147,0,1,1,.294,0c.4,11.328.364,22.676.23,34.011,2.928-2.488,6.041-4.689,9.02-7.1.115-.1.224.116.115.2-3.113,2.529-6.022,5.323-9.142,7.838v1.922c3.2-1.547,6.393-2.985,9.589-4.444.256-.116.479.266.224.4-3.267,1.67-6.521,3.408-9.826,4.948-.077,5.616-.166,11.233-.23,16.849-.121,9.808-.326,19.609-.518,29.417q8.95-4.846,18.086-9.42a.214.214,0,0,1,.2.375,185.455,185.455,0,0,1-18.31,9.8c-.16,8.145-.32,16.3-.416,24.442a.362.362,0,0,1-.722,0c.109-10.394.121-20.782.147-31.176-3.152-.832-15.081-6.277-17.9-7.77C43.7,134.219,43.909,133.68,44.216,133.8Z" transform="translate(-43.871 -58.372)" fill="#37474f"/>
      <path id="Path_4117" data-name="Path 4117" d="M398.5,158.869c1.087,1.165,13.79,1.684,18.412,1.684s17.325-.518,18.418-1.684S421.034,67.68,416.911,67.68,397.406,157.711,398.5,158.869Z" transform="translate(-171.766 -59.569)" fill="#31c4ab"/>
      <path id="Path_4118" data-name="Path 4118" d="M397.924,135.918c3.139,1.275,14.768,6.318,17.261,7.791v-1.69c-2.8-1.758-5.619-3.5-8.432-5.248a98.22,98.22,0,0,1-9.072-5.746c-.141-.109-.064-.409.128-.327a71.263,71.263,0,0,1,8.88,5.228c2.9,1.82,5.683,3.633,8.5,5.453q0-6.468.051-12.95a94.459,94.459,0,0,1-13.253-7.177c-.147-.1-.051-.382.121-.307a95.025,95.025,0,0,1,13.15,6.918c0-2.242,0-4.485.045-6.727.121-11.553.141-23.119.416-34.672-2.755-1.486-5.594-2.795-8.349-4.28-.185-.1-.058-.436.141-.354,2.794,1.159,5.485,2.542,8.234,3.831.147-5.964.358-11.921.7-17.871a.147.147,0,1,1,.294,0c.384,11.062.352,22.138.224,33.22,2.851-2.433,5.9-4.587,8.8-6.939.115-.1.224.109.115.2-3.043,2.467-5.882,5.2-8.95,7.654V103.8c3.1-1.513,6.24-2.917,9.372-4.349.243-.109.467.266.211.4-3.2,1.629-6.361,3.292-9.589,4.826-.077,5.453-.166,10.974-.23,16.46-.115,9.576-.313,19.153-.505,28.729q8.765-4.723,17.664-9.195a.206.206,0,0,1,.2.361,181.7,181.7,0,0,1-17.9,9.542c-.16,7.954-.313,15.915-.409,23.855a.356.356,0,0,1-.71,0c.109-10.149.121-20.3.147-30.446-3.081-.818-14.7-6.134-17.5-7.586C397.419,136.32,397.617,135.789,397.924,135.918Z" transform="translate(-171.447 -59.553)" fill="#37474f"/>
      <path id="Path_4119" data-name="Path 4119" d="M128.971,166.57c.965,1.029,12.191,1.486,16.27,1.486s15.343-.457,16.277-1.486S148.866,86,145.222,86,127.987,165.541,128.971,166.57Z" transform="translate(-74.548 -65.402)" fill="#31c4ab"/>
      <path id="Path_4120" data-name="Path 4120" d="M128.449,146.306c2.775,1.125,13.048,5.589,15.266,6.884V151.7q-3.721-2.331-7.454-4.635a87.547,87.547,0,0,1-8.017-5.085c-.121-.1-.058-.361.115-.286a66.84,66.84,0,0,1,7.844,4.621c2.557,1.595,5.025,3.21,7.512,4.846q0-5.719.045-11.437a82.717,82.717,0,0,1-11.706-6.346c-.128-.082-.045-.327.1-.266a84.443,84.443,0,0,1,11.61,6.1c0-1.983,0-3.967.038-5.943.1-10.224.121-20.448.364-30.637-2.436-1.309-4.942-2.467-7.377-3.783-.16-.089-.051-.389.121-.314,2.468,1.029,4.852,2.249,7.275,3.408.134-5.262.32-10.531.639-15.786a.128.128,0,1,1,.256,0c.345,9.774.313,19.562.2,29.349,2.525-2.147,5.217-4.049,7.787-6.134.1-.082.192.1.1.177-2.685,2.174-5.2,4.594-7.889,6.761v1.663c2.743-1.363,5.517-2.576,8.311-3.837.217-.1.416.232.192.341-2.819,1.438-5.626,2.91-8.477,4.267-.064,4.853-.141,9.7-.2,14.545-.1,8.459-.275,16.924-.447,25.389q7.748-4.185,15.612-8.131a.184.184,0,0,1,.179.32,157.715,157.715,0,0,1-15.8,8.458c-.134,7.034-.275,14.068-.358,21.129a.32.32,0,1,1-.639,0c.089-8.97.1-17.939.128-26.909-2.723-.722-13.016-5.453-15.465-6.707C128,146.668,128.18,146.2,128.449,146.306Z" transform="translate(-74.269 -65.409)" fill="#455a64"/>
      <path id="Path_4121" data-name="Path 4121" d="M320.826,153.887c1.176,1.254,14.838,1.806,19.818,1.806s18.629-.552,19.818-1.806S345.087,55.82,340.644,55.82,319.637,152.639,320.826,153.887Z" transform="translate(-143.747 -55.793)" fill="#36ccb4"/>
      <path id="Path_4122" data-name="Path 4122" d="M320.221,129.207c3.375,1.363,15.88,6.816,18.584,8.384v-1.82q-4.526-2.842-9.072-5.644c-3.241-2.045-6.732-3.81-9.756-6.182-.147-.116-.07-.443.134-.354a79.976,79.976,0,0,1,9.551,5.63c3.113,1.949,6.112,3.9,9.142,5.9q0-6.966.058-13.918a101.63,101.63,0,0,1-14.25-7.722c-.16-.1-.051-.409.128-.327a102.023,102.023,0,0,1,14.129,7.422c0-2.413,0-4.819.045-7.232.128-12.425.147-24.864.448-37.29-2.966-1.595-6.022-3-8.982-4.6-.2-.109-.058-.47.147-.382,3.011,1.247,5.907,2.726,8.854,4.09.16-6.407.39-12.814.761-19.214a.154.154,0,1,1,.307,0c.416,11.9.384,23.808.243,35.722,3.069-2.617,6.342-4.928,9.468-7.5.122-.1.243.123.122.218-3.267,2.651-6.323,5.589-9.59,8.234v2.045c3.331-1.622,6.713-3.135,10.075-4.669.262-.123.5.279.23.416-3.427,1.752-6.847,3.544-10.318,5.194-.077,5.9-.173,11.8-.243,17.721-.128,10.3-.339,20.6-.543,30.9q9.43-5.078,19-9.89a.221.221,0,0,1,.211.389,193.311,193.311,0,0,1-19.23,10.292c-.166,8.561-.332,17.121-.435,25.675a.381.381,0,0,1-.761,0c.115-10.905.128-21.811.16-32.716-3.318-.872-15.842-6.591-18.815-8.179C319.684,129.637,319.895,129.071,320.221,129.207Z" transform="translate(-143.417 -55.78)" fill="#455a64"/>
      <path id="Path_4123" data-name="Path 4123" d="M133.448,175.29c-.818.872-10.369,1.261-13.841,1.261s-13.023-.389-13.841-1.261,10.747-68.54,13.841-68.54S134.267,174.4,133.448,175.29Z" transform="translate(-66.182 -72.01)" fill="#32e0c4"/>
      <path id="Path_4124" data-name="Path 4124" d="M134.026,158.039c-2.359.961-11.1,4.771-12.984,5.862v-1.275q3.2-1.983,6.335-3.94a75.166,75.166,0,0,0,6.821-4.321c.1-.082.045-.307-.1-.245a55.65,55.65,0,0,0-6.681,3.919c-2.148,1.363-4.271,2.726-6.393,4.124,0-3.244,0-6.489-.038-9.733a70.826,70.826,0,0,0,9.954-5.4c.115-.068.038-.279-.089-.225a72.239,72.239,0,0,0-9.864,5.207c0-1.684,0-3.374-.032-5.057-.09-8.683-.1-17.374-.313-26.057,2.071-1.111,4.207-2.1,6.278-3.217.134-.075.038-.327-.1-.266-2.1.872-4.13,1.908-6.188,2.876-.115-4.478-.275-8.956-.531-13.427a.109.109,0,1,0-.217,0c-.288,8.315-.269,16.638-.166,24.967-2.148-1.827-4.437-3.442-6.623-5.214-.083-.068-.166.082-.083.15,2.289,1.854,4.424,3.906,6.713,5.753v1.411c-2.327-1.131-4.692-2.188-7.032-3.265-.185-.082-.345.2-.16.293,2.4,1.227,4.782,2.474,7.211,3.633q.09,6.189.173,12.364c.09,7.2.237,14.4.377,21.593Q113.7,165,107.016,161.638a.155.155,0,0,0-.147.273,137.142,137.142,0,0,0,13.425,7.2c.121,5.977.237,11.962.307,17.946a.266.266,0,0,0,.531,0c-.077-7.634-.089-15.261-.109-22.888,2.314-.613,11.066-4.608,13.15-5.7C134.416,158.353,134.25,157.958,134.026,158.039Z" transform="translate(-66.568 -72.01)" fill="#37474f"/>
      <path id="Path_4125" data-name="Path 4125" d="M382.648,175.29c-.818.872-10.363,1.261-13.841,1.261s-13.016-.389-13.841-1.261,10.747-68.54,13.841-68.54S383.466,174.4,382.648,175.29Z" transform="translate(-156.068 -72.01)" fill="#32e0c4"/>
      <path id="Path_4126" data-name="Path 4126" d="M383.223,158.017c-2.359.961-11.1,4.771-12.984,5.862V162.6q3.2-1.983,6.342-3.94a75.167,75.167,0,0,0,6.821-4.321c.1-.082.045-.307-.1-.245a55.156,55.156,0,0,0-6.681,3.919c-2.148,1.363-4.277,2.726-6.393,4.124q0-4.867-.038-9.733a70.9,70.9,0,0,0,9.96-5.4c.109-.068.038-.279-.09-.225a71.847,71.847,0,0,0-9.871,5.187c0-1.684,0-3.374-.038-5.057-.083-8.683-.1-17.374-.307-26.057,2.071-1.111,4.207-2.1,6.278-3.217.134-.075.038-.327-.109-.266-2.1.872-4.124,1.908-6.188,2.876-.109-4.478-.269-8.956-.531-13.427a.12.12,0,0,0-.044-.123.1.1,0,0,0-.124,0,.12.12,0,0,0-.044.123c-.294,8.315-.269,16.638-.173,24.967-2.148-1.827-4.437-3.442-6.617-5.214-.09-.068-.166.082-.083.15,2.282,1.854,4.418,3.906,6.706,5.753v1.411c-2.327-1.131-4.686-2.188-7.032-3.265-.185-.082-.352.2-.166.293,2.4,1.227,4.788,2.474,7.211,3.633q.089,6.189.173,12.364c.089,7.2.237,14.4.384,21.593q-6.591-3.551-13.278-6.911a.157.157,0,0,0-.153.273,137.878,137.878,0,0,0,13.425,7.2c.121,5.977.237,11.962.313,17.946a.263.263,0,1,0,.524,0c-.077-7.634-.089-15.261-.109-22.888,2.321-.613,11.073-4.608,13.15-5.7A.213.213,0,0,0,383.223,158.017Z" transform="translate(-156.451 -71.987)" fill="#37474f"/>
    </g>
    <g id="freepik--Floor--inject-53" transform="translate(38.64 164.66)">
      <path id="Path_4127" data-name="Path 4127" d="M38.64,224.852c86.567-.423,183.677-.423,270.244,0-86.567.416-183.677.416-270.244,0Z" transform="translate(-38.64 -224.535)" fill="#263238"/>
    </g>
    <g id="freepik--Rocks--inject-53" transform="translate(43.524 174.155)">
      <path id="Path_4128" data-name="Path 4128" d="M427,238.469a32.03,32.03,0,0,1,5.293,9.161,19.261,19.261,0,0,1,.882,5.507,23.384,23.384,0,0,1-.422,6.012.217.217,0,0,1-.234.153.226.226,0,0,1-.187-.214,55.568,55.568,0,0,0,.211-5.65,20.036,20.036,0,0,0-.761-5.657A39.061,39.061,0,0,0,427,238.5Z" transform="translate(-183.606 -238.466)" fill="#455a64"/>
      <path id="Path_4129" data-name="Path 4129" d="M433.649,256.738a17.692,17.692,0,0,1,.684-4.212,21.27,21.27,0,0,1,3.42-7.286c.045-.055.147,0,.1.089a28.738,28.738,0,0,0-2.922,7.5,20.567,20.567,0,0,0-.639,4.2,29.186,29.186,0,0,1-.435,4.43c-.032.15-.281.17-.3,0A24.892,24.892,0,0,1,433.649,256.738Z" transform="translate(-185.946 -240.616)" fill="#37474f"/>
      <path id="Path_4130" data-name="Path 4130" d="M422.849,246.142a21.841,21.841,0,0,1,6.252,6,11.3,11.3,0,0,1,1.458,4.335,26.174,26.174,0,0,1,.575,5.132c0,.3-.46.388-.505.075-.211-1.534-.384-3.067-.639-4.594a12.256,12.256,0,0,0-1.279-4.58,25.492,25.492,0,0,0-5.958-6.237.086.086,0,0,1-.013-.116A.074.074,0,0,1,422.849,246.142Z" transform="translate(-182.063 -240.904)" fill="#455a64"/>
      <path id="Path_4131" data-name="Path 4131" d="M384.643,298.5c-.141,1.227-.358,2.44-.595,3.647-.128.682-.268,1.363-.4,2.045a5.254,5.254,0,0,0-.166,2.29h0a.584.584,0,0,1,0,.1h0a.081.081,0,0,1-.147,0,.139.139,0,0,1,0-.048h0a3.052,3.052,0,0,1-.249-.634,16.689,16.689,0,0,1-.569-1.772,16.306,16.306,0,0,1-.563-3.776,13.771,13.771,0,0,1,.339-3.408,6.958,6.958,0,0,1,1.119-2.9c.626-.682,1.029.375,1.2.872A8.744,8.744,0,0,1,384.643,298.5Z" transform="translate(-167.357 -256.093)" fill="#36ccb4"/>
      <path id="Path_4132" data-name="Path 4132" d="M383.857,296.88c-.415,0-.722,1.438-.869,2.045a13.176,13.176,0,0,0-.358,3.006,16.787,16.787,0,0,0,.868,5.333.655.655,0,0,0,.065.208h0a.186.186,0,0,0,0,.048.081.081,0,0,0,.147,0,3.629,3.629,0,0,0-.064-.45c-.019-.15-.032-.266-.038-.4a22.811,22.811,0,0,1,.256-4.423C384.094,300.608,384.414,296.88,383.857,296.88Zm-.3,10.142a3.584,3.584,0,0,0,.083.586c-.038-.136-.083-.279-.121-.423a18.979,18.979,0,0,1-.793-4.71,13.558,13.558,0,0,1,.185-2.692,13.232,13.232,0,0,1,.326-1.411c.058-.191.364-1.4.639-1.363s.224,1.131.23,1.159v.682c0,.45-.032.9-.07,1.363-.077.975-.211,1.936-.32,2.9A18.006,18.006,0,0,0,383.557,307.022Z" transform="translate(-167.601 -257.066)" fill="#fff"/>
      <path id="Path_4133" data-name="Path 4133" d="M391.959,305a11.327,11.327,0,0,1-3.4,3.878c-.716.559-1.458,1.091-2.186,1.629a12.072,12.072,0,0,0-1.918,1.554l-.07.082a3.069,3.069,0,0,0-.39.573.042.042,0,0,1-.038,0,.218.218,0,0,1,0,.068h0V312.7h0a.057.057,0,0,1,0-.061h0v-.075a12.119,12.119,0,0,1,2.48-5.2,9.5,9.5,0,0,1,3.919-3.374c.4-.164,1.323-.62,1.733-.273S392.125,304.661,391.959,305Z" transform="translate(-168.076 -259.203)" fill="#36ccb4"/>
      <path id="Path_4134" data-name="Path 4134" d="M390.77,305.617c-.364-.389-1.438.572-1.707.8a18.409,18.409,0,0,0-2.225,2.311,17.11,17.11,0,0,0-2.845,4.383h0l-.038.048v.082h0a.058.058,0,0,0,0,.061l.051-.068q.2-.266.422-.511a.858.858,0,0,1,.07-.082,35.572,35.572,0,0,1,3.331-3.135,16.937,16.937,0,0,0,2.212-2.3C390.195,307.021,391.077,305.944,390.77,305.617Zm-.332.859a16.152,16.152,0,0,1-3.836,3.946,19.351,19.351,0,0,0-2.557,2.563,18.257,18.257,0,0,1,2.627-3.94,23.481,23.481,0,0,1,1.809-1.983,9.842,9.842,0,0,1,1.093-.941,3.717,3.717,0,0,1,.748-.423C390.872,305.535,390.591,306.2,390.438,306.476Z" transform="translate(-168.076 -259.819)" fill="#fff"/>
      <path id="Path_4135" data-name="Path 4135" d="M381.349,317.617a.107.107,0,0,1-.083.048h0v.041h-.038a16.19,16.19,0,0,1-3.5-5.453,9.1,9.1,0,0,1-.505-2.726c0-.627-.051-1.895.454-2.352,1.016-.92,1.918,2.992,2.084,3.578.249,1.077.416,2.167.639,3.251s.588,2.338.921,3.5A.1.1,0,0,1,381.349,317.617Z" transform="translate(-165.649 -260.299)" fill="#36ccb4"/>
      <path id="Path_4136" data-name="Path 4136" d="M381.751,318.343a2.662,2.662,0,0,1-.16-.3,19.107,19.107,0,0,1-1.835-5.255,17.356,17.356,0,0,0-.678-2.726c-.077-.218-.332-1.05-.671-.627a7.577,7.577,0,0,0,.045,2.2,11.7,11.7,0,0,0,.825,2.685,19.153,19.153,0,0,0,2.327,4.035.674.674,0,0,0,.083.109v-.041h0A.094.094,0,0,0,381.751,318.343Zm-2.065-3.36a13.931,13.931,0,0,1-.978-2.6,10.688,10.688,0,0,1-.211-1.1,5.81,5.81,0,0,1-.07-.872c0-.716.058-.9.166-.927s.166.061.364.491a4.556,4.556,0,0,1,.288.866c.1.423.192.845.281,1.275.173.852.332,1.7.569,2.542a14.5,14.5,0,0,0,1.413,3.408,21.832,21.832,0,0,1-1.822-3.081Z" transform="translate(-166.051 -261.026)" fill="#fff"/>
      <path id="Path_4137" data-name="Path 4137" d="M388.386,316.276a5.568,5.568,0,0,1-.933,2.045c-.844,1.24-1.918,2.27-2.845,3.449-.134.17-.269.354-.4.538,0,0-.121.279-.115.259a1.466,1.466,0,0,1,.045-.273h0a22.731,22.731,0,0,1,1.24-4.58,11.359,11.359,0,0,1,1.342-2.249c.262-.313.876-1,1.343-.845S388.456,315.881,388.386,316.276Z" transform="translate(-168.128 -262.708)" fill="#36ccb4"/>
      <path id="Path_4138" data-name="Path 4138" d="M387.643,316.306c-.492-.327-1.764,2.1-1.918,2.413a16,16,0,0,0-1.451,3.694c-.038.15-.077.293-.109.443s-.045.266-.045.266.1-.232.115-.259l.07-.089c.109-.15.217-.3.332-.443.55-.886,1.119-1.758,1.656-2.651a14.4,14.4,0,0,0,1.029-2.045C387.368,317.505,387.879,316.449,387.643,316.306Zm-.141.682c-.7,2.106-2.135,3.769-3.228,5.644l-.051.089a1.527,1.527,0,0,1,.045-.164,18.416,18.416,0,0,1,1.157-3.081,17.512,17.512,0,0,1,.978-1.738,9.425,9.425,0,0,1,.607-.9c.1-.123.4-.436.492-.382s.045.4,0,.538Z" transform="translate(-168.139 -263.242)" fill="#fff"/>
      <path id="Path_4139" data-name="Path 4139" d="M394.473,290.638c-1.464,3.592-5.313,5.262-6.981,8.731h0c-.051.109-.1.218-.141.327a.068.068,0,0,1-.115,0,.058.058,0,0,1,0-.055l.038-.082a19.385,19.385,0,0,1,2.059-6.291,9.285,9.285,0,0,1,3.593-4.089c.4-.218,1.164-.682,1.6-.314S394.658,290.195,394.473,290.638Z" transform="translate(-169.26 -254.47)" fill="#36ccb4"/>
      <path id="Path_4140" data-name="Path 4140" d="M393.167,291.725c-.185-.143-.473.034-.639.123a5.449,5.449,0,0,0-1.112.811,9.679,9.679,0,0,0-1.771,2.249,20.95,20.95,0,0,0-2.1,4.519c-.109.368-.211.729-.288,1.1v.136a.068.068,0,0,0,.115,0c.038-.109.09-.211.134-.314a12.729,12.729,0,0,1,1.048-2.045,27.342,27.342,0,0,1,2.2-2.774C391.038,295.126,393.813,292.229,393.167,291.725Zm-.237.832a13.486,13.486,0,0,1-1.739,2.249c-.639.729-1.227,1.445-1.822,2.181a13.694,13.694,0,0,0-1.279,1.868,11.37,11.37,0,0,0-.805,1.731,15.808,15.808,0,0,1,.575-1.8h0a27.317,27.317,0,0,1,1.419-3.019v-.041a12.105,12.105,0,0,1,1.624-2.413,6.96,6.96,0,0,1,1.157-1.05c.479-.334.9-.545,1.023-.382s-.019.429-.153.7Z" transform="translate(-169.272 -255.407)" fill="#fff"/>
      <path id="Path_4141" data-name="Path 4141" d="M387.962,297.683c-.441,1.009-.863,2.045-1.279,3.067-.2.484-.4.968-.588,1.452l-.211.525a34.014,34.014,0,0,0-1.72,4.86,15.112,15.112,0,0,0-.352,2.726v.279h0v2.583c0,1.077.1,2.14.2,3.2a.412.412,0,0,0,0,.089c0,.054,0,.1,0,.15v.075a1.092,1.092,0,0,0,0,.136c.032.341.058.682.089,1.022h-.326a22.567,22.567,0,0,1-.377-3.163v-.375q-.01-.191,0-.382v-.913a24.466,24.466,0,0,1,.352-5.3c0-.048,0-.1,0-.143v-.061a.584.584,0,0,1,0-.1l.038-.164.077-.286v-.089a35.676,35.676,0,0,1,1.694-4.362l.339-.77.192-.429c.1-.211.2-.429.3-.641h0c.467-1.009.959-2.011,1.419-3.019C387.911,297.594,387.981,297.635,387.962,297.683Z" transform="translate(-167.87 -257.303)" fill="#36ccb4"/>
      <path id="Path_4142" data-name="Path 4142" d="M436.9,268.164H427.73s.985-2.338,1.86-2.9a7.242,7.242,0,0,1,4.526-.627C435.389,265,436.9,268.164,436.9,268.164Z" transform="translate(-183.869 -246.759)" fill="#a6a6a6"/>
      <path id="Path_4143" data-name="Path 4143" d="M368.8,327.018h14.192s-1.733-5.453-6.323-5.589S368.8,327.018,368.8,327.018Z" transform="translate(-162.613 -264.882)" fill="#c7c7c7"/>
      <path id="Path_4144" data-name="Path 4144" d="M421.651,272.786H417.08s.588-1.418,1.279-1.7a3.472,3.472,0,0,1,2.627.682,4.3,4.3,0,0,1,.665,1.022Z" transform="translate(-180.028 -248.839)" fill="#c7c7c7"/>
      <path id="Path_4145" data-name="Path 4145" d="M276.867,256.278H246.89s4.891-5.971,8.579-7.1,9.052-1.813,12.147-1.063S276.867,256.278,276.867,256.278Z" transform="translate(-118.64 -241.437)" fill="#a6a6a6"/>
      <path id="Path_4146" data-name="Path 4146" d="M285.232,260.747H277.19s1.029-2.495,2.244-2.992,3.977.45,4.629,1.145A8.012,8.012,0,0,1,285.232,260.747Z" transform="translate(-129.569 -244.564)" fill="#c7c7c7"/>
      <path id="Path_4147" data-name="Path 4147" d="M121.638,260.232H110.77s1.394-3.408,3.043-4.055,5.376.613,6.265,1.554A10.8,10.8,0,0,1,121.638,260.232Z" transform="translate(-69.541 -244.049)" fill="#c7c7c7"/>
      <path id="Path_4148" data-name="Path 4148" d="M415.63,344.184A63.5,63.5,0,0,1,426.16,362.4a38.146,38.146,0,0,1,1.764,10.953,47.2,47.2,0,0,1-.837,11.969.429.429,0,0,1-.844-.123,112,112,0,0,0,.422-11.253A40.13,40.13,0,0,0,425.15,362.7a77.526,77.526,0,0,0-9.589-18.471C415.56,344.191,415.6,344.15,415.63,344.184Z" transform="translate(-179.479 -272.124)" fill="#455a64"/>
      <path id="Path_4149" data-name="Path 4149" d="M428.823,380.549a35.911,35.911,0,0,1,1.368-8.343c1.585-5.126,3.452-10.387,6.809-14.5.1-.123.294.034.2.164-2.877,4.512-4.309,9.794-5.811,14.947a40.452,40.452,0,0,0-1.227,8.363,59.4,59.4,0,0,1-.863,8.806c-.07.3-.563.341-.607,0A50.6,50.6,0,0,1,428.823,380.549Z" transform="translate(-184.15 -276.421)" fill="#37474f"/>
      <path id="Path_4150" data-name="Path 4150" d="M423.533,380.549a35.583,35.583,0,0,0-1.362-8.343c-1.579-5.126-3.446-10.387-6.809-14.5-.1-.123-.288.034-.2.164,2.877,4.512,4.315,9.794,5.811,14.947a40.89,40.89,0,0,1,1.234,8.363,58.565,58.565,0,0,0,.863,8.806c.07.3.563.341.607,0A50.6,50.6,0,0,0,423.533,380.549Z" transform="translate(-179.327 -276.421)" fill="#455a64"/>
      <path id="Path_4151" data-name="Path 4151" d="M407.38,359.45A43.488,43.488,0,0,1,419.852,371.4c1.745,2.508,2.3,5.623,2.9,8.622a51.746,51.746,0,0,1,1.144,10.224c0,.593-.914.77-1,.143-.422-3.04-.767-6.093-1.279-9.133s-.876-6.53-2.5-9.12c-3.094-4.928-7.441-8.9-11.865-12.412C407.1,359.593,407.22,359.354,407.38,359.45Z" transform="translate(-176.458 -276.982)" fill="#455a64"/>
      <path id="Path_4152" data-name="Path 4152" d="M438.914,406.828H403.58s4.322-13.557,15.765-13.932S438.914,406.828,438.914,406.828Z" transform="translate(-175.158 -287.637)" fill="#c7c7c7"/>
      <path id="Path_4153" data-name="Path 4153" d="M89.527,246.305a58.132,58.132,0,0,0-9.768,16.828,35.149,35.149,0,0,0-1.63,10.128,43.322,43.322,0,0,0,.774,11.062.4.4,0,0,0,.414.322.41.41,0,0,0,.366-.383,102.616,102.616,0,0,1-.384-10.435,37.192,37.192,0,0,1,1.4-10.4,72.833,72.833,0,0,1,8.829-17.081C89.559,246.312,89.527,246.278,89.527,246.305Z" transform="translate(-57.74 -240.959)" fill="#455a64"/>
      <path id="Path_4154" data-name="Path 4154" d="M79.221,279.911a32.905,32.905,0,0,0-1.279-7.743c-1.464-4.771-3.2-9.6-6.3-13.407-.083-.109-.262.034-.185.157,2.659,4.171,3.983,9.051,5.377,13.823a37.345,37.345,0,0,1,1.132,7.729,54.955,54.955,0,0,0,.8,8.145c.07.279.524.314.563,0A44.506,44.506,0,0,0,79.221,279.911Z" transform="translate(-55.355 -244.916)" fill="#37474f"/>
      <path id="Path_4155" data-name="Path 4155" d="M94.907,260.427A40.285,40.285,0,0,0,83.4,271.462c-1.611,2.324-2.129,5.2-2.685,7.975a48.338,48.338,0,0,0-1.055,9.447c0,.545.844.682.927.136.39-2.822.71-5.644,1.164-8.452s.812-6.039,2.314-8.431c2.858-4.56,6.879-8.227,10.964-11.478a.143.143,0,0,0,.026-.167A.125.125,0,0,0,94.907,260.427Z" transform="translate(-58.32 -245.457)" fill="#455a64"/>
      <path id="Path_4156" data-name="Path 4156" d="M54.518,276.509c-1.6.061-3.375.157-4.7-.947a5.189,5.189,0,0,1-2.148-4.28c.045-.5.153-.8.639-.593a6.146,6.146,0,0,1,1.873,1.847,16.551,16.551,0,0,0,2.218,2.242c.569.463,1.176.866,1.758,1.315l.217.17.083.068h.045a.069.069,0,0,1,.064.034s0,0,0,.034a.087.087,0,0,1,0,.067A.078.078,0,0,1,54.518,276.509Z" transform="translate(-46.775 -248.704)" fill="#36ccb4"/>
      <path id="Path_4157" data-name="Path 4157" d="M55.231,277.132c-1.4,0-2.915.041-4.04-.975a6.864,6.864,0,0,1-1.279-1.69c-.16-.279-.639-1.118-.448-1.452.364-.607,2.039,1.861,2.27,2.092a6.724,6.724,0,0,0,3.1,1.718l.217.17a7.3,7.3,0,0,1-2.327-.954A11.666,11.666,0,0,1,50.4,273.6c-.173-.191-.678-.825-.869-.429-.128.259.345,1.084.441,1.254a7.043,7.043,0,0,0,1.234,1.609c1.119,1.043,2.628,1,4.04,1.063C55.225,277.112,55.231,277.118,55.231,277.132Z" transform="translate(-47.412 -249.436)" fill="#fff"/>
      <path id="Path_4158" data-name="Path 4158" d="M58.74,275.967a.354.354,0,0,1-.038.2h0v.034a.062.062,0,0,1-.083-.034s0,0,0-.041h0v-.055h0c-.281-1.125-.39-2.3-.69-3.408s-.639-2.133-.844-3.231c-.128-.682-.582-4.164.857-3.728.639.191,1.074,1.172,1.279,1.758a7.585,7.585,0,0,1,.531,2.495C59.865,272.027,59.137,273.943,58.74,275.967Z" transform="translate(-50.115 -247.126)" fill="#36ccb4"/>
      <path id="Path_4159" data-name="Path 4159" d="M59.724,272.634a8.611,8.611,0,0,0-.23-2.358c-.064-.266-.371-1.54-.78-1.506-.262,0-.307.566-.326.75a7.652,7.652,0,0,0,.281,2.311,34.247,34.247,0,0,1,.531,4.642.773.773,0,0,1-.038.293c-.038.1,0,.164-.032.245s0,.054,0,.089v.061a.068.068,0,0,0,.09.034V277a1.343,1.343,0,0,1,0,.157h0V277a.094.094,0,0,0,0-.041v-.252A37.87,37.87,0,0,0,59.724,272.634Zm-.479,3.5q-.064-1.363-.249-2.726c-.1-.722-.224-1.445-.364-2.161a8.085,8.085,0,0,1-.185-1.234c0-.314.032-1.486.595-.763a4.949,4.949,0,0,1,.556,2.3,12.124,12.124,0,0,1-.038,2.154c-.077.825-.2,1.629-.313,2.433Z" transform="translate(-50.645 -248.115)" fill="#fff"/>
      <path id="Path_4160" data-name="Path 4160" d="M57.588,285.274h-.07c-1.464-.082-3.407.068-4.622-.961a4.08,4.08,0,0,1-1.5-3.544c.326-1.431,2.148.293,2.628.682a45.985,45.985,0,0,1,3.58,3.708h0S57.62,285.261,57.588,285.274Z" transform="translate(-48.107 -251.758)" fill="#36ccb4"/>
      <path id="Path_4161" data-name="Path 4161" d="M58.261,285.925l-.256-.17q-1.438-.961-2.794-2.045c-.224-.184-1.867-1.745-2.116-1.186-.147.334.4,1.022.569,1.254a4.534,4.534,0,0,0,1.106,1.056,11.27,11.27,0,0,0,3.254,1.1l.153.041h0S58.274,285.945,58.261,285.925Zm-2.89-.886a4.639,4.639,0,0,1-1.279-.907c-.243-.252-1.106-1.179-.876-1.561.121-.2.224-.1.454,0a3.48,3.48,0,0,1,.307.191c.249.177.473.375.7.566.4.348.812.682,1.227,1,.678.532,1.374,1.022,2.084,1.5a21.906,21.906,0,0,1-2.615-.784Z" transform="translate(-48.729 -252.456)" fill="#fff"/>
      <path id="Path_4162" data-name="Path 4162" d="M63.82,280.563a9.356,9.356,0,0,1-2.5,4.662h0a.049.049,0,0,1-.07,0,.064.064,0,0,1,0-.089l.077-.082c.237-2.113.505-4.219.71-6.339.045-.5.416-3.681,1.33-3.163.569.32.639,1.622.639,2.208A9.671,9.671,0,0,1,63.82,280.563Z" transform="translate(-51.673 -250.257)" fill="#36ccb4"/>
      <path id="Path_4163" data-name="Path 4163" d="M63.281,278.643c-.051-.177-.134-.354-.32-.232-.358.239-.5,1.731-.556,2.147-.249,1.7-.639,3.347-1.01,5.016l-.1.423-.09.129a.055.055,0,0,0,.07,0,.1.1,0,0,0,0-.041c.045-.055.083-.116.121-.17h0a11.257,11.257,0,0,0,1.445-3,11.018,11.018,0,0,0,.428-2.092A6.534,6.534,0,0,0,63.281,278.643Zm-1.873,7.184-.051.082.045-.17a32.152,32.152,0,0,0,.9-3.885c.109-.682.173-1.363.3-2,.058-.279.185-1.077.4-1.206s.211.184.237.361a3.028,3.028,0,0,1,0,.484,11.268,11.268,0,0,1-1.828,6.339Z" transform="translate(-51.665 -251.172)" fill="#fff"/>
      <path id="Path_4164" data-name="Path 4164" d="M57.2,286.336H56.9v-.818c0-1.1-.077-2.215-.134-3.319-.038-.627-.077-1.254-.141-1.874a.2.2,0,0,1,0-.061v-.157a1.455,1.455,0,0,0,0-.164,14.071,14.071,0,0,0-1-4.09,12.35,12.35,0,0,0-.639-1.268l-.058-.116h0a1.126,1.126,0,0,0-.064-.123l-.051-.089c-.671-1.268-1.445-2.481-2.18-3.7-.211-.348-.422-.682-.639-1.05a.286.286,0,0,1-.032-.061l-.051-.075c-.921-1.554-1.822-3.115-2.781-4.635-.038-.055.051-.1.083-.048.639,1.009,1.317,2,1.982,3l.262.4.524.791c.345.525.684,1.056,1.023,1.588a46.911,46.911,0,0,1,2.685,4.635l.166.368c0,.075.07.157.1.232l.115.266a15.372,15.372,0,0,1,.985,4.9v.716h0v.389c.045,1.1.07,2.208.1,3.313C57.171,285.627,57.183,285.982,57.2,286.336Z" transform="translate(-47.306 -246.808)" fill="#36ccb4"/>
      <path id="Path_4165" data-name="Path 4165" d="M47.456,264.68c-.8-1.145-1.822-3.51-.639-4.737a1.22,1.22,0,0,1,1.669-.13,3.935,3.935,0,0,1,1.1,2.133c.543,2,.9,4.049,1.573,6.012,0,0,.058.17.077.211s-.051.061-.064,0-.045-.129-.064-.191A15.882,15.882,0,0,1,47.456,264.68Z" transform="translate(-46.279 -245.177)" fill="#36ccb4"/>
      <path id="Path_4166" data-name="Path 4166" d="M51.912,268.79h0a14.491,14.491,0,0,1-.748-1.486,30.36,30.36,0,0,1-1.151-3.278c-.128-.429-.7-2.536-1.406-1.7a1.981,1.981,0,0,0-.2,1.411,5.411,5.411,0,0,0,.639,1.97,9.368,9.368,0,0,0,2.653,2.958l.141.116v.048h0a.042.042,0,0,0,.04,0,.048.048,0,0,0,.024-.034A.036.036,0,0,0,51.912,268.79Zm-.313-.232a11,11,0,0,1-2.25-2.426,6.249,6.249,0,0,1-.729-1.595,5.3,5.3,0,0,1-.16-.77,3.733,3.733,0,0,1-.032-.593c0-.436.179-.907.422-.954s.4.129.588.491a2.921,2.921,0,0,1,.179.382c.128.327.23.682.332,1,.166.552.332,1.1.518,1.656.128.375.262.743.416,1.1a13.756,13.756,0,0,0,.876,1.813Z" transform="translate(-47.027 -246.002)" fill="#fff"/>
      <path id="Path_4167" data-name="Path 4167" d="M69.647,280.909c-.083.682-.2,1.363-.332,2.045-.077.389-.153.77-.224,1.159a2.9,2.9,0,0,0-.1,1.281h0v.055h0a.049.049,0,0,1-.083,0h0a1.864,1.864,0,0,1-.134-.361,9.972,9.972,0,0,1-.326-1,9.473,9.473,0,0,1-.313-2.12,7.7,7.7,0,0,1,.192-1.915,3.913,3.913,0,0,1,.639-1.629c.32-.348.582.211.639.491A4.876,4.876,0,0,1,69.647,280.909Z" transform="translate(-54.163 -251.155)" fill="#36ccb4"/>
      <path id="Path_4168" data-name="Path 4168" d="M69.207,280c-.237,0-.409.811-.492,1.159a7.541,7.541,0,0,0-.2,1.69,9.489,9.489,0,0,0,.492,3,.878.878,0,0,0,0,.123h0a.044.044,0,0,0,.083,0,1.589,1.589,0,0,1-.038-.252v-.225a12.865,12.865,0,0,1,.141-2.481C69.335,282.086,69.514,280,69.207,280Zm-.173,5.7a.828.828,0,0,0,.045.327.845.845,0,0,0-.07-.239,10.878,10.878,0,0,1-.441-2.645,7.984,7.984,0,0,1,.1-1.513,6.426,6.426,0,0,1,.185-.791c0-.109.2-.791.352-.757s.121.634.121.648v.368a5,5,0,0,1-.038.757c-.045.545-.115,1.091-.179,1.636a10.212,10.212,0,0,0-.077,2.195Z" transform="translate(-54.298 -251.691)" fill="#fff"/>
      <path id="Path_4169" data-name="Path 4169" d="M73.779,284.554a6.488,6.488,0,0,1-1.918,2.181c-.4.314-.818.613-1.227.913a7.251,7.251,0,0,0-1.068.872l-.038.048a1.793,1.793,0,0,0-.217.327.058.058,0,0,1,0,.034h0v-.048h0a.123.123,0,0,0,0-.048,6.844,6.844,0,0,1,1.394-2.924,5.379,5.379,0,0,1,2.206-1.895c.224-.089.742-.348.972-.15S73.868,284.364,73.779,284.554Z" transform="translate(-54.586 -252.899)" fill="#36ccb4"/>
      <path id="Path_4170" data-name="Path 4170" d="M73.086,284.9c-.2-.218-.806.32-.959.45a10.54,10.54,0,0,0-1.279,1.3,9.583,9.583,0,0,0-1.6,2.467h0v.048h0c.077-.1.153-.2.237-.293l.038-.048a20.44,20.44,0,0,1,1.873-1.758,10.456,10.456,0,0,0,1.247-1.288C72.766,285.687,73.258,285.08,73.086,284.9Zm-.185.484a9.356,9.356,0,0,1-2.142,2.215,10.181,10.181,0,0,0-1.426,1.445,10.432,10.432,0,0,1,1.477-2.222,12.476,12.476,0,0,1,1.016-1.111,4.524,4.524,0,0,1,.639-.525,2.035,2.035,0,0,1,.422-.245c.256-.089.1.286.038.443Z" transform="translate(-54.565 -253.234)" fill="#fff"/>
      <path id="Path_4171" data-name="Path 4171" d="M67.805,291.626H67.76a9.05,9.05,0,0,1-1.963-3.067,4.873,4.873,0,0,1-.288-1.513c0-.354,0-1.063.256-1.322.575-.518,1.093,1.684,1.17,2.011.141.607.237,1.22.364,1.827s.332,1.315.518,1.97Z" transform="translate(-53.216 -253.488)" fill="#36ccb4"/>
      <path id="Path_4172" data-name="Path 4172" d="M68.014,292.047l-.09-.17a10.835,10.835,0,0,1-1.029-2.951,9.63,9.63,0,0,0-.377-1.54c-.045-.123-.192-.586-.377-.354a3.7,3.7,0,0,0,0,1.241,6.873,6.873,0,0,0,.467,1.513,10.657,10.657,0,0,0,1.279,2.263l.045.061h0A.493.493,0,0,0,68.014,292.047Zm-1.157-1.888a8.041,8.041,0,0,1-.55-1.465q-.075-.307-.121-.62a4.233,4.233,0,0,1-.038-.491c0-.4,0-.5.1-.518s.1.034.2.273a2.735,2.735,0,0,1,.16.491c.058.239.109.477.16.682.1.477.185.961.32,1.425a8.09,8.09,0,0,0,.793,1.922,12.068,12.068,0,0,1-1.023-1.7Z" transform="translate(-53.424 -253.909)" fill="#fff"/>
      <path id="Path_4173" data-name="Path 4173" d="M71.747,290.895a3.086,3.086,0,0,1-.524,1.159c-.473.682-1.08,1.281-1.6,1.942-.077.1-.153.2-.224.3a1.331,1.331,0,0,1-.07.143v-.15h0a13.511,13.511,0,0,1,.7-2.576,6.377,6.377,0,0,1,.761-1.261c.147-.177.492-.559.748-.477S71.785,290.67,71.747,290.895Z" transform="translate(-54.594 -254.863)" fill="#36ccb4"/>
      <path id="Path_4174" data-name="Path 4174" d="M71.334,290.9c-.275-.184-.991,1.179-1.087,1.363a8.883,8.883,0,0,0-.818,2.106,1.159,1.159,0,0,1-.064.245.33.33,0,0,0,0,.15,1.4,1.4,0,0,0,.07-.143l.038-.055c.058-.082.121-.17.185-.245.313-.5.639-.988.933-1.493a8.052,8.052,0,0,0,.575-1.131C71.181,291.577,71.456,290.963,71.334,290.9Zm-.077.382a17.687,17.687,0,0,1-1.816,3.176v-.041a9.286,9.286,0,0,1,1.189-2.706,5.723,5.723,0,0,1,.339-.511c.058-.068.224-.245.281-.211s.032.218.006.293Z" transform="translate(-54.603 -255.157)" fill="#fff"/>
      <path id="Path_4175" data-name="Path 4175" d="M75.172,276.5c-.825,2.045-2.992,2.965-3.925,4.907h0l-.083.177a.037.037,0,0,1-.064,0v-.075a10.986,10.986,0,0,1,1.157-3.537,5.213,5.213,0,0,1,2.02-2.29c.224-.123.639-.382.9-.177S75.275,276.234,75.172,276.5Z" transform="translate(-55.232 -250.235)" fill="#36ccb4"/>
      <path id="Path_4176" data-name="Path 4176" d="M74.427,277.084c-.109-.082-.262,0-.358.068a2.966,2.966,0,0,0-.639.457,5.223,5.223,0,0,0-1,1.268,11.438,11.438,0,0,0-1.176,2.536q-.1.305-.166.62v.075a.037.037,0,0,0,.064,0l.077-.177h0a6.669,6.669,0,0,1,.588-1.152,15.582,15.582,0,0,1,1.234-1.561C73.232,278.992,74.792,277.37,74.427,277.084Zm-.134.47a7.567,7.567,0,0,1-.978,1.261c-.339.409-.69.811-1.023,1.227a7.288,7.288,0,0,0-.722,1.063,5.8,5.8,0,0,0-.454.975,9.322,9.322,0,0,1,.326-1.016h0a15.124,15.124,0,0,1,.8-1.7h0A7.25,7.25,0,0,1,73.149,278a3.654,3.654,0,0,1,.639-.586c.269-.191.505-.307.575-.218S74.37,277.411,74.293,277.554Z" transform="translate(-55.228 -250.752)" fill="#fff"/>
      <path id="Path_4177" data-name="Path 4177" d="M71.542,280.428c-.243.566-.479,1.145-.716,1.724l-.326.811h0l-.115.293a18.6,18.6,0,0,0-.965,2.726,8.507,8.507,0,0,0-.2,1.513q0,.082,0,.164h0v1.452c0,.607.058,1.2.109,1.8v.177a.327.327,0,0,0,0,.075,2.56,2.56,0,0,0,.045.579h-.2a13.768,13.768,0,0,1-.2-1.779v-.041a1.534,1.534,0,0,1,0-.17v-.729a13.266,13.266,0,0,1,.2-2.979s0-.055,0-.082v-.177a1.554,1.554,0,0,1,.045-.164v-.048a20.086,20.086,0,0,1,.953-2.454l.192-.429c.032-.082.07-.164.109-.245l.166-.361h0c.262-.573.537-1.131.8-1.7C71.491,280.38,71.542,280.4,71.542,280.428Z" transform="translate(-54.459 -251.812)" fill="#36ccb4"/>
      <path id="Path_4178" data-name="Path 4178" d="M48.17,297.771H68.928s-2.231-5.289-4.2-6.57-7.358-2.263-10.229-1.418S48.17,297.771,48.17,297.771Z" transform="translate(-46.961 -254.705)" fill="#a6a6a6"/>
      <path id="Path_4179" data-name="Path 4179" d="M69.64,303.036H82.778s-1.6-5.044-5.862-5.187S69.64,303.036,69.64,303.036Z" transform="translate(-54.705 -257.373)" fill="#c7c7c7"/>
    </g>
    <g id="freepik--Character--inject-53" transform="translate(70.298 115.009)">
      <path id="Path_4187" data-name="Path 4187" d="M88.16,363.456H196.623s-11.674-27.625-21.966-34.325-38.447-11.839-53.548-7.429S88.16,363.456,88.16,363.456Z" transform="translate(-88.16 -205.3)" fill="#a6a6a6"/>
      <path id="Path_4188" data-name="Path 4188" d="M262.826,270.94c-1.848,14.954-43.249,64.178-43.249,64.178l-25.636-23.269,24.5-35.736s-41.625,25.9-62.447,14.136c-9.347-5.275-16.283-14.654-16.283-14.654l27.177-15.452a51.377,51.377,0,0,0,11.507.068c16.564-2.583,46.375-17.333,63.29-15.458C253.051,246.007,264.559,257.226,262.826,270.94Z" transform="translate(-106.754 -181.27)" fill="#ffc4c0"/>
      <path id="Path_4189" data-name="Path 4189" d="M271.212,271.673a34.635,34.635,0,0,0-2.6,3.544c-.895,1.247-1.8,2.474-2.685,3.721v.041c.16-.368.313-.736.473-1.1.563-1.234,1.01-2.515,1.675-3.7.038-.068-.064-.136-.1-.068-.684,1.179-1.477,2.3-2.059,3.531-.275.586-.537,1.172-.774,1.772-.134.327-.269.682-.39.988q-.095.234-.166.477c-.4.579-.786,1.159-1.17,1.752-.85,1.309-1.6,2.692-2.455,3.987a.061.061,0,0,0,.1.068c.869-1.22,1.848-2.358,2.73-3.572s1.745-2.5,2.589-3.776,1.624-2.508,2.448-3.756a37.906,37.906,0,0,0,2.474-3.851C271.3,271.687,271.25,271.632,271.212,271.673Z" transform="translate(-150.487 -189.889)" fill="#263238"/>
      <path id="Path_4190" data-name="Path 4190" d="M239.015,244.6l-34.522,38.939c-14.02,6.584-35.392,14.122-48.51,6.714C146.636,284.976,139.7,275.6,139.7,275.6l27.177-15.452a51.827,51.827,0,0,0,11.507.068C194.117,257.753,221.76,244.36,239.015,244.6Z" transform="translate(-106.751 -181.272)" opacity="0.1"/>
      <path id="Path_4191" data-name="Path 4191" d="M243.726,394.708c-1.848-.682-41.369-34.182-42.155-36.594-.32-.906,4.117-7.681,9.7-15.711l.173-.245C212.6,340.5,227.961,318.2,227.961,318.2L255,341.858l-16.4,22.595-1.016,1.022s8.452,19.214,9.059,21.967S245.561,395.417,243.726,394.708Z" transform="translate(-129.062 -204.708)" fill="#ffc4c0"/>
      <path id="Path_4192" data-name="Path 4192" d="M243.726,404.2c-1.848-.682-41.369-34.182-42.155-36.594-.32-.907,4.117-7.688,9.7-15.711l.173-.252,2.538-3.64,27.324,22.247-2.685,3.694-1.016,1.016s8.452,19.221,9.059,21.967S245.561,404.906,243.726,404.2Z" transform="translate(-129.062 -214.197)" fill="#ebebeb"/>
      <path id="Path_4193" data-name="Path 4193" d="M243.551,406.481c-1.854-.682-41.554-34.6-42.36-37.031-.313-.92,4.168-7.756,9.8-15.86l27.1,22.608s-.639.511-.537.682c1.279,2.624,8.72,19.35,9.289,21.92C247.451,401.58,245.412,407.2,243.551,406.481Z" transform="translate(-128.925 -215.977)" fill="#086d86" opacity="0.75"/>
      <path id="Path_4194" data-name="Path 4194" d="M245.837,411.88c-6.924-6.134-32.975-28.586-40.276-34.079-.064-.048-.1,0-.038.048,6.738,6.223,32.969,28.443,40.2,34.154C245.895,412.125,245.984,412.01,245.837,411.88Z" transform="translate(-130.482 -223.68)" fill="#263238"/>
      <path id="Path_4195" data-name="Path 4195" d="M261.793,412.006a19.224,19.224,0,0,0-9.033-4.6c-2.442-.334-4.782,0-5.85,1.609,0,.048.109.17.153.129,2.922-2.324,9.4-1.077,14.659,2.958C261.825,412.183,261.9,412.095,261.793,412.006Z" transform="translate(-145.421 -233.075)" fill="#263238"/>
      <path id="Path_4196" data-name="Path 4196" d="M252.58,386.41c-2.666-2.576-6.636-4.5-10.261-3.721-.141,0-.1.239,0,.273a47.468,47.468,0,0,1,9.992,3.844.22.22,0,0,0,.32-.055A.255.255,0,0,0,252.58,386.41Z" transform="translate(-143.733 -225.187)" fill="#36ccb4"/>
      <path id="Path_4197" data-name="Path 4197" d="M254.72,390.55c-2.666-2.576-6.636-4.5-10.261-3.721-.141,0-.1.245,0,.273a48.1,48.1,0,0,1,10.018,3.878.227.227,0,0,0,.323-.085.26.26,0,0,0-.08-.344Z" transform="translate(-144.505 -226.505)" fill="#36ccb4"/>
      <path id="Path_4198" data-name="Path 4198" d="M256.887,394.69c-2.672-2.576-6.642-4.5-10.229-3.721-.141.034-.1.245,0,.279a47.335,47.335,0,0,1,10,3.844.224.224,0,0,0,.256-.109A.258.258,0,0,0,256.887,394.69Z" transform="translate(-145.298 -227.823)" fill="#36ccb4"/>
      <path id="Path_4199" data-name="Path 4199" d="M259.009,398.84c-2.672-2.576-6.642-4.5-10.261-3.721-.141,0-.1.239,0,.273a47.421,47.421,0,0,1,9.992,3.844.22.22,0,0,0,.32-.055A.255.255,0,0,0,259.009,398.84Z" transform="translate(-146.051 -229.145)" fill="#36ccb4"/>
      <path id="Path_4200" data-name="Path 4200" d="M213.869,369.209c-3.2-2.658-7.032,2.6-3.874,5.262S217.052,371.867,213.869,369.209Z" transform="translate(-131.681 -220.718)" fill="#263238"/>
      <path id="Path_4201" data-name="Path 4201" d="M265.283,379.771c-.371-2.495-3.069-2.931-4.948-2.467a18.6,18.6,0,0,0-8.535,5.057.106.106,0,0,0,0,.164.5.5,0,0,0-.012.419.448.448,0,0,0,.306.263c3.094.388,6.361,1.206,9.474.573C263.417,383.4,265.628,382.109,265.283,379.771Zm-8.368,3.006c-1.528-.15-3.037-.382-4.571-.47a55.614,55.614,0,0,1,5.05-2.842,19.772,19.772,0,0,1,2.589-1.016c1.375-.4,6.009-.314,3.689,3.067-1.279,1.854-4.942,1.425-6.757,1.247Z" transform="translate(-147.167 -223.476)" fill="#36ccb4"/>
      <path id="Path_4202" data-name="Path 4202" d="M239.212,374.134c2.033,2.6,5.05,4.158,7.672,5.943a.411.411,0,0,0,.4.01.462.462,0,0,0,.238-.344.086.086,0,0,0,.082-.023.1.1,0,0,0,.027-.086,20.865,20.865,0,0,0-3.606-9.679c-1.183-1.629-3.529-3.108-5.293-1.431C237.032,370.12,238,372.621,239.212,374.134Zm-.275-3.169c.217-4.185,3.836-1.118,4.68.116a22.876,22.876,0,0,1,1.406,2.535q1.243,2.739,2.218,5.6c-1.234-.961-2.557-1.806-3.836-2.726-1.528-1.063-4.616-3.217-4.5-5.528Z" transform="translate(-142.141 -220.497)" fill="#36ccb4"/>
      <path id="Path_4203" data-name="Path 4203" d="M195.418,259l-8.413,37.153s-17.625,5.916-29.951,0A39.382,39.382,0,0,1,139.71,280.17l28.27-16.638a68.819,68.819,0,0,0,9.378.763C180.759,264.173,195.418,259,195.418,259Z" transform="translate(-106.754 -185.858)" fill="#455a64"/>
      <path id="Path_4204" data-name="Path 4204" d="M186.165,209.156c6.393,13.352,16.7,28.627,20.048,30.671,4.232,2.576,28.315,2.931,29.472,2.76,2.858-.45,3.407-23.344.332-23-4.686.511-21.346,3.953-22.58,3.142S203.017,214.4,193.4,205.775C186.76,199.825,182.2,200.868,186.165,209.156Z" transform="translate(-122.977 -167.708)" fill="#ffc4c0"/>
      <path id="Path_4205" data-name="Path 4205" d="M259.963,248.86a59.07,59.07,0,0,0,8.816,1.479c2.333.089,9.065.157,9.41-2.57.243-1.861-3.708-2.4-6.5-2.842-1.47-.239-3.459-1.281-3.28-2.3.313-1.772,4.111-1.091,6.687-.3,4.98,1.534,11.917,4.832,14.02,1.765.793-1.159-.754-2.461-2.832-3.592,3.2,1.1,6.514,1.833,7.441.586a1.684,1.684,0,0,0-.173-2.2,1.938,1.938,0,0,0,2.052-.927c.639-1.24-.121-2.6-1.464-3.865a1.14,1.14,0,0,0,.684-.791c1.176-3.606-10.453-9.944-13.949-9.9a81.091,81.091,0,0,0-20.4,3.333C257.431,231.01,259.956,248.86,259.963,248.86Z" transform="translate(-149.773 -174.526)" fill="#ffc4c0"/>
      <path id="Path_4206" data-name="Path 4206" d="M279.34,241.145a15.968,15.968,0,0,1,7.1.92c2.87,1.077,4.98,2.665,7.525,4.151.064.041,0,.157-.058.116-1.208-.682-6.144-3.265-7.39-3.81a15.352,15.352,0,0,0-7.173-1.363Z" transform="translate(-157.119 -180.149)" fill="#263238"/>
      <path id="Path_4207" data-name="Path 4207" d="M280.538,234a37.572,37.572,0,0,1,8.189.763c2.922.682,5.485,2.467,8,4.144,1.509,1,3,2.045,4.475,3.122.058.048,0,.157-.058.109q-3.836-2.61-7.825-4.969a20.337,20.337,0,0,0-7.953-2.774c-1.6-.2-3.2-.279-4.82-.348C280.513,234.066,280.506,234,280.538,234Z" transform="translate(-157.544 -177.895)" fill="#263238"/>
      <path id="Path_4208" data-name="Path 4208" d="M283.4,227.282a19.649,19.649,0,0,1,7.4.593,35.851,35.851,0,0,1,8.145,4.362c1.374.947,2.723,1.943,4.053,2.958.058.041,0,.143-.064.1a83.4,83.4,0,0,0-9.442-5.957,16.036,16.036,0,0,0-4.916-1.8,27.974,27.974,0,0,0-5.178-.239Z" transform="translate(-158.583 -175.733)" fill="#263238"/>
      <path id="Path_4209" data-name="Path 4209" d="M195.161,228.261l7.595-17.094a114.2,114.2,0,0,0-11.1-8.445c-6.527-4.383-9.73-2-5.85,8.288a71.686,71.686,0,0,0,9.359,17.251Z" transform="translate(-122.773 -167.272)" fill="#36ccb4"/>
      <path id="Path_4210" data-name="Path 4210" d="M205.819,214.35c-.7,1.193-1.234,2.515-1.835,3.769s-1.151,2.4-1.688,3.612q-1.669,3.79-3.2,7.654c0,.041.045.082.07.034q1.777-3.681,3.459-7.409c.563-1.241,1.087-2.495,1.617-3.749s1.176-2.549,1.63-3.878C205.9,214.343,205.838,214.3,205.819,214.35Z" transform="translate(-128.176 -171.634)" fill="#263238"/>
      <path id="Path_4211" data-name="Path 4211" d="M185.8,211.068a71.686,71.686,0,0,0,9.359,17.251l6.348-14.313-15.816-13.2C183.69,201.526,183.453,204.859,185.8,211.068Z" transform="translate(-122.771 -167.33)" opacity="0.1"/>
      <path id="Path_4212" data-name="Path 4212" d="M139.12,258.853l48.337-6.373-3.126-17.449s3.331-4.962,2.794-10.3C186.4,217.6,175.937,204.5,175.087,203.7c-3.42-3.231-6.956-3.715-10.312-2.413C150.794,206.712,139.12,258.853,139.12,258.853Z" transform="translate(-106.541 -167.268)" fill="#01686d"/>
      <path id="Path_4213" data-name="Path 4213" d="M175.688,205.165l-16.174,2.113c.185-.232.371-.457.556-.682l15.068-1.977.371.341Zm2.941,3.735-22.184,2.9-.377.682,22.957-3.006Zm3.011,4.321-27.905,3.653-.3.641L182,213.774Zm2.666,4.369-32.841,4.328-.268.634,33.416-4.376Zm2.154,4.444-37,4.839c-.077.211-.16.423-.237.627l37.45-4.9C186.614,222.416,186.537,222.225,186.46,222.035Zm1.132,4.567-39.937,5.228-.211.627,40.161-5.262c0-.191-.006-.4-.013-.593Zm-41.586,10.162c-.07.2-.134.416-.2.62l40.973-5.357c.064-.2.128-.409.2-.62Zm38.767-.354-40.308,5.276c-.064.211-.121.423-.185.627l40.6-5.316Zm.825,4.608-42.564,5.575-.173.62,42.833-5.609Zm.825,4.614-44.751,5.855c-.051.211-.109.416-.166.62l45.007-5.889Zm.825,4.608-46.809,6.134c-.051.218-.1.423-.147.62l47.065-6.134Z" transform="translate(-106.963 -168.543)" fill="#fff"/>
      <path id="Path_4214" data-name="Path 4214" d="M187.459,246.16a37.731,37.731,0,0,1,5.952.184c.985.123,1.95.293,2.922.491.486.1.972.17,1.458.252a6.091,6.091,0,0,0,1.534.082.037.037,0,0,1,.046.012.043.043,0,0,1,0,.05.037.037,0,0,1-.046.012,9.393,9.393,0,0,1-1.451.177,8.925,8.925,0,0,1-1.413-.075c-1-.116-1.988-.279-2.979-.4-2.007-.259-4.015-.511-6.035-.607a.087.087,0,0,1-.077-.1A.085.085,0,0,1,187.459,246.16Z" transform="translate(-123.945 -181.756)" fill="#263238"/>
      <path id="Path_4215" data-name="Path 4215" d="M180.258,249.388a41.657,41.657,0,0,1,4.839-.947,24.376,24.376,0,0,1,2.449-.191h1.17c.39,0,.863.055,1.279.041.045,0,.051.075,0,.075a10.41,10.41,0,0,0-1.215.164l-1.221.143-2.436.286c-1.63.177-3.248.368-4.871.6C180.188,249.545,180.182,249.443,180.258,249.388Z" transform="translate(-121.36 -182.435)" fill="#263238"/>
      <path id="Path_4216" data-name="Path 4216" d="M204.971,193.79c2.557.2,8.145,3.946,9.244,7.981s-.6,9.454-1.8,9.651-5.613-1.649-8.209-4.464S203.725,193.694,204.971,193.79Z" transform="translate(-129.573 -165.094)" fill="#263238"/>
      <path id="Path_4217" data-name="Path 4217" d="M206.066,193.732c-.077-.041-.045-.191.045-.164a21.831,21.831,0,0,1,5.933,3.306,12.89,12.89,0,0,1,3.912,3.681,6.562,6.562,0,0,1,.774,5.132,13.08,13.08,0,0,1-2.794,5.712c-.038.041-.128,0-.09-.068,1.995-3.408,4.092-7.641,1.355-11.253C212.868,197.01,209.2,195.572,206.066,193.732Z" transform="translate(-130.673 -165.023)" fill="#263238"/>
      <path id="Path_4218" data-name="Path 4218" d="M214.345,218.087c2,.947,6.227,6.884,5.952,11.389s-5.223,9.713-6.393,9.842-4.609-5.378-5.281-8.82c-.441-2.3.991-4.362,2.091-6.516C212.357,220.8,214.039,217.937,214.345,218.087Z" transform="translate(-131.582 -172.829)" fill="#263238"/>
      <path id="Path_4219" data-name="Path 4219" d="M206.959,229.578c.582-4.492,4.053-8.022,6.508-11.464,0-.034.089,0,.064.041-1.8,3.483-4.839,6.134-5.984,10.033a7.874,7.874,0,0,0,.831,6.816,20.742,20.742,0,0,0,4.6,4.144.107.107,0,0,1-.128.17C209.618,236.912,206.351,234.213,206.959,229.578Z" transform="translate(-130.984 -172.835)" fill="#263238"/>
      <path id="Path_4220" data-name="Path 4220" d="M218.13,218.8c-.089-.089,0-.239.121-.157,2.557,2.433,5.492,5.746,6.182,9.44.748,4.008-1.982,7.082-4.379,9.719,0,.034-.083,0-.051-.048,2.385-2.692,5.076-6.134,4.072-10.108C223.206,224.208,220.514,221.14,218.13,218.8Z" transform="translate(-135.027 -172.999)" fill="#263238"/>
      <path id="Path_4221" data-name="Path 4221" d="M205.479,249a9.578,9.578,0,0,0-5.2,5.535c-1.816,5.023-3.459,3.592-9.052,3.8a5.769,5.769,0,0,0-4.839,8.513s-.748-3.619,2.6-4.573c4-1.138,11.507,4.771,16.692.2C212.4,256.566,205.479,249,205.479,249Z" transform="translate(-123.335 -182.674)" fill="#263238"/>
      <path id="Path_4222" data-name="Path 4222" d="M202.987,251.8a.084.084,0,0,0-.1-.136,7.574,7.574,0,0,0-1.918,1.936c-.639,1-.921,2.188-1.515,3.224-1.528,2.638-4.731,1.827-7.109,1.486-3.2-.457-6.105,1.029-6.981,4.512a.043.043,0,0,0,.012.049.036.036,0,0,0,.047,0,.043.043,0,0,0,.012-.049,5.864,5.864,0,0,1,4.315-4.314c1.995-.423,3.976.47,5.977.4a4.356,4.356,0,0,0,3.644-1.568,12.761,12.761,0,0,0,1.048-2.256A8.308,8.308,0,0,1,202.987,251.8Z" transform="translate(-123.222 -183.518)" fill="#263238"/>
      <path id="Path_4223" data-name="Path 4223" d="M209.025,250.15s-.077,0-.058.041c1.419,2.263,2.934,4.56,2.915,7.409a8.117,8.117,0,0,1-4.533,7c-2.813,1.452-5.236-.068-7.838-1.234a10.816,10.816,0,0,0-5.907-1.24c-.064,0-.051.116,0,.116,3.254-.082,5.9,1.534,8.848,2.726a5.953,5.953,0,0,0,6.553-1.22C213.437,259.978,212.279,254.308,209.025,250.15Z" transform="translate(-126.179 -183.04)" fill="#263238"/>
      <path id="Path_4224" data-name="Path 4224" d="M209.815,191.171a.837.837,0,0,1,1.154.279.969.969,0,0,1-.176,1.248.837.837,0,0,1-1.154-.279.969.969,0,0,1,.176-1.248Z" transform="translate(-131.923 -164.221)" fill="#36ccb4"/>
      <path id="Path_4225" data-name="Path 4225" d="M208.1,193.054a.831.831,0,0,1,1.2.239.96.96,0,0,1-.224,1.281.831.831,0,0,1-1.2-.239A.96.96,0,0,1,208.1,193.054Z" transform="translate(-131.286 -164.809)" fill="#36ccb4"/>
      <path id="Path_4226" data-name="Path 4226" d="M206.126,194.644a.831.831,0,0,1,1.2.239.96.96,0,0,1-.224,1.281C206.2,196.88,205.218,195.333,206.126,194.644Z" transform="translate(-130.58 -165.315)" fill="#36ccb4"/>
      <path id="Path_4227" data-name="Path 4227" d="M204.008,195.919c.908-.682,1.886.832.978,1.52a.831.831,0,0,1-1.2-.239.96.96,0,0,1,.224-1.281Z" transform="translate(-129.811 -165.718)" fill="#36ccb4"/>
      <path id="Path_4228" data-name="Path 4228" d="M201.669,196.849c.908-.682,1.886.832.972,1.52a.83.83,0,0,1-1.177-.257A.96.96,0,0,1,201.669,196.849Z" transform="translate(-128.975 -166.014)" fill="#36ccb4"/>
      <path id="Path_4229" data-name="Path 4229" d="M199.27,197.31c.908-.682,1.918.838.972,1.527S198.356,198,199.27,197.31Z" transform="translate(-128.103 -166.16)" fill="#36ccb4"/>
      <path id="Path_4230" data-name="Path 4230" d="M184.38,197c-.038.9,2.327,7.5,6,8.37,1.189.286,2.941-6.6,2.941-6.6l.243-.47,3.331-6.68-7.4-8.7S184.393,196.606,184.38,197Z" transform="translate(-122.866 -161.633)" fill="#ffc4c0"/>
      <path id="Path_4231" data-name="Path 4231" d="M198.849,191.624l-3.331,6.673a15.4,15.4,0,0,1-5.8-10.694c.869-2.372,1.6-4.349,1.707-4.642a.206.206,0,0,0,0-.041l.953,1.043Z" transform="translate(-124.793 -161.633)" fill="#263238"/>
      <path id="Path_4232" data-name="Path 4232" d="M209.31,173.99c-2.116,13.073-9.7,13.2-12.345,12.712-2.4-.443-10.516-2.283-9.679-15.52s7.2-16.317,12.741-15.615S211.419,160.917,209.31,173.99Z" transform="translate(-123.893 -152.894)" fill="#ffc4c0"/>
      <path id="Path_4233" data-name="Path 4233" d="M218.678,178.9a8.369,8.369,0,0,1-.774-.4,1.437,1.437,0,0,1-.716-.566.505.505,0,0,1,.128-.566,1.053,1.053,0,0,1,1.112,0,1.657,1.657,0,0,1,.85.845.537.537,0,0,1-.092.55A.459.459,0,0,1,218.678,178.9Z" transform="translate(-134.687 -159.817)" fill="#263238"/>
      <path id="Path_4234" data-name="Path 4234" d="M205.985,177.414a7.182,7.182,0,0,0,.857,0,1.318,1.318,0,0,0,.882-.15.483.483,0,0,0,.128-.559,1.075,1.075,0,0,0-.985-.538,1.539,1.539,0,0,0-1.119.334.522.522,0,0,0-.181.545.482.482,0,0,0,.418.368Z" transform="translate(-130.503 -159.48)" fill="#263238"/>
      <path id="Path_4235" data-name="Path 4235" d="M207.437,181.48a.076.076,0,0,0-.077.068c-.16.886-.473,1.874-1.279,1.99,0,0-.032.048,0,.055C207.015,183.668,207.425,182.352,207.437,181.48Z" transform="translate(-130.69 -161.175)" fill="#263238"/>
      <path id="Path_4236" data-name="Path 4236" d="M206.559,179.86c-1.311-.423-2,2.4-.793,2.788S207.652,180.208,206.559,179.86Z" transform="translate(-130.355 -160.645)" fill="#263238"/>
      <path id="Path_4237" data-name="Path 4237" d="M205.574,179.64c-.275.1-.569.314-.85.266s-.505-.416-.639-.763c0-.034-.045,0-.051,0a1.1,1.1,0,0,0,.441,1.363c.479.211.953-.17,1.208-.682C205.728,179.777,205.683,179.606,205.574,179.64Z" transform="translate(-129.926 -160.426)" fill="#263238"/>
      <path id="Path_4238" data-name="Path 4238" d="M215.688,183.14s.058.061.045.1c-.249.866-.4,1.9.275,2.4v.048C215.139,185.287,215.324,183.917,215.688,183.14Z" transform="translate(-134.05 -161.703)" fill="#263238"/>
      <path id="Path_4239" data-name="Path 4239" d="M216.7,182.1c1.343.273.729,3.115-.511,2.863S215.572,181.879,216.7,182.1Z" transform="translate(-134.094 -161.369)" fill="#263238"/>
      <path id="Path_4240" data-name="Path 4240" d="M218.073,182.578c.179.2.332.525.575.607s.569-.164.818-.416c0,0,.045,0,.038.041-.1.545-.4,1.07-.908,1.056s-.69-.559-.7-1.131C217.9,182.633,218,182.5,218.073,182.578Z" transform="translate(-134.957 -161.516)" fill="#263238"/>
      <path id="Path_4241" data-name="Path 4241" d="M204.979,192.236c.128.273.23.62.511.75a2.172,2.172,0,0,0,.933.1c.032,0,.045.034,0,.055a1.079,1.079,0,0,1-1.164.089.975.975,0,0,1-.39-.981.058.058,0,0,1,.048-.065A.056.056,0,0,1,204.979,192.236Z" transform="translate(-130.251 -164.583)" fill="#263238"/>
      <path id="Path_4242" data-name="Path 4242" d="M210.158,184.757s-.173,1.363-.332,1.963c0,.055-.166.041-.364,0h0a2.865,2.865,0,0,1-2.372-1.874.07.07,0,0,1,.033-.074.061.061,0,0,1,.076.013,4.258,4.258,0,0,0,2.3,1.506c.09-.157.224-2.324.32-2.3a5.161,5.161,0,0,1,1.221.682c.435-2.8.448-5.657.921-8.438a.082.082,0,0,1,.16,0,49.27,49.27,0,0,1-.639,9.126C211.424,185.738,210.356,184.913,210.158,184.757Z" transform="translate(-131.057 -159.483)" fill="#263238"/>
      <path id="Path_4243" data-name="Path 4243" d="M209.169,190.534a3.4,3.4,0,0,1-1.56.872,1.465,1.465,0,0,1-.94-.109c-.639-.32-.556-.981-.339-1.527a4.034,4.034,0,0,1,.448-.811,4.443,4.443,0,0,0,2.391,1.574Z" transform="translate(-130.727 -163.556)" fill="#263238"/>
      <path id="Path_4244" data-name="Path 4244" d="M207.609,191.786a1.465,1.465,0,0,1-.94-.109c-.639-.32-.556-.981-.339-1.527A1.685,1.685,0,0,1,207.609,191.786Z" transform="translate(-130.727 -163.935)" fill="#ff9cbd"/>
      <path id="Path_4245" data-name="Path 4245" d="M187.447,172.143c1.362.143,5.466-3.21,6.617-10.135,0,0-1.438,6.134-2.014,6.979s2.3-1.888,3.3-7.457a21.5,21.5,0,0,0,4.935,3.892c2.378,1.166,3.893,1.4,4.1,1.24s-3.26-2.011-4.066-3.408c0,0,6.105,4.4,9.11,5.16.345.089,1.918-7.552-2.282-11.587s-12.185-1.813-14.5-.089c0,0-.511-.368-3.618,2.9S185.963,171.986,187.447,172.143Z" transform="translate(-123.619 -152.601)" fill="#263238"/>
      <path id="Path_4246" data-name="Path 4246" d="M209.414,159.235c-1.426-.334-9.34.082-12.869,1.786s-9.743,7.293-10.063,7.586-2.2-13.591,8.311-16.358C206.294,149.256,209.414,159.235,209.414,159.235Z" transform="translate(-123.505 -151.689)" fill="#31c4ab"/>
      <path id="Path_4247" data-name="Path 4247" d="M187.61,168.688s6.815-9.985,10.664-12.316,12.53-3.776,17.958-1.363c4.232,1.881-5.913,7.852-5.913,7.852a4.006,4.006,0,0,0-1.918-2.249c-2.64-1.056-7.333,0-10.152,1.1C194.681,163.065,187.61,168.688,187.61,168.688Z" transform="translate(-124.032 -152.349)" fill="#36ccb4"/>
      <g id="Group_101" data-name="Group 101" transform="translate(63.578 1.414)" opacity="0.2">
        <path id="Path_4248" data-name="Path 4248" d="M187.61,168.688s6.815-9.985,10.664-12.316,12.53-3.776,17.958-1.363c4.232,1.881-5.913,7.852-5.913,7.852a4.006,4.006,0,0,0-1.918-2.249c-2.64-1.056-7.333,0-10.152,1.1C194.681,163.065,187.61,168.688,187.61,168.688Z" transform="translate(-187.61 -153.764)"/>
      </g>
      <path id="Path_4249" data-name="Path 4249" d="M187.391,178.528s-1.637-4.771-3.586-4.219-1.413,6.877.4,8.234a2.007,2.007,0,0,0,1.586.486,2.076,2.076,0,0,0,1.425-.888Z" transform="translate(-122.214 -158.877)" fill="#ffc4c0"/>
      <path id="Path_4250" data-name="Path 4250" d="M184.81,177v.055a5.732,5.732,0,0,1,1.809,4.178,1.223,1.223,0,0,0-.627-.79,1.1,1.1,0,0,0-.971-.008.049.049,0,0,0,0,.089,1.275,1.275,0,0,1,1.279.852,6.8,6.8,0,0,1,.364,1.363c.038.15.281.143.268,0h0C187.412,180.783,186.683,177.729,184.81,177Z" transform="translate(-123.022 -159.748)" fill="#263238"/>
      <path id="Path_4251" data-name="Path 4251" d="M162.354,207.787c-5.856,9.638-18.13,42.667-11.769,47.588s36.523-7.4,44.706-13.141c2.429-1.7-9.711-17.558-12.824-17.51-2.589.034-14.231,7.988-14.7,7.238s.972-7.613,2.557-20.148C172.1,197.373,165.711,202.239,162.354,207.787Z" transform="translate(-110.034 -167.805)" fill="#ffc4c0"/>
      <path id="Path_4252" data-name="Path 4252" d="M220.55,220.6c6.208-1.868,8.074-1.363,12.524-5.882,2.922-2.979,5.965-2.27,4.629,1.983-2.186,6.952-9.724,11.164-12.728,11.819Z" transform="translate(-135.913 -171.182)" fill="#ffc4c0"/>
      <path id="Path_4253" data-name="Path 4253" d="M195.57,232.749a64.816,64.816,0,0,1,13-7.954c4.475-1.861,14.544-4.771,25.777,4.6,2.666,2.222,4.987,7.4-.6,5.453-3.97-1.363-6.092-3.531-8.541-3.885,0,0,2.218,6.959,0,9.719a64.719,64.719,0,0,1-6.208,6.775,13.283,13.283,0,0,1-1.279-1.125s-2.276,2.372-7.109,2.59Z" transform="translate(-126.903 -174.35)" fill="#ffc4c0"/>
      <path id="Path_4254" data-name="Path 4254" d="M223,224.16c2.359.893,7.326,2.89,10.868,6.032,3.919,3.483,10.593,11.321,8.151,14.381-1.79,2.249-4.59-.511-4.59-.511s2.122,3.865.083,5.514c-1.854,1.506-3.893-.763-3.893-.763s.908,2.576-1.138,3.653c-2.468,1.3-3.964-4.314-7.525-5.3C224.119,246.952,223,224.16,223,224.16Z" transform="translate(-136.797 -174.765)" fill="#ffc4c0"/>
      <path id="Path_4255" data-name="Path 4255" d="M233.441,238.589a21.344,21.344,0,0,1,7.736,9.958c0,.109,0,.191-.077.1a52.9,52.9,0,0,0-7.672-10.026S233.415,238.575,233.441,238.589Z" transform="translate(-140.557 -179.358)" fill="#263238"/>
      <path id="Path_4256" data-name="Path 4256" d="M228.452,244.929a24.331,24.331,0,0,1,7.16,10.435c.032.109,0,.191-.077.1a57.4,57.4,0,0,0-7.115-10.483S228.426,244.915,228.452,244.929Z" transform="translate(-138.752 -181.377)" fill="#263238"/>
      <path id="Path_4257" data-name="Path 4257" d="M241.883,234.421a16.617,16.617,0,0,1,5.536,2.256,27.81,27.81,0,0,0,2.89,1.4c.908.361,2.238.913,3.037,0a1.944,1.944,0,0,0,.147-1.854,8.925,8.925,0,0,0-1.458-2.331s0-.068.038-.048a12.571,12.571,0,0,1,1.528,2.045,3.053,3.053,0,0,1,.409,1.684A1.911,1.911,0,0,1,251.556,239a8.745,8.745,0,0,1-1.733-.6c-.543-.232-1.068-.491-1.592-.763-1.074-.566-2.116-1.193-3.2-1.765a25.638,25.638,0,0,0-3.2-1.4.043.043,0,0,1,.007-.042.037.037,0,0,1,.038-.013Z" transform="translate(-143.591 -177.848)" fill="#263238"/>
      <path id="Path_4258" data-name="Path 4258" d="M247.217,241.8a69.2,69.2,0,0,0-5.357-7.041l.038-.048a35.442,35.442,0,0,1,5.754,6.611,12.318,12.318,0,0,1,1.88,4.451c.3,2.3-1.074,2.944-1.592,3.135a2.649,2.649,0,0,1-1.873-.055,5.644,5.644,0,0,1-1.88-1.418s0-.075.038-.048a3.858,3.858,0,0,0,3.369,1.166,1.963,1.963,0,0,0,1.234-.961,2.894,2.894,0,0,0,.109-1.9,13.166,13.166,0,0,0-1.72-3.892Z" transform="translate(-143.6 -178.124)" fill="#263238"/>
      <path id="Path_4259" data-name="Path 4259" d="M233.011,253.37c.793,1.506,1.739,3.483.722,5.153a2.745,2.745,0,0,1-2.385,1.111,3.646,3.646,0,0,1-2.34-1.3l.479-.239a3.878,3.878,0,0,1-.435,3.292,2.161,2.161,0,0,1-3.081.368c-1.688-1.288-2.493-3.285-4.264-4.437l.364-.048a6.183,6.183,0,0,1-4.315,1.363c-1.694.927-5.114,2.774-6.847,3.681,1.669-1.009,5.012-3.019,6.687-4.008,1.47-.164,3.2-.443,4.232-1.643a11.117,11.117,0,0,1,2.474,2.317,10.614,10.614,0,0,0,2.014,2.188,1.632,1.632,0,0,0,1.817.178,1.852,1.852,0,0,0,.945-1.664,12.473,12.473,0,0,0-.294-2.495l.639.75c.978,1.275,2.947,1.711,4.021.334s.173-3.449-.441-4.921Z" transform="translate(-132.436 -184.059)" fill="#263238"/>
      <path id="Path_4260" data-name="Path 4260" d="M175.061,245.82a38.99,38.99,0,0,1-5.971,3.987A18.551,18.551,0,0,1,175.061,245.82Z" transform="translate(-117.352 -181.661)" fill="#263238"/>
      <path id="Path_4262" data-name="Path 4262" d="M173.21,229.34c-1.323,0-2.659.164-3.976.259s-2.519.184-3.772.32q-3.913.423-7.8,1.009c-.045,0-.038.089,0,.089,2.557-.177,5.166-.4,7.748-.682,1.279-.123,2.557-.279,3.836-.443s2.659-.232,3.957-.5a.043.043,0,0,0,.006-.048Z" transform="translate(-113.218 -176.414)" fill="#263238"/>
      <path id="Path_4263" data-name="Path 4263" d="M181.881,227.706c.1-.682.166-1.363.23-2.045a1.884,1.884,0,0,1,.032-.423q.381-1.228.639-2.495h-.045c-.211.627-.384,1.261-.537,1.9.083-1.05.153-2.106.141-3.156h-.051c-.211,1.363-.326,2.726-.492,4.09-.077.682-.39,3.933-.428,3.946s-1.47.2-1.56.245-.051.13,0,.13l1.822-.184S181.83,228.285,181.881,227.706Z" transform="translate(-121.199 -173.914)" fill="#263238"/>
      <path id="Path_4326" data-name="Path 4326" d="M0,.039,47.477,0l0,2.27L0,2.309Z" transform="translate(79.984 76.004) rotate(-0.72)" fill="#455a64"/>
      <path id="Path_4264" data-name="Path 4264" d="M271.489,262.31l.026,2.27-28.474.382,1.6-2.29Z" transform="translate(-144.026 -186.912)" fill="#37474f"/>
      <path id="Path_4265" data-name="Path 4265" d="M254.06,250.095l46.266-.62,3.459-33.554-46.266.627Z" transform="translate(-148 -172.141)" fill="#f3f3f3"/>
      <path id="Path_4266" data-name="Path 4266" d="M257.85,250.048l46.266-.62,3.459-33.548-46.272.62Z" transform="translate(-149.368 -172.128)" fill="#fbfbfb"/>
      <path id="Path_4267" data-name="Path 4267" d="M292.33,239.58a3.046,3.046,0,0,0,.815,2.11,2.675,2.675,0,0,0,1.985.855,2.978,2.978,0,0,0,2.832-3.04,3.046,3.046,0,0,0-.816-2.11,2.675,2.675,0,0,0-1.985-.855,2.978,2.978,0,0,0-2.832,3.04Z" transform="translate(-161.805 -178.706)" fill="#afafaf"/>
      <path id="Path_4268" data-name="Path 4268" d="M396.446,353.24c-.639,1.977-31.709,44.392-33.96,45.257-.85.348-7.25-4.328-14.819-10.224l-.237-.184c-1.566-1.213-22.081-16.678-22.081-16.678l21.429-29.751,21.333,17.3.965,1.07s17.952-9.174,20.521-9.849S397.092,351.277,396.446,353.24Z" transform="translate(-173.715 -212.178)" fill="#ffc4c0"/>
      <path id="Path_4269" data-name="Path 4269" d="M406.6,357.152c-.639,1.977-31.709,44.392-33.96,45.257-.85.341-7.25-4.328-14.819-10.224l-.237-.184-4.091-3.108,20.892-29.172,3.881,3.142.965,1.077s17.952-9.174,20.521-9.849S407.242,355.189,406.6,357.152Z" transform="translate(-183.865 -216.09)" fill="#ebebeb"/>
      <path id="Path_4270" data-name="Path 4270" d="M409.468,357.033c-.639,1.99-32.093,44.6-34.369,45.482-.863.341-7.314-4.376-14.96-10.312l20.969-29.083s.479.682.671.566c2.449-1.363,18.073-9.46,20.458-10.094C404.846,352.923,410.12,355.043,409.468,357.033Z" transform="translate(-186.264 -215.937)" fill="#01686d" opacity="0.8"/>
      <path id="Path_4271" data-name="Path 4271" d="M416.063,357.552c-5.7,7.436-26.531,35.4-31.613,43.219-.045.068,0,.1.045.041,5.754-7.238,26.4-35.395,31.684-43.151C416.293,357.484,416.184,357.4,416.063,357.552Z" transform="translate(-195.026 -217.213)" fill="#263238"/>
      <path id="Path_4272" data-name="Path 4272" d="M417.846,356.1a21.62,21.62,0,0,0-4.232,9.672c-.288,2.61,0,5.1,1.553,6.223.045,0,.16-.123.121-.17-2.206-3.088-1.093-10.013,2.647-15.677C418.013,356.058,417.929,356.018,417.846,356.1Z" transform="translate(-205.516 -216.762)" fill="#263238"/>
      <path id="Path_4273" data-name="Path 4273" d="M391.31,371.227c-2.4,2.869-4.162,7.116-3.4,10.974,0,.15.224.1.256,0a55.227,55.227,0,0,1,3.523-10.694.256.256,0,0,0-.066-.328.221.221,0,0,0-.311.049Z" transform="translate(-196.216 -221.563)" fill="#263238"/>
      <path id="Path_4274" data-name="Path 4274" d="M395.43,369.076c-2.391,2.863-4.162,7.109-3.4,10.967.032.15.23.1.256,0a55.621,55.621,0,0,1,3.5-10.708.247.247,0,0,0-.086-.267A.213.213,0,0,0,395.43,369.076Z" transform="translate(-197.702 -220.892)" fill="#36ccb4"/>
      <path id="Path_4275" data-name="Path 4275" d="M399.56,366.872c-2.4,2.863-4.162,7.116-3.4,10.974,0,.15.224.1.256,0a54.736,54.736,0,0,1,3.523-10.687.257.257,0,0,0-.054-.344A.222.222,0,0,0,399.56,366.872Z" transform="translate(-199.191 -220.173)" fill="#36ccb4"/>
      <path id="Path_4276" data-name="Path 4276" d="M403.68,364.7c-2.391,2.869-4.162,7.116-3.4,10.974.032.15.23.1.256,0a55.662,55.662,0,0,1,3.523-10.694.256.256,0,0,0-.066-.328.221.221,0,0,0-.311.049Z" transform="translate(-200.678 -219.484)" fill="#36ccb4"/>
      <path id="Path_4277" data-name="Path 4277" d="M375.714,409.4c-2.461,3.408,2.506,7.5,4.974,4.09S378.214,405.993,375.714,409.4Z" transform="translate(-191.641 -233.34)" fill="#263238"/>
      <path id="Path_4278" data-name="Path 4278" d="M384.627,356.82c-2.333.416-2.717,3.3-2.27,5.3a20.617,20.617,0,0,0,4.82,9.058.1.1,0,0,0,.153,0,.411.411,0,0,0,.4.015.46.46,0,0,0,.243-.335c.339-3.3,1.08-6.816.46-10.1C388.035,358.8,386.807,356.432,384.627,356.82Zm2.9,8.895c-.128,1.629-.332,3.244-.4,4.873a59.88,59.88,0,0,1-2.7-5.35,22.243,22.243,0,0,1-.978-2.726c-.384-1.465-.345-6.407,2.845-3.967,1.732,1.322,1.362,5.235,1.208,7.17Z" transform="translate(-194.219 -216.992)" fill="#36ccb4"/>
      <path id="Path_4279" data-name="Path 4279" d="M379,385.621c2.417-2.195,3.836-5.419,5.511-8.234a.491.491,0,0,0,.008-.43.438.438,0,0,0-.327-.251.106.106,0,0,0-.027-.087.092.092,0,0,0-.082-.029,18.211,18.211,0,0,0-9.04,3.926c-1.515,1.275-2.89,3.79-1.279,5.657C375.252,387.945,377.592,386.9,379,385.621Zm-2.966.32c-3.932-.191-1.087-4.09.064-4.989a19.977,19.977,0,0,1,2.365-1.52,55.7,55.7,0,0,1,5.236-2.42c-.889,1.363-1.669,2.726-2.512,4.09-1.01,1.629-2.992,4.942-5.153,4.839Z" transform="translate(-190.917 -223.3)" fill="#36ccb4"/>
      <path id="Path_4280" data-name="Path 4280" d="M294.878,324.486,274.337,354.04,204.59,301.469l-7.294-5.4s-2.059,1.486-5.166,3.313c-4.322,2.542-10.644,5.766-16.238,6.645-9.385,1.479-25.054,1.322-32.962-9.958-6.661-9.494-3.043-21.879-3.043-21.879l10.305-4.717s18.591-15.5,39.208-20.448c10.229-2.44,19.748,5.957,28.724,11.948C226.805,266.783,294.878,324.486,294.878,324.486Z" transform="translate(-106.464 -182.545)" fill="#ffc4c0"/>
      <path id="Path_4281" data-name="Path 4281" d="M220.8,312.423s-2.059,1.486-5.166,3.313c-5.5-7.007-11.213-15.329-11.565-15.786Z" transform="translate(-129.969 -198.897)" opacity="0.1"/>
      <path id="Path_4282" data-name="Path 4282" d="M238.394,324.185c3.58,2.979,7.3,5.8,11.015,8.6s7.4,5.582,11.149,8.288c1.08.777,5.428,4.008,6.534,4.567a.055.055,0,0,0,.064.012.062.062,0,0,0,.034-.06.061.061,0,0,0-.04-.055c-.978-.743-4.673-3.81-5.594-4.526-1.8-1.411-3.618-2.794-5.434-4.185-3.682-2.808-7.4-5.589-11.143-8.309-2.129-1.54-4.245-3.094-6.393-4.56C238.426,323.871,238.266,324.083,238.394,324.185Z" transform="translate(-142.333 -206.536)" fill="#263238"/>
      <path id="Path_4283" data-name="Path 4283" d="M175.222,255.58s-2.634,22.983-1.975,27.631,8.113,23.971,8.113,23.971-26.851,7.7-36.216-4.192-6.393-23.01-5.4-26.582l10.306-4.717S158.319,262.948,175.222,255.58Z" transform="translate(-106.318 -184.769)" fill="#f3f3f3"/>
      <path id="Path_4284" data-name="Path 4284" d="M185.832,256.856l8.151-3.8s-1.656,26.4-1.33,28.627,7.358,25.512,7.358,25.512l-8.822,1.179s-5.754-19.18-6.316-24.394C184.33,278.919,185.832,256.856,185.832,256.856Z" transform="translate(-123.002 -183.967)" fill="#eee"/>
      <path id="Path_4285" data-name="Path 4285" d="M161.448,268.587c-1.458,1.077-2.864,2.222-4.3,3.333s-2.877,2.113-4.219,3.3-2.685,2.508-3.964,3.81c-.639.627-1.24,1.261-1.841,1.908a17.925,17.925,0,0,0-1.758,2.045c-.045.068.051.15.109.109a20.563,20.563,0,0,0,1.956-1.7c.684-.613,1.355-1.234,2.033-1.847,1.279-1.193,2.647-2.345,3.957-3.537s2.5-2.481,3.791-3.674,2.826-2.481,4.258-3.694C161.506,268.614,161.48,268.559,161.448,268.587Z" transform="translate(-108.789 -188.908)" fill="#263238"/>
      <path id="Path_4286" data-name="Path 4286" d="M195.666,254.146c13-6.23,19.556-8.561,32.6-.62,3.331,2,6.508,4.26,9.641,6.57,12.447,9.379,24.37,19.493,36.229,29.69-14.455-11.417-30.878-25.9-46.157-35.722-13.067-7.995-19.147-5.65-32.323.082Z" transform="translate(-126.935 -182.504)" fill="#263238"/>
    </g>
    <g id="freepik--Backpack--inject-53" transform="translate(58.931 199.744)">
      <path id="Path_4287" data-name="Path 4287" d="M73.12,357.574H117.4l-.844-61.595a3.7,3.7,0,0,0-3.586-3.769H79.724a6.015,6.015,0,0,0-5.811,6.134Z" transform="translate(-71.368 -281.168)" fill="#263238"/>
      <path id="Path_4288" data-name="Path 4288" d="M73.12,362.656h43.786a2.218,2.218,0,0,0,1.654-.76,2.529,2.529,0,0,0,.622-1.8l-2.557-51.923-42.641.334Z" transform="translate(-71.368 -286.25)" fill="#36ccb4"/>
      <path id="Path_4289" data-name="Path 4289" d="M73.12,362.656h43.786a2.218,2.218,0,0,0,1.654-.76,2.529,2.529,0,0,0,.622-1.8l-2.557-51.923-5.552.043-37.089.29Z" transform="translate(-71.368 -286.25)" fill="#505050" opacity="0.1"/>
      <path id="Path_4290" data-name="Path 4290" d="M106.507,357.58l-.569-54.486s-.083-6.25,1.419-8.861c.889-1.547,6.623-1.943,7.5.477a23.4,23.4,0,0,1,.793,6.591l-.07-5.664a3.344,3.344,0,0,0-3.235-3.408H78.218a5.637,5.637,0,0,0-5.453,5.746l-.224,21.231a8.443,8.443,0,0,0-1.17,2.29c-.582,9.229-.889,27.011-.991,33.575a2.563,2.563,0,0,0,.666,1.769,2.252,2.252,0,0,0,1.648.739Z" transform="translate(-70.38 -281.175)" fill="#2f8286"/>
      <path id="Path_4291" data-name="Path 4291" d="M107.315,323.439c.121,1.465-.089,2.665-1.637,2.972a38.141,38.141,0,0,1-5.984.286c-6.892.075-17.025.061-23.891-.068h-.595c-1.745-.055-1.451-2.461-1.458-3.749.109,1.125-.134,2.781.914,3.408a2.842,2.842,0,0,0,1.157.082c3.011-.068,11.22-.116,14.339-.13l9.551.061a44.327,44.327,0,0,0,5.945-.082c1.49-.211,1.707-1.363,1.675-2.788Z" transform="translate(-71.59 -290.934)" fill="#505050"/>
      <rect id="Rectangle_244" data-name="Rectangle 244" width="6.681" height="3.646" transform="translate(21.666 37.862) rotate(180)" fill="#505050"/>
      <path id="Path_4324" data-name="Path 4324" d="M0,0,2.561,0l0,3.135L0,3.138Z" transform="translate(43.883 48.248) rotate(179.01)" fill="#dbdbdb"/>
      <path id="Path_4325" data-name="Path 4325" d="M0,0,4.172,0l0,3.578L0,3.583Z" transform="translate(44.725 50.806) rotate(179.01)" fill="#c7c7c7"/>
      <path id="Path_4292" data-name="Path 4292" d="M129.449,354.5c.051,3.244.262,16.358.262,16.358l9.916-.184s-.211-13.141-.268-16.358-2-5.712-5.044-5.657S129.4,351.256,129.449,354.5Z" transform="translate(-91.686 -299.142)" fill="#2f8286"/>
      <path id="Path_4293" data-name="Path 4293" d="M137.93,350.249a.4.4,0,0,0,.39.4.391.391,0,0,0,.361-.26.436.436,0,0,0-.09-.455.372.372,0,0,0-.429-.081A.419.419,0,0,0,137.93,350.249Z" transform="translate(-94.745 -299.512)" fill="#fff"/>
      <path id="Path_4294" data-name="Path 4294" d="M130.318,355.831a.426.426,0,0,0,.178.4.37.37,0,0,0,.418,0,.426.426,0,0,0,.178-.4.388.388,0,0,0-.774,0Z" transform="translate(-91.998 -301.31)" fill="#fff"/>
      <path id="Path_4295" data-name="Path 4295" d="M137.188,356.281a.388.388,0,0,0,.774,0,.426.426,0,0,0-.178-.4.37.37,0,0,0-.418,0,.426.426,0,0,0-.178.4Z" transform="translate(-94.476 -301.42)" fill="#fff"/>
      <path id="Path_4296" data-name="Path 4296" d="M136.69,362.092a.384.384,0,1,0,.377-.4A.4.4,0,0,0,136.69,362.092Z" transform="translate(-94.298 -303.292)" fill="#fff"/>
      <path id="Path_4297" data-name="Path 4297" d="M143,368.013a.422.422,0,0,0,.119.29.371.371,0,0,0,.277.113.4.4,0,0,0,.377-.416.423.423,0,0,0-.115-.292.371.371,0,0,0-.275-.117A.4.4,0,0,0,143,368.013Z" transform="translate(-96.574 -305.17)" fill="#fff"/>
      <path id="Path_4298" data-name="Path 4298" d="M143.54,362.636a.4.4,0,0,0,.4.4.41.41,0,0,0,0-.818.371.371,0,0,0-.282.117.423.423,0,0,0-.114.3Z" transform="translate(-96.769 -303.46)" fill="#fff"/>
      <path id="Path_4299" data-name="Path 4299" d="M143.3,356.946a.416.416,0,0,0,.115.289.365.365,0,0,0,.275.113.41.41,0,1,0-.39-.4Z" transform="translate(-96.682 -301.649)" fill="#fff"/>
      <path id="Path_4300" data-name="Path 4300" d="M140.62,353.509a.4.4,0,0,0,.39.4.391.391,0,0,0,.361-.26.436.436,0,0,0-.09-.455.372.372,0,0,0-.429-.081A.419.419,0,0,0,140.62,353.509Z" transform="translate(-95.715 -300.55)" fill="#fff"/>
      <path id="Path_4301" data-name="Path 4301" d="M140.12,359.509a.4.4,0,0,0,.39.4.391.391,0,0,0,.361-.26.436.436,0,0,0-.09-.455.372.372,0,0,0-.429-.081.419.419,0,0,0-.232.394Z" transform="translate(-95.535 -302.461)" fill="#fff"/>
      <path id="Path_4302" data-name="Path 4302" d="M134.09,353.1a.422.422,0,0,0,.119.29.37.37,0,0,0,.277.113.41.41,0,0,0,0-.818.371.371,0,0,0-.282.117A.423.423,0,0,0,134.09,353.1Z" transform="translate(-93.36 -300.423)" fill="#fff"/>
      <path id="Path_4303" data-name="Path 4303" d="M133.458,358.945a.422.422,0,0,0,.119.29.37.37,0,0,0,.277.112.4.4,0,0,0,.377-.416.426.426,0,0,0-.178-.4.37.37,0,0,0-.418,0,.426.426,0,0,0-.178.4Z" transform="translate(-93.131 -302.264)" fill="#fff"/>
      <path id="Path_4304" data-name="Path 4304" d="M139.89,365.136a.423.423,0,0,0,.115.292.371.371,0,0,0,.275.117.411.411,0,0,0,.384-.423.422.422,0,0,0-.119-.29.371.371,0,0,0-.277-.113A.4.4,0,0,0,139.89,365.136Z" transform="translate(-95.452 -304.256)" fill="#fff"/>
      <path id="Path_4305" data-name="Path 4305" d="M133.46,370.016a.4.4,0,0,0,.4.409.373.373,0,0,0,.272-.127.425.425,0,0,0,.105-.3.4.4,0,0,0-.39-.4A.4.4,0,0,0,133.46,370.016Z" transform="translate(-93.133 -305.81)" fill="#fff"/>
      <path id="Path_4306" data-name="Path 4306" d="M133.628,374.541a.388.388,0,0,0,.774,0,.426.426,0,0,0-.178-.4.37.37,0,0,0-.418,0,.426.426,0,0,0-.178.4Z" transform="translate(-93.192 -307.234)" fill="#fff"/>
      <path id="Path_4307" data-name="Path 4307" d="M139.608,370.041a.426.426,0,0,0,.178.4.37.37,0,0,0,.418,0,.426.426,0,0,0,.178-.4.388.388,0,0,0-.774,0Z" transform="translate(-95.349 -305.835)" fill="#fff"/>
      <path id="Path_4308" data-name="Path 4308" d="M142.68,377.052a.384.384,0,1,0,.377-.4.4.4,0,0,0-.377.4Z" transform="translate(-96.459 -308.055)" fill="#fff"/>
      <path id="Path_4309" data-name="Path 4309" d="M136.44,367.356a.4.4,0,0,0,.39.4.372.372,0,0,0,.274-.122.424.424,0,0,0,.11-.294.4.4,0,0,0-.4-.4A.4.4,0,0,0,136.44,367.356Z" transform="translate(-94.208 -304.963)" fill="#fff"/>
      <path id="Path_4310" data-name="Path 4310" d="M136.45,372.269a.384.384,0,1,0,.767,0,.423.423,0,0,0-.115-.292.371.371,0,0,0-.275-.117A.4.4,0,0,0,136.45,372.269Z" transform="translate(-94.211 -306.53)" fill="#fff"/>
      <path id="Path_4311" data-name="Path 4311" d="M136.53,377.156a.417.417,0,0,0,.244.385.373.373,0,0,0,.426-.1.437.437,0,0,0,.076-.458.389.389,0,0,0-.369-.247A.4.4,0,0,0,136.53,377.156Z" transform="translate(-94.24 -308.084)" fill="#fff"/>
      <path id="Path_4312" data-name="Path 4312" d="M133.5,379.473a.4.4,0,0,0,.39.4.372.372,0,0,0,.274-.122.424.424,0,0,0,.11-.294.4.4,0,0,0-.4-.409.373.373,0,0,0-.272.127A.424.424,0,0,0,133.5,379.473Z" transform="translate(-93.147 -308.819)" fill="#fff"/>
      <path id="Path_4313" data-name="Path 4313" d="M142.67,372.443a.422.422,0,0,0,.119.29.37.37,0,0,0,.277.112.4.4,0,0,0,.377-.416.4.4,0,0,0-.39-.409.411.411,0,0,0-.384.423Z" transform="translate(-96.455 -306.581)" fill="#fff"/>
      <path id="Path_4314" data-name="Path 4314" d="M139.688,374.691a.426.426,0,0,0,.178.4.37.37,0,0,0,.418,0,.426.426,0,0,0,.178-.4.388.388,0,0,0-.774,0Z" transform="translate(-95.378 -307.316)" fill="#fff"/>
      <path id="Path_4315" data-name="Path 4315" d="M130.58,377.256a.4.4,0,0,0,.4.409.373.373,0,0,0,.272-.127.425.425,0,0,0,.106-.3.4.4,0,0,0-.39-.4.372.372,0,0,0-.274.122.424.424,0,0,0-.11.294Z" transform="translate(-92.094 -308.116)" fill="#fff"/>
      <path id="Path_4316" data-name="Path 4316" d="M139.64,379.416a.384.384,0,1,0,.377-.416A.4.4,0,0,0,139.64,379.416Z" transform="translate(-95.362 -308.803)" fill="#fff"/>
      <path id="Path_4317" data-name="Path 4317" d="M130.33,367.629a.384.384,0,1,0,.384-.409A.4.4,0,0,0,130.33,367.629Z" transform="translate(-92.004 -305.053)" fill="#fff"/>
      <path id="Path_4318" data-name="Path 4318" d="M130.41,372.382a.423.423,0,0,0,.115.292.371.371,0,0,0,.275.117.4.4,0,0,0,.384-.423.387.387,0,0,0-.774.014Z" transform="translate(-92.033 -306.574)" fill="#fff"/>
      <path id="Path_4319" data-name="Path 4319" d="M133.25,365.072a.416.416,0,0,0,.248.38.373.373,0,0,0,.424-.1A.437.437,0,0,0,134,364.9a.389.389,0,0,0-.369-.245A.405.405,0,0,0,133.25,365.072Z" transform="translate(-93.057 -304.234)" fill="#fff"/>
      <path id="Path_4320" data-name="Path 4320" d="M129.93,362.116a.388.388,0,1,0,.39-.416.372.372,0,0,0-.278.12A.423.423,0,0,0,129.93,362.116Z" transform="translate(-91.86 -303.295)" fill="#fff"/>
      <path id="Path_4321" data-name="Path 4321" d="M139.974,375.74c-2.212,3.285-11.316,2.726-11.891,1.452-.243-.538.032-13.979.032-13.979s7.857.777,12.076-.872C140.192,362.313,140.665,374.684,139.974,375.74Z" transform="translate(-91.157 -303.499)" fill="#2f8286"/>
      <path id="Path_4322" data-name="Path 4322" d="M80.806,287.767h30.827a5.2,5.2,0,0,0,5.018-5.35v-1.063a5.192,5.192,0,0,0-5.018-5.344H80.946a5.131,5.131,0,0,0-4.961,4.553l-.147,1.056A5.6,5.6,0,0,0,77,285.909a4.893,4.893,0,0,0,3.807,1.858Z" transform="translate(-72.328 -276.01)" fill="#36ccb4"/>
      <path id="Path_4323" data-name="Path 4323" d="M80.806,287.767h30.827a5.2,5.2,0,0,0,5.018-5.35v-1.063a5.192,5.192,0,0,0-5.018-5.344H80.946a5.131,5.131,0,0,0-4.961,4.553l-.147,1.056A5.6,5.6,0,0,0,77,285.909a4.893,4.893,0,0,0,3.807,1.858Z" transform="translate(-72.328 -276.01)" fill="#2f8286" opacity="0.3"/>
      <ellipse id="Ellipse_49" data-name="Ellipse 49" cx="2.762" cy="4.301" rx="2.762" ry="4.301" transform="translate(37.815 1.506)" opacity="0.1"/>
    </g>
  </g>
</svg>
