<svg xmlns="http://www.w3.org/2000/svg" width="244.348" height="262.226" viewBox="0 0 244.348 262.226">
  <g id="Group_120" data-name="Group 120" transform="translate(-58 -77.085)">
    <g id="freepik--Plant--inject-53" transform="translate(58 245.247)">
      <path id="Path_5096" data-name="Path 5096" d="M117.5,347.052c-2.487-2.445-5.71-5.394-9.521-4.336-3.58.988-4.953,4.9-5.6,8.161-.834,4.2-1.471,8.442-2.144,12.666s-1.3,8.547-1.92,12.827q-.511,3.615-1.023,7.244l-.476,3.65c-.168,1.184-.364,2.368-.427,3.566a.336.336,0,0,0,.659.07c.462-2.011.652-4.105.946-6.151s.6-4.112.9-6.172c.6-4.084,1.219-8.168,1.828-12.246s1.254-8.168,1.906-12.246c.553-3.461.813-7.755,3.881-10.039a5.941,5.941,0,0,1,5.724-.5,17.124,17.124,0,0,1,5.205,3.643.078.078,0,0,0,.07-.14Z" transform="translate(-60.192 -325.419)" fill="#263238"/>
      <path id="Path_5097" data-name="Path 5097" d="M118.1,342.4s-5.093-1.835-7.608,1.884.49,13.17,23.679,18.5a65.544,65.544,0,0,0-5.6-20.961C123.624,330.99,114.769,335.095,118.1,342.4Z" transform="translate(-64.195 -323.235)" fill="#32e0c4"/>
      <path id="Path_5098" data-name="Path 5098" d="M135.268,364.169a17.879,17.879,0,0,0-1.17-1.877q-.574-.9-1.177-1.786c-.294-.448-.6-.89-.9-1.331a.907.907,0,0,1,.042-.329,4.776,4.776,0,0,0,.077-.6q.084-.652.189-1.3c.063-.434.133-.862.217-1.289a6.78,6.78,0,0,1,.3-1.366c0-.07-.091-.105-.1,0a5.021,5.021,0,0,1-.21.771c-.056.2-.105.392-.154.589-.112.434-.224.876-.322,1.324s-.168.82-.238,1.226a4.211,4.211,0,0,1-.091.6c-.413-.588-.834-1.17-1.268-1.744-1.226-1.625-2.529-3.18-3.881-4.708v-.042a41.832,41.832,0,0,1,.6-7.244c0-.063-.084-.1-.1-.035a25.22,25.22,0,0,0-.869,6.936c-.476-.539-.967-1.079-1.464-1.611-1.128-1.212-2.277-2.41-3.454-3.58a.052.052,0,0,0-.077.07c1.955,2.1,3.811,4.294,5.6,6.529a38.893,38.893,0,0,0-4.238.154c-1.576.119-3.139.315-4.694.532a.056.056,0,0,0,0,.105,43.615,43.615,0,0,1,4.687-.42c1.513-.063,3.012,0,4.526,0q1.464,1.821,2.893,3.664h-1.2c-.7,0-1.4.063-2.1.119a32.515,32.515,0,0,0-4.28.645.056.056,0,0,0,0,.105c1.4-.161,2.851-.3,4.28-.35h3.117a1.353,1.353,0,0,0,.588-.049q.932,1.212,1.863,2.431c.49.645.981,1.3,1.457,1.962s.925,1.4,1.471,2.039C135.219,364.274,135.289,364.218,135.268,364.169Z" transform="translate(-66.621 -326.164)" fill="#263238"/>
      <path id="Path_5099" data-name="Path 5099" d="M122.678,352.944a16.252,16.252,0,0,0-2.48-.126c-.827,0-1.653,0-2.48.056a.056.056,0,1,0,0,.105c.841-.063,1.674-.077,2.515-.063s1.625.091,2.438.07Z" transform="translate(-66.556 -328.509)" fill="#263238"/>
      <path id="Path_5100" data-name="Path 5100" d="M135.058,354.619c.1-.792.2-1.583.364-2.361a.056.056,0,1,0-.105,0c-.119.785-.266,1.555-.385,2.34-.056.385-.112.778-.154,1.17a4.9,4.9,0,0,0-.1,1.107.07.07,0,0,0,.133,0,6.455,6.455,0,0,0,.126-1.1C134.974,355.375,135.016,355,135.058,354.619Z" transform="translate(-71.657 -328.32)" fill="#263238"/>
      <path id="Path_5101" data-name="Path 5101" d="M132.651,343.125c-.2.771-.4,1.548-.546,2.333-.07.4-.133.8-.182,1.2a4.441,4.441,0,0,0-.077,1.177h.056a6.6,6.6,0,0,0,.182-1.114c.056-.385.112-.771.182-1.156.14-.806.28-1.6.483-2.4a.052.052,0,1,0-.1-.035Z" transform="translate(-70.806 -325.598)" fill="#263238"/>
      <path id="Path_5102" data-name="Path 5102" d="M85.068,398.23q-.189-2.193-.42-4.378-.462-4.329-1.044-8.652c-.385-2.865-.757-5.745-1.219-8.6a21.334,21.334,0,0,0-.883-3.909,3.727,3.727,0,0,0-2.165-2.438c-2.725-.946-4.568,1.884-5.668,3.888,0,.063.049.105.091.049.659-.946,2.48-3.608,4.547-3.5,1.4.084,2.508,1.065,3.181,4.54,1.66,8.652,3.167,26.208,3.342,27.357.091.609.518.581.525-.07C85.362,401.1,85.194,399.659,85.068,398.23Z" transform="translate(-53.389 -333.674)" fill="#263238"/>
      <path id="Path_5103" data-name="Path 5103" d="M69.594,372.04s2.382-8.407-2.886-4.2c-8.778,7.006-9.107,22.257-9.107,22.257s15.594-9.065,17.514-15.034C78.042,366.149,69.594,372.04,69.594,372.04Z" transform="translate(-48.577 -332.655)" fill="#32e0c4"/>
      <path id="Path_5104" data-name="Path 5104" d="M72.983,378.021c-1.226.252-2.466.413-3.7.588l-1.758.245c-.392.056-.792.1-1.191.147,1.163-1.6,2.333-3.195,3.447-4.834.042-.063-.056-.126-.105-.07A34.547,34.547,0,0,0,67.07,377.1l-.7-1.955c-.266-.757-.546-1.506-.743-2.284,0-.063-.112-.035-.1.035.21.771.364,1.555.567,2.333a21.353,21.353,0,0,0,.7,2.207c-.567.743-1.121,1.506-1.653,2.27-.266-.757-.6-1.492-.834-2.27a.049.049,0,1,0-.1,0c.28.855.427,1.744.7,2.6-.357.525-.7,1.044-1.058,1.576-.623.974-1.219,1.962-1.8,2.963a.238.238,0,0,0-.14.231c-.981,1.709-1.92,3.44-2.844,5.184,0,.056.056.105.091.049.925-1.723,1.955-3.4,3.026-5.051h0a2.289,2.289,0,0,1,.511-.1l.532-.119c.406-.084.806-.189,1.2-.294.792-.2,1.576-.378,2.382-.518.063,0,.035-.112,0-.1-.946.175-1.892.287-2.844.392-.448.056-.9.112-1.345.182h-.07q.855-1.282,1.709-2.536c.567-.82,1.149-1.632,1.73-2.445.546-.077,1.079-.217,1.618-.322l1.807-.35c1.212-.238,2.41-.511,3.622-.7C73.081,378.112,73.032,378.007,72.983,378.021Z" transform="translate(-49.017 -334.503)" fill="#263238"/>
      <path id="Path_5105" data-name="Path 5105" d="M65.265,380.518l-.21-.7a13.811,13.811,0,0,1-.357-1.4c0-.07-.112,0-.1,0,.1.476.21.946.322,1.4a8.9,8.9,0,0,0,.406,1.4.092.092,0,0,0,.175-.056C65.44,380.995,65.342,380.757,65.265,380.518Z" transform="translate(-50.672 -336.167)" fill="#263238"/>
      <path id="Path_5106" data-name="Path 5106" d="M79.364,377.46c-.7.105-1.4.154-2.144.217s-1.4.168-2.144.273a.032.032,0,1,0,0,.063c.7-.049,1.4-.105,2.144-.2s1.4-.2,2.144-.252C79.434,377.558,79.427,377.453,79.364,377.46Z" transform="translate(-53.801 -335.889)" fill="#263238"/>
      <path id="Path_5107" data-name="Path 5107" d="M94.606,375.557c-.28-6.2-.7-12.386-1.3-18.558-.308-3.076-.659-6.151-1.086-9.212a66.413,66.413,0,0,0-1.779-8.911,17.24,17.24,0,0,0-2.963-6.3,6.732,6.732,0,0,0-6-2.585c-2.711.329-4.9,2.039-6.788,3.9-2.1,2.1-4.056,4.357-6.025,6.585-.5.56-.988,1.128-1.478,1.7-.042.049,0,.119.077.07,1.92-2.207,3.916-4.35,6-6.4,1.927-1.892,3.916-3.965,6.585-4.743a6.774,6.774,0,0,1,3.825-.091,6.088,6.088,0,0,1,2.613,1.653,13.625,13.625,0,0,1,2.949,5.724c1.667,5.7,2.263,11.678,2.886,17.563s1.051,11.973,1.352,17.976.539,12.078,1.121,18.1c.07.743.168,1.478.259,2.221.063.5.841.5.8,0C95.173,388.013,94.886,381.785,94.606,375.557Z" transform="translate(-51.444 -321.664)" fill="#263238"/>
      <path id="Path_5108" data-name="Path 5108" d="M67.635,332.731s3.5-6.55-.645-8.652-18.214,13.528-22.271,36.38c0,0,22.607-10,30.285-19.973S73.982,328.325,67.635,332.731Z" transform="translate(-44.72 -319.848)" fill="#32e0c4"/>
      <path id="Path_5109" data-name="Path 5109" d="M72.458,341.309c-2.543,0-5.072-.189-7.615-.175.476-.546.946-1.093,1.4-1.632a24.026,24.026,0,0,0,1.99-2.312c0-.049-.042-.126-.091-.084a18.524,18.524,0,0,0-1.927,1.927c-.637.7-1.268,1.352-1.9,2.039-.974,1.051-1.927,2.1-2.872,3.188v-4.231c0-1.744,0-3.5.14-5.247a.053.053,0,0,0-.105,0c-.126,1.751-.308,3.5-.392,5.254-.042.862-.063,1.723-.07,2.585V344.7l-.448.5c-2.032,2.319-3.958,4.715-5.836,7.16a3.812,3.812,0,0,0,0-.406,7.654,7.654,0,0,0-.084-.806c-.07-.588-.147-1.163-.238-1.744s-.168-1.093-.259-1.632-.252-1.233-.294-1.849a.056.056,0,1,0-.105,0,15.169,15.169,0,0,1,.21,1.863c.056.56.105,1.121.161,1.674s.1,1.121.154,1.681l.084.806a1.156,1.156,0,0,0,.049.406.7.7,0,0,0,.105.315l-.967,1.268c-1.282,1.7-2.536,3.412-3.8,5.121-.042.056,0,.126.077.077,1.191-1.555,2.417-3.082,3.657-4.6.932.042,1.884,0,2.8-.042s1.962,0,2.942,0a.053.053,0,1,0,0-.105c-.981,0-1.962.035-2.942.035s-1.807-.042-2.7,0q1.66-1.99,3.335-3.965l1.212-1.436a5.6,5.6,0,0,0,1.135.035h1.338c.834,0,1.667,0,2.508-.035,1.723,0,3.447-.084,5.177-.091.063,0,.063-.1,0-.105-1.723,0-3.454-.091-5.184-.133-.834,0-1.667-.049-2.508-.063H58.5c.953-1.121,1.9-2.249,2.851-3.377a.1.1,0,0,0,.049-.056c.932-1.093,1.856-2.186,2.8-3.272l.385-.441c2.634.077,5.261-.091,7.9-.042a.067.067,0,1,0-.021-.133Z" transform="translate(-46.222 -323.095)" fill="#263238"/>
      <path id="Path_5110" data-name="Path 5110" d="M80.036,350.53h-.616a.049.049,0,0,0,0,.1h.616C80.106,350.635,80.1,350.53,80.036,350.53Z" transform="translate(-55.096 -327.825)" fill="#263238"/>
      <path id="Path_5111" data-name="Path 5111" d="M76.3,350.488c-.813,0-1.625,0-2.438-.049l-1.226-.042a5.124,5.124,0,0,0-1.135,0,.042.042,0,0,0,0,.077,4.463,4.463,0,0,0,1.142.084h3.664C76.368,350.593,76.368,350.495,76.3,350.488Z" transform="translate(-52.731 -327.776)" fill="#263238"/>
      <path id="Path_5112" data-name="Path 5112" d="M66.082,361.245a33.358,33.358,0,0,0-5-.455h0c1.66.161,3.328.252,4.974.518C66.117,361.357,66.145,361.252,66.082,361.245Z" transform="translate(-49.619 -330.898)" fill="#263238"/>
      <path id="Path_5113" data-name="Path 5113" d="M58.243,349.636a1.316,1.316,0,0,0-.049-.434c-.042-.329-.1-.652-.147-.981-.1-.616-.2-1.24-.322-1.856,0-.056-.112-.042-.105,0,.077.645.147,1.282.21,1.92,0,.315.049.63.077.946a2.725,2.725,0,0,0,.126.9c.049.1.2.056.224,0A1.184,1.184,0,0,0,58.243,349.636Z" transform="translate(-48.583 -326.567)" fill="#263238"/>
      <path id="Path_5114" data-name="Path 5114" d="M102.161,323.057c-.806-1.506-1.835-3.5-3.86-3.37-1.667.105-2.417,1.807-2.8,3.216-1.1,4.35-1.177,8.939-1.4,13.4-.455,9.423-.862,18.859-.918,28.3v7.846c0,2.613,0,5.352.189,8.014a.2.2,0,0,0,.392,0c0-2.277-.07-4.561-.077-6.844s0-4.456.042-6.683q.119-6.753.364-13.521c.168-4.484.364-8.96.553-13.444.091-2.235.189-4.477.287-6.711s.2-4.343.441-6.5c.14-1.2.315-2.417.567-3.6a5.044,5.044,0,0,1,1.044-2.417,2.284,2.284,0,0,1,2.949-.217,6.193,6.193,0,0,1,2.1,2.606C102.112,323.176,102.2,323.12,102.161,323.057Z" transform="translate(-59.231 -318.588)" fill="#263238"/>
      <path id="Path_5115" data-name="Path 5115" d="M103.387,321.875s-1.66-5.864,2.011-2.935c6.116,4.9,6.305,15.5,6.305,15.5s-10.866-6.305-12.218-10.473C97.5,317.77,103.387,321.875,103.387,321.875Z" transform="translate(-60.996 -318.121)" fill="#32e0c4"/>
      <path id="Path_5116" data-name="Path 5116" d="M110.6,331.866c-.1-.161-.2-.315-.308-.476a3.035,3.035,0,0,0,0-.5v-.757a13.159,13.159,0,0,1,.056-1.485c0-.063-.1-.063-.105,0,0,.483-.042.967-.056,1.457v1.009c-.427-.658-.862-1.317-1.317-1.961l-.4-.554a10.893,10.893,0,0,1-.035-1.912c0-.7,0-1.4.042-2.046,0-.07-.105-.063-.105,0,0,.7-.056,1.4-.091,2.1a13.6,13.6,0,0,0-.042,1.513c-1.051-1.4-2.165-2.8-3.286-4.168a.053.053,0,0,0-.084.063c.7.883,1.366,1.793,2.025,2.711-1.282-.3-2.578-.469-3.881-.659-.063,0-.091.091,0,.1,1.4.21,2.725.553,4.077.855h0c.518.736,1.037,1.471,1.548,2.214.21.294.413.6.616.9H109.2l-.427-.056q-.455-.049-.9-.084c-.623-.049-1.254-.084-1.877-.119a.056.056,0,0,0,0,.105,18.222,18.222,0,0,1,1.849.126l.967.119.427.049h.126l1.044,1.541c.609.9,1.156,1.878,1.814,2.753a.051.051,0,0,0,.084-.056A27.7,27.7,0,0,0,110.6,331.866Z" transform="translate(-62.159 -319.901)" fill="#263238"/>
      <path id="Path_5117" data-name="Path 5117" d="M109.94,324.825v-.7a9.81,9.81,0,0,1,.056-1.4c0-.077-.105-.091-.105,0,0,.476-.049.953-.077,1.4v1.03a1.121,1.121,0,0,0,0,.343.049.049,0,0,0,.091,0,.764.764,0,0,0,0-.308Z" transform="translate(-64.208 -319.48)" fill="#263238"/>
      <path id="Path_5118" data-name="Path 5118" d="M106.962,329.1c-.4-.063-.813-.084-1.226-.119s-.9-.077-1.338-.14a.056.056,0,1,0,0,.105c.862.056,1.709.21,2.571.238a.042.042,0,1,0-.007-.084Z" transform="translate(-62.567 -321.329)" fill="#263238"/>
      <path id="Path_5119" data-name="Path 5119" d="M112.99,329.236v1.233a.875.875,0,0,0,0,.357h.042a.35.35,0,0,0,0-.168v-1.219a.63.63,0,0,1,0-.231C113.124,329.138,112.9,329.131,112.99,329.236Z" transform="translate(-65.156 -321.425)" fill="#263238"/>
      <path id="Path_5120" data-name="Path 5120" d="M98.39,367.333c-2.284-1.709-4.336-4.2-7.412-4.294-2.536-.105-4.315,1.807-5.331,3.93a21.969,21.969,0,0,0-1.24,3.5c-.462,1.6-.89,3.216-1.3,4.834q-1.2,4.778-2.032,9.64c-.308,1.807-.6,3.615-.827,5.436a44.9,44.9,0,0,0-.532,5.555.287.287,0,0,0,.567.063c.308-1.52.434-3.082.659-4.624s.462-3.082.7-4.624q.792-4.61,1.821-9.191c.652-2.872,1.3-5.787,2.228-8.589.7-2.011,1.73-4.35,3.9-5.072,3.3-1.1,6.305,1.7,8.708,3.5C98.369,367.452,98.446,367.375,98.39,367.333Z" transform="translate(-55.201 -331.57)" fill="#263238"/>
      <path id="Path_5121" data-name="Path 5121" d="M99.619,363.688s-2.1-6.011.939-7.195c4.568-1.765,16.512,11.692,14.172,32.317A117.448,117.448,0,0,1,98.68,378c-6.816-5.724-8.561-13.191-5.555-15.125S99.619,363.688,99.619,363.688Z" transform="translate(-58.79 -329.565)" fill="#32e0c4"/>
      <path id="Path_5122" data-name="Path 5122" d="M115.955,387.071a16.48,16.48,0,0,0-1.107-2.1c-.392-.7-.785-1.4-1.191-2.1-.8-1.359-1.583-2.718-2.4-4.063l-.4-.652a.442.442,0,0,1,.049-.245c.042-.2.091-.4.133-.6.105-.448.182-.9.266-1.352.168-.883.315-1.772.553-2.641,0-.063-.084-.084-.1,0-.189.883-.469,1.751-.7,2.613-.126.427-.266.855-.378,1.282-.042.147-.077.294-.112.441-.988-1.611-1.983-3.209-3.061-4.757a2.1,2.1,0,0,0,.105-.666l.105-.9c.084-.7.161-1.352.259-2.032a39.579,39.579,0,0,1,.7-3.951c0-.063-.084-.084-.1,0-.329,1.3-.7,2.592-.939,3.909-.119.645-.231,1.3-.315,1.948-.049.322-.084.652-.112.981a.732.732,0,0,1-.042.294c-.329-.469-.659-.939-1.009-1.4-1.051-1.4-2.144-2.739-3.251-4.091a.053.053,0,1,0-.084.063,73.566,73.566,0,0,1,5.191,7.58l.9,1.457-.294-.035c-.385-.049-.778-.07-1.163-.105-.778-.077-1.555-.147-2.333-.2-1.555-.126-3.117-.224-4.666-.385-.07,0-.084.091,0,.1,1.576.182,3.139.434,4.708.659.771.112,1.541.21,2.312.308a8.656,8.656,0,0,0,1.779.182l1.835,2.977H105.46c-.07,0-.063.105,0,.105,1.016,0,2.025.063,3.04.119l1.443.084.7.056a1.462,1.462,0,0,0,.631,0l1.562,2.536c.476.778.96,1.555,1.45,2.326a18.58,18.58,0,0,0,1.569,2.354C115.9,387.169,115.983,387.134,115.955,387.071Z" transform="translate(-61.395 -332.245)" fill="#263238"/>
      <path id="Path_5123" data-name="Path 5123" d="M115.9,372.571a14.551,14.551,0,0,1-.406,1.962c-.175.665-.364,1.331-.581,1.983a.063.063,0,0,0,.119.042c.21-.652.392-1.31.553-1.969s.259-1.338.42-2C116.015,372.522,115.91,372.5,115.9,372.571Z" transform="translate(-65.736 -334.412)" fill="#263238"/>
      <path id="Path_5124" data-name="Path 5124" d="M103.891,377.96a.749.749,0,0,0-.5-.189l-.869-.119-1.625-.2c-1.121-.133-2.249-.238-3.377-.385a.053.053,0,1,0,0,.105c1.058.126,2.1.287,3.174.427l1.562.2.75.084a2.521,2.521,0,0,1,.855.147C103.891,378.065,103.926,377.995,103.891,377.96Z" transform="translate(-60.513 -335.773)" fill="#263238"/>
      <path id="Path_5125" data-name="Path 5125" d="M114.867,391.247c-.532-.042-1.065-.056-1.6-.077h-1.191a2.965,2.965,0,0,1-.5,0c-.077,0-.084.112,0,.105a1.8,1.8,0,0,1,.476,0h.413l.806.049c.532,0,1.072.063,1.6.07C114.93,391.366,114.93,391.254,114.867,391.247Z" transform="translate(-64.721 -339.995)" fill="#263238"/>
      <path id="Path_5126" data-name="Path 5126" d="M120.864,386.829c.063-.3.119-.6.175-.9.105-.6.217-1.191.322-1.786a.049.049,0,1,0-.1,0c-.133.581-.266,1.163-.392,1.737-.07.294-.133.581-.189.876l-.084.4a1.1,1.1,0,0,0-.049.427.064.064,0,0,0,.112.035,2.165,2.165,0,0,0,.2-.785Z" transform="translate(-67.425 -337.875)" fill="#263238"/>
      <path id="Path_5127" data-name="Path 5127" d="M76.32,406.72l.645,7.314,2.186,24.681H98.479l2.732-24.681.806-7.314Z" transform="translate(-54.182 -344.651)" fill="#37474f"/>
      <path id="Path_5128" data-name="Path 5128" d="M76.32,406.72l.645,7.314h24.246l.806-7.314Z" transform="translate(-54.182 -344.651)" fill="#263238"/>
      <rect id="Rectangle_411" data-name="Rectangle 411" width="29.521" height="5.934" transform="translate(49.747 66.006) rotate(180)" fill="#37474f"/>
    </g>
    <g id="freepik--Device--inject-53" transform="translate(103.319 77.085)">
      <rect id="Rectangle_412" data-name="Rectangle 412" width="262.225" height="175.44" rx="12.89" transform="translate(175.44) rotate(90)" fill="#37474f"/>
      <rect id="Rectangle_413" data-name="Rectangle 413" width="160.435" height="225.677" transform="translate(7.601 18.355)" fill="#fff"/>
      <rect id="Rectangle_414" data-name="Rectangle 414" width="2.725" height="38.18" rx="1.25" transform="translate(106.807 9.289) rotate(90)" fill="#263238"/>
      <circle id="Ellipse_58" data-name="Ellipse 58" cx="4.939" cy="4.939" r="4.939" transform="translate(82.778 247.962)" fill="#263238"/>
      <rect id="Rectangle_415" data-name="Rectangle 415" width="160.435" height="225.677" transform="translate(7.601 18.355)" fill="#fff"/>
      <rect id="Rectangle_416" data-name="Rectangle 416" width="160.435" height="5.513" transform="translate(7.601 18.355)" fill="#263238"/>
      <path id="Path_5129" data-name="Path 5129" d="M126.312,107.716a1.156,1.156,0,1,1-1.156-1.156A1.156,1.156,0,0,1,126.312,107.716Z" transform="translate(-113.779 -86.608)" fill="#c7c7c7"/>
      <path id="Path_5130" data-name="Path 5130" d="M133.012,107.716a1.156,1.156,0,1,1-1.156-1.156A1.156,1.156,0,0,1,133.012,107.716Z" transform="translate(-115.785 -86.608)" fill="#fff"/>
      <path id="Path_5131" data-name="Path 5131" d="M139.792,107.716a1.156,1.156,0,1,1-1.156-1.156,1.156,1.156,0,0,1,1.156,1.156Z" transform="translate(-117.815 -86.608)" fill="#32e0c4"/>
      <rect id="Rectangle_417" data-name="Rectangle 417" width="131.789" height="131.789" transform="translate(21.927 51.162)" fill="#32e0c4" opacity="0.1"/>
      <path id="Path_5132" data-name="Path 5132" d="M157.781,248.835l-2.081-1.948,2.081-1.948.329.35-1.7,1.6,1.7,1.6Z" transform="translate(-123.271 -128.045)" fill="#263238"/>
      <path id="Path_5134" data-name="Path 5134" d="M310.726,248.835l-.336-.35,1.7-1.6-1.7-1.6.336-.35,2.081,1.948Z" transform="translate(-169.592 -128.045)" fill="#263238"/>
      <rect id="Rectangle_418" data-name="Rectangle 418" width="79.023" height="78.021" transform="translate(48.31 93.917)" fill="#2f8286"/>
      <rect id="Rectangle_419" data-name="Rectangle 419" width="5.394" height="2.277" transform="translate(120.026 115.137) rotate(180)" opacity="0.1"/>
      <rect id="Rectangle_420" data-name="Rectangle 420" width="5.394" height="2.277" transform="translate(123.032 112.271) rotate(180)" opacity="0.1"/>
      <rect id="Rectangle_421" data-name="Rectangle 421" width="5.394" height="2.277" transform="translate(117.014 112.271) rotate(180)" opacity="0.1"/>
      <rect id="Rectangle_422" data-name="Rectangle 422" width="5.394" height="2.277" transform="translate(58.104 112.271) rotate(180)" opacity="0.1"/>
      <rect id="Rectangle_423" data-name="Rectangle 423" width="5.394" height="2.277" transform="translate(58.104 161.387) rotate(180)" opacity="0.1"/>
      <rect id="Rectangle_424" data-name="Rectangle 424" width="5.394" height="2.277" transform="translate(55.092 158.515) rotate(180)" opacity="0.1"/>
      <rect id="Rectangle_425" data-name="Rectangle 425" width="5.394" height="2.277" transform="translate(123.032 161.38) rotate(180)" opacity="0.1"/>
      <rect id="Rectangle_426" data-name="Rectangle 426" width="5.394" height="2.277" transform="translate(89.069 133.029)" opacity="0.1"/>
      <rect id="Rectangle_427" data-name="Rectangle 427" width="5.394" height="2.277" transform="translate(86.056 135.908)" opacity="0.1"/>
      <rect id="Rectangle_428" data-name="Rectangle 428" width="81.923" height="2.298" transform="translate(46.86 169.633)" fill="#32e0c4"/>
      <rect id="Rectangle_429" data-name="Rectangle 429" width="81.923" height="2.298" transform="translate(46.86 169.633)" opacity="0.1"/>
      <path id="Path_5136" data-name="Path 5136" d="M255.308,165.26H177.616l-3.986,33.073h85.664Z" transform="translate(-128.64 -104.185)" fill="#32e0c4"/>
      <path id="Path_5137" data-name="Path 5137" d="M255.308,165.26H177.616l-3.986,33.073h85.664Z" transform="translate(-128.64 -104.185)" opacity="0.6"/>
      <g id="Group_102" data-name="Group 102" transform="translate(45.487 65.082)" opacity="0.1">
        <path id="Path_5138" data-name="Path 5138" d="M174.34,206.5l10.585-.084,10.585-.028,21.171-.063,21.171.063,10.592.028,10.585.084-10.585.091-10.592.028-21.171.056-21.171-.056-10.585-.035Z" transform="translate(-174.34 -181.562)"/>
        <path id="Path_5139" data-name="Path 5139" d="M175.05,200.605l10.459-.084,10.459-.028,20.919-.063,20.919.063,10.459.028,10.459.084-10.459.084-10.459.035-20.919.056-20.919-.056-10.459-.035Z" transform="translate(-174.553 -179.799)"/>
        <path id="Path_5140" data-name="Path 5140" d="M175.76,194.715l10.333-.084,10.333-.028,20.673-.063,20.666.056,10.333.035,10.34.084-10.34.084-10.333.035-20.666.056-20.673-.056-10.333-.035Z" transform="translate(-174.765 -178.035)"/>
        <path id="Path_5141" data-name="Path 5141" d="M176.47,188.825l10.214-.084,10.207-.035,20.421-.056,20.421.056,10.207.035,10.214.084-10.214.084-10.207.035L217.312,189l-20.421-.063-10.207-.028Z" transform="translate(-174.978 -176.271)"/>
        <path id="Path_5142" data-name="Path 5142" d="M177.18,182.935l10.088-.084,10.081-.035,20.176-.056,20.169.056,10.088.035,10.088.084-10.088.084-10.088.028-20.169.063-20.176-.063-10.081-.028Z" transform="translate(-175.19 -174.507)"/>
        <path id="Path_5143" data-name="Path 5143" d="M177.89,177.045l9.962-.084,9.962-.035,19.924-.056,19.924.056,9.962.028,9.962.091-9.962.084-9.962.028-19.924.063-19.924-.063-9.962-.028Z" transform="translate(-175.403 -172.744)"/>
        <path id="Path_5144" data-name="Path 5144" d="M178.6,171.148l9.836-.084,9.843-.028,19.672-.056,19.672.056,9.836.028,9.843.084-9.843.091-9.836.028-19.672.056-19.672-.056-9.843-.028Z" transform="translate(-175.616 -170.98)"/>
      </g>
      <rect id="Rectangle_430" data-name="Rectangle 430" width="16.68" height="37.991" transform="translate(79.478 129.225)" fill="#263238"/>
      <rect id="Rectangle_431" data-name="Rectangle 431" width="1.513" height="4.14" transform="translate(94.057 148.875)" fill="#32e0c4"/>
      <path id="Path_5145" data-name="Path 5145" d="M245.093,291.353a.616.616,0,1,1-.617-.624.623.623,0,0,1,.616.624Z" transform="translate(-149.67 -141.757)" opacity="0.32"/>
      <rect id="Rectangle_432" data-name="Rectangle 432" width="5.065" height="5.009" transform="translate(81.643 131.354)" fill="#c7c7c7"/>
      <rect id="Rectangle_433" data-name="Rectangle 433" width="5.065" height="10.459" transform="translate(81.643 137.729)" fill="#c7c7c7"/>
      <rect id="Rectangle_434" data-name="Rectangle 434" width="5.065" height="12.855" transform="translate(81.643 149.562)" fill="#c7c7c7"/>
      <rect id="Rectangle_435" data-name="Rectangle 435" width="5.058" height="5.009" transform="translate(88.382 131.354)" fill="#c7c7c7"/>
      <rect id="Rectangle_436" data-name="Rectangle 436" width="5.058" height="10.459" transform="translate(88.382 137.729)" fill="#c7c7c7"/>
      <rect id="Rectangle_437" data-name="Rectangle 437" width="5.058" height="12.855" transform="translate(88.382 149.562)" fill="#c7c7c7"/>
      <rect id="Rectangle_438" data-name="Rectangle 438" width="34.285" height="2.529" transform="translate(70.679 169.374)" fill="#dbdbdb"/>
      <rect id="Rectangle_439" data-name="Rectangle 439" width="35.154" height="0.518" transform="translate(70.245 168.855)" fill="#c7c7c7"/>
      <rect id="Rectangle_440" data-name="Rectangle 440" width="29.704" height="2.529" transform="translate(72.97 166.326)" fill="#dbdbdb"/>
      <rect id="Rectangle_441" data-name="Rectangle 441" width="30.572" height="0.518" transform="translate(72.536 165.808)" fill="#c7c7c7"/>
      <path id="Path_5146" data-name="Path 5146" d="M224.14,183.917a7.447,7.447,0,0,1,7.447-7.447h0a7.447,7.447,0,0,1,7.447,7.447Z" transform="translate(-143.765 -107.542)" fill="#32e0c4"/>
      <path id="Path_5147" data-name="Path 5147" d="M237.949,194.861H226.74V184.6a5.6,5.6,0,0,1,5.6-5.6h0a5.6,5.6,0,0,1,5.6,5.6Z" transform="translate(-144.544 -108.3)" fill="#263238"/>
      <path id="Path_5148" data-name="Path 5148" d="M237.449,185v9.366H228.09V185a4.68,4.68,0,0,1,4.68-4.68h0a4.68,4.68,0,0,1,4.68,4.68Z" transform="translate(-144.948 -108.695)" fill="#c7c7c7"/>
      <g id="Group_103" data-name="Group 103" transform="translate(83.142 71.624)" opacity="0.3">
        <path id="Path_5149" data-name="Path 5149" d="M236.868,182.876l-8.778,8.778v-4.4l6.431-6.424a4.568,4.568,0,0,1,1.555,1.03A4.652,4.652,0,0,1,236.868,182.876Z" transform="translate(-228.09 -180.472)" fill="#fff"/>
        <path id="Path_5150" data-name="Path 5150" d="M239.568,194.09v4.378H235.19Z" transform="translate(-230.216 -184.442)" fill="#fff"/>
        <path id="Path_5151" data-name="Path 5151" d="M238.739,191.32v.932l-5.387,5.387h-.932Z" transform="translate(-229.387 -183.613)" fill="#fff"/>
        <path id="Path_5152" data-name="Path 5152" d="M233.8,180.418l-5.71,5.71V185a4.447,4.447,0,0,1,.063-.75l3.874-3.874a5.218,5.218,0,0,1,.743-.056A4.505,4.505,0,0,1,233.8,180.418Z" transform="translate(-228.09 -180.319)" fill="#fff"/>
      </g>
      <rect id="Rectangle_442" data-name="Rectangle 442" width="9.352" height="0.911" transform="translate(83.142 78.799)" fill="#263238"/>
      <rect id="Rectangle_443" data-name="Rectangle 443" width="14.046" height="0.911" transform="translate(88.277 71.604) rotate(90)" fill="#263238"/>
      <rect id="Rectangle_444" data-name="Rectangle 444" width="13.57" height="2.354" transform="translate(81.04 86.561)" fill="#32e0c4"/>
      <rect id="Rectangle_445" data-name="Rectangle 445" width="13.57" height="2.354" transform="translate(81.04 86.561)" opacity="0.1"/>
      <path id="Path_5153" data-name="Path 5153" d="M258.31,183.917a7.447,7.447,0,0,1,7.447-7.447h0a7.447,7.447,0,0,1,7.447,7.447Z" transform="translate(-153.997 -107.542)" fill="#32e0c4"/>
      <path id="Path_5154" data-name="Path 5154" d="M272.146,194.861H261V184.6a5.6,5.6,0,0,1,5.6-5.6h0a5.6,5.6,0,0,1,5.6,5.6Z" transform="translate(-154.803 -108.3)" fill="#263238"/>
      <path id="Path_5155" data-name="Path 5155" d="M271.619,185v9.366H262.26V185a4.68,4.68,0,0,1,4.68-4.68h0A4.68,4.68,0,0,1,271.619,185Z" transform="translate(-155.18 -108.695)" fill="#c7c7c7"/>
      <g id="Group_104" data-name="Group 104" transform="translate(107.08 71.624)" opacity="0.3">
        <path id="Path_5156" data-name="Path 5156" d="M271.038,182.876l-8.778,8.778v-4.4l6.431-6.424a4.567,4.567,0,0,1,1.555,1.03A4.654,4.654,0,0,1,271.038,182.876Z" transform="translate(-262.26 -180.472)" fill="#fff"/>
        <path id="Path_5157" data-name="Path 5157" d="M273.741,194.09v4.378H269.37Z" transform="translate(-264.389 -184.442)" fill="#fff"/>
        <path id="Path_5158" data-name="Path 5158" d="M272.909,191.32v.932l-5.38,5.387h-.939Z" transform="translate(-263.557 -183.613)" fill="#fff"/>
        <path id="Path_5159" data-name="Path 5159" d="M267.97,180.418l-5.71,5.71V185a4.448,4.448,0,0,1,.063-.75l3.874-3.874a5.219,5.219,0,0,1,.743-.056,4.506,4.506,0,0,1,1.03.1Z" transform="translate(-262.26 -180.319)" fill="#fff"/>
      </g>
      <rect id="Rectangle_446" data-name="Rectangle 446" width="9.352" height="0.911" transform="translate(107.08 78.799)" fill="#263238"/>
      <rect id="Rectangle_447" data-name="Rectangle 447" width="14.046" height="0.911" transform="translate(112.215 71.604) rotate(90)" fill="#263238"/>
      <rect id="Rectangle_448" data-name="Rectangle 448" width="13.57" height="2.354" transform="translate(104.978 86.561)" fill="#32e0c4"/>
      <rect id="Rectangle_449" data-name="Rectangle 449" width="13.57" height="2.354" transform="translate(104.978 86.561)" opacity="0.1"/>
      <path id="Path_5160" data-name="Path 5160" d="M189.49,183.917a7.447,7.447,0,0,1,7.454-7.447h0a7.447,7.447,0,0,1,7.447,7.447Z" transform="translate(-133.389 -107.542)" fill="#32e0c4"/>
      <path id="Path_5161" data-name="Path 5161" d="M203.324,194.861H192.15V184.6a5.6,5.6,0,0,1,5.6-5.6h0a5.6,5.6,0,0,1,5.6,5.6Z" transform="translate(-134.186 -108.3)" fill="#263238"/>
      <path id="Path_5162" data-name="Path 5162" d="M202.8,185v9.366H193.45V185a4.68,4.68,0,0,1,4.68-4.68h0A4.68,4.68,0,0,1,202.8,185Z" transform="translate(-134.575 -108.695)" fill="#c7c7c7"/>
      <g id="Group_105" data-name="Group 105" transform="translate(58.875 71.624)" opacity="0.3">
        <path id="Path_5163" data-name="Path 5163" d="M202.251,182.876l-8.771,8.778v-4.4l6.424-6.424a4.532,4.532,0,0,1,1.562,1.03,4.625,4.625,0,0,1,.785,1.016Z" transform="translate(-193.459 -180.472)" fill="#fff"/>
        <path id="Path_5164" data-name="Path 5164" d="M204.928,194.09v4.378H200.55Z" transform="translate(-195.576 -184.442)" fill="#fff"/>
        <path id="Path_5165" data-name="Path 5165" d="M204.1,191.32v.932l-5.387,5.387h-.932Z" transform="translate(-194.747 -183.613)" fill="#fff"/>
        <path id="Path_5166" data-name="Path 5166" d="M199.16,180.418l-5.71,5.71V185a4.45,4.45,0,0,1,.063-.75l3.867-3.874a5.218,5.218,0,0,1,.743-.056,4.569,4.569,0,0,1,1.037.1Z" transform="translate(-193.45 -180.319)" fill="#fff"/>
      </g>
      <rect id="Rectangle_450" data-name="Rectangle 450" width="9.352" height="0.911" transform="translate(58.875 78.799)" fill="#263238"/>
      <rect id="Rectangle_451" data-name="Rectangle 451" width="14.046" height="0.911" transform="translate(64.003 71.604) rotate(90)" fill="#263238"/>
      <rect id="Rectangle_452" data-name="Rectangle 452" width="13.57" height="2.354" transform="translate(56.766 86.561)" fill="#32e0c4"/>
      <rect id="Rectangle_453" data-name="Rectangle 453" width="13.57" height="2.354" transform="translate(56.766 86.561)" opacity="0.1"/>
      <path id="Path_5167" data-name="Path 5167" d="M204.307,240.846H189.7V225.777a7.307,7.307,0,0,1,7.307-7.307h0a7.3,7.3,0,0,1,7.3,7.307Z" transform="translate(-133.452 -120.119)" fill="#263238"/>
      <path id="Path_5168" data-name="Path 5168" d="M203.632,226.286v13.878H191.4V226.286a6.109,6.109,0,0,1,6.116-6.116h0a6.116,6.116,0,0,1,6.116,6.116Z" transform="translate(-133.961 -120.628)" fill="#c7c7c7"/>
      <g id="Group_106" data-name="Group 106" transform="translate(57.438 99.535)" opacity="0.3">
        <path id="Path_5169" data-name="Path 5169" d="M202.868,223.525,191.4,235v-5.794l8.407-8.407a6.08,6.08,0,0,1,2.039,1.345A5.863,5.863,0,0,1,202.868,223.525Z" transform="translate(-191.4 -220.352)" fill="#fff"/>
        <path id="Path_5170" data-name="Path 5170" d="M205.716,238.21V244l-1.562,1.562H198.36Z" transform="translate(-193.484 -225.565)" fill="#fff"/>
        <path id="Path_5171" data-name="Path 5171" d="M204.629,234.58v1.226l-8.673,8.673H194.73Z" transform="translate(-192.397 -224.478)" fill="#fff"/>
        <path id="Path_5172" data-name="Path 5172" d="M198.861,220.314l-7.461,7.44v-1.471a5.672,5.672,0,0,1,.077-.981l5.065-5.065a6.3,6.3,0,0,1,.967-.077A6.1,6.1,0,0,1,198.861,220.314Z" transform="translate(-191.4 -220.16)" fill="#fff"/>
      </g>
      <rect id="Rectangle_454" data-name="Rectangle 454" width="12.232" height="1.191" transform="translate(57.439 108.944)" fill="#263238"/>
      <rect id="Rectangle_455" data-name="Rectangle 455" width="19.994" height="1.191" transform="translate(64.143 99.542) rotate(90)" fill="#263238"/>
      <rect id="Rectangle_456" data-name="Rectangle 456" width="17.738" height="3.075" transform="translate(54.678 120.727)" opacity="0.1"/>
      <path id="Path_5173" data-name="Path 5173" d="M238.954,240.846H224.34V225.777a7.307,7.307,0,0,1,7.307-7.307h0a7.307,7.307,0,0,1,7.307,7.307Z" transform="translate(-143.825 -120.119)" fill="#263238"/>
      <path id="Path_5174" data-name="Path 5174" d="M238.26,226.286v13.878H226V226.286a6.116,6.116,0,0,1,6.116-6.116h0a6.116,6.116,0,0,1,6.144,6.116Z" transform="translate(-144.322 -120.628)" fill="#c7c7c7"/>
      <g id="Group_107" data-name="Group 107" transform="translate(81.678 99.535)" opacity="0.3">
        <path id="Path_5175" data-name="Path 5175" d="M237.5,223.525,226,235v-5.794l8.407-8.407a6.123,6.123,0,0,1,3.068,2.725Z" transform="translate(-226 -220.352)" fill="#fff"/>
        <path id="Path_5176" data-name="Path 5176" d="M240.356,238.21V244l-1.562,1.562H233Z" transform="translate(-228.096 -225.565)" fill="#fff"/>
        <path id="Path_5177" data-name="Path 5177" d="M239.272,234.58v1.226l-8.673,8.673H229.38Z" transform="translate(-227.012 -224.478)" fill="#fff"/>
        <path id="Path_5178" data-name="Path 5178" d="M233.5,220.314l-7.5,7.44v-1.471a5.674,5.674,0,0,1,.084-.981l5.058-5.065a6.364,6.364,0,0,1,.974-.077A6.151,6.151,0,0,1,233.5,220.314Z" transform="translate(-226 -220.16)" fill="#fff"/>
      </g>
      <rect id="Rectangle_457" data-name="Rectangle 457" width="12.232" height="1.191" transform="translate(81.706 108.944)" fill="#263238"/>
      <rect id="Rectangle_458" data-name="Rectangle 458" width="19.994" height="1.191" transform="translate(88.417 99.542) rotate(90)" fill="#263238"/>
      <rect id="Rectangle_459" data-name="Rectangle 459" width="17.738" height="3.075" transform="translate(78.953 120.727)" opacity="0.1"/>
      <path id="Path_5179" data-name="Path 5179" d="M273.6,240.846H259V225.777a7.307,7.307,0,0,1,7.307-7.307h0a7.307,7.307,0,0,1,7.307,7.307Z" transform="translate(-154.204 -120.119)" fill="#263238"/>
      <path id="Path_5180" data-name="Path 5180" d="M272.912,226.286v13.878H260.68V226.286a6.116,6.116,0,0,1,6.116-6.116h0a6.116,6.116,0,0,1,6.116,6.116Z" transform="translate(-154.707 -120.628)" fill="#c7c7c7"/>
      <g id="Group_108" data-name="Group 108" transform="translate(105.973 99.535)" opacity="0.3">
        <path id="Path_5181" data-name="Path 5181" d="M272.155,223.525,260.68,235v-5.794l8.407-8.407a6.039,6.039,0,0,1,3.068,2.725Z" transform="translate(-260.68 -220.352)" fill="#fff"/>
        <path id="Path_5182" data-name="Path 5182" d="M275,238.21V244l-1.562,1.562H267.64Z" transform="translate(-262.764 -225.565)" fill="#fff"/>
        <path id="Path_5183" data-name="Path 5183" d="M273.912,234.58v1.226l-8.673,8.673H264.02Z" transform="translate(-261.68 -224.478)" fill="#fff"/>
        <path id="Path_5184" data-name="Path 5184" d="M268.148,220.314l-7.468,7.44v-1.471a5.671,5.671,0,0,1,.084-.981l5.058-5.065a6.443,6.443,0,0,1,.974-.077A6.1,6.1,0,0,1,268.148,220.314Z" transform="translate(-260.68 -220.16)" fill="#fff"/>
      </g>
      <rect id="Rectangle_460" data-name="Rectangle 460" width="12.232" height="1.191" transform="translate(105.973 108.944)" fill="#263238"/>
      <rect id="Rectangle_461" data-name="Rectangle 461" width="19.994" height="1.191" transform="translate(112.685 99.535) rotate(90)" fill="#263238"/>
      <rect id="Rectangle_462" data-name="Rectangle 462" width="17.738" height="3.075" transform="translate(103.22 120.727)" opacity="0.1"/>
      <path id="Path_5185" data-name="Path 5185" d="M204.307,284.918H189.7V269.877a7.307,7.307,0,0,1,7.307-7.307h0a7.3,7.3,0,0,1,7.3,7.307Z" transform="translate(-133.452 -133.324)" fill="#263238"/>
      <path id="Path_5186" data-name="Path 5186" d="M203.632,270.383v13.878H191.4V270.383a6.116,6.116,0,0,1,6.116-6.123h0a6.116,6.116,0,0,1,6.116,6.123Z" transform="translate(-133.961 -133.83)" fill="#c7c7c7"/>
      <g id="Group_109" data-name="Group 109" transform="translate(57.438 130.429)" opacity="0.3">
        <path id="Path_5187" data-name="Path 5187" d="M202.868,267.6,191.4,279.07v-5.794l8.407-8.407a6.081,6.081,0,0,1,2.039,1.345,5.864,5.864,0,0,1,1.023,1.38Z" transform="translate(-191.4 -264.442)" fill="#fff"/>
        <path id="Path_5188" data-name="Path 5188" d="M205.716,282.28v5.794l-1.562,1.562H198.36Z" transform="translate(-193.484 -269.655)" fill="#fff"/>
        <path id="Path_5189" data-name="Path 5189" d="M204.629,278.65v1.226l-8.673,8.673H194.73Z" transform="translate(-192.397 -268.568)" fill="#fff"/>
        <path id="Path_5190" data-name="Path 5190" d="M198.861,264.393l-7.461,7.468v-1.478a5.752,5.752,0,0,1,.077-.988l5.065-5.058a6.308,6.308,0,0,1,.967-.077,6.1,6.1,0,0,1,1.352.133Z" transform="translate(-191.4 -264.259)" fill="#fff"/>
      </g>
      <rect id="Rectangle_463" data-name="Rectangle 463" width="12.232" height="1.191" transform="translate(57.439 139.817)" fill="#263238"/>
      <rect id="Rectangle_464" data-name="Rectangle 464" width="19.994" height="1.191" transform="translate(64.143 130.416) rotate(90)" fill="#263238"/>
      <rect id="Rectangle_465" data-name="Rectangle 465" width="17.738" height="3.075" transform="translate(54.678 151.594)" opacity="0.1"/>
      <path id="Path_5191" data-name="Path 5191" d="M273.6,284.918H259V269.877a7.307,7.307,0,0,1,7.307-7.307h0a7.307,7.307,0,0,1,7.293,7.307Z" transform="translate(-154.204 -133.324)" fill="#263238"/>
      <path id="Path_5192" data-name="Path 5192" d="M272.912,270.383v13.878H260.68V270.383a6.116,6.116,0,0,1,6.116-6.123h0a6.116,6.116,0,0,1,6.116,6.123Z" transform="translate(-154.707 -133.83)" fill="#c7c7c7"/>
      <g id="Group_110" data-name="Group 110" transform="translate(105.973 130.429)" opacity="0.3">
        <path id="Path_5193" data-name="Path 5193" d="M272.155,267.6,260.68,279.07v-5.794l8.407-8.407a6.039,6.039,0,0,1,3.068,2.725Z" transform="translate(-260.68 -264.442)" fill="#fff"/>
        <path id="Path_5194" data-name="Path 5194" d="M275,282.28v5.794l-1.562,1.562H267.64Z" transform="translate(-262.764 -269.655)" fill="#fff"/>
        <path id="Path_5195" data-name="Path 5195" d="M273.912,278.65v1.226l-8.673,8.673H264.02Z" transform="translate(-261.68 -268.568)" fill="#fff"/>
        <path id="Path_5196" data-name="Path 5196" d="M268.148,264.393l-7.468,7.468v-1.478a5.746,5.746,0,0,1,.084-.988l5.058-5.058a6.443,6.443,0,0,1,.974-.077A6.1,6.1,0,0,1,268.148,264.393Z" transform="translate(-260.68 -264.259)" fill="#fff"/>
      </g>
      <rect id="Rectangle_466" data-name="Rectangle 466" width="12.232" height="1.191" transform="translate(105.973 139.817)" fill="#263238"/>
      <rect id="Rectangle_467" data-name="Rectangle 467" width="19.994" height="1.191" transform="translate(112.685 130.409) rotate(90)" fill="#263238"/>
      <rect id="Rectangle_468" data-name="Rectangle 468" width="17.738" height="3.075" transform="translate(103.22 151.594)" opacity="0.1"/>
      <rect id="Rectangle_469" data-name="Rectangle 469" width="63.428" height="18.621" transform="translate(56.108 201.389)" fill="#2f8286"/>
      <path id="Path_5197" data-name="Path 5197" d="M215.278,379.076a.392.392,0,0,1,.546-.049,2.409,2.409,0,0,0,1.4.567,1.632,1.632,0,0,0,.932-.273.659.659,0,0,0,.315-.532.435.435,0,0,0-.063-.238.75.75,0,0,0-.224-.224,3.084,3.084,0,0,0-1.016-.35h0a3.844,3.844,0,0,1-.96-.287,1.654,1.654,0,0,1-.7-.582,1.121,1.121,0,0,1-.168-.609,1.4,1.4,0,0,1,.6-1.086,2.194,2.194,0,0,1,1.282-.392,2.9,2.9,0,0,1,1.618.6.378.378,0,0,1,.105.525.371.371,0,0,1-.525.112,2.158,2.158,0,0,0-1.2-.476,1.4,1.4,0,0,0-.834.259.588.588,0,0,0-.28.462.336.336,0,0,0,.056.21.7.7,0,0,0,.2.2,2.5,2.5,0,0,0,.932.322h0a4.5,4.5,0,0,1,1.023.315,1.654,1.654,0,0,1,.743.616,1.184,1.184,0,0,1,.182.631,1.4,1.4,0,0,1-.645,1.149,2.319,2.319,0,0,1-1.4.427,3.272,3.272,0,0,1-1.9-.743A.406.406,0,0,1,215.278,379.076Z" transform="translate(-141.082 -166.996)" fill="#fff"/>
      <path id="Path_5198" data-name="Path 5198" d="M222.629,380.025v-4.378a.4.4,0,0,1,.406-.406h2.431a.406.406,0,0,1,.406.406.413.413,0,0,1-.406.413h-2.011v1.359h1.73a.413.413,0,0,1,0,.827h-1.73v1.4h2.011a.413.413,0,0,1,.406.413.42.42,0,0,1-.406.413h-2.41a.406.406,0,0,1-.427-.448Z" transform="translate(-143.312 -167.062)" fill="#fff"/>
      <path id="Path_5199" data-name="Path 5199" d="M228.92,380.025v-4.378a.4.4,0,0,1,.406-.406.406.406,0,0,1,.413.406v3.965h2.039a.413.413,0,0,1,0,.827h-2.452a.406.406,0,0,1-.406-.413Z" transform="translate(-145.196 -167.062)" fill="#fff"/>
      <path id="Path_5200" data-name="Path 5200" d="M234.889,380.025v-4.378a.4.4,0,0,1,.406-.406h2.424a.413.413,0,0,1,.413.406.42.42,0,0,1-.413.413h-2.011v1.359h1.73a.413.413,0,1,1,0,.827h-1.73v1.4h2.011a.413.413,0,0,1,0,.827h-2.4a.406.406,0,0,1-.427-.448Z" transform="translate(-146.983 -167.062)" fill="#fff"/>
      <path id="Path_5201" data-name="Path 5201" d="M240.84,377.7a2.725,2.725,0,0,1,2.725-2.676,2.8,2.8,0,0,1,1.716.581.425.425,0,1,1-.518.673,1.864,1.864,0,0,0-1.2-.406,1.962,1.962,0,0,0-1.331.532,1.843,1.843,0,0,0-.546,1.3,1.786,1.786,0,0,0,.546,1.289,1.933,1.933,0,0,0,1.331.539,1.842,1.842,0,0,0,1.2-.413.455.455,0,0,1,.6.084.434.434,0,0,1-.077.6,2.8,2.8,0,0,1-1.716.581,2.718,2.718,0,0,1-2.725-2.676Z" transform="translate(-148.766 -166.997)" fill="#fff"/>
      <path id="Path_5202" data-name="Path 5202" d="M252.35,376.06h-1.177v3.965a.406.406,0,0,1-.406.413.413.413,0,0,1-.413-.413V376.06h-1.17a.413.413,0,0,1-.413-.413.406.406,0,0,1,.413-.406h3.167a.406.406,0,0,1,.413.406.42.42,0,0,1-.413.413Z" transform="translate(-151.14 -167.062)" fill="#fff"/>
      <rect id="Rectangle_470" data-name="Rectangle 470" width="73.229" height="0.553" transform="translate(51.211 189.417)" fill="#dbdbdb"/>
      <rect id="Rectangle_471" data-name="Rectangle 471" width="66.371" height="0.553" transform="translate(54.636 194.391)" fill="#dbdbdb"/>
      <rect id="Rectangle_472" data-name="Rectangle 472" width="62.104" height="0.553" transform="translate(56.773 191.904)" fill="#dbdbdb"/>
      <rect id="Rectangle_473" data-name="Rectangle 473" width="88.27" height="0.666" transform="translate(43.687 39.497)" fill="#c7c7c7"/>
      <rect id="Rectangle_474" data-name="Rectangle 474" width="74.862" height="0.666" transform="translate(50.391 42.496)" fill="#c7c7c7"/>
    </g>
    <g id="freepik--character-2--inject-53" transform="translate(214.435 104.202)">
      <path id="Path_5203" data-name="Path 5203" d="M268.707,432.89c1.513.49,44.611-.07,46.237-1.135.63-.392.911-6.683,1.037-14.284v-.238c.035-1.569.056-3.181.056-4.82v-.7l-2.1-22.362-28.828.287,2.844,22.152v.883l.168,4.582v.469s-16.351,7.622-18.011,8.981S267.179,432.406,268.707,432.89Z" transform="translate(-268.02 -198.405)" fill="#ffc4c0"/>
      <path id="Path_5204" data-name="Path 5204" d="M268.707,442.448c1.513.49,44.611-.07,46.237-1.135.63-.392.911-6.683,1.037-14.284v-.238c.035-1.569.056-3.181.056-4.82v-.7l-28.078.077v.883l.168,4.582v.469s-16.358,7.622-18.018,8.981S267.179,441.964,268.707,442.448Z" transform="translate(-268.02 -207.963)" fill="#ebebeb"/>
      <path id="Path_5205" data-name="Path 5205" d="M268.707,444.8c.778.252,12.491.224,23.938,0l6.767-.161c8.168-.224,14.908-.56,15.538-.967s.9-6.5,1.03-13.969v-.56h-.035l-27.784.056v.469s-16.393,7.594-18.053,8.953S267.179,444.321,268.707,444.8Z" transform="translate(-268.02 -210.319)" fill="#2f8286"/>
      <path id="Path_5206" data-name="Path 5206" d="M269.591,448.885c7.265-.273,36.59-.7,43.785-.4.063,0,.063.042,0,.042-7.195.427-36.52.6-43.792.476C269.444,449,269.437,448.892,269.591,448.885Z" transform="translate(-268.457 -216.082)" fill="#263238"/>
      <path id="Path_5207" data-name="Path 5207" d="M292.279,429.289c2.851-.567,6.354-.175,8.561,1.835.091.077,0,.2-.119.168a40.043,40.043,0,0,0-8.407-1.639.183.183,0,0,1-.035-.364Z" transform="translate(-275.235 -210.293)" fill="#36ccb4"/>
      <path id="Path_5208" data-name="Path 5208" d="M289.351,431.1c2.858-.567,6.361-.175,8.568,1.835.084.077,0,.2-.119.168a40.486,40.486,0,0,0-8.407-1.639.183.183,0,0,1-.042-.364Z" transform="translate(-274.359 -210.835)" fill="#36ccb4"/>
      <path id="Path_5209" data-name="Path 5209" d="M286.443,432.9c2.851-.574,6.354-.175,8.568,1.828.084.077,0,.2-.119.175a40.12,40.12,0,0,0-8.407-1.646.182.182,0,0,1-.042-.357Z" transform="translate(-273.497 -211.373)" fill="#36ccb4"/>
      <path id="Path_5210" data-name="Path 5210" d="M303.14,444.8l6.767-.161c8.168-.224,14.908-.56,15.538-.967s.9-6.5,1.03-13.969v-.56h-.035C322.658,431.844,309.235,440.741,303.14,444.8Z" transform="translate(-278.537 -210.319)" fill="#263238"/>
      <path id="Path_5211" data-name="Path 5211" d="M292.389,364.321h31.049s-6.256-72.508-6.011-73.769c.308-1.625,2.144-8.967,4.582-18.551.764-3,1.59-6.221,2.445-9.556,2.319-9.016,4.869-18.88,7.09-27.455l5.941-22.831H311.178s-3.068,9.7-6.922,22.362c-6.305,20.554-14.712,48.843-15.545,55.715C287.359,301.341,292.389,364.321,292.389,364.321Z" transform="translate(-274.147 -145.346)" fill="#f3f3f3"/>
      <path id="Path_5212" data-name="Path 5212" d="M295.961,421.707c4.736-.1,3.377-.14,8.119-.182,2.319,0,17.57-.161,19.735.2a.049.049,0,0,1,0,.091c-2.165.364-17.416.231-19.735.21-4.743-.049-3.384-.084-8.119-.189a.07.07,0,1,1,0-.133Z" transform="translate(-276.359 -208.028)" fill="#37474f"/>
      <path id="Path_5213" data-name="Path 5213" d="M321.14,288.925c1.023-4.491,2.543-8.883,3.867-13.311q4.035-13.43,8.119-26.838,2.039-6.7,4.091-13.4,1.037-3.384,2.1-6.767c.7-2.2,1.478-4.385,2.1-6.606.252-.9.392-.406.07.743-.659,2.312-1.3,4.631-1.976,6.943q-2.011,6.851-4.042,13.71-4.035,13.64-8.14,27.266-2.053,6.83-4.112,13.661a56.652,56.652,0,0,0-1.674,6.606,30.606,30.606,0,0,0-.273,7.069c.294,4.75.848,9.493,1.282,14.235l1.324,14.242q1.3,14.179,2.6,28.352c.105,1.2.21,2.4.3,3.594.035.4-.574.371-.616,0-1.023-9.345-1.807-18.719-2.683-28.078s-1.744-18.621-2.62-27.938c-.217-2.333-.462-4.68-.469-7.006A29.423,29.423,0,0,1,321.14,288.925Z" transform="translate(-283.702 -148.153)" fill="#37474f"/>
      <path id="Path_5214" data-name="Path 5214" d="M325.14,212.16c1.828,14.13,5.31,40.632,7.846,59.842,5.934-23.287,15.475-59.842,15.475-59.842Z" transform="translate(-285.124 -145.346)" fill="#37474f"/>
      <path id="Path_5215" data-name="Path 5215" d="M315.636,433.554c1.506.5,44.611.091,46.237-.967.624-.392.932-6.676,1.086-14.277v-.238c.035-1.569.056-3.181.07-4.82v-.7c.1-10.971-.7-22.362-.7-22.362l-28.169.182.785,22.159v.876l.161,4.582v.476s-16.365,7.559-18.011,8.911S314.123,433.071,315.636,433.554Z" transform="translate(-282.08 -198.656)" fill="#ffc4c0"/>
      <path id="Path_5216" data-name="Path 5216" d="M315.636,443.113c1.506.5,44.611.091,46.237-.967.624-.392.932-6.676,1.086-14.277v-.238c.035-1.569.056-3.181.07-4.82v-.7H334.95v.876l.161,4.582v.476s-16.372,7.538-18.018,8.89S314.123,442.629,315.636,443.113Z" transform="translate(-282.08 -208.214)" fill="#ebebeb"/>
      <path id="Path_5217" data-name="Path 5217" d="M315.636,445.448c1.506.5,44.611.091,46.237-.967.624-.392.932-6.676,1.086-14.277v-.238l-27.812-.056v.476s-16.407,7.531-18.053,8.883S314.123,444.965,315.636,445.448Z" transform="translate(-282.08 -210.55)" fill="#2f8286"/>
      <path id="Path_5218" data-name="Path 5218" d="M316.541,449.54c7.265-.245,36.59-.553,43.792-.245.056,0,.056.042,0,.049-7.195.4-36.52.469-43.792.315C316.386,449.652,316.386,449.547,316.541,449.54Z" transform="translate(-282.515 -216.316)" fill="#263238"/>
      <path id="Path_5219" data-name="Path 5219" d="M339.313,429.972c2.851-.56,6.354-.154,8.561,1.863.084.077,0,.2-.119.168a40.55,40.55,0,0,0-8.407-1.674.182.182,0,0,1-.035-.357Z" transform="translate(-289.328 -210.5)" fill="#36ccb4"/>
      <path id="Path_5220" data-name="Path 5220" d="M336.369,431.772c2.851-.56,6.354-.154,8.561,1.863.084.077,0,.2-.119.168a40.089,40.089,0,0,0-8.407-1.667.183.183,0,1,1-.035-.364Z" transform="translate(-288.437 -211.039)" fill="#36ccb4"/>
      <path id="Path_5221" data-name="Path 5221" d="M333.439,433.573c2.851-.553,6.354-.147,8.561,1.863.084.084,0,.2-.119.175a40.109,40.109,0,0,0-8.407-1.674.183.183,0,1,1-.035-.364Z" transform="translate(-287.56 -211.579)" fill="#36ccb4"/>
      <path id="Path_5222" data-name="Path 5222" d="M322.09,212.16s.609,12.61,3.5,22.551c.231.827.483,1.639.75,2.417a46.5,46.5,0,0,1,7.594,3.9s.3,10.13.6,21.423c.336,12.61.7,26.712.617,29.7-.266,11.209,1.4,72.634,1.4,72.634l31.035.126s-5.6-68.655-5.6-72.725c.063-6.578-1.5-35.665-2.7-56.878-.743-13.065-1.345-23.118-1.345-23.118Z" transform="translate(-284.211 -145.346)" fill="#f3f3f3"/>
      <path id="Path_5223" data-name="Path 5223" d="M344.2,422.061c4.743-.084,3.384-.126,8.126-.154,2.319,0,17.57-.077,19.735.294.049,0,.042.084,0,.091-2.172.35-17.416.154-19.742.119-4.743-.063-3.377-.1-8.119-.217a.07.07,0,0,1,0-.133Z" transform="translate(-290.817 -208.152)" fill="#37474f"/>
      <path id="Path_5224" data-name="Path 5224" d="M369.45,218.528c.574,17.311,1.177,34.629,1.955,51.939s1.821,34.727,3.279,52.051c.813,9.682,1.576,23.293,2.62,32.926a.049.049,0,1,1-.1,0c-2.263-17.178-3.5-38.419-4.638-55.7s-1.863-34.594-2.452-51.9c-.329-9.808-.588-19.616-.876-29.374C369.233,218.374,369.45,218.388,369.45,218.528Z" transform="translate(-298.33 -147.217)" fill="#37474f"/>
      <path id="Path_5225" data-name="Path 5225" d="M326.2,246.729a57.52,57.52,0,0,1,8.9,4.645c.112.07,0,.245-.091.182-3-1.45-6.053-2.851-8.967-4.47a.2.2,0,0,1,.161-.357Z" transform="translate(-285.371 -155.697)" fill="#37474f"/>
      <path id="Path_5226" data-name="Path 5226" d="M325.984,231.463c.21,1.107.476,2.2.7,3.293s.385,2.1.659,3.1a5.268,5.268,0,0,0,1.443,2.592c.406.378.848.7,1.275,1.051.238.189.483.364.7.553-.035-.147-.056-.294-.084-.441-.077-.42-.147-.841-.217-1.261-.154-.925-.3-1.856-.448-2.8-.273-1.828-.532-3.678-.918-5.492a.063.063,0,0,1,.119,0c.455,1.793.953,3.573,1.352,5.38.2.89.89,5.275.925,5.6s.056.645.07.967a4.2,4.2,0,0,1,0,.988c0,.077-.119.063-.154,0h0a3.727,3.727,0,0,1-.28-.953c-.084-.315-.154-.631-.21-.953a.835.835,0,0,0-.049-.343c-.434-.266-.834-.609-1.24-.9s-.876-.623-1.289-.967a4.9,4.9,0,0,1-1.576-2.466,18.276,18.276,0,0,1-.518-3.153c-.133-1.24-.238-2.494-.413-3.734C325.865,231.421,325.949,231.393,325.984,231.463Z" transform="translate(-285.331 -151.115)" fill="#37474f"/>
      <path id="Path_5227" data-name="Path 5227" d="M322.434,166.643c-2.41,7.244-13.17,30.25-17.689,31.854-4.708,1.674-22.887,3.755-26.922.574-1.976-1.555-2.662-18.214,0-17.787s18.691,1,20.6.315,14.649-19.223,19.819-23.714C327.163,150.145,323.73,162.748,322.434,166.643Z" transform="translate(-270.432 -128.356)" fill="#ffc4c0"/>
      <path id="Path_5228" data-name="Path 5228" d="M284.33,180.988l.266,20.722s18.635.049,23.6-2.564,15.482-26.565,18.1-35.728-1.569-10.585-8.246-3.86-16.722,20.821-17.913,21.115S284.33,180.988,284.33,180.988Z" transform="translate(-272.904 -128.339)" fill="#2f8286"/>
      <path id="Path_5229" data-name="Path 5229" d="M291.847,202.348c0-1.639-.126-8.2-.273-9.808h-.049c-.161,1.583-.245,8.063-.231,9.71a88.63,88.63,0,0,0,.364,9.808.053.053,0,0,0,.105,0C292.008,208.835,291.875,205.584,291.847,202.348Z" transform="translate(-274.985 -139.471)" fill="#263238"/>
      <path id="Path_5230" data-name="Path 5230" d="M330.952,163.42c-2.627,9.17-13.135,33.115-18.1,35.728-2.382,1.254-7.9,1.9-13.009,2.221l29.269-45.978C331.61,155.111,332.556,157.823,330.952,163.42Z" transform="translate(-277.549 -128.341)" opacity="0.1"/>
      <path id="Path_5231" data-name="Path 5231" d="M358.224,213.366c-.112.112-45.585-3-45.971-3.5-.532-.7,13.864-46.937,17.472-53.7,1.534-2.893,8.89-3.307,11.8-.574,7.279,6.844,12.344,28.975,13.409,35.616C356.7,202.136,358.631,212.967,358.224,213.366Z" transform="translate(-281.261 -127.854)" fill="#2f8286"/>
      <path id="Path_5232" data-name="Path 5232" d="M356.287,160.365c12.2,13.22,26.012,35.567,20.232,40.422-5.275,4.428-19.812,1.338-32.064-3.321-2.333-.89,1.044-21.185,3.426-19.98a51.319,51.319,0,0,0,9.64,3.44c.7.175-3.986-5.555-8.176-16.295C345.092,153.731,349.316,152.813,356.287,160.365Z" transform="translate(-290.673 -128.362)" fill="#ffc4c0"/>
      <path id="Path_5233" data-name="Path 5233" d="M314.42,183.5c-.07,2.1,5.128,1.828,5.128,1.828a3.888,3.888,0,0,0-1.639,2.1c-.434,1.541,1.786,2.893,1.786,2.893a4.806,4.806,0,0,0-1.4,2.459c-.266,1.513,1.779,3.2,1.779,3.2a4.2,4.2,0,0,0,.147,2.928c1.17,2.431,5.31,2.592,7.853,3.2a55.2,55.2,0,0,1,8.323,2.914l5.289-18.761s-10.922-6.9-14.011-6.837C325.061,179.451,314.525,180.284,314.42,183.5Z" transform="translate(-281.914 -135.545)" fill="#ffc4c0"/>
      <path id="Path_5234" data-name="Path 5234" d="M321.781,187.42a35.406,35.406,0,0,1,8.547-.806.049.049,0,1,1,0,.1c-2.8,0-5.71.743-8.526.841C321.725,187.581,321.711,187.441,321.781,187.42Z" transform="translate(-284.105 -137.693)" fill="#263238"/>
      <path id="Path_5235" data-name="Path 5235" d="M322.039,194.6a7.553,7.553,0,0,1,1.948-.056c.7,0,1.4.07,2.1.126q2.1.147,4.133.406c.056,0,.063.105,0,.1-1.4-.1-2.753-.175-4.133-.217l-2.1-.049a8.618,8.618,0,0,1-1.948-.119.1.1,0,0,1,0-.189Z" transform="translate(-284.174 -140.06)" fill="#263238"/>
      <path id="Path_5236" data-name="Path 5236" d="M322.6,202.977a5.3,5.3,0,0,1,1.758.042l1.892.168c1.254.105,2.508.21,3.769.273.063,0,.063.105,0,.1-1.275-.056-2.557-.091-3.839-.161l-1.885-.112a4.987,4.987,0,0,1-1.7-.245S322.574,202.977,322.6,202.977Z" transform="translate(-284.359 -142.58)" fill="#263238"/>
      <path id="Path_5237" data-name="Path 5237" d="M351.932,176.592,347.49,199.71s28.982,7.272,31.91-.07-14.319-34.327-24.19-42-6.081,4.512-5.773,5.485c1.359,4.322,7.629,15.58,7.629,15.58Z" transform="translate(-291.817 -128.266)" fill="#2f8286"/>
      <path id="Path_5238" data-name="Path 5238" d="M354.264,185.712c3.328,1.142,12.071,5.4,14.011,7.16.056.056,0,.147-.063.105-1.891-1.31-12.694-6.473-14.382-7.1a2.564,2.564,0,0,1-.112.266c-.056.077-.105,0-.1-.042a4.283,4.283,0,0,1,.112-.567Z" transform="translate(-293.652 -137.372)" fill="#263238"/>
      <path id="Path_5239" data-name="Path 5239" d="M357.363,200.045c.3-1.611,1.443-8.077,1.6-9.7,0,0,0-.042-.042,0-.462,1.52-1.779,7.867-2.1,9.486a87.9,87.9,0,0,0-1.513,9.724c0,.063.084.091.1,0C356.291,206.441,356.774,203.225,357.363,200.045Z" transform="translate(-294.159 -138.807)" fill="#263238"/>
      <path id="Path_5240" data-name="Path 5240" d="M358.879,184.1c-.925-1.955-2.046-3.818-3.054-5.731s-2.067-3.8-3.005-5.738h-.049c.581,1.324,1.156,2.641,1.765,3.937q-.273-.3-.525-.63c-.308-.392-.6-.8-.876-1.212h-.042a6.714,6.714,0,0,0,.813,1.3,8.847,8.847,0,0,0,.778.841c.252.532.511,1.058.785,1.583a40.929,40.929,0,0,0,3.075,5.6C358.584,184.175,358.914,184.168,358.879,184.1Z" transform="translate(-293.398 -133.509)" fill="#263238"/>
      <path id="Path_5241" data-name="Path 5241" d="M367.035,221.461c-3.412,0-16.323-2.424-19.518-3.047.042-.343,0-.455.077-.939,0-.063-.091-.091-.105,0-.084.448-.378,1.359-.252,1.4,1.541.581,16.449,3.047,19.8,2.739a.077.077,0,1,0,0-.154Z" transform="translate(-291.732 -146.92)" fill="#263238"/>
      <path id="Path_5242" data-name="Path 5242" d="M310.186,209.82l-24.2.357L280.91,176l24.2-.357Z" transform="translate(-271.88 -134.411)" fill="#263238"/>
      <path id="Path_5243" data-name="Path 5243" d="M308.486,209.84l-24.2.364-5.079-34.18,24.2-.364Z" transform="translate(-271.371 -134.417)" fill="#37474f"/>
      <path id="Path_5244" data-name="Path 5244" d="M295.532,197.222a2.62,2.62,0,0,0,2.6,2.319,2.1,2.1,0,0,0,2.1-2.389,2.62,2.62,0,0,0-2.592-2.312,2.1,2.1,0,0,0-2.109,2.382Z" transform="translate(-276.253 -140.16)" fill="#fff"/>
      <path id="Path_5245" data-name="Path 5245" d="M276.3,186.59c-1.212,2.438-4.2,5.443-4.484,7.447a2.326,2.326,0,0,0,1.247,2.473s-2.018.96-1.969,2.8c0,.96,1.576,1.758,1.576,1.758a2.76,2.76,0,0,0-1.443,2.494c.112,1.317,1.653,1.92,1.653,1.92s-1.142,1.52-.6,2.8c1.107,2.641,12.449,2.8,14.27-1.3.848-1.934-1.919-1.835-1.919-1.835s3.951-1.107,4.049-3.44-3.5-1.99-3.5-1.99,3.818-1.107,3.678-3.5c-.147-2.536-3.678-1.569-3.678-1.569s2.55-1.66,2.018-3.5c-.883-3.033-5.724.7-8.2.042l-1.3-4.133Z" transform="translate(-268.942 -137.689)" fill="#ffc4c0"/>
      <path id="Path_5246" data-name="Path 5246" d="M274.556,187.692c.946-2.4-2-5.45-1.4-7.888.771-3.286,4.434,0,5.177,4.827l-.084,3.839Z" transform="translate(-269.533 -135.261)" fill="#ffc4c0"/>
      <path id="Path_5247" data-name="Path 5247" d="M273.984,213.494c-.042,0-.056.049,0,.056a19.616,19.616,0,0,0,11.692-.49c.112-.042.091-.259-.049-.231a40.247,40.247,0,0,1-11.643.666Z" transform="translate(-269.795 -145.546)" fill="#263238"/>
      <path id="Path_5248" data-name="Path 5248" d="M273.252,206.694a.042.042,0,0,0,0,.084,18.411,18.411,0,0,0,12.715-1.331c.14-.07.189-.273,0-.2C283.249,206.47,276.895,207.072,273.252,206.694Z" transform="translate(-269.574 -143.271)" fill="#263238"/>
      <path id="Path_5249" data-name="Path 5249" d="M286.331,197.747a25.28,25.28,0,0,1-12.218,2.151c-.056,0-.049.077,0,.091a16.564,16.564,0,0,0,6.893.133,11.342,11.342,0,0,0,5.394-2.235C286.457,197.838,286.415,197.712,286.331,197.747Z" transform="translate(-269.833 -141.029)" fill="#263238"/>
      <path id="Path_5250" data-name="Path 5250" d="M335.336,158.569h.035c0,2.1.238,6.865,3.447,6.305a6.844,6.844,0,0,0,3.349-2,17.766,17.766,0,0,0,2.529-2.991,26.534,26.534,0,0,0,2.284-3.776c0-.056.112,0,.084.056-.7,1.317-1.212,2.676-2,3.93a16.112,16.112,0,0,1-2.725,3.314,6.893,6.893,0,0,1-3.573,1.969,2.613,2.613,0,0,1-2.8-1.758A11.65,11.65,0,0,1,335.336,158.569Z" transform="translate(-288.161 -128.556)" fill="#263238"/>
      <path id="Path_5251" data-name="Path 5251" d="M337.75,158.369c2.347.049,5.878-4.575,6.8-7.664.063-.21-.659-2.144-1.4-4.54-.462-1.45-.932-3.082-1.261-4.6l-9.023,4.35a24.877,24.877,0,0,1,2.172,5.6,3.447,3.447,0,0,1,.063.637v.105C335.151,153.521,335.487,158.32,337.75,158.369Z" transform="translate(-287.436 -124.209)" fill="#ffc4c0"/>
      <path id="Path_5252" data-name="Path 5252" d="M335.039,152.316a.6.6,0,0,0,0,.105,6.815,6.815,0,0,0,.988-.154c5.485-1.3,5.331-8.33,5.177-10.277l-2.256,1.086-6.158,2.977a24.521,24.521,0,0,1,2.165,5.6,3.364,3.364,0,0,1,.084.659Z" transform="translate(-287.415 -124.334)" fill="#263238"/>
      <path id="Path_5253" data-name="Path 5253" d="M335.7,123.077c2.1,2.914,3.692,12.932,2.1,15.84-2.3,4.2-7.706,6.431-11.7,3.293-3.874-3.04-5.681-16.113-3.755-18.915C325.185,119.126,332.548,118.776,335.7,123.077Z" transform="translate(-284.056 -117.751)" fill="#ffc4c0"/>
      <path id="Path_5254" data-name="Path 5254" d="M336.49,129.96c-1.457.574-2.984-2.683-2.984-2.683s-3.258,2.431-5.191-2.445c0,0-3.748,3.068-6.957,2.641-2.746-.357-5.429-3.755-4.638-6.69.448-1.646,2.627-3.839,8.042-1.541,0,0,3.776-5.492,8.056-.042a3.68,3.68,0,0,1,4.084,1.772C338.927,124.853,337.723,129.455,336.49,129.96Z" transform="translate(-282.561 -116.788)" fill="#263238"/>
      <path id="Path_5255" data-name="Path 5255" d="M333.1,127.762a.042.042,0,1,1,.084,0c.231,1.275.49,2.662,1.8,3.265a3.068,3.068,0,0,0,3.664-.7.062.062,0,1,1,.1.077,3.348,3.348,0,0,1-3.58.946C333.632,130.8,333.121,129.247,333.1,127.762Z" transform="translate(-287.508 -120.061)" fill="#263238"/>
      <path id="Path_5256" data-name="Path 5256" d="M342.956,130.212a6.755,6.755,0,0,0,1.772-6.536,4.9,4.9,0,0,0-2.039-2.865,8.6,8.6,0,0,0-3.089-.7v-.049c5.871-.7,7.517,6.907,3.559,10.326C343.033,130.513,342.844,130.331,342.956,130.212Z" transform="translate(-289.454 -117.754)" fill="#263238"/>
      <path id="Path_5257" data-name="Path 5257" d="M315.75,121.6c1.03-4.028,6.27-3.573,8.946-1.66h0c-2.284-1.338-6.214-2-7.993.42-2.151,2.928,1,7.643,4.484,6.886a.093.093,0,1,1,.042.182C318.1,128.377,314.987,124.6,315.75,121.6Z" transform="translate(-282.278 -117.307)" fill="#263238"/>
      <path id="Path_5258" data-name="Path 5258" d="M338.5,144.1c-2.3,4.2-7.706,6.431-11.692,3.293a10.935,10.935,0,0,1-2.935-5.065c1.786,1.492,2.949-.6,2.949-.6l.9-.252c2.893,1.338,5.9-.168,7.153-1.1a14.618,14.618,0,0,0,2.347-3.061l1.905,1.856A10.429,10.429,0,0,1,338.5,144.1Z" transform="translate(-284.744 -122.933)" fill="#263238" opacity="0.2"/>
      <path id="Path_5259" data-name="Path 5259" d="M331.819,137.7a.064.064,0,0,1,.063.056c.084.7.3,1.436.946,1.562v.035C332.064,139.374,331.791,138.359,331.819,137.7Z" transform="translate(-287.124 -123.05)" fill="#263238"/>
      <path id="Path_5260" data-name="Path 5260" d="M332.307,136.551c1.072-.259,1.506,1.906.511,2.144S331.4,136.768,332.307,136.551Z" transform="translate(-287.122 -122.699)" fill="#263238"/>
      <path id="Path_5261" data-name="Path 5261" d="M326.2,138.62s-.049.042-.042.07c.161.666.224,1.45-.336,1.793v.035C326.556,140.287,326.451,139.222,326.2,138.62Z" transform="translate(-285.328 -123.325)" fill="#263238"/>
      <path id="Path_5262" data-name="Path 5262" d="M325.023,137.788c-1.093.133-.743,2.312.266,2.186S325.934,137.676,325.023,137.788Z" transform="translate(-284.888 -123.075)" fill="#263238"/>
      <path id="Path_5263" data-name="Path 5263" d="M332.644,134.313a7.7,7.7,0,0,1-.9-.126,1.436,1.436,0,0,1-.89-.3.455.455,0,0,1,0-.567,1.163,1.163,0,0,1,1.114-.35,1.709,1.709,0,0,1,1.107.532.5.5,0,0,1-.434.813Z" transform="translate(-286.807 -121.624)" fill="#263238"/>
      <path id="Path_5264" data-name="Path 5264" d="M323.71,136.546c.287-.112.532-.259.813-.4a1.436,1.436,0,0,0,.75-.56.462.462,0,0,0-.14-.553,1.163,1.163,0,0,0-1.17,0,1.709,1.709,0,0,0-.89.841.5.5,0,0,0,.638.673Z" transform="translate(-284.493 -122.204)" fill="#263238"/>
      <path id="Path_5265" data-name="Path 5265" d="M334.6,145.369a1.175,1.175,0,0,1-.224.7,1.745,1.745,0,0,1-.7.308v.042a.9.9,0,0,0,.911-.224.7.7,0,0,0,.07-.806C334.64,145.32,334.6,145.341,334.6,145.369Z" transform="translate(-287.682 -125.338)" fill="#263238"/>
      <path id="Path_5266" data-name="Path 5266" d="M331.3,140.443a2.277,2.277,0,0,1-1.317,1.317,2.662,2.662,0,0,1-.813.2.576.576,0,0,1-.154,0h-.154a.168.168,0,0,1-.168-.119h0v-.07h0v-.056c-.119-.511-.231-1.31-.231-1.31-.168.133-1.037.764-1.079.49a35.1,35.1,0,0,1-.5-7.076.063.063,0,0,1,.126,0c.385,2.158.392,4.371.75,6.543a4.023,4.023,0,0,1,1.016-.546c.077,0,.175,1.541.252,1.765a3.272,3.272,0,0,0,2.214-1.212C331.276,140.345,331.339,140.38,331.3,140.443Z" transform="translate(-285.642 -121.87)" fill="#263238"/>
      <path id="Path_5267" data-name="Path 5267" d="M330.66,144.753a2.48,2.48,0,0,0,1.149.511,1.121,1.121,0,0,0,.666-.119c.448-.245.35-.7.175-1.037a2.713,2.713,0,0,0-.357-.518A3.2,3.2,0,0,1,330.66,144.753Z" transform="translate(-286.777 -124.813)" fill="#263238"/>
      <path id="Path_5268" data-name="Path 5268" d="M332.3,145.506a1.121,1.121,0,0,0,.666-.119c.448-.245.35-.7.175-1.037A1.149,1.149,0,0,0,332.3,145.506Z" transform="translate(-287.268 -125.041)" fill="#ff9cbd"/>
      <path id="Path_5269" data-name="Path 5269" d="M332.676,140.575a3.012,3.012,0,0,1-3.1-2.9h0a3,3,0,1,1,3.832,2.8,3.229,3.229,0,0,1-.736.1Zm-2.725-2.893A2.6,2.6,0,1,0,332.466,135a2.381,2.381,0,0,0-.637.105,2.6,2.6,0,0,0-1.878,2.578Z" transform="translate(-286.454 -122.121)" fill="#32e0c4"/>
      <path id="Path_5270" data-name="Path 5270" d="M323.826,142.042c-1.212.2-2.417-.96-2.69-2.592a3.629,3.629,0,0,1,.28-2.172,1.871,1.871,0,0,1,3.153-.525,3.6,3.6,0,0,1,.974,1.969c.252,1.541-.42,2.956-1.52,3.279Zm-2.032-4.61a3.2,3.2,0,0,0-.245,1.927c.238,1.4,1.24,2.424,2.235,2.263s1.618-1.45,1.4-2.865a3.167,3.167,0,0,0-.855-1.744,1.583,1.583,0,0,0-1.4-.518l-.154.035A1.668,1.668,0,0,0,321.794,137.432Z" transform="translate(-283.908 -122.572)" fill="#32e0c4"/>
      <path id="Path_5271" data-name="Path 5271" d="M328.9,139.166l.2-.343a1.633,1.633,0,0,0-2.221.252l.329.224C327.742,138.5,328.856,139.138,328.9,139.166Z" transform="translate(-285.646 -123.29)" fill="#32e0c4"/>
      <path id="Path_5272" data-name="Path 5272" d="M345.334,136.685l.315-.238c-.112-.147-1.114-1.464-2.025-1.457s-6.067,1.4-6.3,1.4l.1.392c1.5-.4,5.534-1.4,6.186-1.4S345.061,136.328,345.334,136.685Z" transform="translate(-288.772 -122.238)" fill="#32e0c4"/>
      <path id="Path_5273" data-name="Path 5273" d="M342.69,134.866s1.142-3.762,2.8-3.454,1.478,5.282.049,6.424a1.751,1.751,0,0,1-2.522-.168Z" transform="translate(-290.38 -121.162)" fill="#ffc4c0"/>
      <path id="Path_5274" data-name="Path 5274" d="M345.821,133.45v.042a4.421,4.421,0,0,0-1.317,3.335.974.974,0,0,1,1.289-.7.042.042,0,0,1,0,.077,1.072,1.072,0,0,0-1.009.7,4.774,4.774,0,0,0-.238,1.086c0,.119-.224.126-.224,0h0C343.838,136.525,344.3,134.109,345.821,133.45Z" transform="translate(-290.813 -121.777)" fill="#263238"/>
      <path id="Path_5275" data-name="Path 5275" d="M335.662,155.377l3.174,5.31,5.913-8.288,2.361,1.983s-5.086,12.491-5.212,11.987l-3.111-4.519-2.837,3.937-1.079-8.582Z" transform="translate(-288.038 -127.452)" fill="#fff"/>
      <path id="Path_5276" data-name="Path 5276" d="M335.111,162.684c-.133-1.4-.3-2.851-.371-4.273,0-.056.077-.084.1,0,.5,1.31.967,6.753,1.177,8.042h0c.119-.168,2.648-3.5,2.69-3.447.631.7,2.907,3.979,3.075,4.287.806-1.983,3.937-9.226,4.96-11.146a.05.05,0,1,1,.091.042c-.658,2.06-4.785,11.8-4.9,11.79a56.343,56.343,0,0,1-3.265-4.785,39.387,39.387,0,0,1-2.956,4.2A45.01,45.01,0,0,1,335.111,162.684Z" transform="translate(-287.999 -128.565)" fill="#263238"/>
    </g>
    <g id="freepik--Cursor--inject-53" transform="translate(181.256 283.581)">
      <path id="Path_5277" data-name="Path 5277" d="M226.917,390.5V380.224c0-2.8,3.5-2.6,3.5,0v8.512h.084v-3.615a1.583,1.583,0,1,1,3.145,0v3.615h.084v-2.844c0-2.3,3.2-2.41,3.2.2v3.58h.1V387.65c0-2.508,3.209-2.6,3.209.077v9.465c0,1.765-.841,3.825-4.554,3.825h-6.655c-1.709,0-2.977-4.477-3.825-6.214s-2.564-3.328-3.685-4.974.7-3.272,2.473-1.948a22.7,22.7,0,0,1,2.921,2.62Z" transform="translate(-220.816 -374.444)" fill="#fff"/>
      <path id="Path_5278" data-name="Path 5278" d="M235.519,401.213h-6.655c-1.534,0-2.613-2.683-3.5-4.848-.238-.6-.462-1.156-.659-1.555a16.242,16.242,0,0,0-2.1-2.963c-.532-.645-1.079-1.3-1.534-1.969a1.857,1.857,0,0,1,.126-2.459,2.1,2.1,0,0,1,2.8.056,24.147,24.147,0,0,1,2.4,2.06v-9.451a2.466,2.466,0,0,1,.624-1.751,1.9,1.9,0,0,1,1.4-.6,2.2,2.2,0,0,1,2.1,2.354v3.342a1.885,1.885,0,0,1,3.145.883,1.885,1.885,0,0,1,2.8-.056,2.375,2.375,0,0,1,.6,1.625h0a1.877,1.877,0,0,1,1.352-.588,2.037,2.037,0,0,1,1.941,2.319v9.465C240.416,398.607,239.813,401.213,235.519,401.213ZM222.5,387.594a1.205,1.205,0,0,0-.834.315,1.163,1.163,0,0,0,0,1.59c.434.637.974,1.282,1.492,1.912a16.386,16.386,0,0,1,2.214,3.1c.2.42.434.995.7,1.6.7,1.758,1.765,4.421,2.844,4.421h6.655c3.5,0,4.2-1.9,4.2-3.5v-9.451c0-1.135-.631-1.646-1.261-1.646s-1.275.49-1.275,1.569v2.354h-.771v-3.916a1.716,1.716,0,0,0-.413-1.226,1.177,1.177,0,0,0-.869-.371,1.268,1.268,0,0,0-1.247,1.4v3.181h-.757v-3.951a1.261,1.261,0,0,0-1.233-1.4,1.282,1.282,0,0,0-1.24,1.4v3.951h-.757v-8.848A1.527,1.527,0,0,0,228.5,378.4a1.268,1.268,0,0,0-.925.392,1.849,1.849,0,0,0-.434,1.289V391.23l-.588-.645a21.573,21.573,0,0,0-2.886-2.578,1.85,1.85,0,0,0-1.163-.413Z" transform="translate(-220.661 -374.304)" fill="#263238"/>
      <path id="Path_5279" data-name="Path 5279" d="M233.74,375.295a3.909,3.909,0,0,1,1.016-2.445,3.383,3.383,0,0,1-.294,1.31A3.5,3.5,0,0,1,233.74,375.295Z" transform="translate(-224.577 -372.843)" fill="#263238"/>
      <path id="Path_5280" data-name="Path 5280" d="M229.785,375.292a3.5,3.5,0,0,1-.7-1.135,3.552,3.552,0,0,1-.294-1.317,3.811,3.811,0,0,1,1.016,2.452Z" transform="translate(-223.095 -372.84)" fill="#263238"/>
      <path id="Path_5281" data-name="Path 5281" d="M226.672,378.4a3.811,3.811,0,0,1-2.452-1.016,3.58,3.58,0,0,1,1.317.294A3.657,3.657,0,0,1,226.672,378.4Z" transform="translate(-221.727 -374.199)" fill="#263238"/>
      <path id="Path_5282" data-name="Path 5282" d="M226.665,382.36a3.811,3.811,0,0,1-2.445,1.016,3.391,3.391,0,0,1,1.135-.7A3.5,3.5,0,0,1,226.665,382.36Z" transform="translate(-221.727 -375.691)" fill="#263238"/>
      <path id="Path_5283" data-name="Path 5283" d="M236.23,382.37a3.573,3.573,0,0,1,1.317.287,3.412,3.412,0,0,1,1.135.7,3.552,3.552,0,0,1-1.317-.294,3.5,3.5,0,0,1-1.135-.694Z" transform="translate(-225.323 -375.694)" fill="#263238"/>
      <path id="Path_5284" data-name="Path 5284" d="M236.23,378.415a3.391,3.391,0,0,1,1.135-.7,3.447,3.447,0,0,1,1.317-.294,3.811,3.811,0,0,1-2.452,1.016Z" transform="translate(-225.323 -374.211)" fill="#263238"/>
    </g>
  </g>
</svg>
