<svg xmlns="http://www.w3.org/2000/svg" width="278" height="282.216" viewBox="0 0 278 282.216">
  <g id="Group_124" data-name="Group 124" transform="translate(-41 -148.443)">
    <g id="Work_in_progress-cuate" data-name="Work in progress-cuate" transform="translate(-3.88 103.755)">
      <g id="freepik--background-complete--inject-112" transform="translate(45.531 44.687)">
        <rect id="Rectangle_191" data-name="Rectangle 191" width="26.814" height="3.991" transform="translate(246.016 160.71)" fill="#ebebeb"/>
        <rect id="Rectangle_192" data-name="Rectangle 192" width="26.333" height="107.554" transform="translate(242.248 164.701)" fill="#dbdbdb"/>
        <path id="Path_3683" data-name="Path 3683" d="M361.987,344.794H301V310.35h60.987Zm-60.791-.169h60.621V310.519H301.176Z" transform="translate(-128.095 -130.328)" fill="#c7c7c7"/>
        <path id="Path_3684" data-name="Path 3684" d="M350.522,331.793H338.48V325.83h12.042Zm-11.872-.169h11.7V326h-11.7Z" transform="translate(-140.177 -135.318)" fill="#c7c7c7"/>
        <path id="Path_3685" data-name="Path 3685" d="M361.987,408.694H301V374.25h60.987Zm-60.791-.169h60.621V374.419H301.176Z" transform="translate(-128.095 -150.927)" fill="#c7c7c7"/>
        <path id="Path_3686" data-name="Path 3686" d="M350.522,395.693H338.48V389.73h12.042Zm-11.872-.169h11.7v-5.611h-11.7Z" transform="translate(-140.177 -155.917)" fill="#c7c7c7"/>
        <path id="Path_3687" data-name="Path 3687" d="M78.893,241.728l-8.891.19-4.513.075c-1.511,0-3.029,0-4.54.034h-.3v-.3l-.041-7.583V233.8h.339l8.972.041c3,0,5.984.075,8.972.108h.19v.183c0,1.287-.061,2.561-.088,3.829Zm0,0-.095-3.835c0-1.26-.075-2.507-.088-3.747l.183.183c-2.988,0-5.977.108-8.972.108l-8.972.047.339-.339v7.583l-.3-.3c1.477,0,2.954,0,4.439.041l4.459.075Z" transform="translate(-50.601 -105.651)" fill="#ebebeb"/>
        <path id="Path_3688" data-name="Path 3688" d="M64.123,255.838l-8.891.19-4.54.075c-1.511,0-3.029,0-4.54.034h-.271v-.3l-.041-7.583v-.339h.339l8.972.041c2.988,0,5.984.075,8.972.108h.19v.183c0,1.288-.054,2.561-.088,3.829Zm0,0-.095-3.8c-.034-1.26-.075-2.507-.088-3.747l.183.183c-2.988.034-5.984.108-8.972.108l-8.972.047.339-.339-.034,7.583-.3-.3c1.477,0,2.954,0,4.439.041l4.459.074Z" transform="translate(-45.84 -110.199)" fill="#ebebeb"/>
        <path id="Path_3690" data-name="Path 3690" d="M340.116,377.232l-8.891.19-4.52.074h-4.832v-.264l-.034-7.583v-.339h.339l8.972.041c2.988,0,5.984.075,8.972.108h.19v.183c0,1.288-.054,2.561-.088,3.829Zm0,0-.095-3.835c-.034-1.26-.075-2.507-.088-3.747l.183.183c-2.988,0-5.983.108-8.972.108l-8.972.048.339-.339-.034,7.583-.3-.3c1.477,0,2.954,0,4.438.041l4.452.075Z" transform="translate(-134.813 -149.334)" fill="#ebebeb"/>
        <path id="Path_3691" data-name="Path 3691" d="M444.963,255.838l-8.9.19-4.513.075c-1.5,0-3.022,0-4.533.034h-.3v-.3l-.034-7.583v-.339h.339l8.972.041c2.988,0,5.983.075,8.972.108h.183v.183c0,1.288-.054,2.561-.088,3.829Zm0,0L444.868,252c0-1.26-.081-2.507-.088-3.747l.183.183c-2.988.034-5.984.108-8.972.108l-8.972.047.339-.339-.041,7.583-.3-.3c1.477,0,2.954,0,4.432.041l4.459.075Z" transform="translate(-168.609 -110.199)" fill="#ebebeb"/>
        <path id="Path_3692" data-name="Path 3692" d="M430.222,57.372l-8.9.19-4.513.075c-1.5,0-3.022,0-4.533.041H412V49.45h.346l8.972.041c2.988,0,5.977.081,8.972.115h.183v.217c0,1.288-.061,2.568-.088,3.835Zm0,0-.095-3.829c-.034-1.267-.081-2.514-.095-3.754l.19.183c-3,.041-5.984.108-8.972.115l-8.972.041.339-.339-.041,7.583-.3-.3h4.432l4.459.075Z" transform="translate(-163.877 -46.223)" fill="#ebebeb"/>
        <path id="Path_3693" data-name="Path 3693" d="M444.963,71.482l-8.9.19-4.513.075c-1.5,0-3.022,0-4.533.041h-.3v-.3L426.68,63.9V63.56h.339l8.972.041c2.988,0,5.983.081,8.972.115h.183V63.9c0,1.288-.054,2.568-.088,3.835Zm0,0-.095-3.829c0-1.267-.081-2.514-.088-3.754l.183.183c-2.988.041-5.984.108-8.972.115l-8.972.041.339-.339-.041,7.583-.3-.3h4.432l4.459.075Z" transform="translate(-168.609 -50.771)" fill="#ebebeb"/>
        <path id="Path_3694" data-name="Path 3694" d="M78.893,57.388,70,57.577l-4.513.075c-1.511,0-3.029,0-4.54.041h-.3v-.3l-.041-7.549V49.5h.339l8.972.041c3,0,5.984.081,8.972.115h.19v.183c0,1.288-.061,2.568-.088,3.835Zm0,0L78.8,53.559c0-1.267-.075-2.514-.088-3.754l.183.183c-2.988.041-5.977.108-8.972.115l-8.972.041.339-.339v7.583l-.3-.3h4.439l4.459.075Z" transform="translate(-50.601 -46.239)" fill="#ebebeb"/>
        <path id="Path_3695" data-name="Path 3695" d="M340.116,142.5l-8.891.19-4.52.075c-1.5.034-3.022,0-4.533.034h-.3v-.3l-.034-7.583v-.339h.339l8.972.041c2.988,0,5.984.081,8.972.115h.19v.183c0,1.288-.054,2.568-.088,3.829Zm0,0-.095-3.829c-.034-1.267-.075-2.514-.088-3.754l.183.183c-2.988.034-5.983.108-8.972.115l-8.972.041.339-.339-.034,7.583-.3-.3c1.477,0,2.954,0,4.438.041l4.452.075Z" transform="translate(-134.813 -73.662)" fill="#ebebeb"/>
        <circle id="Ellipse_44" data-name="Ellipse 44" cx="24.246" cy="24.246" r="24.246" transform="translate(29.376 47.905) rotate(-81.08)" fill="#ebebeb"/>
        <circle id="Ellipse_45" data-name="Ellipse 45" cx="23.134" cy="23.134" r="23.134" transform="translate(35.061 5.111)" fill="#dbdbdb"/>
        <circle id="Ellipse_46" data-name="Ellipse 46" cx="21.678" cy="21.678" r="21.678" transform="translate(36.518 6.568)" fill="#fff"/>
        <path id="Path_3696" data-name="Path 3696" d="M143.458,72.646c-9.866,5.984-26.089,15.8-35.156,21.169a21.555,21.555,0,0,1-5.923-7.962L132.365,58.07A21.684,21.684,0,0,1,143.458,72.646Z" transform="translate(-64.066 -49.001)" fill="#ebebeb" opacity="0.5"/>
        <path id="Path_3697" data-name="Path 3697" d="M148.526,87.49a21.5,21.5,0,0,1-1.43,7.041l-27.038,12.787a21.426,21.426,0,0,1-3.388-1.464C124.815,101.131,139.737,92.579,148.526,87.49Z" transform="translate(-68.673 -58.485)" fill="#ebebeb" opacity="0.5"/>
        <rect id="Rectangle_195" data-name="Rectangle 195" width="0.42" height="3.287" transform="translate(57.985 8.147)" fill="#c7c7c7"/>
        <rect id="Rectangle_196" data-name="Rectangle 196" width="0.42" height="3.287" transform="translate(47.963 10.938) rotate(-30)" fill="#c7c7c7"/>
        <rect id="Rectangle_197" data-name="Rectangle 197" width="0.42" height="3.287" transform="translate(40.677 18.372) rotate(-60)" fill="#c7c7c7"/>
        <rect id="Rectangle_198" data-name="Rectangle 198" width="3.287" height="0.42" transform="translate(38.097 28.036)" fill="#c7c7c7"/>
        <rect id="Rectangle_199" data-name="Rectangle 199" width="3.298" height="0.422" transform="translate(40.956 38.405) rotate(-29.887)" fill="#c7c7c7"/>
        <rect id="Rectangle_200" data-name="Rectangle 200" width="3.287" height="0.42" transform="translate(47.967 45.551) rotate(-60.03)" fill="#c7c7c7"/>
        <rect id="Rectangle_201" data-name="Rectangle 201" width="0.42" height="3.287" transform="translate(57.985 45.065)" fill="#c7c7c7"/>
        <rect id="Rectangle_202" data-name="Rectangle 202" width="0.42" height="3.287" transform="translate(66.422 42.915) rotate(-30)" fill="#c7c7c7"/>
        <rect id="Rectangle_203" data-name="Rectangle 203" width="0.42" height="3.287" transform="translate(72.648 36.832) rotate(-60)" fill="#c7c7c7"/>
        <rect id="Rectangle_204" data-name="Rectangle 204" width="3.287" height="0.42" transform="translate(75.014 28.036)" fill="#c7c7c7"/>
        <rect id="Rectangle_205" data-name="Rectangle 205" width="3.287" height="0.42" transform="translate(72.654 19.653) rotate(-30)" fill="#c7c7c7"/>
        <rect id="Rectangle_206" data-name="Rectangle 206" width="3.287" height="0.42" transform="translate(66.417 13.573) rotate(-60.03)" fill="#c7c7c7"/>
        <path id="Path_3698" data-name="Path 3698" d="M131.548,58.9l.712,20.078-2.06-.02.786-20.065Z" transform="translate(-73.035 -49.266)" fill="#c7c7c7"/>
        <path id="Path_3699" data-name="Path 3699" d="M143.748,75.808l-13.505,8.62-.983-1.8,14.224-7.3Z" transform="translate(-72.732 -54.562)" fill="#a6a6a6"/>
        <path id="Path_3700" data-name="Path 3700" d="M132.115,86.048a.678.678,0,1,1-.678-.678A.678.678,0,0,1,132.115,86.048Z" transform="translate(-73.215 -57.802)" fill="#c7c7c7"/>
      </g>
      <g id="freepik--Floor--inject-112" transform="translate(44.88 316.631)">
        <path id="Path_3701" data-name="Path 3701" d="M44.88,446.339l34.749-.169,34.749-.061,69.5-.108,69.5.108,34.749.061,34.749.169-34.749.163-34.749.061-69.5.108-69.5-.108L79.629,446.5Z" transform="translate(-44.88 -446)" fill="#263238"/>
      </g>
      <g id="freepik--Board--inject-112" transform="translate(255.326 48.145)">
        <rect id="Rectangle_207" data-name="Rectangle 207" width="67.553" height="75.367" fill="#dbdbdb"/>
        <rect id="Rectangle_208" data-name="Rectangle 208" width="58.649" height="66.503" transform="translate(4.445 4.452)" fill="#ebebeb"/>
        <rect id="Rectangle_209" data-name="Rectangle 209" width="20.675" height="24.497" transform="translate(9.751 16.209)" fill="#fff"/>
        <path id="Path_3702" data-name="Path 3702" d="M385.471,75.819a.745.745,0,1,1-.745-.739.746.746,0,0,1,.745.739Z" transform="translate(-364.64 -57.943)" fill="#455a64"/>
        <path id="Path_3703" data-name="Path 3703" d="M375.63,80.9c2.094-.163,4.181-.176,6.275-.2a60.467,60.467,0,0,1,6.268.2c-2.087.156-4.181.169-6.268.19S377.724,81.032,375.63,80.9Z" transform="translate(-361.949 -59.755)" fill="#ebebeb"/>
        <path id="Path_3704" data-name="Path 3704" d="M375.63,83.72a30.71,30.71,0,0,1,6.817,0A29.662,29.662,0,0,1,375.63,83.72Z" transform="translate(-361.949 -60.667)" fill="#ebebeb"/>
        <path id="Path_3705" data-name="Path 3705" d="M375.63,86.576c1.457-.149,2.907-.19,4.357-.2a42.606,42.606,0,0,1,4.357.2c-1.45.149-2.907.19-4.357.2A40.836,40.836,0,0,1,375.63,86.576Z" transform="translate(-361.949 -61.585)" fill="#ebebeb"/>
        <path id="Path_3706" data-name="Path 3706" d="M375.63,89.436c1.816-.156,3.639-.19,5.455-.2s3.632.041,5.421.2c-1.816.149-3.632.183-5.421.19S377.446,89.585,375.63,89.436Z" transform="translate(-361.949 -62.507)" fill="#ebebeb"/>
        <path id="Path_3707" data-name="Path 3707" d="M375.63,92.289c1.579-.149,3.158-.183,4.743-.19s3.158.041,4.743.19c-1.579.156-3.158.19-4.743.2A46.5,46.5,0,0,1,375.63,92.289Z" transform="translate(-361.949 -63.429)" fill="#ebebeb"/>
        <path id="Path_3708" data-name="Path 3708" d="M375.63,95.142c2.033-.163,4.066-.169,6.065-.2a54.781,54.781,0,0,1,6.058.2c-2.033.163-4.066.169-6.058.2S377.649,95.3,375.63,95.142Z" transform="translate(-361.949 -64.344)" fill="#ebebeb"/>
        <path id="Path_3709" data-name="Path 3709" d="M375.63,98.007a39.134,39.134,0,0,1,7.833,0,40.522,40.522,0,0,1-7.833,0Z" transform="translate(-361.949 -65.27)" fill="#ebebeb"/>
        <path id="Path_3710" data-name="Path 3710" d="M375.63,100.907c2.094-.156,4.181-.169,6.275-.19a62.409,62.409,0,0,1,6.268.19c-2.087.163-4.181.176-6.268.2S377.724,101.035,375.63,100.907Z" transform="translate(-361.949 -66.205)" fill="#ebebeb"/>
        <path id="Path_3711" data-name="Path 3711" d="M375.63,103.712c2.094-.163,4.181-.169,6.275-.2a58.637,58.637,0,0,1,6.268.2c-2.087.163-4.181.169-6.268.2S377.724,103.875,375.63,103.712Z" transform="translate(-361.949 -67.106)" fill="#ebebeb"/>
        <rect id="Rectangle_210" data-name="Rectangle 210" width="24.463" height="28.989" transform="translate(33.57 31.483)" fill="#fff"/>
        <path id="Path_3712" data-name="Path 3712" d="M423.421,101.645a.739.739,0,1,1-.216-.529A.745.745,0,0,1,423.421,101.645Z" transform="translate(-376.874 -66.266)" fill="#455a64"/>
        <path id="Path_3713" data-name="Path 3713" d="M410,106.837a18.839,18.839,0,0,1,5.421,0A19.5,19.5,0,0,1,410,106.837Z" transform="translate(-373.028 -68.117)" fill="#ebebeb"/>
        <path id="Path_3714" data-name="Path 3714" d="M410,110.056a30.549,30.549,0,0,1,3.51-.2,29.139,29.139,0,0,1,3.517.2A31.511,31.511,0,0,1,410,110.056Z" transform="translate(-373.028 -69.154)" fill="#ebebeb"/>
        <path id="Path_3715" data-name="Path 3715" d="M410,113.287a27.105,27.105,0,0,1,6.512,0,28.034,28.034,0,0,1-6.512,0Z" transform="translate(-373.028 -70.196)" fill="#ebebeb"/>
        <path id="Path_3716" data-name="Path 3716" d="M410,116.51a28.034,28.034,0,0,1,6.512,0A27.105,27.105,0,0,1,410,116.51Z" transform="translate(-373.028 -71.237)" fill="#ebebeb"/>
        <path id="Path_3717" data-name="Path 3717" d="M410,119.737a20.417,20.417,0,0,1,5.651,0,21.135,21.135,0,0,1-5.651,0Z" transform="translate(-373.028 -72.275)" fill="#ebebeb"/>
        <path id="Path_3718" data-name="Path 3718" d="M410,122.96a34.6,34.6,0,0,1,7.237,0A33.414,33.414,0,0,1,410,122.96Z" transform="translate(-373.028 -73.316)" fill="#ebebeb"/>
        <path id="Path_3719" data-name="Path 3719" d="M410,126.187a22.822,22.822,0,0,1,5.977,0,22.823,22.823,0,0,1-5.977,0Z" transform="translate(-373.028 -74.354)" fill="#ebebeb"/>
        <path id="Path_3720" data-name="Path 3720" d="M410,129.41a37.034,37.034,0,0,1,7.488,0A35.768,35.768,0,0,1,410,129.41Z" transform="translate(-373.028 -75.395)" fill="#ebebeb"/>
        <path id="Path_3721" data-name="Path 3721" d="M410,132.636a32.976,32.976,0,0,1,3.747-.2,31.445,31.445,0,0,1,3.74.2,32.941,32.941,0,0,1-3.741.2A34.613,34.613,0,0,1,410,132.636Z" transform="translate(-373.028 -76.433)" fill="#ebebeb"/>
        <path id="Path_3722" data-name="Path 3722" d="M425.81,106.837a32.243,32.243,0,0,1,7.108,0A33.386,33.386,0,0,1,425.81,106.837Z" transform="translate(-378.125 -68.116)" fill="#ebebeb"/>
        <path id="Path_3723" data-name="Path 3723" d="M425.81,110.056a13.613,13.613,0,0,1,2.338-.2,12.943,12.943,0,0,1,2.331.2A13.966,13.966,0,0,1,425.81,110.056Z" transform="translate(-378.125 -69.154)" fill="#ebebeb"/>
        <path id="Path_3724" data-name="Path 3724" d="M425.81,113.287a28.556,28.556,0,0,1,6.688,0A29.565,29.565,0,0,1,425.81,113.287Z" transform="translate(-378.125 -70.196)" fill="#ebebeb"/>
        <path id="Path_3725" data-name="Path 3725" d="M425.81,116.51a27.974,27.974,0,0,1,6.505,0,27.018,27.018,0,0,1-6.505,0Z" transform="translate(-378.125 -71.237)" fill="#ebebeb"/>
        <path id="Path_3726" data-name="Path 3726" d="M425.81,119.737a32.241,32.241,0,0,1,7.108,0A33.388,33.388,0,0,1,425.81,119.737Z" transform="translate(-378.125 -72.275)" fill="#ebebeb"/>
        <path id="Path_3727" data-name="Path 3727" d="M425.81,122.96a21.135,21.135,0,0,1,5.651,0A20.417,20.417,0,0,1,425.81,122.96Z" transform="translate(-378.125 -73.316)" fill="#ebebeb"/>
        <path id="Path_3728" data-name="Path 3728" d="M425.81,126.187a28.555,28.555,0,0,1,6.688,0A28.555,28.555,0,0,1,425.81,126.187Z" transform="translate(-378.125 -74.354)" fill="#ebebeb"/>
        <path id="Path_3729" data-name="Path 3729" d="M425.81,129.41a17.707,17.707,0,0,1,5.17,0,17.105,17.105,0,0,1-5.17,0Z" transform="translate(-378.125 -75.395)" fill="#ebebeb"/>
        <path id="Path_3730" data-name="Path 3730" d="M425.81,132.636a14.568,14.568,0,0,1,2.48-.2,13.912,13.912,0,0,1,2.48.2,14.571,14.571,0,0,1-2.48.2A15.3,15.3,0,0,1,425.81,132.636Z" transform="translate(-378.125 -76.433)" fill="#ebebeb"/>
        <rect id="Rectangle_211" data-name="Rectangle 211" width="12.441" height="12.441" transform="translate(28.522 9.48)" fill="#36ccb4"/>
        <path id="Path_3731" data-name="Path 3731" d="M407.091,65.285a.745.745,0,1,1-.739-.745.745.745,0,0,1,.739.745Z" transform="translate(-371.61 -54.545)" fill="#455a64"/>
        <rect id="Rectangle_212" data-name="Rectangle 212" width="1.681" height="66.578" transform="translate(61.367 4.452)" fill="#c7c7c7"/>
      </g>
      <g id="freepik--Character--inject-112" transform="translate(61.902 61.536)">
        <path id="Path_3732" data-name="Path 3732" d="M191.23,305.26l1.979,13.471,13.377,82.211h2.162l-9.731-82.211-1.437-13.471Z" transform="translate(-109.08 -145.535)" fill="#32e0c4"/>
        <path id="Path_3733" data-name="Path 3733" d="M197.579,305.26H191.23l1.979,13.471h5.807Z" transform="translate(-109.08 -145.535)" fill="#a6a6a6"/>
        <path id="Path_3734" data-name="Path 3734" d="M129.23,400.942h2.155l13.377-82.211,1.979-13.471H140.4l-1.437,13.471Z" transform="translate(-89.094 -145.535)" fill="#455a64"/>
        <path id="Path_3735" data-name="Path 3735" d="M145.027,305.26l-1.437,13.471h5.8l1.979-13.471Z" transform="translate(-93.723 -145.535)" fill="#1c1c1c"/>
        <path id="Path_3736" data-name="Path 3736" d="M70,400.942h2.155l13.383-82.211L87.51,305.26H81.167l-1.437,13.471Z" transform="translate(-70 -145.535)" fill="#455a64"/>
        <path id="Path_3737" data-name="Path 3737" d="M84.36,318.731h5.807l1.972-13.471H85.8Z" transform="translate(-74.629 -145.535)" fill="#1c1c1c"/>
        <path id="Path_3738" data-name="Path 3738" d="M73.6,267.288H171.65V256.961H134.942L122.609,170.21H70.56Z" transform="translate(-70.181 -102)" fill="#455a64"/>
        <path id="Path_3739" data-name="Path 3739" d="M75.493,298.23H173.12v10.327h-98Z" transform="translate(-71.65 -143.269)" fill="#455a64"/>
        <path id="Path_3740" data-name="Path 3740" d="M73.6,267.288h5.347L75.656,170.21h-5.1Z" transform="translate(-70.181 -102)" fill="#455a64"/>
        <path id="Path_3741" data-name="Path 3741" d="M185.536,418.432c-2.162-.3-56.467-27.4-57.85-29.674-.169-.264,2.168-5.225,5.5-11.974,7.508-15.267,22.531-41.085,22.531-41.085l32.7,18.371-18,34.092s6.038,7.312,10.944,13.519h0a88.66,88.66,0,0,1,6.1,8.233C188.687,412.6,187.691,418.731,185.536,418.432Z" transform="translate(-88.593 -155.348)" fill="#f7a9a0"/>
        <path id="Path_3742" data-name="Path 3742" d="M185.536,437.977c-2.162-.3-56.467-27.4-57.85-29.674-.169-.264,2.168-5.225,5.5-11.974,12.069,9.487,45.761,31.686,48.173,29.362.962-.928.725-2.629,0-4.438a88.647,88.647,0,0,1,6.1,8.233C188.687,432.143,187.691,438.276,185.536,437.977Z" transform="translate(-88.593 -174.893)" fill="#263238"/>
        <path id="Path_3743" data-name="Path 3743" d="M168.99,347.572l-37.88-19.99s28.9-56.637,28.142-57.6c-2.656-3.422-34.654-1.863-48.478-15.586-14.63-14.542-3.456-35.237-3.456-35.237h38.239s-.352,10.375,1.294,11.737c1.084.9,57.3,6.322,59.5,21.156C210.143,277.681,168.99,347.572,168.99,347.572Z" transform="translate(-80.714 -117.78)" fill="#f3f3f3"/>
        <path id="Path_3744" data-name="Path 3744" d="M186.482,389.187c-4.56-2.751-9.229-5.286-13.912-7.813s-9.4-4.987-14.163-7.346c-2.711-1.355-5.421-2.534-8.132-3.863a.077.077,0,1,0-.075.135c2.358,1.267,4.655,2.656,7.007,3.93s4.642,2.514,6.973,3.754c4.7,2.487,9.426,4.926,14.142,7.386,2.656,1.4,5.347,2.711,8.05,3.991a.1.1,0,0,0,.108-.176Z" transform="translate(-95.841 -166.455)" fill="#263238"/>
        <path id="Path_3745" data-name="Path 3745" d="M180.185,265.234c-.942-1.945-3.436-2.229-5.292-2.711q-7.623-1.911-15.254-3.8c-9.006-2.229-18.3-4.337-26.367-9.107-3.856-2.284-7.6-5.164-9.487-9.324s-1.958-8.572-1.958-12.963c0-1.091.061-2.175.129-3.259a.071.071,0,0,0-.142,0c-.285,4.323-.725,8.653.244,12.936a17.4,17.4,0,0,0,2.426,5.834,20.167,20.167,0,0,0,4.391,4.621c7.142,5.6,16.094,8.281,24.754,10.49,4.893,1.247,9.805,2.44,14.711,3.639l7.576,1.857a6.974,6.974,0,0,1,3.11,1.227,3.28,3.28,0,0,1,.935,2.744,10.557,10.557,0,0,1-.766,3.015c-.454,1.186-.935,2.365-1.416,3.544q-1.4,3.456-2.873,6.871-2.968,6.892-6.173,13.681c-4.249,9.026-8.809,17.917-13.424,26.753-.576,1.1-1.138,2.209-1.7,3.314-.041.068.061.122.1.054,4.96-8.735,9.6-17.666,14.007-26.685s8.552-18.059,12.1-27.376C180.4,268.947,181,266.921,180.185,265.234Z" transform="translate(-86.59 -119.339)" fill="#263238"/>
        <path id="Path_3746" data-name="Path 3746" d="M333.637,432.624c-2.074.678-62.763.034-65-1.416-.271-.163-.285-13.166-.285-13.166-9.968-22.626-18.974-44.507-18.974-44.507l42.427-.054,15.01,38.53s8.633,3.937,15.755,7.379h0a91.049,91.049,0,0,1,9.067,4.743C333.922,426.01,335.7,431.953,333.637,432.624Z" transform="translate(-127.826 -167.527)" fill="#f7a9a0"/>
        <path id="Path_3747" data-name="Path 3747" d="M342.656,453.823c-2.074.678-62.763.034-65-1.416-.271-.163-.332-5.645-.285-13.166,15,3.273,55,8.5,56.156,5.36.461-1.254-.5-2.711-1.931-4a91.038,91.038,0,0,1,9.067,4.743C342.941,447.209,344.723,453.152,342.656,453.823Z" transform="translate(-136.845 -188.726)" fill="#263238"/>
        <path id="Path_3748" data-name="Path 3748" d="M252.489,354.105l-45.815-.339s-23.04-59.347-26.76-63.325c-1.884-2.033-14.495-4.262-29.552-7.562h-.081c-5.563-1.22-11.466-2.589-17.273-4.154-15.111-4.032-29.647-9.331-36.267-16.656-13.851-15.308,0-42.969,0-42.969h39.011s.969,12.042-2.033,19.414c0,0,28.7,4.215,52.856,12.055,13.7,4.438,25.933,10.056,30.677,16.738C226.529,280.345,252.489,354.105,252.489,354.105Z" transform="translate(-76.636 -117.76)" fill="#f3f3f3"/>
        <path id="Path_3749" data-name="Path 3749" d="M302.393,407.8c-5.313-.393-10.619-.529-15.945-.678s-10.639-.183-15.952-.122c-3,0-6,.2-8.992.244a.075.075,0,0,0,0,.149c2.711.054,5.353.258,8.03.325s5.272.136,7.915.183c5.319.088,10.639.115,15.952.169q4.5.051,8.992-.095a.1.1,0,0,0,0-.176Z" transform="translate(-131.71 -178.322)" fill="#263238"/>
        <path id="Path_3750" data-name="Path 3750" d="M122.038,227.424a2.921,2.921,0,0,1-.217.522.061.061,0,0,0,0,.088c-.515,1.6-.732,3.3-1.227,4.9a7.684,7.684,0,0,1-2.961,4.228c-3.022,2.1-6.668,3.056-10.165,3.924a.1.1,0,0,0,.034.2,19.245,19.245,0,0,0,6-.922,15.531,15.531,0,0,0,5.062-2.426,7.9,7.9,0,0,0,2.907-4.371,26.428,26.428,0,0,0,.508-2.819,22.359,22.359,0,0,0,.352-3.287.156.156,0,0,0-.3-.034Z" transform="translate(-82.058 -120.412)" fill="#263238"/>
        <path id="Path_3751" data-name="Path 3751" d="M158.228,238.091a44.384,44.384,0,0,0-7.014,2.711l-.115.047a1.881,1.881,0,0,0,.108-.427l.081-.508c0-.169.041-.352.054-.529v-.271h0a2.094,2.094,0,0,0,1.5-.773,5.679,5.679,0,0,0,.942-2.209c.264-1,.5-2,.718-3.009.244-1.125.454-2.25.63-3.388a21.638,21.638,0,0,0,.386-3.388.157.157,0,1,0-.312-.034c-.264,1.03-.386,2.1-.583,3.151s-.42,2.094-.678,3.137-.5,2.08-.786,3.11c-.258.915-.515,2.25-1.579,2.548-2.189.623-1.206-4.289-1.111-5.252.224-2.229.366-4.5.752-6.7,0-.095-.122-.129-.142-.034-.474,2.033-1.023,4.018-1.355,6.1-.176,1-.3,2.033-.413,3.036a4.7,4.7,0,0,0,.2,2.616,1.938,1.938,0,0,0,1.443,1.071.706.706,0,0,1-.068.224c-.027.075-.1.325-.142.495s-.075.332-.115.495a1.267,1.267,0,0,0-.075.61.285.285,0,0,0,.108.129c-.935.407-1.87.813-2.8,1.24a25.222,25.222,0,0,0-3.388,1.633c-.122.061,0,.237.095.21a24.308,24.308,0,0,0,3.524-1.274c1.172-.447,2.331-.928,3.49-1.409a43.818,43.818,0,0,0,6.668-3.1.126.126,0,1,0-.034-.251Z" transform="translate(-93.995 -120.041)" fill="#263238"/>
        <path id="Path_3752" data-name="Path 3752" d="M205.906,326.468q-3.619-8.979-7.664-17.761t-8.545-17.4c-1.3-2.487-2.487-5.008-5.089-6.356a18.839,18.839,0,0,0-3.747-1.355c-1.518-.407-3.043-.793-4.567-1.179-12.428-3.144-24.984-5.733-37.331-9.189-6.166-1.735-12.286-3.68-18.256-6.017-4.845-1.891-9.683-4.066-13.715-7.454a21.847,21.847,0,0,1-4.92-5.6c-1.531-2.561-5.109-9.528.19-30.616,0-.095-.1-.163-.129-.075-4.222,15.023-3.334,23.2-2.561,26.191a19.123,19.123,0,0,0,3.469,7.027c3.124,3.991,7.529,6.776,12.048,8.918a126.719,126.719,0,0,0,16.731,6.268c12.3,3.849,24.917,6.553,37.446,9.487,3.11.739,6.214,1.491,9.311,2.284,2.765.712,6,1.267,7.983,3.517a18.886,18.886,0,0,1,2.311,3.822c.745,1.437,1.477,2.873,2.209,4.317q2.236,4.432,4.378,8.9,8.457,17.666,15.389,36.01c.569,1.518,1.132,3.029,1.714,4.54.047.115.224.061.19-.054C210.711,338.557,208.339,332.485,205.906,326.468Z" transform="translate(-79.324 -119.153)" fill="#263238"/>
        <path id="Path_3753" data-name="Path 3753" d="M214.319,333.37a44.42,44.42,0,0,0-3.307-8.165c-1.22-2.392-2.589-5.245-5.245-6.268a38.483,38.483,0,0,0-4.344-1.193q-2.3-.59-4.621-1.138-4.628-1.1-9.284-2.074c-3.449-.718-6.939-1.4-10.449-1.782-.081,0-.088.122,0,.149,2.968.861,6,1.511,9,2.236s5.868,1.4,8.809,2.107,6,1.491,9,2.277a7.277,7.277,0,0,1,3.51,1.857c1.355,1.315,5.963,11.039,6.715,12.489C214.272,334.292,214.441,333.811,214.319,333.37Z" transform="translate(-104.495 -147.95)" fill="#263238"/>
        <path id="Path_3754" data-name="Path 3754" d="M223.147,265.536a70.829,70.829,0,0,0-11.134-5.089c-4.378-1.491-8.85-2.711-13.316-3.957-9.182-2.5-18.493-4.588-27.864-6.268q-4-.725-8.016-1.355a72.015,72.015,0,0,0-7.854-.976c-.095,0-.108.136,0,.163,2.317.569,4.7.928,7.061,1.355s4.649.813,6.966,1.26q6.953,1.355,13.864,2.9c9.114,2.033,18.242,4.33,27.153,7.149a119.214,119.214,0,0,1,13,5.184.2.2,0,0,0,.136-.366Z" transform="translate(-97.365 -127.041)" fill="#263238"/>
        <path id="Path_3755" data-name="Path 3755" d="M142.378,100.844a3.334,3.334,0,0,0,5.177-3.1,3.063,3.063,0,0,0,3.72-.325,2.941,2.941,0,0,0,.2-3.89h0a2.988,2.988,0,0,1-.346,3.686,2.711,2.711,0,0,1-2.954.5,3.7,3.7,0,0,0,2.711-1.071,2.846,2.846,0,0,0,.529-3.11,4.2,4.2,0,0,0,2.528-2.792,2.866,2.866,0,0,0-1.084-2.927,3.192,3.192,0,0,0-1.1-5.767,2.67,2.67,0,0,0-.569-4.466,1.8,1.8,0,0,0,.224-1.931,3.022,3.022,0,0,0-1.809-1.443,2.162,2.162,0,0,0-.732-1.924,1.958,1.958,0,0,0-2.534.088,5.34,5.34,0,0,0-2.934-2.446,2.792,2.792,0,0,0-2.948.922,3.869,3.869,0,0,0-5.787,0,2.711,2.711,0,0,0-2.711-.061,4.066,4.066,0,0,0-1.484,1.254,2.033,2.033,0,0,0-2.351.359,2.711,2.711,0,0,0-.725,2.2,1.444,1.444,0,0,1-.454.508,3.537,3.537,0,0,0-1.491,3,2.412,2.412,0,0,0-1.355,3.341,2.711,2.711,0,0,0-.59,3.761,3.957,3.957,0,0,0-1.355,3,2.29,2.29,0,0,0,1.24,2.182,1.389,1.389,0,0,0,.176,1.836,3.137,3.137,0,0,0,.59.488,2.921,2.921,0,0,1,.793.569,2.127,2.127,0,0,1,.2.922,3.388,3.388,0,0,0,.19.63,3.585,3.585,0,0,0,3.991,2.033,2.852,2.852,0,0,0,2.412,2.033,5.76,5.76,0,0,0,1.077.115,1.538,1.538,0,0,1,.915.257c.169.122.312.285.488.413a2.473,2.473,0,0,0,1.958.271C136.869,103.059,140.7,103.175,142.378,100.844ZM128.06,72.9a2.155,2.155,0,0,1,2.365-.759l-.054.1h-.44a2.71,2.71,0,0,0-.766.2,2.893,2.893,0,0,0-1.254,1.044,3.118,3.118,0,0,0-.3.678.411.411,0,0,0,0,.081A2.588,2.588,0,0,1,128.06,72.9Zm20.715.136a2.033,2.033,0,0,0-2.331-.474l-.041-.054a1.857,1.857,0,0,1,2.345-.041,1.769,1.769,0,0,1,.6,1.694h0A2.3,2.3,0,0,0,148.775,73.04Zm-12.5,26.95h0a3.734,3.734,0,0,0,4.96,1.559C139.431,102.639,137.195,102.517,136.28,99.99Z" transform="translate(-86.812 -69.551)" fill="#263238"/>
        <path id="Path_3756" data-name="Path 3756" d="M147.488,160.338c5.719,16.311,15.924,35.495,19.685,38.368,4.743,3.639,34.038,8.016,35.474,8.01,3.551-.034,5.828-24.395,2.033-24.53-5.787-.19-24.686-.678-26.069-1.83s-11.4-11.228-21.779-22.674C149.677,149.773,143.951,150.214,147.488,160.338Z" transform="translate(-94.633 -96.193)" fill="#f7a9a0"/>
        <path id="Path_3757" data-name="Path 3757" d="M222.727,219.612a73.382,73.382,0,0,0,9.907,2.961c2.67.461,10.381,1.579,11.181-1.308.542-1.965-3.917-3.158-7.047-4.066-1.653-.481-3.781-1.911-3.429-2.982.617-1.863,4.872-.535,7.718.718,5.5,2.419,12.984,7.054,15.843,4.066,1.084-1.125-.5-2.772-2.711-4.31,3.517,1.687,7.217,2.988,8.464,1.789a1.729,1.729,0,0,0,.122-2.392,2.33,2.33,0,0,0,2.494-.678c.942-1.233.237-2.826-1.118-4.391a1.254,1.254,0,0,0,.895-.745c1.877-3.7-10.551-12.333-14.569-12.828a99.672,99.672,0,0,0-23.914.42C222.422,199.988,222.72,219.606,222.727,219.612Z" transform="translate(-119.231 -109.958)" fill="#f7a9a0"/>
        <path id="Path_3758" data-name="Path 3758" d="M245.991,212.92a19.651,19.651,0,0,1,8.016,2.1c3.137,1.6,5.326,3.639,8.03,5.638a.069.069,0,0,1-.075.115c-1.294-.955-6.587-4.472-7.935-5.258a18.879,18.879,0,0,0-8.037-2.541S245.951,212.92,245.991,212.92Z" transform="translate(-126.728 -115.768)" fill="#263238"/>
        <path id="Path_3759" data-name="Path 3759" d="M248.34,205.35a47.189,47.189,0,0,1,9.29,2.1c3.253,1.22,5.943,3.51,8.586,5.7q2.378,1.979,4.669,4.066c.061.061,0,.169-.081.115q-4.025-3.388-8.254-6.573a24.8,24.8,0,0,0-8.728-4.222c-1.809-.468-3.646-.8-5.482-1.125Z" transform="translate(-127.491 -113.328)" fill="#263238"/>
        <path id="Path_3760" data-name="Path 3760" d="M252.41,198.51c3.009.278,5.638.508,8.416,1.789a42.322,42.322,0,0,1,8.714,5.963c1.443,1.233,2.846,2.514,4.228,3.815.054.054-.034.149-.095.1a98.941,98.941,0,0,0-9.968-7.888,19.862,19.862,0,0,0-5.38-2.711,35.717,35.717,0,0,0-5.916-1.057Z" transform="translate(-128.803 -111.123)" fill="#263238"/>
        <path id="Path_3761" data-name="Path 3761" d="M201.647,179.462,196,208.14s-24.436-4.106-29.281-8.294-15.531-27.383-19.184-38.795,2.284-11.784,8.531-5.028,21.759,23.087,22.558,23.392S201.647,179.462,201.647,179.462Z" transform="translate(-94.635 -95.992)" fill="#2f8286"/>
        <path id="Path_3762" data-name="Path 3762" d="M157,157.472l-.068-.075-.678.427a55.7,55.7,0,0,0-6.316,4.581,3.815,3.815,0,0,0-2.487-1.206.22.22,0,0,0,.054.169,3.483,3.483,0,0,1,2.324,1.125l-.454.379q-.54.479-1.03,1.01a.5.5,0,0,0,.068.183c.163-.183.339-.366.508-.535.318-.325.678-.623,1.01-.928a3.646,3.646,0,0,1,.468.732,6.019,6.019,0,0,1,.047,3.89c-.095.474-.2.949-.318,1.423l.095.237c.1-.373.183-.745.264-1.118a7.568,7.568,0,0,0,.21-4.066,3.6,3.6,0,0,0-.678-1.166,50.4,50.4,0,0,1,5.191-3.876C155.824,158.238,156.421,157.852,157,157.472Zm9.277,9.846a14.483,14.483,0,0,1-2.135.8,17.693,17.693,0,0,1-4.127.6,8.422,8.422,0,0,0-3.53.718c-1.735.881-2.907,2.561-4.6,3.51a.723.723,0,0,0,.095.23,27.753,27.753,0,0,0,3.388-2.711,6.641,6.641,0,0,1,3.524-1.43,38.089,38.089,0,0,0,4.3-.42,14.035,14.035,0,0,0,3.259-1.132,1.73,1.73,0,0,1-.156-.163Zm1.4,29.416a27.388,27.388,0,0,0-1.938-4.628c-.258-.522-.508-1.05-.766-1.572a7.7,7.7,0,0,0,1.118,0c.068,0,.061-.115,0-.108a6.661,6.661,0,0,1-1.159.034c-.122-.23-.237-.468-.359-.678,0-.054-.129,0-.1.047.095.217.2.434.3.678-2.561-.2-4.791-1.83-6.532-3.693.1.21.21.413.312.617a10.442,10.442,0,0,0,5.469,3.076,7.883,7.883,0,0,0,.793.088c1.206,2.561,2.711,5.109,2.988,7.962a10.843,10.843,0,0,1-.075,2.521l.19.108c0-.217.054-.44.075-.678a10.761,10.761,0,0,0-.3-3.774Zm10.8-16.941a11.664,11.664,0,0,1-2.128.176,15.077,15.077,0,0,0-3.747.271,10.063,10.063,0,0,0-3.1,1.43c-1.5.989-3.246,2.331-5.136,1.606-1.728-.678-2.677-2.616-2.941-4.337a4.52,4.52,0,0,1,2.141-4.852,15.49,15.49,0,0,1,2.758-1.4,32.529,32.529,0,0,1,3.348-1.159l.474-.129.129.136c-.3.081-.617.176-.922.271a30.216,30.216,0,0,0-3.5,1.355,11.518,11.518,0,0,0-2.758,1.518,4.752,4.752,0,0,0-1.084,5.462c.63,1.714,2.107,3.341,4.1,2.941,1.823-.359,3.205-1.87,4.865-2.622a9.331,9.331,0,0,1,2.894-.766c1.091-.108,2.189,0,3.287-.054a8.069,8.069,0,0,0,1.071-.108Zm18.4,24.469a5.557,5.557,0,0,0-.833-2.168,39.189,39.189,0,0,0-2.473-3.131,6.864,6.864,0,0,1-1.477-4c-.1-2.487.678-5.109-.393-7.454a4.4,4.4,0,0,0-5.55-2.2,1.9,1.9,0,0,0-.617-1.355,2.954,2.954,0,0,0-1.355-.712,5.163,5.163,0,0,0-3.388.447,7.054,7.054,0,0,0-2.521,2.494,5.252,5.252,0,0,1-1.464,1.531,8.632,8.632,0,0,1-1.518.678c-.9.339-1.87.779-2.141,1.789a2.656,2.656,0,0,0,1.206,2.778c2.033,1.4,4.872.976,6.939-.183a13.044,13.044,0,0,1-.508,1.416,9.785,9.785,0,0,1-2.277,2.982,8.389,8.389,0,0,0-2.128,2.772,5.922,5.922,0,0,0-.2,3.429,6.174,6.174,0,0,0,.318,1l.271.075a6.519,6.519,0,0,1-.481-2.954,5.38,5.38,0,0,1,1.545-3.253c.766-.827,1.66-1.545,2.351-2.446a8.735,8.735,0,0,0,1.355-2.833c.041-.129.081-.271.115-.4l.1-.061a9.361,9.361,0,0,0,4.35-6.871,4.233,4.233,0,0,1,4.818,1.01c1.579,1.877,1.125,4.594,1,6.837a8.992,8.992,0,0,0,.407,3.774,10,10,0,0,0,1.87,2.805,12.035,12.035,0,0,1,2.216,3.151,3.984,3.984,0,0,1-.278,3.693,6.288,6.288,0,0,1-1.321,1.545l.21.034a6.187,6.187,0,0,0,1.409-1.721h0a4.263,4.263,0,0,0,.461-1.281,3.781,3.781,0,0,0,0-1.254Zm-14.23-12.74a8.135,8.135,0,0,1-.955.712c.556-2.033.976-4.134,2.589-5.584a5.422,5.422,0,0,1,1.647-1,9.3,9.3,0,0,1-3.266,5.848Zm3.32-6.261v.108a5.9,5.9,0,0,0-2.711,2.033,10.164,10.164,0,0,0-1.409,3.192c-.176.617-.332,1.24-.508,1.857a7.224,7.224,0,0,1-5.679.888,3.064,3.064,0,0,1-2.44-2.5c-.088-1.22.867-1.836,1.87-2.216a6.6,6.6,0,0,0,2.406-1.233c.759-.732,1.213-1.708,1.931-2.48a5.1,5.1,0,0,1,3.388-1.586c1.267-.081,3.117.4,3.226,1.877a.054.054,0,0,0-.061.034ZM147.076,153a1.8,1.8,0,0,0-.163.271,5.767,5.767,0,0,1-.149,2.711,4.567,4.567,0,0,1-.264.718,3.017,3.017,0,0,0,.034.339.893.893,0,0,0,.081-.136A5.753,5.753,0,0,0,147.076,153Z" transform="translate(-94.661 -96.452)" fill="#fff"/>
        <path id="Path_3763" data-name="Path 3763" d="M213.046,209.626c.678-3.388,1.409-6.776,1.979-10.165.325-1.938.678-3.876.962-5.814a.065.065,0,1,0-.129,0c-.833,3.388-1.66,6.776-2.331,10.165s-1.355,6.776-2.033,10.165q-.535,2.894-.895,5.821c0,.034.054.054.068,0C211.637,216.436,212.342,213.034,213.046,209.626Z" transform="translate(-115.324 -109.533)" fill="#263238"/>
        <path id="Path_3764" data-name="Path 3764" d="M183.661,205.672l-1.091-.251c-2.033-.481-4.147-1.01-6.1-1.572l-.759-.217-1.179-.359-.576-.176-.21-.068-.6-.2c-.793-.264-1.538-.529-2.243-.8l-.488-.2a16.724,16.724,0,0,1-3.137-1.592c-.088-.068-.183-.129-.264-.2a2.563,2.563,0,0,1-.244-.2c-4.852-4.181-15.531-27.376-19.184-38.795l-.122-.393a.339.339,0,0,0,0-.088c-.257-.867-.515-1.952-.766-3.131h0c-.976-5.773,1.667-7.027,5.353-4.852C162.539,169.819,178.87,198.4,183.661,205.672Z" transform="translate(-94.66 -95.998)" opacity="0.1"/>
        <path id="Path_3765" data-name="Path 3765" d="M143.733,207.24,90.62,205.35s14.752-40.963,26.428-51.975c5.3-5.014,13.939-4.879,18.743,0,.942.949,9.487,16.107,10.212,21.806.678,5.042-3.734,10.327-3.734,10.327Z" transform="translate(-76.647 -95.377)" fill="#36ccb4"/>
        <path id="Path_3766" data-name="Path 3766" d="M145.01,180.829l-.129.291a20.485,20.485,0,0,1-2.65,4.4l.142,2.087v.224l1.355,19.421-9.968-.352h-.325l-7.495-.264h-.156l-7.556-.271h-.21l-16.7-.6h-.339L90.63,205.4s1.355-3.734,3.544-9.25l.088-.23c1.193-2.982,2.622-6.458,4.215-10.165,0-.068.061-.142.095-.21q.678-1.531,1.355-3.1c0-.068.061-.136.088-.2,1.355-3,2.778-6.065,4.262-9.046l.081-.169c.847-1.694,1.708-3.388,2.582-4.981a2.521,2.521,0,0,1,.129-.23A72.056,72.056,0,0,1,115.486,155a1.413,1.413,0,0,1,.136-.149c.461-.522.928-1.01,1.355-1.443a13.214,13.214,0,0,1,2.25-1.708.86.86,0,0,1,.149-.088,13.973,13.973,0,0,1,7.969-1.884,2.987,2.987,0,0,1,.352,0,12.767,12.767,0,0,1,8.023,3.659,30.5,30.5,0,0,1,2.209,3.564s.034.061.054.095c1.586,2.812,3.686,6.776,5.34,10.51l.1.23a45.842,45.842,0,0,1,2.033,5.279,1.04,1.04,0,0,0,.068.237,12.655,12.655,0,0,1,.42,1.891A11.262,11.262,0,0,1,145.01,180.829Z" transform="translate(-76.65 -95.387)" fill="#2f8286"/>
        <path id="Path_3767" data-name="Path 3767" d="M145.049,167.553c-.44.047-.888.075-1.355.095a8.423,8.423,0,0,0-3.53.718c-1.762.894-2.941,2.609-4.676,3.551a3.564,3.564,0,0,1-3.131.224,3.9,3.9,0,0,1-.678-.4,5.319,5.319,0,0,0,1.125-1.247,10.964,10.964,0,0,0,1.355-3.795,7.568,7.568,0,0,0,.21-4.066,3.6,3.6,0,0,0-.678-1.166,50.4,50.4,0,0,1,5.191-3.876l.786-.522a.9.9,0,0,0-.054-.095,54.424,54.424,0,0,0-6.017,4.391,3.713,3.713,0,0,0-4.7-.678,4.249,4.249,0,0,0-2.412,3.3,8.842,8.842,0,0,0,.142,2.277,11.825,11.825,0,0,1,.108,2.189c-.054,1.138-.156,2.426.718,3.307a2.968,2.968,0,0,0,2.711.718,3.788,3.788,0,0,0,1.267-.583,3.571,3.571,0,0,0,2.446.759c2.121-.156,3.564-2.033,5.123-3.253a6.641,6.641,0,0,1,3.524-1.43c.861-.088,1.721-.108,2.575-.183Zm-14.074,4.459a2.961,2.961,0,0,1-3.063-.136c-1.03-.739-1.023-2.033-.962-3.151a10.589,10.589,0,0,0,0-1.606c-.061-.63-.2-1.254-.271-1.884a4.378,4.378,0,0,1,.935-3.456,4.872,4.872,0,0,1,1.077-.922c-.068.054-.136.1-.2.163s0,.115.068.081a3.68,3.68,0,0,1,4.974.325l-.454.379c-1.924,1.721-3.652,4.066-3.388,6.776a4.743,4.743,0,0,0,1.66,3.165A4.1,4.1,0,0,1,130.975,172.012Zm-.847-2.378c-.908-2.643.678-5.353,2.494-7.169.319-.325.678-.623,1.01-.928a3.647,3.647,0,0,1,.468.732,6.019,6.019,0,0,1,.047,3.89,14.955,14.955,0,0,1-1.016,3.463,5.55,5.55,0,0,1-1.579,2.033,4.344,4.344,0,0,1-1.423-2.019ZM144.073,187.6a16.785,16.785,0,0,1-2.711-2.561c-1-1.159-1.809-2.48-2.894-3.551a5.8,5.8,0,0,0-3.388-1.7,5.624,5.624,0,0,0-6,3.388,5.936,5.936,0,0,0-.3,3.5,6.735,6.735,0,0,0,2.094,3.3,17.888,17.888,0,0,1,3.1,3.226h0a4.547,4.547,0,0,0-.915,1.288,13.824,13.824,0,0,1-1.355,2.446c-1.077,1.355-2.555,2.331-3.612,3.7a5.536,5.536,0,0,0-1.064,4.608,6.234,6.234,0,0,0,.447,1.355h.156a5.59,5.59,0,0,1,.068-5.008,15.743,15.743,0,0,1,3.117-3.388,9.709,9.709,0,0,0,1.423-1.653c.427-.678.678-1.389,1.044-2.074a4.106,4.106,0,0,1,.793-1.084,8.044,8.044,0,0,1,1.1,4.371c-.122,3.029-1.884,6.1-.156,8.965a.927.927,0,0,0,.1.142h.325c.149-1.355-.176-2.792.2-4.147.535-1.884,2.033-3.273,2.812-5.042.617-1.416.847-3.307-.434-4.439a3.205,3.205,0,0,0-3.551-.434,2.251,2.251,0,0,0-.393.271,9,9,0,0,0-1.355-1.647,23.038,23.038,0,0,1-2.988-2.982,5.462,5.462,0,0,1,4.432-8.572,5.611,5.611,0,0,1,3.781,1.389,26.085,26.085,0,0,1,2.846,3.429,15.728,15.728,0,0,0,3.266,3.151Zm-9.135,5.245a3.049,3.049,0,0,1,1.9,0c1.7.522,2.2,2.263,1.775,3.863s-1.64,2.982-2.467,4.472a6.241,6.241,0,0,0-.773,2.175,18.983,18.983,0,0,0,0,2.711,6.372,6.372,0,0,1-.054.813,5.638,5.638,0,0,1-.894-3.239,39.681,39.681,0,0,1,.84-4.743,8.3,8.3,0,0,0-1.071-5.55,2.46,2.46,0,0,1,.732-.5Zm-25.073-8.362c-1.179-.217-2.392-.115-3.571-.312-.244-.041-.481-.095-.718-.156a10.34,10.34,0,0,1,1.193-3.652c.8-1.247,1.755-2.358,1.8-3.924a3.388,3.388,0,0,0-1.816-3.11,6.155,6.155,0,0,0-.678-.325l-.081.169.1.041a3.388,3.388,0,0,1,2.277,2.961,6.04,6.04,0,0,1-1.5,3.68,8.721,8.721,0,0,0-1.355,3.551,3.034,3.034,0,0,1-.108.562,10.47,10.47,0,0,1-2.473-1.057c-.393-.224-.779-.461-1.172-.678,0,.061-.061.129-.088.2l.2.115a16.1,16.1,0,0,0,2.65,1.355,7.6,7.6,0,0,0,.847.258c-.217,1.159-.549,2.5-1.667,2.914-1.308.481-2.636-.495-3.388-1.5l-.041-.061c0,.068-.061.142-.095.21a3.666,3.666,0,0,0,2.622,1.66c1.518.115,2.223-1.138,2.561-2.433.061-.251.122-.495.169-.745a10.957,10.957,0,0,0,1.931.271,9.2,9.2,0,0,1,3.436.5,4,4,0,0,1,.237,7.163c-1.518.935-3.341,1.227-4.852,2.175s-2.616,2.589-4.31,3.314c-2.128.922-4.35-.224-5.916-1.667l-.095-.095-.088.23a6.885,6.885,0,0,0,4.3,2.087c2.094.095,3.51-1.416,4.953-2.711a9.412,9.412,0,0,1,2.711-1.694c.888-.373,1.809-.678,2.711-1.077a4.58,4.58,0,0,0,2.921-4.425,4.269,4.269,0,0,0-3.639-3.822Zm15.728-1.227a7.068,7.068,0,0,0,1.254-4.5,6.133,6.133,0,0,0-6.417-5.6c0-.034,0-.068-.061-.054l-.169.068a5.873,5.873,0,0,0-.969.149c-.088,0-.047.156.041.136s.3-.054.447-.075a6.282,6.282,0,0,0-2.961,2.392c-.9,1.559-.352,3.212.291,4.743a13.614,13.614,0,0,1,1.166,5.99c-.095,1.748-.712,3.768.468,5.3a3.068,3.068,0,0,0,3.917.454c1.674-1.023.718-2.961.827-4.506.095-1.7,1.267-3.1,2.141-4.5Zm-2.168,7.515c-.291,1.755-2.968,2.378-4.242,1.355-1.43-1.186-1.023-3.266-.854-4.859a12.794,12.794,0,0,0-.522-5.211c-.562-1.755-1.83-3.591-1.22-5.5a5.537,5.537,0,0,1,3.436-3.178A6.1,6.1,0,0,1,126.557,178a6.356,6.356,0,0,1-.732,4.56,33.818,33.818,0,0,0-2.223,3.761,4.682,4.682,0,0,0-.366,1.8,18.106,18.106,0,0,1,.163,2.656Zm-2.331,13.878a11.914,11.914,0,0,1-1.145,1.687h-.21a11.113,11.113,0,0,0,1.64-2.643,7.3,7.3,0,0,0,.088-5.99,2.921,2.921,0,0,0-2.311-1.735,4.6,4.6,0,0,0-2.711.678c-1.681.935-2.954,2.453-4.567,3.5s-3.571,1.891-5.326,2.894a13.051,13.051,0,0,0-3.51,2.711H102.7a14.664,14.664,0,0,1,4.743-3.51,31.85,31.85,0,0,0,5.943-3.578c1.477-1.233,3.015-2.711,5.028-2.907a3.158,3.158,0,0,1,2.331.678,4.411,4.411,0,0,1,1.355,2.433,8.315,8.315,0,0,1-1.037,5.78Zm25.689-31.036a4.752,4.752,0,0,0-1.084,5.462,5.665,5.665,0,0,0,.989,1.721l-.129.291a6.479,6.479,0,0,1-1.45-3.273,5.008,5.008,0,0,1,.3-2.819,4.926,4.926,0,0,1,1.742-1.965,1.041,1.041,0,0,0,.068.237,5.5,5.5,0,0,0-.44.346ZM129.409,149.7a2.983,2.983,0,0,0-.352,0,4.68,4.68,0,0,1,1.355,5.218,2.744,2.744,0,0,1-1,1.62,2.65,2.65,0,0,1-1.958.2c-.678-.136-1.281-.379-1.945-.474a6.776,6.776,0,0,0-1.884,0c-.413.047-.827.1-1.24.136a5.252,5.252,0,0,0,.176-2.3,4.208,4.208,0,0,0-1.491-2.555.86.86,0,0,0-.149.088A4.242,4.242,0,0,1,122,152.957a4.52,4.52,0,0,1,.163,3.463,7.6,7.6,0,0,1-2.5-.156,4.31,4.31,0,0,1-2.378-1.477,1.42,1.42,0,0,0-.136.149A4.168,4.168,0,0,0,118.323,156a6.485,6.485,0,0,0,3.795.678,22.005,22.005,0,0,1-.955,2.311,43.251,43.251,0,0,0-1.816,5.326,7.712,7.712,0,0,1-3.09,4.628,6.031,6.031,0,0,1-5.5.3,6.275,6.275,0,0,1-2.033-1.464,2.519,2.519,0,0,0-.129.23,6.16,6.16,0,0,0,10.212-1.7c.908-1.924,1.193-4.066,1.979-6.024.468-1.179,1.138-2.379,1.525-3.625h.075c.8-.075,1.592-.237,2.4-.244a10.253,10.253,0,0,1,2.419.468c1.206.285,2.46.142,3.083-1.057.989-1.863.847-4.682-.867-6.105Z" transform="translate(-78.343 -95.386)" fill="#fff"/>
        <path id="Path_3768" data-name="Path 3768" d="M158.932,202.4a14.149,14.149,0,0,0-3.212-.095,12.431,12.431,0,0,0-1.511.19c-.562.108-1.111.271-1.674.386-.095,0-.047.163.041.142a14.227,14.227,0,0,1,1.681-.2c.515-.041,1.023-.108,1.531-.149,1.044-.075,2.087-.142,3.137-.2a.041.041,0,0,0,.007-.075Z" transform="translate(-96.59 -112.33)" fill="#263238"/>
        <path id="Path_3769" data-name="Path 3769" d="M155.8,199.13a29.14,29.14,0,0,0-7.041,1.125,46.47,46.47,0,0,1-7.224,1.911c-.095,0-.088.163,0,.149,1.186-.129,2.358-.258,3.537-.44s2.331-.474,3.49-.732c2.433-.535,4.777-1.443,7.23-1.83C155.917,199.293,155.924,199.123,155.8,199.13Z" transform="translate(-93.039 -111.323)" fill="#263238"/>
        <path id="Path_3770" data-name="Path 3770" d="M140.14,144.306c0,.962,2.853,7.935,7.054,8.775,1.355.271,3.185-7.135,3.185-7.135l.258-.515,3.639-7.224-7.556-8-1.1-1.084s-.861,2.033-1.9,4.594c-.047.115-.095.237-.149.359s-.122.278-.176.413c-.163.379-.325.772-.474,1.159s-.237.583-.352.9-.23.623-.352.935A51.971,51.971,0,0,0,140.14,144.306Z" transform="translate(-92.611 -88.754)" fill="#f7a9a0"/>
        <path id="Path_3771" data-name="Path 3771" d="M145.37,133.714a16.2,16.2,0,0,0,6.953,11.716l3.639-7.224-7.556-8-1.1-1.084S146.414,131.16,145.37,133.714Z" transform="translate(-94.297 -88.754)" fill="#263238"/>
        <path id="Path_3772" data-name="Path 3772" d="M169.864,120.557c-2.866,13.885-11.52,13.742-14.5,13.119-2.711-.562-11.9-2.833-10.483-16.941s8.809-17.165,15.064-16.2S172.731,106.672,169.864,120.557Z" transform="translate(-94.091 -79.486)" fill="#f7a9a0"/>
        <path id="Path_3773" data-name="Path 3773" d="M173.76,137.969a8.512,8.512,0,0,0,1.579-1.694c.244-.3.44-.63.678-.949l.583-1a21.908,21.908,0,0,0,1.748-4.269,33.935,33.935,0,0,0,1.037-4.506l.312-2.3.217-2.318-.054,2.331-.217,2.324a29.306,29.306,0,0,1-.976,4.567,19.9,19.9,0,0,1-1.843,4.3,11.174,11.174,0,0,1-3.063,3.51Z" transform="translate(-103.449 -86.117)" fill="#263238"/>
        <path id="Path_3774" data-name="Path 3774" d="M179.212,123.3a9.646,9.646,0,0,1-.888-.413,1.572,1.572,0,0,1-.827-.59.508.508,0,0,1,.136-.6,1.26,1.26,0,0,1,1.267,0,1.789,1.789,0,0,1,.976.888.535.535,0,0,1-.664.718Z" transform="translate(-104.638 -86.307)" fill="#263238"/>
        <path id="Path_3775" data-name="Path 3775" d="M165.455,122.132a9.38,9.38,0,0,0,.976,0,1.592,1.592,0,0,0,1-.176.5.5,0,0,0,.136-.6,1.24,1.24,0,0,0-1.138-.562,1.843,1.843,0,0,0-1.267.373.542.542,0,0,0,.291.962Z" transform="translate(-100.612 -86.069)" fill="#263238"/>
        <path id="Path_3776" data-name="Path 3776" d="M167.038,128.512c0-.041-.081,0-.088.068-.169.955-.515,2.033-1.437,2.155,0,0-.034.054,0,.054C166.584,130.87,167.031,129.441,167.038,128.512Z" transform="translate(-100.785 -88.553)" fill="#263238"/>
        <path id="Path_3777" data-name="Path 3777" d="M166.064,126.79c-1.5-.427-2.243,2.6-.854,3S167.318,127.15,166.064,126.79Z" transform="translate(-100.455 -87.99)" fill="#263238"/>
        <path id="Path_3778" data-name="Path 3778" d="M165,126.58c-.312.1-.644.346-.969.3s-.576-.44-.745-.806c0-.041-.047,0-.061,0a1.145,1.145,0,0,0,.529,1.47c.549.217,1.077-.2,1.355-.745C165.177,126.695,165.123,126.532,165,126.58Z" transform="translate(-100.023 -87.765)" fill="#263238"/>
        <path id="Path_3779" data-name="Path 3779" d="M175.371,130.117c0-.034.061.061.054.1-.271.928-.42,2.033.346,2.561v.047C174.755,132.421,174.972,130.95,175.371,130.117Z" transform="translate(-103.861 -89.073)" fill="#263238"/>
        <path id="Path_3780" data-name="Path 3780" d="M176.5,128.994c1.531.271.888,3.32-.535,3.07S175.209,128.764,176.5,128.994Z" transform="translate(-103.901 -88.709)" fill="#263238"/>
        <path id="Path_3781" data-name="Path 3781" d="M177.91,129.477c.2.21.379.556.678.637s.644-.183.922-.454c.034,0,.054,0,.041.041-.1.59-.427,1.152-1.01,1.145s-.8-.59-.82-1.2C177.713,129.538,177.828,129.389,177.91,129.477Z" transform="translate(-104.725 -88.86)" fill="#263238"/>
        <path id="Path_3782" data-name="Path 3782" d="M164.74,139.826c.156.278.291.644.617.773a2.555,2.555,0,0,0,1.064.061.034.034,0,0,1,0,.061,1.355,1.355,0,0,1-1.355.156,1.03,1.03,0,0,1-.481-1.037C164.638,139.786,164.713,139.786,164.74,139.826Z" transform="translate(-100.487 -92.196)" fill="#263238"/>
        <path id="Path_3783" data-name="Path 3783" d="M170.133,131.769s-.135,1.45-.291,2.107c0,.068-.183.054-.407,0h0a3.246,3.246,0,0,1-2.785-1.891.075.075,0,0,1,.122-.068,4.879,4.879,0,0,0,2.711,1.491c.088-.169.142-2.487.251-2.473a5.95,5.95,0,0,1,1.423.678c.366-3.009.251-6.051.678-9.046a.095.095,0,0,1,.183,0,49.488,49.488,0,0,1-.291,9.771C171.63,132.758,170.37,131.945,170.133,131.769Z" transform="translate(-101.156 -86.619)" fill="#263238"/>
        <path id="Path_3784" data-name="Path 3784" d="M145.109,117.606c1.538.169,6.2-3.348,7.562-10.666,0,0-1.674,6.485-2.331,7.373s2.609-1.985,3.788-7.874a24.42,24.42,0,0,0,5.543,4.181c2.663,1.26,4.378,1.518,4.615,1.355s-3.666-2.162-4.561-3.632c0,0,6.858,4.743,10.239,5.557.393.095,2.243-7.976-2.473-12.333s-13.742-2.033-16.365-.237c0,0-2.711-.075-6.261,3.388S143.455,117.43,145.109,117.606Z" transform="translate(-93.513 -79.069)" fill="#263238"/>
        <path id="Path_3785" data-name="Path 3785" d="M160.883,130.293a4.452,4.452,0,1,1,5.909-3.815h0a4.459,4.459,0,0,1-4.825,4.066,4.743,4.743,0,0,1-1.084-.251Zm2.751-7.84a3.856,3.856,0,1,0,2.561,3.978A3.856,3.856,0,0,0,163.634,122.453Z" transform="translate(-98.337 -86.342)" fill="#36ccb4"/>
        <path id="Path_3786" data-name="Path 3786" d="M175.99,133.494c-1.606-.562-2.487-2.711-1.979-4.987a5.292,5.292,0,0,1,1.592-2.833,2.778,2.778,0,0,1,4.635,1.037,5.34,5.34,0,0,1,.237,3.246c-.535,2.392-2.426,4.018-4.208,3.619A1.874,1.874,0,0,1,175.99,133.494Zm2.311-7.962a1.137,1.137,0,0,0-.217-.061,2.372,2.372,0,0,0-2.087.678,4.777,4.777,0,0,0-1.41,2.514c-.461,2.08.346,4.066,1.816,4.357s3.029-1.091,3.49-3.165a4.743,4.743,0,0,0-.2-2.88,2.46,2.46,0,0,0-1.369-1.443Z" transform="translate(-103.483 -87.368)" fill="#36ccb4"/>
        <path id="Path_3787" data-name="Path 3787" d="M170.508,129.044l-.278-.529c.786-.407,2.473-.813,3.28.562l-.515.3C172.276,128.149,170.576,129,170.508,129.044Z" transform="translate(-102.311 -88.434)" fill="#36ccb4"/>
        <path id="Path_3788" data-name="Path 3788" d="M141.494,123.607l-.454-.386c.176-.21,1.782-2.074,3.124-1.992s8.877,2.548,9.2,2.65l-.149.583c-2.182-.678-8.077-2.568-9.046-2.622S141.928,123.106,141.494,123.607Z" transform="translate(-92.901 -86.209)" fill="#36ccb4"/>
        <path id="Path_3789" data-name="Path 3789" d="M142.553,127.873a3.423,3.423,0,0,0,.583.352,2.237,2.237,0,0,0,.637.2,1.918,1.918,0,0,0,.861,0,2.48,2.48,0,0,0,.63-.237,2.873,2.873,0,0,0,.739-.61l.332-3.856s-1.7-5.13-3.937-4.642S140.547,126.362,142.553,127.873Z" transform="translate(-92.849 -85.508)" fill="#f7a9a0"/>
        <path id="Path_3790" data-name="Path 3790" d="M143.339,121.94s-.054,0,0,.061a6.064,6.064,0,0,1,1.918,4.527,1.355,1.355,0,0,0-1.8-.915c-.047,0,0,.095,0,.1a1.477,1.477,0,0,1,1.41.955,7.359,7.359,0,0,1,.366,1.477c.034.169.312.169.3,0v-.068C146.178,126.087,145.446,122.794,143.339,121.94Z" transform="translate(-93.634 -86.439)" fill="#263238"/>
        <path id="Path_3791" data-name="Path 3791" d="M143.879,131.026a.59.59,0,1,0,.718-.6A.678.678,0,0,0,143.879,131.026Z" transform="translate(-93.816 -89.175)" fill="#fff"/>
        <path id="Path_3792" data-name="Path 3792" d="M142.389,129.139a.468.468,0,1,0,.508-.42A.468.468,0,0,0,142.389,129.139Z" transform="translate(-93.335 -88.624)" fill="#fff"/>
        <path id="Path_3793" data-name="Path 3793" d="M154.422,114.252l-3.165-3.422-.847.908,3.524,3.015Z" transform="translate(-95.921 -82.858)" fill="#36ccb4"/>
        <path id="Path_3794" data-name="Path 3794" d="M153.151,115.925l-3.72-2.805-.671,1.044,4,2.345Z" transform="translate(-95.389 -83.596)" fill="#36ccb4"/>
        <path id="Path_3795" data-name="Path 3795" d="M114.985,156.426c-8.694,9.317-29.816,44.656-23.128,51.1s43.938-2.229,54.394-7.21c3.11-1.484-8.714-20.878-12.367-21.325-3.043-.379-18.608,6.736-19.055,5.841-.508-1.01,1.965-8.477,5.706-22C124.852,147.251,118.827,152.313,114.985,156.426Z" transform="translate(-76.631 -96.206)" fill="#f7a9a0"/>
        <path id="Path_3796" data-name="Path 3796" d="M177.29,179.661c7.562-1.05,9.663-.163,15.586-4.439,3.876-2.805,7.332-1.538,5.123,2.921-3.632,7.291-13.1,10.68-16.724,10.937Z" transform="translate(-104.586 -103.136)" fill="#f7a9a0"/>
        <path id="Path_3797" data-name="Path 3797" d="M147.66,189.635s8.5-4.743,16.439-6.634c5.5-1.355,17.768-2.887,29.518,9.229,2.785,2.873,4.743,8.938-1.538,5.9-4.445-2.162-6.607-4.872-9.419-5.658,0,0,1.538,8.01-1.45,10.693a72.958,72.958,0,0,1-8.3,6.438,15.259,15.259,0,0,1-1.355-1.443s-3.029,2.236-8.728,1.694Z" transform="translate(-95.035 -105.832)" fill="#f7a9a0"/>
        <path id="Path_3798" data-name="Path 3798" d="M179.312,182.79c2.622,1.355,8.132,4.371,11.8,8.389,4.066,4.466,10.7,14.169,7.373,17.137-2.44,2.175-5.3-1.308-5.3-1.308s1.9,4.588-.739,6.1c-2.4,1.355-4.452-1.47-4.452-1.47s.678,2.982-1.891,3.835c-3.083,1.03-3.984-5.38-8.01-7.034C177.171,208.039,179.312,182.79,179.312,182.79Z" transform="translate(-104.772 -106.055)" fill="#f7a9a0"/>
        <path id="Path_3799" data-name="Path 3799" d="M189.341,200.35a24.093,24.093,0,0,1,7.549,12.2c0,.122-.054.2-.095.1a59.307,59.307,0,0,0-7.495-12.265Z" transform="translate(-108.458 -111.716)" fill="#263238"/>
        <path id="Path_3800" data-name="Path 3800" d="M182.848,206.6c1.8,1.667,5.834,7.176,6.81,12.631,0,.122-.061.2-.1.095a63.6,63.6,0,0,0-6.776-12.685S182.827,206.578,182.848,206.6Z" transform="translate(-106.356 -113.729)" fill="#263238"/>
        <path id="Path_3801" data-name="Path 3801" d="M199.271,197.338a20,20,0,0,1,6.146,3.388,33.79,33.79,0,0,0,3.171,2.033c1,.542,2.487,1.355,3.551.515a2.033,2.033,0,0,0,.454-2.033,9.744,9.744,0,0,0-1.355-2.805c0-.034,0-.075.054-.041a14.041,14.041,0,0,1,1.477,2.494,3.246,3.246,0,0,1,.224,1.924c-.359,1.355-1.965,1.538-3.1,1.166a10.891,10.891,0,0,1-1.938-.942,17.078,17.078,0,0,1-1.748-1.1c-1.172-.793-2.3-1.647-3.456-2.453a32.7,32.7,0,0,0-3.524-2.033.061.061,0,0,1,.041-.115Z" transform="translate(-111.646 -110.744)" fill="#263238"/>
        <path id="Path_3802" data-name="Path 3802" d="M204.438,206.007a77.428,77.428,0,0,0-5.2-8.613c-.034,0,0-.075.047-.047a40.254,40.254,0,0,1,5.726,8.206,13.49,13.49,0,0,1,1.531,5.191c0,2.575-1.708,3.063-2.338,3.192a3.341,3.341,0,0,1-2.2-.359,6.844,6.844,0,0,1-1.985-1.864c0-.041,0-.088.054-.054.888,1.016,2.372,2.033,3.774,1.836a2.371,2.371,0,0,0,1.592-.861,3.029,3.029,0,0,0,.407-2.074,14.06,14.06,0,0,0-1.41-4.554Z" transform="translate(-111.656 -110.746)" fill="#263238"/>
        <path id="Path_3803" data-name="Path 3803" d="M128.969,179.8l11.913,25.073s-46.6,10.469-50.626,2.351,14.081-39.859,22.233-49.108c9.453-10.713,10.659-7.075,8.579,2.426-2.182,9.948-6.39,24.327-6.39,24.327Z" transform="translate(-76.344 -95.993)" fill="#36ccb4"/>
        <path id="Path_3804" data-name="Path 3804" d="M140.886,204.866s-2.934.678-7.393,1.518h-.115l-.542.1-.19.041c-2.033.379-4.289.793-6.729,1.206h-.136c-3.2.535-6.654,1.064-10.117,1.491l-.318.041a101.752,101.752,0,0,1-16.033.949h-.19c-4.56-.224-7.908-1.1-8.863-3.029-1.227-2.46-.359-7.1,1.579-12.624a.8.8,0,0,1,.088-.251,104.593,104.593,0,0,1,4.75-10.991c.041-.088.081-.169.129-.258.176-.359.352-.718.535-1.071,0-.068.068-.129.095-.19,1.47-2.873,3.043-5.733,4.635-8.457l.108-.176c1.172-2.033,2.358-3.93,3.517-5.726.047-.075.095-.156.149-.23a81.8,81.8,0,0,1,6.621-9.1q1.382-1.565,2.528-2.711l.142-.142a20.038,20.038,0,0,1,3.652-3.07l.156-.088c2.711-1.545,3.388.549,2.765,4.825v.217c-.142,1.023-.359,2.168-.63,3.388-.9,4.12-2.155,9-3.314,13.3a.906.906,0,0,1-.068.258c-.833,3.1-1.613,5.875-2.168,7.833a1.257,1.257,0,0,1-.088.312c-.461,1.633-.752,2.622-.752,2.622l1.355-.468.183-.068,8.308-2.941.19-.068,4.283-1.518.59,1.233.068.149,5.848,12.306.169.352,1.111,2.338.19.4Z" transform="translate(-76.348 -95.998)" fill="#2f8286"/>
        <path id="Path_3805" data-name="Path 3805" d="M137.784,196.417a4,4,0,0,1-.142,1.125c-.454,1.681-1.64,2.982-2.467,4.472a6.241,6.241,0,0,0-.772,2.175,15.584,15.584,0,0,0,0,2.453h.115a10.5,10.5,0,0,1,.169-3.022c.535-1.884,2.033-3.273,2.812-5.042a6.025,6.025,0,0,0,.474-1.742Zm-4.554-2.263a2.46,2.46,0,0,1,.732-.454,3.049,3.049,0,0,1,1.9,0,2.643,2.643,0,0,1,.806.4l-.169-.352a3.2,3.2,0,0,0-2.988-.041,2.25,2.25,0,0,0-.393.271,9,9,0,0,0-1.355-1.647,23.039,23.039,0,0,1-2.988-2.982,5.469,5.469,0,0,1,1.857-7.908l-.068-.149a5.421,5.421,0,0,0-2.494,2.751,5.936,5.936,0,0,0-.3,3.5,6.736,6.736,0,0,0,2.094,3.3,17.887,17.887,0,0,1,3.1,3.226h0a4.547,4.547,0,0,0-.915,1.288A13.825,13.825,0,0,1,130.7,197.8c-1.077,1.355-2.555,2.331-3.612,3.7a5.536,5.536,0,0,0-1.064,4.608,5.936,5.936,0,0,0,.745,1.9h.136a5.624,5.624,0,0,1-.21-5.53,15.743,15.743,0,0,1,3.117-3.388,9.71,9.71,0,0,0,1.423-1.653c.427-.678.678-1.389,1.044-2.074a4.106,4.106,0,0,1,.793-1.084,8.044,8.044,0,0,1,1.1,4.371c-.108,2.751-1.572,5.516-.542,8.132l.19-.041a5.706,5.706,0,0,1-.4-2.277,39.681,39.681,0,0,1,.84-4.743,8.3,8.3,0,0,0-1.03-5.57Zm-24.361-8.809c-1.179-.217-2.392-.115-3.571-.312-.244-.041-.481-.095-.718-.156a10.34,10.34,0,0,1,1.193-3.652c.8-1.247,1.755-2.358,1.8-3.924a3.388,3.388,0,0,0-1.816-3.11,6.587,6.587,0,0,0-2.521-.779l-.108.176a6.892,6.892,0,0,1,1.979.488,3.388,3.388,0,0,1,2.277,2.961,6.04,6.04,0,0,1-1.5,3.68,8.721,8.721,0,0,0-1.355,3.551,3.033,3.033,0,0,1-.108.562,10.47,10.47,0,0,1-2.473-1.057,18.3,18.3,0,0,0-3.171-1.653l-.251-.075c0,.061-.061.122-.095.19a10.841,10.841,0,0,1,2.46,1.159,16.1,16.1,0,0,0,2.65,1.355,7.6,7.6,0,0,0,.847.257c-.217,1.159-.549,2.5-1.667,2.914-1.308.481-2.636-.495-3.388-1.5a11.337,11.337,0,0,1-1.464-3.137c-.047.088-.088.169-.129.257a12.266,12.266,0,0,0,1.213,2.711,3.89,3.89,0,0,0,2.866,2.033c1.518.115,2.223-1.138,2.561-2.433.061-.251.122-.495.169-.745a10.957,10.957,0,0,0,1.931.271,9.2,9.2,0,0,1,3.436.5,4,4,0,0,1,.237,7.163c-1.518.935-3.341,1.227-4.852,2.175s-2.616,2.589-4.31,3.314c-2.128.922-4.35-.224-5.916-1.667a18.9,18.9,0,0,1-2.114-2.3.851.851,0,0,1-.088.251c.257.325.529.644.806.949,1.457,1.613,3.226,3.226,5.516,3.327,2.094.095,3.51-1.416,4.954-2.711a9.413,9.413,0,0,1,2.711-1.694c.888-.373,1.809-.678,2.711-1.077a4.58,4.58,0,0,0,2.921-4.425,4.269,4.269,0,0,0-3.619-3.869Zm9.365-11.161c-.088,0-.047.156.041.136s.3-.054.447-.075a6.282,6.282,0,0,0-2.961,2.392c-.9,1.559-.352,3.212.291,4.743.149.359.291.725.407,1.091a1.446,1.446,0,0,1,.088-.312c-.6-1.538-1.484-3.137-.955-4.791a5.34,5.34,0,0,1,3.117-3.036,1.206,1.206,0,0,1,.068-.257,3.9,3.9,0,0,0-.542.1Zm6.363,9.934a8.531,8.531,0,0,0,1.118-2.555l-.19.068a7.142,7.142,0,0,1-.678,1.748,33.819,33.819,0,0,0-2.223,3.761,4.682,4.682,0,0,0-.366,1.8,16.418,16.418,0,0,1,.19,2.711c-.291,1.755-2.968,2.379-4.242,1.355-1.43-1.186-1.023-3.266-.854-4.859a12.78,12.78,0,0,0-.115-3.524l-.183.068a11.92,11.92,0,0,1,.183,2.744c-.095,1.748-.712,3.768.468,5.3a3.068,3.068,0,0,0,3.917.454c1.674-1.023.718-2.961.827-4.506.1-1.775,1.274-3.178,2.148-4.574Zm-4.5,21.393a14.908,14.908,0,0,1-3.388,4l-.318.041.576-.495a13.227,13.227,0,0,0,3.436-4.506,7.3,7.3,0,0,0,.088-5.99,2.921,2.921,0,0,0-2.311-1.735,4.6,4.6,0,0,0-2.711.678c-1.681.935-2.954,2.453-4.567,3.5s-3.571,1.891-5.326,2.894a11.35,11.35,0,0,0-4.31,3.808,6.58,6.58,0,0,0-.908,2.812h-.19a6.383,6.383,0,0,1,1-3.158,13.2,13.2,0,0,1,5.279-4.262,31.849,31.849,0,0,0,5.943-3.578c1.477-1.233,3.015-2.711,5.028-2.907a3.158,3.158,0,0,1,2.331.678,4.411,4.411,0,0,1,1.355,2.433,8.314,8.314,0,0,1-1.01,5.78Zm2.589-48.349c-.413.047-.827.1-1.24.136a5.252,5.252,0,0,0,.176-2.3A4.255,4.255,0,0,0,120,152.33l-.156.088a4.3,4.3,0,0,1,1.22,1.437,4.52,4.52,0,0,1,.163,3.463,7.6,7.6,0,0,1-2.5-.156,4.289,4.289,0,0,1-2.534-1.674l-.142.142a4.181,4.181,0,0,0,1.308,1.22,6.485,6.485,0,0,0,3.795.678,22.006,22.006,0,0,1-.955,2.311,43.251,43.251,0,0,0-1.816,5.326,7.712,7.712,0,0,1-3.09,4.628,6.031,6.031,0,0,1-5.5.3,6.546,6.546,0,0,1-2.894-2.663c-.054.075-.1.156-.149.23a7.122,7.122,0,0,0,1.531,1.782,6.282,6.282,0,0,0,5.421,1.26,6.194,6.194,0,0,0,4.208-3.544c.908-1.924,1.193-4.066,1.979-6.024.468-1.179,1.138-2.379,1.525-3.625h.007c.434-.041.867-.108,1.3-.163v-.217Z" transform="translate(-77.372 -96.236)" fill="#fff"/>
        <path id="Path_3806" data-name="Path 3806" d="M105.657,206.655a53.269,53.269,0,0,1,6.776-3.991,52.019,52.019,0,0,1,7.224-2.9c1.409-.468,2.839-.867,4.262-1.274a.034.034,0,1,1,0,.068,67.225,67.225,0,0,0-7.3,2.846q-3.558,1.586-7.054,3.293c-1.315.678-2.6,1.355-3.9,2.033C105.644,206.777,105.6,206.689,105.657,206.655Z" transform="translate(-81.486 -111.116)" fill="#263238"/>
        <path id="Path_3807" data-name="Path 3807" d="M140.736,188.393c-.237.061-12.984,4.269-13.4,4.466.047-.19,2.338-6.973,2.711-7.962l.1-.3c.23-.44.461-.881.678-1.355.278-.576.549-1.159.82-1.742h0l-.895,1.7c-.136.264-.257.529-.386.8.224-.678.44-1.41.678-2.114.339-1.125.644-2.257.949-3.388,0,0-.041-.047-.054,0-.678,1.979-1.416,3.93-2.1,5.909s-3.3,9.243-3.28,9.243,14.034-4.954,14.3-5.069a.115.115,0,0,0-.129-.19Z" transform="translate(-88.233 -104.665)" fill="#263238"/>
        <path id="Path_3808" data-name="Path 3808" d="M145.634,211.026c-1.315-2.8-2.6-5.6-4.018-8.355-.806-1.559-1.6-3.131-2.419-4.682-.034-.061-.136,0-.108.047,1.2,2.86,2.419,5.726,3.754,8.531s2.636,5.59,4,8.362c.779,1.579,1.6,3.124,2.473,4.655h.054C148.256,216.657,146.948,213.844,145.634,211.026Z" transform="translate(-92.27 -110.946)" fill="#263238"/>
        <path id="Path_3809" data-name="Path 3809" d="M143.744,229.475c-.468-.772-1.057-1.884-1.552-2.636-.136-.2-.285-.156-.183.047.359.678.678,1.491,1,2.209-.678.129-1.315.251-1.965.386l-2.27.474q-2.216.454-4.445.867c-3.015.556-6.031,1.05-9.067,1.477a176.692,176.692,0,0,1-18.33,1.721c-1.714.061-3.436.095-5.15.068a48.314,48.314,0,0,1-5.069-.244.047.047,0,0,0,0,.088,28.457,28.457,0,0,0,4.411.569q2.331.108,4.669.095c3.1-.041,6.194-.237,9.277-.522,6.1-.562,12.2-1.389,18.256-2.46q2.541-.447,5.075-.955c.854-.169,1.7-.346,2.555-.529A14.71,14.71,0,0,0,143.744,229.475Z" transform="translate(-78.603 -120.214)" fill="#263238"/>
      </g>
      <g id="freepik--Plant--inject-112" transform="translate(254.859 150.299)">
        <path id="Path_3810" data-name="Path 3810" d="M407.443,243.293s17.246-2.412,13.214-23.223C420.67,220.07,401.4,224.393,407.443,243.293Z" transform="translate(-371.359 -206.836)" fill="#36ccb4"/>
        <path id="Path_3811" data-name="Path 3811" d="M407.443,243.293s17.246-2.412,13.214-23.223C420.67,220.07,401.4,224.393,407.443,243.293Z" transform="translate(-371.359 -206.836)" opacity="0.1"/>
        <path id="Path_3812" data-name="Path 3812" d="M408.83,241c.339-1.05.732-2.087,1.172-3.1a1.136,1.136,0,0,1,.047-.4c0-.285.047-.569.068-.854.047-.623.088-1.247.129-1.863.068-1.247.149-2.494.169-3.734a.051.051,0,1,1,.1,0c0,1.247.034,2.494,0,3.741,0,.617-.061,1.24-.1,1.863a1.732,1.732,0,0,1-.034.413,37.406,37.406,0,0,1,3.463-5.916,30.347,30.347,0,0,1,1.884-2.385c.678-.786,1.409-1.538,2.107-2.318.047-.047.122,0,.075.081a30.589,30.589,0,0,0-3.327,4.411c-.522.793-1.017,1.613-1.491,2.439l.163-.068c.2-.081.407-.169.617-.244l1.409-.535,2.772-1.03c.054,0,.095.075.034.095-.915.366-1.823.752-2.711,1.145l-1.355.569c-.224.1-.454.19-.678.278a1.661,1.661,0,0,1-.454.163c-.352.623-.678,1.254-1.01,1.891a44.373,44.373,0,0,0-2.107,4.967l-.122.359a9.988,9.988,0,0,1,1.409-.678c.6-.271,1.193-.535,1.782-.813,1.213-.556,2.412-1.118,3.571-1.769a.054.054,0,0,1,.054.088c-1.186.678-2.351,1.355-3.537,1.979-.59.325-1.186.637-1.8.935a5.585,5.585,0,0,1-1.62.644,20.864,20.864,0,0,0-1.132,4.893c-.19,2.351-.169,4.743-.224,7.081H408.1c-.176-2.141-.271-4.3-.278-6.444A18.532,18.532,0,0,1,408.83,241Z" transform="translate(-371.858 -208.887)" fill="#263238"/>
        <path id="Path_3813" data-name="Path 3813" d="M413.181,229.851a20.8,20.8,0,0,1,.169,3.673c0,.034-.047.034-.054,0-.068-1.22-.081-2.433-.217-3.646C413.066,229.811,413.174,229.784,413.181,229.851Z" transform="translate(-373.553 -209.976)" fill="#263238"/>
        <path id="Path_3814" data-name="Path 3814" d="M420.49,230.888a13.189,13.189,0,0,0,2.216-1.091c.061-.034.108.061.054.095a8.638,8.638,0,0,1-2.243,1.071C420.477,230.969,420.45,230.908,420.49,230.888Z" transform="translate(-375.936 -209.969)" fill="#263238"/>
        <path id="Path_3815" data-name="Path 3815" d="M407.165,282.178c0-1.9.047-3.808.075-5.712.034-6.329.088-12.651.2-18.974q.129-7.535.346-15.064a.074.074,0,0,1,.047-.068v-4.113s.041-.054.081-.047.081,0,.081.047v4.127s.041.034.041.054c.251,8.945.481,17.883.529,26.821V274.7q.095,8.741.068,17.49v2.785c0,5.333-.054,10.666-.054,16,0,.285-.325.427-.678.44s-.793-.136-.793-.468c0-5.882-.041-11.764-.041-17.619C407.151,289.564,407.138,285.885,407.165,282.178Z" transform="translate(-371.616 -212.68)" fill="#263238"/>
        <path id="Path_3816" data-name="Path 3816" d="M417.835,292.928s8.288-6.139,16.162-1.992,9.1,20.153,9.1,20.153-11.554,1.653-18.832-5.272C417.265,299.142,417.835,292.928,417.835,292.928Z" transform="translate(-375.083 -229.217)" fill="#36ccb4"/>
        <path id="Path_3817" data-name="Path 3817" d="M412.635,294.469a9.888,9.888,0,0,1,4.8-.623,7.284,7.284,0,0,1,1.016-.1l1.166-.088,2.419-.169c1.64-.122,3.28-.224,4.913-.386a.051.051,0,0,1,0,.1c-1.613.21-3.226.44-4.845.6-.833.081-1.667.169-2.5.23l-.61.054c.251.061.495.115.739.183A19.651,19.651,0,0,1,423.5,295.8c.678.115,1.3.3,1.938.447,1.03.244,2.033.508,3.07.773,2.033.529,4,1.125,6,1.708.068,0,0,.115,0,.095-2-.488-4-.935-6.011-1.409l-2.914-.678c-.251-.068-.508-.122-.759-.176a24.111,24.111,0,0,1,5.889,5.123,31.849,31.849,0,0,1,4.1,6.458c0,.061-.054.115-.088.054a31.675,31.675,0,0,0-4.96-6.505c.041.115.075.224.108.332.156.488.312.976.461,1.464.312.983.617,1.952.908,2.934,0,.068-.075.088-.1,0-.346-.949-.678-1.9-1.01-2.853-.169-.461-.332-.928-.495-1.4-.088-.244-.169-.488-.251-.732a.746.746,0,0,0-.081-.224,29.326,29.326,0,0,0-2.934-2.5,22.209,22.209,0,0,0-4.4-2.528,2.264,2.264,0,0,0,.081.427c.081.379.169.752.244,1.132q.244,1.179.468,2.358c.312,1.606.508,3.232.806,4.838a.054.054,0,0,1-.1,0c-.373-1.62-.847-3.205-1.206-4.825-.183-.806-.366-1.613-.535-2.426-.075-.38-.149-.759-.23-1.138-.041-.21-.088-.42-.115-.637l-.447-.183a13.047,13.047,0,0,0-6.9-.942,6.776,6.776,0,0,0-4.994,4c-.075.176-.359.068-.318-.115a6.417,6.417,0,0,1,3.917-4.208Z" transform="translate(-372.146 -230.378)" fill="#263238"/>
        <path id="Path_3818" data-name="Path 3818" d="M433.182,305.2c.237,1.05.468,2.1.678,3.151a23.679,23.679,0,0,1,.576,3.063c0,.041-.054.041-.068,0a23.645,23.645,0,0,1-.678-3.083l-.61-3.117a.054.054,0,0,1,.1-.014Z" transform="translate(-380.001 -234.268)" fill="#263238"/>
        <path id="Path_3819" data-name="Path 3819" d="M445.057,309.15c1.057.535,2.08,1.145,3.178,1.579a.054.054,0,1,1-.041.095,34.015,34.015,0,0,1-3.165-1.633Z" transform="translate(-383.853 -235.552)" fill="#263238"/>
        <path id="Path_3820" data-name="Path 3820" d="M415.066,267.32s10.165.678,14.854-6.038,3.652-16.223,3.652-16.223-10.646,1.294-14.874,6.1S415.066,267.32,415.066,267.32Z" transform="translate(-374.185 -214.892)" fill="#36ccb4"/>
        <path id="Path_3821" data-name="Path 3821" d="M408.064,279.1c.346-1.084.779-2.155,1.193-3.219s.813-2.033,1.26-3.036a63.431,63.431,0,0,1,3.036-5.977c.718-1.226,1.484-2.426,2.27-3.605a3.651,3.651,0,0,1,.081-.535l.142-.942c.1-.644.21-1.281.318-1.924.237-1.4.522-2.785.745-4.188,0-.068.115-.068.108,0-.21,1.355-.346,2.778-.542,4.161-.095.678-.183,1.355-.285,2.033-.041.244-.074.488-.115.732a71.2,71.2,0,0,1,5.014-6.5c.237-.285.488-.556.739-.833a.722.722,0,0,1,.095-.23c.075-.19.149-.386.217-.576.149-.407.3-.806.44-1.213.285-.793.542-1.592.752-2.406a.054.054,0,1,1,.1,0c-.2.833-.42,1.66-.678,2.487-.115.393-.244.786-.386,1.172a1.685,1.685,0,0,1-.075.2c1.3-1.409,2.65-2.771,4.012-4.113a.054.054,0,0,1,.075.075,72.764,72.764,0,0,0-7.183,8.809,6.107,6.107,0,0,1,.752-.19c.779-.149,1.565-.264,2.358-.359,1.647-.21,3.293-.42,4.94-.678.068,0,.095.095,0,.108-1.572.3-3.131.678-4.689,1.016-.732.169-1.47.312-2.216.461a14.382,14.382,0,0,0-1.775.508l-.495.678c-.745,1.084-1.457,2.189-2.162,3.3l1.037-.2q1.179-.237,2.358-.427c1.545-.251,3.09-.522,4.615-.867a.054.054,0,1,1,0,.1c-1.545.359-3.083.786-4.621,1.2-.745.2-1.491.373-2.243.542l-1.125.244a2.341,2.341,0,0,1-.454.074q-2.229,3.612-4.161,7.366-.847,1.653-1.633,3.341c-.542,1.152-1,2.324-1.5,3.49A.168.168,0,1,1,408.064,279.1Z" transform="translate(-371.932 -216.671)" fill="#263238"/>
        <path id="Path_3822" data-name="Path 3822" d="M423.177,256.9c.2-.969.4-1.931.617-2.893,0-.068.108-.041.095,0-.19.949-.373,1.9-.542,2.853a28.463,28.463,0,0,1-.576,2.839h0A20.945,20.945,0,0,1,423.177,256.9Z" transform="translate(-376.677 -217.764)" fill="#263238"/>
        <path id="Path_3823" data-name="Path 3823" d="M432.084,257.274a15.373,15.373,0,0,1,1.457-.617l.766-.3.393-.156a1.715,1.715,0,0,0,.427-.19c.075-.054.122.081.047.088a1.848,1.848,0,0,0-.434.183l-.38.169-.739.332a15.59,15.59,0,0,1-1.5.59C432.064,257.4,432.016,257.3,432.084,257.274Z" transform="translate(-379.669 -218.419)" fill="#263238"/>
        <path id="Path_3824" data-name="Path 3824" d="M385.264,259.754s-6.139-11.459-15.47-13.227-15.044,7.827-15.044,7.827,6.81,8.687,15.376,10.205S385.264,259.754,385.264,259.754Z" transform="translate(-354.75 -215.294)" fill="#36ccb4"/>
        <path id="Path_3825" data-name="Path 3825" d="M367.682,252.559a25.23,25.23,0,0,1,7.318.088l-.413-.224c-.678-.352-1.355-.678-2.067-1.064-1.437-.745-2.887-1.538-4.384-2.141a.054.054,0,1,1,.041-.095c1.464.678,2.975,1.247,4.439,1.924.732.339,1.45.678,2.168,1.064.454.244.969.474,1.416.766a25.67,25.67,0,0,1,5.936,1.972l-1.166-1.274a37.909,37.909,0,0,0-2.711-2.819c-.047-.041,0-.115.075-.068.976.888,2.033,1.708,2.954,2.629.461.447.9.908,1.355,1.389.217.237.427.481.63.739a24.524,24.524,0,0,1,12.509,16.887c0,.068-.075.1-.095.034a28.169,28.169,0,0,0-6.864-11.608,26.943,26.943,0,0,0-12.5-7.23,27.443,27.443,0,0,0-8.633-.786C367.58,252.756,367.567,252.58,367.682,252.559Z" transform="translate(-358.893 -216.197)" fill="#263238"/>
        <path id="Path_3826" data-name="Path 3826" d="M354.75,257.593s6.81,8.687,15.376,10.205c6.532,1.159,11.906-2.25,14.088-3.923l.468-.773s-4.418-3.727-12.773-5.875S354.75,257.593,354.75,257.593Z" transform="translate(-354.75 -218.534)" opacity="0.1"/>
        <path id="Path_3827" data-name="Path 3827" d="M375.684,248.175a22.3,22.3,0,0,1,2.074,1.355,13.863,13.863,0,0,1,1.8,1.647c.047.054,0,.122-.081.081-.624-.542-1.24-1.077-1.884-1.586a20.037,20.037,0,0,0-1.965-1.416C375.575,248.229,375.629,248.135,375.684,248.175Z" transform="translate(-361.474 -215.893)" fill="#263238"/>
        <path id="Path_3828" data-name="Path 3828" d="M368.134,251c.346.142.678.264,1.044.413l1.037.427c.075.034.041.156-.034.122l-1.044-.42c-.346-.142-.678-.3-1.037-.44C368.018,251.1,368.066,251,368.134,251Z" transform="translate(-359.04 -216.806)" fill="#263238"/>
        <path id="Path_3829" data-name="Path 3829" d="M387.718,286.44s-1.64,11.364-10.164,15.342-18.974,0-18.974,0S362.666,277.191,387.718,286.44Z" transform="translate(-355.985 -227.561)" fill="#36ccb4"/>
        <path id="Path_3830" data-name="Path 3830" d="M367.232,295.065c.793-.088,1.572-.224,2.351-.366l1.152-.217c.2-.041.393-.088.6-.122.23-.217.461-.434.678-.644a34.7,34.7,0,0,1,5.225-3.788,30.3,30.3,0,0,1,3.131-1.606h-.156l-2.819.122c-1.87.088-3.747.129-5.624.251-.068,0-.061-.1,0-.108,1.877-.129,3.747-.332,5.631-.495l2.711-.244,1.409-.122a1.085,1.085,0,0,0,.359-.041c.488-.176.976-.352,1.477-.508a13.356,13.356,0,0,1,7.237-.4c2.148.556,4.3,1.965,4.852,4.228,0,.081-.1.136-.136.054-.8-1.9-2.907-2.846-4.8-3.239a11.413,11.413,0,0,0-3.869-.075,9.623,9.623,0,0,1-.427,1.714l-.712,2.4c-.488,1.6-1.023,3.178-1.491,4.777a.054.054,0,0,1-.1-.034c.393-1.592.732-3.2,1.111-4.8.19-.786.386-1.572.583-2.351a12.8,12.8,0,0,1,.434-1.62,22.069,22.069,0,0,0-2.223.522,32.779,32.779,0,0,0-3.869,1.423c-.129.806-.3,1.613-.495,2.412-.23,1-.495,2-.813,2.975a.047.047,0,1,1-.095,0l.041-.183h0c.19-.928.4-1.857.6-2.785.156-.745.3-1.5.461-2.243-1.057.474-2.1,1-3.11,1.572a4.029,4.029,0,0,1-.115.678c-.061.386-.129.779-.2,1.166-.163.874-.332,1.748-.542,2.616a41.754,41.754,0,0,1-1.47,4.94.061.061,0,0,1,0,.068l-.054.061c-.034.041-.095,0-.081-.054.393-1.687.847-3.354,1.213-5.048.19-.84.373-1.687.542-2.534.088-.42.163-.847.244-1.274a2.91,2.91,0,0,1,.061-.379,35.846,35.846,0,0,0-8.376,6.851.082.082,0,0,1-.129-.1c.678-.854,1.3-1.694,2.033-2.487.427-.461.874-.9,1.355-1.355h-.142l-1.2.183c-.793.1-1.586.183-2.378.271C367.191,295.173,367.164,295.072,367.232,295.065Z" transform="translate(-358.761 -228.236)" fill="#263238"/>
        <path id="Path_3831" data-name="Path 3831" d="M376.1,303.422h0a.643.643,0,0,1,.047-.3,3.813,3.813,0,0,0,.1-.373h0c.176-.766.318-1.525.461-2.3,0-.054.095-.034.088,0a9.109,9.109,0,0,1-.678,2.968h-.061Z" transform="translate(-361.62 -232.738)" fill="#263238"/>
        <path id="Path_3832" data-name="Path 3832" d="M386.663,301.578a.054.054,0,0,1,.054-.047c.237-1.01.468-2.033.678-3.029.108-.535.217-1.064.318-1.6.061-.285.108-.576.163-.861a2.556,2.556,0,0,1,.183-.745.054.054,0,0,1,.095,0,4.934,4.934,0,0,1-.21,1.525c-.108.556-.217,1.1-.339,1.66-.244,1.118-.529,2.236-.84,3.341,0,.061-.122.047-.115,0S386.657,301.66,386.663,301.578Z" transform="translate(-365.033 -231.077)" fill="#263238"/>
        <path id="Path_3833" data-name="Path 3833" d="M368.381,294.03c1.565-.217,3.124-.44,4.689-.63.061,0,.088.095,0,.1-1.559.23-3.117.427-4.682.63C368.34,294.139,368.313,294.037,368.381,294.03Z" transform="translate(-359.131 -230.475)" fill="#263238"/>
        <path id="Path_3834" data-name="Path 3834" d="M398.389,232.762s5.231-22.938-19.421-32.222C379,200.54,372.165,230.735,398.389,232.762Z" transform="translate(-362.305 -200.54)" fill="#36ccb4"/>
        <path id="Path_3835" data-name="Path 3835" d="M395.349,223.626l-.264-.163c-.468-.251-.928-.515-1.4-.773l-2.86-1.6c-1.877-1.057-3.734-2.148-5.631-3.178-.061-.034,0-.122.054-.088,1.9,1.03,3.829,1.992,5.74,3l2.826,1.5,1.152.61c-.82-1.559-1.7-3.09-2.663-4.56-1.288-1.965-2.711-3.842-4.167-5.672a.084.084,0,0,1,.122-.115,39.567,39.567,0,0,1,5.7,6.986c0-.081,0-.163,0-.237-.034-.569-.047-1.138-.054-1.714,0-1.118.041-2.243,0-3.388,0-.068.1-.061.1,0,.047,1.1.183,2.2.244,3.3,0,.549.054,1.1.068,1.653a7.593,7.593,0,0,1,0,.962c.508.806,1,1.626,1.457,2.453a43.129,43.129,0,0,1,2.2,4.621c0-.569.061-1.138.095-1.714.075-1.254.224-2.507.278-3.761a.054.054,0,0,1,.108,0v3.774c0,.623-.041,1.254-.081,1.884l-.041.678a41.877,41.877,0,0,1,1.857,6.3,68.1,68.1,0,0,1,.922,6.932h0a37.688,37.688,0,0,0-1.308-6.18q-.454-1.626-.976-3.232c-1.023-.481-2.033-1.084-3-1.633l-3.1-1.694c-2.033-1.125-4.107-2.27-6.227-3.266-.068-.034,0-.122.054-.095,2.148.976,4.317,1.9,6.424,2.961,1.05.529,2.08,1.091,3.11,1.667.854.481,1.735.969,2.548,1.525-.237-.718-.488-1.43-.759-2.128A60.551,60.551,0,0,0,395.349,223.626Z" transform="translate(-364.557 -204.415)" fill="#263238"/>
        <path id="Path_3836" data-name="Path 3836" d="M403.125,221.127c0-.068.108-.061.1,0-.088,1.308-.129,2.616-.271,3.917a.061.061,0,0,1-.115,0C402.887,223.736,403.03,222.435,403.125,221.127Z" transform="translate(-370.252 -207.161)" fill="#263238"/>
        <path id="Path_3837" data-name="Path 3837" d="M385.79,227.618c1.538.617,3.1,1.206,4.635,1.85a.041.041,0,0,1,0,.075c-1.552-.583-3.09-1.22-4.642-1.823C385.7,227.692,385.722,227.591,385.79,227.618Z" transform="translate(-364.736 -209.267)" fill="#263238"/>
        <path id="Path_3838" data-name="Path 3838" d="M382.321,212a41.933,41.933,0,0,1,4.384,2.351c.068.047,0,.156-.068.115-1.43-.84-2.887-1.64-4.371-2.379C382.206,212.061,382.26,212,382.321,212Z" transform="translate(-363.612 -204.234)" fill="#263238"/>
        <rect id="Rectangle_213" data-name="Rectangle 213" width="35.549" height="37.473" transform="translate(54.631 126.697) rotate(180)" fill="#37474f"/>
        <rect id="Rectangle_214" data-name="Rectangle 214" width="1.816" height="64.186" transform="translate(55.261 102.486)" fill="#263238"/>
        <rect id="Rectangle_215" data-name="Rectangle 215" width="1.816" height="64.186" transform="translate(16.826 102.486)" fill="#263238"/>
        <rect id="Rectangle_216" data-name="Rectangle 216" width="1.816" height="64.186" transform="translate(35.074 102.486)" fill="#263238"/>
        <rect id="Rectangle_217" data-name="Rectangle 217" width="38.435" height="5.191" transform="translate(56.169 129.483) rotate(180)" fill="#263238"/>
      </g>
      <g id="freepik--Table--inject-112" transform="translate(67.818 173.514)">
        <rect id="Rectangle_218" data-name="Rectangle 218" width="242.959" height="8.64" transform="translate(0 0)" fill="#37474f"/>
        <rect id="Rectangle_219" data-name="Rectangle 219" width="242.959" height="3.375" transform="translate(0 5.272)" fill="#455a64"/>
        <path id="Path_3839" data-name="Path 3839" d="M89.93,382.338H86.44L96.6,247.55h8.911Z" transform="translate(-81.215 -238.91)" fill="#455a64"/>
        <path id="Path_3840" data-name="Path 3840" d="M110.029,247.56l-1.044,8.111H100.44l.678-8.111Z" transform="translate(-85.729 -238.913)" fill="#263238"/>
        <path id="Path_3841" data-name="Path 3841" d="M417,382.338h3.49L410.321,247.55H401.41Z" transform="translate(-182.751 -238.91)" fill="#455a64"/>
        <path id="Path_3842" data-name="Path 3842" d="M401.41,247.56l1.044,8.111H411l-.678-8.111Z" transform="translate(-182.751 -238.913)" fill="#263238"/>
      </g>
      <g id="freepik--Sheets--inject-112" transform="translate(212.859 127.828)">
        <rect id="Rectangle_220" data-name="Rectangle 220" width="31.91" height="45.686" transform="translate(31.598 0)" fill="#ebebeb"/>
        <rect id="Rectangle_221" data-name="Rectangle 221" width="12.13" height="45.686" transform="translate(63.508 0)" fill="#c7c7c7"/>
        <path id="Path_3843" data-name="Path 3843" d="M339.4,183h31.91l-24.923.786Z" transform="translate(-307.802 -172.415)" fill="#c7c7c7"/>
        <path id="Path_3844" data-name="Path 3844" d="M371.31,229.34H339.4l24.923.786Z" transform="translate(-307.802 -187.354)" fill="#c7c7c7"/>
        <path id="Path_3845" data-name="Path 3845" d="M371.31,191.8H339.4l24.923.786Z" transform="translate(-307.802 -175.252)" fill="#c7c7c7"/>
        <path id="Path_3846" data-name="Path 3846" d="M337.08,185.87h20.214l-17.971.644Z" transform="translate(-307.054 -173.341)" fill="#c7c7c7"/>
        <path id="Path_3847" data-name="Path 3847" d="M373.874,200.62H353.66l17.971.644Z" transform="translate(-312.399 -178.095)" fill="#c7c7c7"/>
        <path id="Path_3848" data-name="Path 3848" d="M350.69,172.32h22.8l-3.8.393Z" transform="translate(-311.441 -168.972)" fill="#c7c7c7"/>
        <path id="Path_3849" data-name="Path 3849" d="M343.97,217.03h22.8l-3.8.386Z" transform="translate(-309.275 -183.385)" fill="#c7c7c7"/>
        <path id="Path_3850" data-name="Path 3850" d="M354.75,197.01h22.8l-3.8.386Z" transform="translate(-312.75 -176.932)" fill="#c7c7c7"/>
        <path id="Path_3851" data-name="Path 3851" d="M364.66,182.06h14.793l2.643,1.03Z" transform="translate(-315.945 -172.112)" fill="#ebebeb"/>
        <path id="Path_3852" data-name="Path 3852" d="M364.66,207.34h14.793l2.643,1.03Z" transform="translate(-315.945 -180.262)" fill="#ebebeb"/>
        <path id="Path_3853" data-name="Path 3853" d="M364.76,177.4h14.786l2.643,1.03Z" transform="translate(-315.977 -170.61)" fill="#dbdbdb"/>
        <path id="Path_3854" data-name="Path 3854" d="M364.76,223.41h14.786l2.643,1.037Z" transform="translate(-315.977 -185.442)" fill="#dbdbdb"/>
        <path id="Path_3855" data-name="Path 3855" d="M353.1,224.18H338.306l-2.636,1.03Z" transform="translate(-306.599 -185.69)" fill="#dbdbdb"/>
        <path id="Path_3856" data-name="Path 3856" d="M386.49,219.01h11.872L401,220.04Z" transform="translate(-322.982 -184.024)" fill="#c7c7c7"/>
        <path id="Path_3857" data-name="Path 3857" d="M392.61,211.777h9.209l-1.233-.847Z" transform="translate(-324.955 -181.419)" fill="#c7c7c7"/>
        <path id="Path_3858" data-name="Path 3858" d="M386.49,197.71h11.872L401,198.74Z" transform="translate(-322.982 -177.157)" fill="#c7c7c7"/>
        <path id="Path_3859" data-name="Path 3859" d="M392.61,222.307h9.209l-1.233-.847Z" transform="translate(-324.955 -184.813)" fill="#c7c7c7"/>
        <path id="Path_3860" data-name="Path 3860" d="M392.61,174.53h9.209l-1.233-.84Z" transform="translate(-324.955 -169.414)" fill="#c7c7c7"/>
        <rect id="Rectangle_222" data-name="Rectangle 222" width="31.91" height="30.663" transform="translate(4.073 15.023)" fill="#ebebeb"/>
        <rect id="Rectangle_223" data-name="Rectangle 223" width="12.13" height="30.663" transform="translate(35.982 15.023)" fill="#c7c7c7"/>
        <path id="Path_3861" data-name="Path 3861" d="M298.78,212.18H330.7l-24.923.786Z" transform="translate(-294.707 -181.822)" fill="#c7c7c7"/>
        <path id="Path_3862" data-name="Path 3862" d="M330.7,229.34H298.78l24.923.786Z" transform="translate(-294.707 -187.354)" fill="#c7c7c7"/>
        <path id="Path_3863" data-name="Path 3863" d="M298.78,199.53h20.214l-17.964.644Z" transform="translate(-294.707 -177.744)" fill="#c7c7c7"/>
        <path id="Path_3864" data-name="Path 3864" d="M336.264,222.67H316.05l17.964.651Z" transform="translate(-300.275 -185.204)" fill="#c7c7c7"/>
        <path id="Path_3865" data-name="Path 3865" d="M310.08,194.49h22.8l-3.795.386Z" transform="translate(-298.35 -176.119)" fill="#c7c7c7"/>
        <path id="Path_3866" data-name="Path 3866" d="M303.36,217.03h22.8l-3.795.386Z" transform="translate(-296.184 -183.385)" fill="#c7c7c7"/>
        <path id="Path_3867" data-name="Path 3867" d="M324.05,203.84h14.793l2.636,1.03Z" transform="translate(-302.854 -179.133)" fill="#ebebeb"/>
        <path id="Path_3868" data-name="Path 3868" d="M292.77,203.84h14.793l2.636,1.03Z" transform="translate(-292.77 -179.133)" fill="#dbdbdb"/>
        <path id="Path_3869" data-name="Path 3869" d="M312.479,224.18H297.693l-2.643,1.03Z" transform="translate(-293.505 -185.69)" fill="#dbdbdb"/>
        <path id="Path_3870" data-name="Path 3870" d="M345.88,219.01h11.872l2.643,1.03Z" transform="translate(-309.891 -184.024)" fill="#c7c7c7"/>
        <path id="Path_3871" data-name="Path 3871" d="M351.99,211.777H361.2l-1.227-.847Z" transform="translate(-311.86 -181.419)" fill="#c7c7c7"/>
      </g>
      <g id="freepik--Device--inject-112" transform="translate(135.575 117)">
        <path id="Path_3872" data-name="Path 3872" d="M216.254,232.827H178.72v-2.914l37.534-1.213Z" transform="translate(-178.72 -176.319)" fill="#455a64"/>
        <path id="Path_3873" data-name="Path 3873" d="M265.551,230.568H240.79c-2.114,0,.949-6.017,8.66-8.328S267.983,228.312,265.551,230.568Z" transform="translate(-198.519 -174.108)" fill="#37474f"/>
        <path id="Path_3874" data-name="Path 3874" d="M263.3,231.6a6.052,6.052,0,0,1,.217-2.033,7.523,7.523,0,0,1,.82-1.924,6.193,6.193,0,0,1,1.355-1.606,5.055,5.055,0,0,1,1.823-1,12.877,12.877,0,0,0-1.457,1.355,10.393,10.393,0,0,0-1.152,1.572A18.2,18.2,0,0,0,263.3,231.6Z" transform="translate(-205.983 -175.139)" fill="#263238"/>
        <path id="Path_3875" data-name="Path 3875" d="M267.64,226.27a10.889,10.889,0,0,1,2.189.766,12.555,12.555,0,0,1,2.033,1.166,7.92,7.92,0,0,1,1.721,1.613,3.388,3.388,0,0,1,.84,2.182,4.744,4.744,0,0,0-1.233-1.836,12.8,12.8,0,0,0-1.721-1.409C270.242,227.876,268.941,227.11,267.64,226.27Z" transform="translate(-207.385 -175.535)" fill="#263238"/>
        <path id="Path_3876" data-name="Path 3876" d="M275.231,196.212h-60.2L224.6,151.4h60.2Z" transform="translate(-190.425 -151.4)" fill="#455a64"/>
        <path id="Path_3877" data-name="Path 3877" d="M278.514,196.212H218.32l9.575-44.812h60.194Z" transform="translate(-191.486 -151.4)" fill="#37474f"/>
        <path id="Path_3878" data-name="Path 3878" d="M258.569,189.036H257.16L259.3,178.98h1.409Z" transform="translate(-204.006 -160.291)" fill="#263238"/>
        <path id="Path_3879" data-name="Path 3879" d="M262.679,189.036H261.27l2.141-10.056h1.409Z" transform="translate(-205.331 -160.291)" fill="#263238"/>
        <path id="Path_3880" data-name="Path 3880" d="M266.789,189.036H265.38l2.141-10.056h1.416Z" transform="translate(-206.656 -160.291)" fill="#263238"/>
        <path id="Path_3881" data-name="Path 3881" d="M270.9,189.036H269.49l2.141-10.056h1.416Z" transform="translate(-207.981 -160.291)" fill="#263238"/>
        <path id="Path_3882" data-name="Path 3882" d="M275.016,189.036H273.6l2.141-10.056h1.416Z" transform="translate(-209.306 -160.291)" fill="#263238"/>
        <path id="Path_3883" data-name="Path 3883" d="M279.126,189.036H277.71l2.148-10.056h1.409Z" transform="translate(-210.631 -160.291)" fill="#263238"/>
        <path id="Path_3884" data-name="Path 3884" d="M283.236,189.036H281.82l2.148-10.056h1.41Z" transform="translate(-211.956 -160.291)" fill="#263238"/>
        <path id="Path_3885" data-name="Path 3885" d="M267.946,233.253H238.34v-2.3L267.946,230Z" transform="translate(-197.939 -176.738)" fill="#455a64"/>
        <path id="Path_3886" data-name="Path 3886" d="M281.792,222.853H265.9L256.32,197.74h15.9Z" transform="translate(-203.736 -166.338)" fill="#455a64"/>
        <path id="Path_3887" data-name="Path 3887" d="M285.652,222.853h-15.9L260.18,197.74h15.9Z" transform="translate(-204.98 -166.338)" fill="#263238"/>
      </g>
    </g>
  </g>
</svg>
