<svg xmlns="http://www.w3.org/2000/svg" width="304.695" height="273" viewBox="0 0 304.695 273">
  <g id="Group_125" data-name="Group 125" transform="translate(-28 -134)">
    <g id="Presentation-cuate" transform="translate(-1.71 64.45)">
      <g id="freepik--Shadow--inject-324" transform="translate(35.685 310.641)">
        <ellipse id="Ellipse_53" data-name="Ellipse 53" cx="146.372" cy="15.955" rx="146.372" ry="15.955" transform="translate(0)" fill="#ebebeb"/>
      </g>
      <g id="freepik--Floor--inject-324" transform="translate(29.71 299.451)">
        <path id="Path_4757" data-name="Path 4757" d="M29.71,402.326,67.8,402.16l38.085-.062,76.177-.118,76.177.118,38.085.055,38.085.173-38.085.166-38.085.062-76.177.118-76.177-.118L67.8,402.492Z" transform="translate(-29.71 -401.98)" fill="#263238"/>
      </g>
      <g id="freepik--board--inject-324" transform="translate(40.595 69.55)">
        <path id="Path_4758" data-name="Path 4758" d="M114.234,373.731H109.6L142.1,243.5h11.549Z" transform="translate(-65.235 -123.2)" fill="#455a64"/>
        <path id="Path_4759" data-name="Path 4759" d="M153.284,243.5h11.563l-9.011,29.745H145.87Z" transform="translate(-76.422 -123.2)" fill="#263238"/>
        <path id="Path_4760" data-name="Path 4760" d="M179.29,366.815h-4.64L178.108,243.5h11.556Z" transform="translate(-85.298 -123.2)" fill="#455a64"/>
        <path id="Path_4761" data-name="Path 4761" d="M179.284,243.5h11.542l-2.5,29.745h-9.89Z" transform="translate(-86.467 -123.2)" fill="#263238"/>
        <path id="Path_4762" data-name="Path 4762" d="M232.214,373.731h4.634L211.259,243.5H199.71Z" transform="translate(-93.027 -123.2)" fill="#455a64"/>
        <path id="Path_4763" data-name="Path 4763" d="M217.11,273.245h-9.979L199.71,243.5h11.549Z" transform="translate(-93.027 -123.2)" fill="#263238"/>
        <rect id="Rectangle_319" data-name="Rectangle 319" width="67.443" height="2.545" transform="translate(62.235 194.734)" fill="#455a64"/>
        <rect id="Rectangle_320" data-name="Rectangle 320" width="183.717" height="135.563" transform="translate(6.729 5.401)" fill="#ebebeb"/>
        <rect id="Rectangle_321" data-name="Rectangle 321" width="197.175" height="10.049" fill="#37474f"/>
        <rect id="Rectangle_322" data-name="Rectangle 322" width="75.582" height="1.674" transform="translate(60.797 20.727)" fill="#c7c7c7"/>
        <rect id="Rectangle_323" data-name="Rectangle 323" width="49.731" height="1.674" transform="translate(73.722 24.219)" fill="#c7c7c7"/>
        <rect id="Rectangle_324" data-name="Rectangle 324" width="43.839" height="67.512" transform="translate(24.572 78.591) rotate(-90)" fill="#c7c7c7"/>
        <rect id="Rectangle_325" data-name="Rectangle 325" width="39.185" height="3.472" transform="translate(27.767 76.26) rotate(-90)" fill="#fff"/>
        <rect id="Rectangle_326" data-name="Rectangle 326" width="20.035" height="3.472" transform="translate(27.767 76.26) rotate(-90)" fill="#32e0c4"/>
        <rect id="Rectangle_327" data-name="Rectangle 327" width="39.185" height="3.472" transform="translate(34.171 76.26) rotate(-90)" fill="#fff"/>
        <rect id="Rectangle_328" data-name="Rectangle 328" width="30.941" height="3.472" transform="translate(34.171 76.26) rotate(-90)" fill="#455a64"/>
        <rect id="Rectangle_329" data-name="Rectangle 329" width="39.185" height="3.472" transform="translate(40.575 76.26) rotate(-90)" fill="#fff"/>
        <rect id="Rectangle_330" data-name="Rectangle 330" width="24.911" height="3.472" transform="translate(40.575 76.253) rotate(-90)" fill="#32e0c4"/>
        <rect id="Rectangle_331" data-name="Rectangle 331" width="39.185" height="3.472" transform="translate(46.979 76.26) rotate(-90)" fill="#fff"/>
        <rect id="Rectangle_332" data-name="Rectangle 332" width="12.455" height="3.472" transform="translate(46.986 76.26) rotate(-90)" fill="#455a64"/>
        <rect id="Rectangle_333" data-name="Rectangle 333" width="39.185" height="3.472" transform="translate(53.39 76.26) rotate(-90)" fill="#fff"/>
        <rect id="Rectangle_334" data-name="Rectangle 334" width="33.728" height="3.472" transform="translate(53.39 76.26) rotate(-90)" fill="#32e0c4"/>
        <rect id="Rectangle_335" data-name="Rectangle 335" width="39.185" height="3.472" transform="translate(59.794 76.26) rotate(-90)" fill="#fff"/>
        <rect id="Rectangle_336" data-name="Rectangle 336" width="30.941" height="3.472" transform="translate(59.787 76.26) rotate(-90)" fill="#455a64"/>
        <rect id="Rectangle_337" data-name="Rectangle 337" width="39.185" height="3.472" transform="translate(66.198 76.26) rotate(-90)" fill="#fff"/>
        <rect id="Rectangle_338" data-name="Rectangle 338" width="24.911" height="3.472" transform="translate(66.198 76.26) rotate(-90)" fill="#32e0c4"/>
        <rect id="Rectangle_339" data-name="Rectangle 339" width="39.185" height="3.472" transform="translate(72.602 76.26) rotate(-90)" fill="#fff"/>
        <rect id="Rectangle_340" data-name="Rectangle 340" width="30.941" height="3.472" transform="translate(72.602 76.26) rotate(-90)" fill="#455a64"/>
        <rect id="Rectangle_341" data-name="Rectangle 341" width="39.185" height="3.472" transform="translate(79.006 76.26) rotate(-90)" fill="#fff"/>
        <rect id="Rectangle_342" data-name="Rectangle 342" width="12.455" height="3.472" transform="translate(79.006 76.26) rotate(-90)" fill="#32e0c4"/>
        <rect id="Rectangle_343" data-name="Rectangle 343" width="39.185" height="3.472" transform="translate(85.41 76.26) rotate(-90)" fill="#fff"/>
        <rect id="Rectangle_344" data-name="Rectangle 344" width="24.911" height="3.472" transform="translate(85.41 76.26) rotate(-90)" fill="#455a64"/>
        <rect id="Rectangle_345" data-name="Rectangle 345" width="4.239" height="4.239" transform="translate(24.606 83.632)" fill="#32e0c4"/>
        <rect id="Rectangle_346" data-name="Rectangle 346" width="46.398" height="1.252" transform="translate(31.792 83.632)" fill="#c7c7c7"/>
        <rect id="Rectangle_347" data-name="Rectangle 347" width="29.98" height="1.252" transform="translate(31.792 86.62)" fill="#c7c7c7"/>
        <rect id="Rectangle_348" data-name="Rectangle 348" width="4.239" height="4.239" transform="translate(24.606 116.365)" fill="#32e0c4"/>
        <rect id="Rectangle_349" data-name="Rectangle 349" width="22.822" height="1.252" transform="translate(31.792 116.365)" fill="#c7c7c7"/>
        <rect id="Rectangle_350" data-name="Rectangle 350" width="29.98" height="1.252" transform="translate(31.792 119.352)" fill="#c7c7c7"/>
        <rect id="Rectangle_351" data-name="Rectangle 351" width="4.239" height="4.239" transform="translate(24.606 124.394)" fill="#455a64"/>
        <rect id="Rectangle_352" data-name="Rectangle 352" width="17.338" height="1.252" transform="translate(31.792 124.394)" fill="#c7c7c7"/>
        <rect id="Rectangle_353" data-name="Rectangle 353" width="29.98" height="1.252" transform="translate(31.792 127.375)" fill="#c7c7c7"/>
        <rect id="Rectangle_354" data-name="Rectangle 354" width="5.954" height="30.25" transform="translate(113.73 98.785)" fill="#32e0c4"/>
        <rect id="Rectangle_355" data-name="Rectangle 355" width="5.954" height="25.222" transform="translate(123.958 103.813)" fill="#32e0c4"/>
        <rect id="Rectangle_356" data-name="Rectangle 356" width="5.954" height="16.052" transform="translate(134.187 112.976)" fill="#32e0c4"/>
        <rect id="Rectangle_357" data-name="Rectangle 357" width="5.954" height="25.658" transform="translate(144.422 103.37)" fill="#32e0c4"/>
        <rect id="Rectangle_358" data-name="Rectangle 358" width="5.954" height="21.446" transform="translate(154.65 107.582)" fill="#32e0c4"/>
        <rect id="Rectangle_359" data-name="Rectangle 359" width="5.954" height="34.461" transform="translate(164.879 94.566)" fill="#32e0c4"/>
        <path id="Path_4764" data-name="Path 4764" d="M204.842,203.26l.069,9.136.035,9.143.048,18.278-.152-.145c14.454-.048,28.915,0,43.369,0l12.061.035,10.7.083-10.7.09-12.061.035c-14.454,0-28.915.069-43.369,0h-.152v-.152l.048-18.278.035-9.143Z" transform="translate(-94.563 -110.789)" fill="#a6a6a6"/>
        <path id="Path_4765" data-name="Path 4765" d="M203,206.216a4.724,4.724,0,0,1,1.314-.166,4.794,4.794,0,0,1,1.314.166,4.8,4.8,0,0,1-1.314.173A4.73,4.73,0,0,1,203,206.216Z" transform="translate(-94.042 -111.649)" fill="#a6a6a6"/>
        <path id="Path_4766" data-name="Path 4766" d="M203,211.465a4.481,4.481,0,0,1,1.314-.166,4.538,4.538,0,0,1,1.314.166,4.791,4.791,0,0,1-1.314.166,4.724,4.724,0,0,1-1.314-.166Z" transform="translate(-94.042 -113.268)" fill="#a6a6a6"/>
        <path id="Path_4767" data-name="Path 4767" d="M203,216.713a4.731,4.731,0,0,1,1.314-.173,4.551,4.551,0,0,1,1.314.173,4.792,4.792,0,0,1-1.314.166,4.723,4.723,0,0,1-1.314-.166Z" transform="translate(-94.042 -114.885)" fill="#a6a6a6"/>
        <path id="Path_4768" data-name="Path 4768" d="M203,221.926a4.724,4.724,0,0,1,1.314-.166,4.792,4.792,0,0,1,1.314.166,4.8,4.8,0,0,1-1.314.173,4.73,4.73,0,0,1-1.314-.173Z" transform="translate(-94.042 -116.495)" fill="#a6a6a6"/>
        <path id="Path_4769" data-name="Path 4769" d="M203,227.2a4.731,4.731,0,0,1,1.314-.173,4.8,4.8,0,0,1,1.314.173,4.793,4.793,0,0,1-1.314.166A4.723,4.723,0,0,1,203,227.2Z" transform="translate(-94.042 -118.12)" fill="#a6a6a6"/>
        <path id="Path_4770" data-name="Path 4770" d="M203,232.453a4.489,4.489,0,0,1,1.314-.173,4.55,4.55,0,0,1,1.314.173,4.792,4.792,0,0,1-1.314.166A4.723,4.723,0,0,1,203,232.453Z" transform="translate(-94.042 -119.739)" fill="#a6a6a6"/>
        <path id="Path_4771" data-name="Path 4771" d="M203,237.7a4.724,4.724,0,0,1,1.314-.166,4.793,4.793,0,0,1,1.314.166,4.8,4.8,0,0,1-1.314.173A4.73,4.73,0,0,1,203,237.7Z" transform="translate(-94.042 -121.359)" fill="#a6a6a6"/>
        <path id="Path_4772" data-name="Path 4772" d="M203,242.923a4.731,4.731,0,0,1,1.314-.173,4.8,4.8,0,0,1,1.314.173,4.793,4.793,0,0,1-1.314.166A4.723,4.723,0,0,1,203,242.923Z" transform="translate(-94.042 -122.969)" fill="#a6a6a6"/>
        <path id="Path_4773" data-name="Path 4773" d="M203,248.186a4.724,4.724,0,0,1,1.314-.166,4.793,4.793,0,0,1,1.314.166,4.551,4.551,0,0,1-1.314.173,4.731,4.731,0,0,1-1.314-.173Z" transform="translate(-94.042 -124.594)" fill="#a6a6a6"/>
        <path id="Path_4774" data-name="Path 4774" d="M239.156,147.47a17.981,17.981,0,0,1-10.92,16.5l-7.006-16.5Z" transform="translate(-99.665 -93.582)" fill="#32e0c4"/>
        <path id="Path_4775" data-name="Path 4775" d="M209.928,137.7l6.978,16.5h0c-.546.221-1.1.429-1.646.6a17.908,17.908,0,1,1,11.791-22.421,18.231,18.231,0,0,1,.8,5.318Z" transform="translate(-90.659 -85.047)" fill="#32e0c4"/>
        <path id="Path_4776" data-name="Path 4776" d="M209.869,137.646l6.978,16.5h0c-.546.221-1.1.429-1.646.6a17.981,17.981,0,1,1,12.6-17.123Z" transform="translate(-90.6 -84.99)" fill="#a6a6a6"/>
        <path id="Path_4777" data-name="Path 4777" d="M209.922,137.713l-11.7,13.583a17.912,17.912,0,1,1,29.593-13.583Z" transform="translate(-90.646 -85.049)" fill="#455a64"/>
        <path id="Path_4778" data-name="Path 4778" d="M247.038,172.446H233.5L216.74,155.682l.242-.242,16.66,16.66h13.4Z" transform="translate(-98.28 -96.04)" fill="#263238"/>
        <rect id="Rectangle_360" data-name="Rectangle 360" width="1.888" height="1.888" transform="translate(117.637 58.577)" fill="#263238"/>
        <path id="Path_4779" data-name="Path 4779" d="M250.517,157.94H235.261L228.02,150.7l.249-.249,7.137,7.144h15.111Z" transform="translate(-101.759 -94.501)" fill="#263238"/>
        <rect id="Rectangle_361" data-name="Rectangle 361" width="1.881" height="1.888" transform="translate(125.445 55.133)" fill="#263238"/>
        <rect id="Rectangle_362" data-name="Rectangle 362" width="23.064" height="0.346" transform="translate(125.694 50.603)" fill="#263238"/>
        <rect id="Rectangle_363" data-name="Rectangle 363" width="1.888" height="1.888" transform="translate(124.498 49.835)" fill="#263238"/>
        <rect id="Rectangle_364" data-name="Rectangle 364" width="16.757" height="1.556" transform="translate(154 48.881)" fill="#c7c7c7"/>
        <rect id="Rectangle_365" data-name="Rectangle 365" width="21.743" height="1.556" transform="translate(154 52.138)" fill="#c7c7c7"/>
        <rect id="Rectangle_366" data-name="Rectangle 366" width="11.625" height="1.556" transform="translate(154 55.395)" fill="#c7c7c7"/>
        <rect id="Rectangle_367" data-name="Rectangle 367" width="3.783" height="3.783" transform="translate(146.863 48.881)" fill="#455a64"/>
        <rect id="Rectangle_368" data-name="Rectangle 368" width="18.797" height="1.556" transform="translate(154 61.474)" fill="#c7c7c7"/>
        <rect id="Rectangle_369" data-name="Rectangle 369" width="15.671" height="1.556" transform="translate(154 64.732)" fill="#c7c7c7"/>
        <rect id="Rectangle_370" data-name="Rectangle 370" width="21.743" height="1.556" transform="translate(154 67.989)" fill="#c7c7c7"/>
        <rect id="Rectangle_371" data-name="Rectangle 371" width="3.783" height="3.783" transform="translate(146.863 61.474)" fill="#32e0c4"/>
        <rect id="Rectangle_372" data-name="Rectangle 372" width="18.797" height="1.556" transform="translate(154 74.075)" fill="#c7c7c7"/>
        <rect id="Rectangle_373" data-name="Rectangle 373" width="15.671" height="1.556" transform="translate(154 77.325)" fill="#c7c7c7"/>
        <rect id="Rectangle_374" data-name="Rectangle 374" width="21.743" height="1.556" transform="translate(154 80.583)" fill="#c7c7c7"/>
        <rect id="Rectangle_375" data-name="Rectangle 375" width="3.783" height="3.783" transform="translate(146.863 74.075)" fill="#a6a6a6"/>
        <path id="Path_4780" data-name="Path 4780" d="M94.105,216.071a7.393,7.393,0,1,1-.975-3.672,7.393,7.393,0,0,1,.975,3.672Z" transform="translate(-55.896 -112.459)" fill="#455a64"/>
        <path id="Path_4781" data-name="Path 4781" d="M96.425,212.4,90,216.073V208.68a7.379,7.379,0,0,1,6.425,3.721Z" transform="translate(-59.19 -112.461)" fill="#32e0c4"/>
        <circle id="Ellipse_54" data-name="Ellipse 54" cx="5.111" cy="5.111" r="5.111" transform="translate(24.962 107.847) rotate(-80.8)" fill="#fff"/>
        <rect id="Rectangle_376" data-name="Rectangle 376" width="4.253" height="0.602" transform="translate(28.694 102.478)" fill="#263238"/>
        <rect id="Rectangle_377" data-name="Rectangle 377" width="6.363" height="0.602" transform="translate(27.642 104.145)" fill="#a6a6a6"/>
        <path id="Path_4782" data-name="Path 4782" d="M123.944,216.049a7.928,7.928,0,0,1-.076,1.079,7.462,7.462,0,1,1,.076-1.079Z" transform="translate(-65.056 -112.437)" fill="#455a64"/>
        <path id="Path_4783" data-name="Path 4783" d="M127.306,216.073a7.924,7.924,0,0,1-.076,1.079l-7.31-1.079V208.68A7.393,7.393,0,0,1,127.306,216.073Z" transform="translate(-68.418 -112.461)" fill="#32e0c4"/>
        <circle id="Ellipse_55" data-name="Ellipse 55" cx="5.111" cy="5.111" r="5.111" transform="translate(45.352 107.416) rotate(-76.76)" fill="#fff"/>
        <rect id="Rectangle_378" data-name="Rectangle 378" width="4.253" height="0.602" transform="translate(49.372 102.478)" fill="#263238"/>
        <rect id="Rectangle_379" data-name="Rectangle 379" width="6.363" height="0.602" transform="translate(48.32 104.145)" fill="#a6a6a6"/>
        <path id="Path_4784" data-name="Path 4784" d="M154.115,216.071a7.393,7.393,0,1,1-.975-3.672A7.393,7.393,0,0,1,154.115,216.071Z" transform="translate(-74.404 -112.459)" fill="#455a64"/>
        <path id="Path_4785" data-name="Path 4785" d="M157.413,216.073a7.379,7.379,0,0,1-4.744,6.916l-2.649-6.916V208.68A7.393,7.393,0,0,1,157.413,216.073Z" transform="translate(-77.702 -112.461)" fill="#32e0c4"/>
        <path id="Path_4786" data-name="Path 4786" d="M152.852,217.1a5.111,5.111,0,1,1-5.125-5.1,5.111,5.111,0,0,1,5.125,5.1Z" transform="translate(-75.423 -113.485)" fill="#fff"/>
        <rect id="Rectangle_380" data-name="Rectangle 380" width="4.253" height="0.602" transform="translate(70.195 102.478)" fill="#263238"/>
        <rect id="Rectangle_381" data-name="Rectangle 381" width="6.363" height="0.602" transform="translate(69.137 104.145)" fill="#a6a6a6"/>
        <path id="Path_4787" data-name="Path 4787" d="M184.055,216.071a7.393,7.393,0,1,1-.975-3.672A7.393,7.393,0,0,1,184.055,216.071Z" transform="translate(-83.638 -112.459)" fill="#455a64"/>
        <path id="Path_4788" data-name="Path 4788" d="M185.206,216.073A7.386,7.386,0,0,1,173,221.689l4.8-5.616V208.68a7.393,7.393,0,0,1,7.386,7.393Z" transform="translate(-84.789 -112.461)" fill="#32e0c4"/>
        <circle id="Ellipse_56" data-name="Ellipse 56" cx="5.111" cy="5.111" r="5.111" transform="matrix(0.168, -0.986, 0.986, 0.168, 87.14, 107.808)" fill="#fff"/>
        <rect id="Rectangle_382" data-name="Rectangle 382" width="4.253" height="0.602" transform="translate(90.901 102.478)" fill="#263238"/>
        <rect id="Rectangle_383" data-name="Rectangle 383" width="6.363" height="0.602" transform="translate(89.843 104.145)" fill="#a6a6a6"/>
      </g>
      <g id="freepik--Character--inject-324" transform="translate(208.52 92.208)">
        <path id="Path_4789" data-name="Path 4789" d="M366.572,106.371c-6.556,5.623-4.73,13.832-7.469,18.271-1.681,2.718-7.137,5.595-8.216,8.728-1.784,5.152,2.58,7,1.6,9.8-1.383,3.963-6.694,3.658-7.649,10.145s6.183,13.389,23.126,15.256,26.245-4.295,26.854-9.827-5.028-7.338-5.415-11.453c-.221-2.628,3.237-4.454,3.416-9.295s-4.537-6.4-5.215-10.512,1.5-14.081-4.53-19.177S369.822,103.591,366.572,106.371Z" transform="translate(-305.689 -102.943)" fill="#263238"/>
        <path id="Path_4790" data-name="Path 4790" d="M366.727,107.475a14.046,14.046,0,0,0-4.357,5.021,30.824,30.824,0,0,0-2.421,6.66,18.235,18.235,0,0,1-1.314,3.99,10.235,10.235,0,0,1-2.275,2.808c-1.833,1.66-4.018,2.918-5.664,4.779s-2.766,4.149-2.151,6.529a25.3,25.3,0,0,0,1.736,3.6c.533,1.224.692,2.593-.277,3.555a22.967,22.967,0,0,1-3.043,1.867,10.809,10.809,0,0,0-2.469,2.393,8.3,8.3,0,0,0-1.563,6.522c1,5.27,5.948,8.3,10.512,10.152l1.916.775c.1.041.18-.1.083-.145-4.585-2.075-9.9-4.461-11.66-9.578a7.739,7.739,0,0,1,.788-6.805,9.746,9.746,0,0,1,2.421-2.545c.92-.692,1.985-1.1,2.925-1.743a3.126,3.126,0,0,0,1.439-2.766,7.656,7.656,0,0,0-1.259-3.368,6.224,6.224,0,0,1-1.086-3.548,6.86,6.86,0,0,1,1.383-3.389c1.425-2.019,3.541-3.34,5.429-4.841a11.452,11.452,0,0,0,4.149-5.705c.346-1.21.567-2.455.871-3.672a32.746,32.746,0,0,1,1.01-3.347,15.948,15.948,0,0,1,3.582-5.906,9.272,9.272,0,0,1,1.383-1.148C366.838,107.524,366.782,107.434,366.727,107.475Z" transform="translate(-305.083 -103.902)" fill="#263238"/>
        <path id="Path_4791" data-name="Path 4791" d="M413.319,157.575a6.224,6.224,0,0,0-1.176-2.469c-.588-.747-1.3-1.383-1.95-2.075a4.841,4.841,0,0,1-1.383-2.289,4.585,4.585,0,0,1,.74-3.057,22.468,22.468,0,0,0,1.521-2.953,10.588,10.588,0,0,0-1.065-9.454c-.574-.947-1.224-1.847-1.812-2.766a13.748,13.748,0,0,1-1.5-3.292c-.761-2.552-.927-5.242-1.549-7.829a40.555,40.555,0,0,0-2.766-7.683c0-.062-.118,0-.09.055a35.118,35.118,0,0,1,2.407,6.916c.539,2.268.747,4.578,1.148,6.867a17.02,17.02,0,0,0,.858,3.3,17.789,17.789,0,0,0,1.473,2.835,15.865,15.865,0,0,1,2.642,5.92,10.374,10.374,0,0,1-1.093,6.342c-.892,1.687-2.137,3.541-1.383,5.533.692,1.674,2.255,2.67,3.313,4.053a6.715,6.715,0,0,1,1.141,5.36c-.913,4.744-5.664,7.1-10.118,7.331a.111.111,0,0,0,0,.214c3.873-.041,8.085-1.743,9.9-5.367A8.168,8.168,0,0,0,413.319,157.575Z" transform="translate(-323.431 -105.82)" fill="#263238"/>
        <path id="Path_4792" data-name="Path 4792" d="M309.627,429.16c1.5.5,44.482.374,46.121-.692.616-.394.961-6.66,1.169-14.233.048-1.639.1-28.016.1-28.016H329.047l.166,28.016s-16.432,7.414-18.1,8.748S308.127,428.662,309.627,429.16Z" transform="translate(-294.651 -189.876)" fill="#ffc4c0"/>
        <path id="Path_4793" data-name="Path 4793" d="M356.809,431.564c-.214,6.01-.546,10.581-1.072,10.913-1.632,1.037-44.614,1.162-46.121.692s-.18-4.841,1.48-6.148c.92-.733,6.3-3.306,10.955-5.47-1.625,1.01-3.7,2.441-3.513,3.292C318.9,436.481,340.3,437.567,356.809,431.564Z" transform="translate(-294.647 -203.857)" fill="#263238"/>
        <path id="Path_4794" data-name="Path 4794" d="M375.634,213.85s-7.566,74.794-7.739,75.741c0,.124-.083,1.563-.152,3.914-.408,12.87-.871,56.792-.871,56.792H336s1.466-51.322,2.621-62.415c1.473-14.157,10.823-74,10.823-74Z" transform="translate(-302.987 -136.713)" fill="#eee"/>
        <path id="Path_4795" data-name="Path 4795" d="M376.211,293.393q1.425-24.309,4.288-48.5c1.086-9.087,2.386-18.147,3.686-27.2,0-.083.131-.076.124,0-2.386,16.121-4.08,32.373-5.533,48.6-.512,5.733-1.487,15.609-2.006,27.124-.947,21.024-1.383,46.177-1.542,52.131a.173.173,0,0,1-.339,0C375.319,329.12,375.243,309.8,376.211,293.393Z" transform="translate(-314.982 -137.88)" fill="#263238"/>
        <path id="Path_4796" data-name="Path 4796" d="M339.059,403.646c14.06-.443,26.232-.131,27.283-.048.871.069.387.159-.048.187-11.937.692-26.771.041-27.234,0a.069.069,0,0,1,0-.138Z" transform="translate(-303.91 -195.18)" fill="#263238"/>
        <path id="Path_4797" data-name="Path 4797" d="M383.314,213.85s-7.566,74.794-7.739,75.741c0,.124-.083,1.563-.152,3.914L360.9,213.85Z" transform="translate(-310.667 -136.713)" fill="#263238"/>
        <path id="Path_4798" data-name="Path 4798" d="M380.008,431.771c1.563.27,44.883-6.4,46.336-7.677.56-.47-7.144-41.495-7.144-41.495l-28.272,4.149,5.2,28.071s-14.115,9.053-15.574,10.616S378.452,431.494,380.008,431.771Z" transform="translate(-316.283 -188.76)" fill="#ffc4c0"/>
        <path id="Path_4799" data-name="Path 4799" d="M426.36,437.573c-1.466,1.273-44.787,7.946-46.336,7.677s-.885-4.751.567-6.307c.844-.906,5.92-4.309,10.049-7.026-1.466,1.273-3.527,3.209-3.188,4.066.629,1.591,22-.934,37.269-9.682C425.793,432.614,426.546,437.414,426.36,437.573Z" transform="translate(-316.292 -202.238)" fill="#263238"/>
        <path id="Path_4800" data-name="Path 4800" d="M355.47,213.85s.906,7.607,5.277,13.14c1.044,1.314,4.26,2.538,5.92,3.748,0,0,6.224,57.027,8.1,63.487,2.075,7.172,10.291,56.232,10.291,56.232l31.813-4.385s-9.246-46.024-11.542-57.954c-.519-2.663-7.421-52.85-7.262-54.012,1.853-13.832-4.841-20.222-4.841-20.222Z" transform="translate(-308.992 -136.713)" fill="#eee"/>
        <path id="Path_4801" data-name="Path 4801" d="M390.5,214.6a13.693,13.693,0,0,0,3.838,6.833,12.511,12.511,0,0,0,6.985,3.527c.415.041.36.325-.076.318-5.035,0-10.152-4.1-10.955-10.643a.105.105,0,1,1,.207-.035Z" transform="translate(-319.731 -136.918)" fill="#263238"/>
        <path id="Path_4802" data-name="Path 4802" d="M362.2,232.47a27.7,27.7,0,0,1,5.194,2.766c1.729,1.065,3.327,2.317,4.993,3.458.062.048,0,.152-.062.111-1.75-1.01-3.568-1.881-5.3-2.918a32.963,32.963,0,0,1-4.9-3.285.083.083,0,0,1,.076-.131Z" transform="translate(-311.039 -142.456)" fill="#263238"/>
        <path id="Path_4803" data-name="Path 4803" d="M361.162,217.29c.27,1.148.609,2.289.913,3.458s.5,2.172.844,3.23a5.574,5.574,0,0,0,1.639,2.663c.443.38.927.692,1.383,1.044.256.187.526.36.788.546l-.1-.463-.29-1.314c-.207-.968-.408-1.943-.6-2.918-.387-1.916-.747-3.852-1.231-5.74a.062.062,0,0,1,.118-.035c.567,1.867,1.183,3.714,1.687,5.609.249.927,1.189,5.533,1.238,5.837s.09.692.118,1.01a4.019,4.019,0,0,1,.048,1.037c0,.083-.118.076-.152,0h0a4.15,4.15,0,0,1-.339-1,9.921,9.921,0,0,1-.263-.989,2.476,2.476,0,0,0-.076-.367c-.463-.256-.906-.6-1.349-.885a16.036,16.036,0,0,1-1.383-.961,5.222,5.222,0,0,1-1.777-2.517,19.773,19.773,0,0,1-.692-3.292c-.2-1.307-.373-2.621-.615-3.921C361.017,217.248,361.148,217.207,361.162,217.29Z" transform="translate(-310.715 -137.76)" fill="#263238"/>
        <path id="Path_4804" data-name="Path 4804" d="M400.369,400.54c13.832-2.4,25.955-3.783,27.006-3.845.871-.055.408.1,0,.187-11.757,2.372-26.5,3.776-26.972,3.783a.065.065,0,1,1-.035-.124Z" transform="translate(-322.826 -193.104)" fill="#263238"/>
        <path id="Path_4805" data-name="Path 4805" d="M424.155,312.887c-1.819-7.974-3.458-15.975-4.841-24.046s-2.434-16.1-3.458-24.205-2.075-16.294-3.126-24.44a34.475,34.475,0,0,1-.581-5.954c.09-1.957.761-3.838.948-5.782a26.141,26.141,0,0,0-1.6-11.134c-.318-.9-.692-1.784-1.058-2.663-.048-.111-.235-.062-.194.062a38.122,38.122,0,0,1,2.407,11.383,26.584,26.584,0,0,1-.761,5.906,16.938,16.938,0,0,0-.1,5.726c1.01,8.112,2.075,16.224,3.105,24.33s2.075,16.155,3.375,24.205,2.766,15.982,4.6,23.9,3.686,15.948,5.685,23.887c.249.989.5,1.971.754,2.953,0,.118.2.062.173-.055C427.889,328.876,425.981,320.889,424.155,312.887Z" transform="translate(-325.885 -136.945)" fill="#263238"/>
        <path id="Path_4806" data-name="Path 4806" d="M355.5,156.143c-6.411,12.275-16.916,22.338-22.628,22.774-4.447.339-21.9-4.9-28.2-12.891-1.383-1.77,12.953-10.83,14.17-9.82,3.6,2.967,13.638,6.28,14.288,5.844.851-.567,11.757-8.078,18.977-13.949C360.886,141.011,359.012,149.421,355.5,156.143Z" transform="translate(-293.295 -115.605)" fill="#ffc4c0"/>
        <path id="Path_4807" data-name="Path 4807" d="M303.483,168.951c-.927-.6-8.375-4.634-11.19-8.569-1.494-2.075-4.952-8.3-3.8-9.343,1.051-.975,2.414.491,2.414.491s-1.5-2.766,0-4.149,3.658,1.252,3.658,1.252-1.335-2.967.235-4.2,3.326,1.743,3.326,1.743-1.349-2.656.373-3.126c2.075-.56,4,4.627,6.031,6.6.463.45,10.014,8.444,10.014,8.444Z" transform="translate(-288.265 -114.865)" fill="#ffc4c0"/>
        <path id="Path_4808" data-name="Path 4808" d="M302.574,147.579c1.432,3.8,2.711,5.228,5.9,7.649.062.042,0,.145-.062.1-3.34-2.075-5.2-3.631-6.024-7.7C302.346,147.441,302.512,147.4,302.574,147.579Z" transform="translate(-292.618 -116.239)" fill="#263238"/>
        <path id="Path_4809" data-name="Path 4809" d="M297.434,151.12a21.406,21.406,0,0,0,6.356,8.154.054.054,0,0,1-.069.083c-3.32-2.469-5.145-4.053-6.466-8.119C297.191,151.058,297.35,150.94,297.434,151.12Z" transform="translate(-291.033 -117.339)" fill="#263238"/>
        <path id="Path_4810" data-name="Path 4810" d="M292.248,155.456a19.123,19.123,0,0,0,6.881,7.649.076.076,0,0,1-.076.131,13.633,13.633,0,0,1-6.916-7.711C292.027,155.29,292.117,155.228,292.248,155.456Z" transform="translate(-289.444 -118.66)" fill="#263238"/>
        <path id="Path_4811" data-name="Path 4811" d="M324.791,158.837s-2.379-5.616-3.769-7.441-9.08-6.694-10.228-5.1c-1.48,2.075,2.4,5.761,4.537,7.317,0,0-3.458,4.772-1.217,8.029S324.791,158.837,324.791,158.837Z" transform="translate(-295.112 -115.781)" fill="#ffc4c0"/>
        <path id="Path_4812" data-name="Path 4812" d="M310.588,147.453c0,2.856,2.946,4.723,4.91,6.39a.242.242,0,0,1,0,.387c-1.307,2.075-2.538,5.436-1.508,7.829a.062.062,0,1,1-.1.055c-1.452-2.421-.512-5.8,1.065-8-2.04-1.681-4.9-3.679-4.371-6.66C310.567,147.432,310.588,147.432,310.588,147.453Z" transform="translate(-295.128 -116.23)" fill="#263238"/>
        <path id="Path_4813" data-name="Path 4813" d="M327.081,157.4,314.46,173.272s17.732,8.783,24.98,5.484,19.993-19.067,22.435-27.366c2.116-7.192-.92-8.52-6.224-4.793-4.447,3.133-19.364,14.731-19.89,14.724S327.081,157.4,327.081,157.4Z" transform="translate(-296.344 -115.348)" fill="#2f8286"/>
        <path id="Path_4814" data-name="Path 4814" d="M360.367,146.4a7.794,7.794,0,0,1-.449,3.223,6.771,6.771,0,0,1,.048-1.632A7.165,7.165,0,0,1,360.367,146.4Zm-14.1,11.639a6.815,6.815,0,0,0-.055,1.639,7.849,7.849,0,0,0,.449-3.23,6.78,6.78,0,0,0-.415,1.591Zm4.032,5.92a7.133,7.133,0,0,0-.055,1.632,6.826,6.826,0,0,0,.4-1.584,7.2,7.2,0,0,0,.048-1.639,7.14,7.14,0,0,0-.415,1.591Zm-24.931,1.466a7.186,7.186,0,0,0-.055,1.639,7.843,7.843,0,0,0,.449-3.223,7.177,7.177,0,0,0-.415,1.584Zm33.486-5.346a5.946,5.946,0,0,0,.823.256c.055-.09.118-.18.166-.27a5.914,5.914,0,0,0-1.01.014Zm-10.311,12.538a6.82,6.82,0,0,0-1.639-.048,7.236,7.236,0,0,0,1.591.394,9.11,9.11,0,0,0,.982.076l.18-.187a7.779,7.779,0,0,0-1.113-.235Zm-15.616,5.436a6.825,6.825,0,0,0,1.639.055,6.777,6.777,0,0,0-1.591-.394,7.144,7.144,0,0,0-1.632-.055A7.17,7.17,0,0,0,332.926,178.053Zm1.95-13.9a7.144,7.144,0,0,0,1.632.055,6.826,6.826,0,0,0-1.584-.4,7.2,7.2,0,0,0-1.639-.048A7.137,7.137,0,0,0,334.876,164.153ZM363.231,152.4a7.034,7.034,0,0,0-1.2,1.12,7.005,7.005,0,0,0,1.383-.844l.27-.214h0c.055-.159.1-.318.152-.47h0a3.861,3.861,0,0,0-.629.36Zm-20.443,13.928a7.283,7.283,0,0,0-1.2,1.113,6.977,6.977,0,0,0,1.383-.837,7.326,7.326,0,0,0,1.2-1.12,6.819,6.819,0,0,0-1.4.816Zm-10.775,4.765a7.035,7.035,0,0,0-1.2,1.12,7.343,7.343,0,0,0,1.383-.844,6.738,6.738,0,0,0,1.19-1.12A6.95,6.95,0,0,0,332.013,171.089Zm8.6,2.642a7.034,7.034,0,0,0-1.12-1.2,7.139,7.139,0,0,0,.844,1.383,7.035,7.035,0,0,0,1.12,1.2A6.819,6.819,0,0,0,340.609,173.731Zm13.984-19.5a7.033,7.033,0,0,0-1.141-1.19,6.816,6.816,0,0,0,.844,1.383,7.031,7.031,0,0,0,1.12,1.2,7.341,7.341,0,0,0-.823-1.39ZM321.943,173.4a6.708,6.708,0,0,0-1.113-1.189,6.914,6.914,0,0,0,.844,1.383,7.23,7.23,0,0,0,1.113,1.19,6.912,6.912,0,0,0-.844-1.383Z" transform="translate(-298.309 -115.91)" fill="#fff"/>
        <path id="Path_4815" data-name="Path 4815" d="M320.828,181.232a18.208,18.208,0,0,1,1.2-1.812l1.307-1.923c.844-1.231,1.757-2.414,2.656-3.6,1.833-2.407,3.638-4.841,5.657-7.123,0-.048.124,0,.09.055-1.584,2.531-3.4,4.931-5.166,7.331-.878,1.2-1.764,2.407-2.69,3.562-.47.581-.947,1.155-1.425,1.722a17.981,17.981,0,0,1-1.542,1.84C320.87,181.315,320.807,181.28,320.828,181.232Z" transform="translate(-298.307 -122.187)" fill="#263238"/>
        <path id="Path_4816" data-name="Path 4816" d="M357.81,175.012l-4.06,21.065s3.361.207,8.251.484l2.573-4.149,3.064,4.481c10.63.574,24.281,1.224,29.261,1.1,0,0-5.173-39.966-13.935-50.409-4.385-5.221-9.82-5.1-13.437-1.75-.913.844-11.971,14.143-13.313,19.364C355.043,169.763,357.81,175.012,357.81,175.012Z" transform="translate(-308.462 -115.006)" fill="#32e0c4"/>
        <path id="Path_4817" data-name="Path 4817" d="M396.9,197.941c-4.979.124-18.631-.526-29.261-1.1l-3.064-4.481L362,196.509c-4.889-.277-8.25-.484-8.25-.484l4.06-21.065s-2.766-5.249-1.6-9.848c.733-2.856,4.392-8.147,7.69-12.483a1.512,1.512,0,0,0,.138-.173c2.669-3.458,5.076-6.328,5.484-6.7,3.458-3.216,8.631-3.458,12.912,1.162h0a.889.889,0,0,1,.111.118c.138.145.277.3.408.463a25.165,25.165,0,0,1,3.354,5.692l.145.311a103.845,103.845,0,0,1,5.27,16.6.751.751,0,0,0,.055.214C395.086,183.922,396.9,197.941,396.9,197.941Z" transform="translate(-308.462 -114.981)" fill="#2f8286"/>
        <path id="Path_4818" data-name="Path 4818" d="M380.507,158.06a7.192,7.192,0,0,1-.048,1.639,6.8,6.8,0,0,1-.4,1.591,7.849,7.849,0,0,1,.449-3.23Zm-9.523-10.069a6.771,6.771,0,0,0-.048,1.632,7.793,7.793,0,0,0,.45-3.223A7.158,7.158,0,0,0,370.984,147.991Zm2.165,29.288a6.819,6.819,0,0,0-.048,1.639,7.85,7.85,0,0,0,.449-3.23,7.161,7.161,0,0,0-.4,1.591Zm6.556,15.18a6.823,6.823,0,0,0-.048,1.639,7.842,7.842,0,0,0,.45-3.223A6.823,6.823,0,0,0,379.7,192.459Zm-18.417-28.486a7.135,7.135,0,0,0-.055,1.632,6.826,6.826,0,0,0,.4-1.584,7.2,7.2,0,0,0,.048-1.639,7.133,7.133,0,0,0-.367,1.577Zm30.243,16.038a6.759,6.759,0,0,0-.055,1.632,7.794,7.794,0,0,0,.45-3.223A6.775,6.775,0,0,0,391.531,180.011Zm-20.056-19.558a6.82,6.82,0,0,0,1.639.048,7.85,7.85,0,0,0-3.23-.45,7.159,7.159,0,0,0,1.577.429ZM388.764,197.8a6.819,6.819,0,0,0,1.639.048,7.842,7.842,0,0,0-3.223-.45,6.827,6.827,0,0,0,1.57.394Zm-4.219-22.29a7.186,7.186,0,0,0,1.639.055,7.843,7.843,0,0,0-3.223-.45,7.172,7.172,0,0,0,1.584.394Zm-25.035-2.545a7.185,7.185,0,0,0,1.639.055,7.559,7.559,0,0,0-3.23-.45,7.234,7.234,0,0,0,1.611.394ZM373.813,187a6.757,6.757,0,0,0,1.632.055,7.843,7.843,0,0,0-3.223-.45,6.777,6.777,0,0,0,1.611.394Zm-14.793-1.584a6.77,6.77,0,0,0,1.632.055,7.8,7.8,0,0,0-3.223-.45,6.777,6.777,0,0,0,1.611.394Zm24.288-37.532h0a7.961,7.961,0,0,0-1.279-.284,7.143,7.143,0,0,0-1.632-.09,6.813,6.813,0,0,0,1.584.394,7.188,7.188,0,0,0,1.445.069.9.9,0,0,0-.1-.09Zm-9.06,4.468a7.035,7.035,0,0,0-1.2,1.12,7.767,7.767,0,0,0,2.6-1.964,7.136,7.136,0,0,0-1.4.844Zm3.9,16.757a7.037,7.037,0,0,0-1.2,1.12,6.816,6.816,0,0,0,1.383-.844,7.033,7.033,0,0,0,1.2-1.12,7.344,7.344,0,0,0-1.383.864Zm-6.508,26.84a7.037,7.037,0,0,0-1.2,1.12,7.134,7.134,0,0,0,1.383-.844,7.032,7.032,0,0,0,1.2-1.12,7.008,7.008,0,0,0-1.383.865Zm-13.832-2.289a6.97,6.97,0,0,0-1.189,1.113,7.173,7.173,0,0,0,1.383-.837,7.279,7.279,0,0,0,1.19-1.12,6.917,6.917,0,0,0-1.355.864Zm6.681-14.288a6.747,6.747,0,0,0-1.19,1.12,7.206,7.206,0,0,0,1.383-.844,6.993,6.993,0,0,0,1.189-1.12,7.559,7.559,0,0,0-1.383.844Zm28.147-8.3a4.145,4.145,0,0,0-.408.443,4.845,4.845,0,0,0,.463-.228,1.547,1.547,0,0,1-.076-.263Zm-2.649,18.382a6.993,6.993,0,0,0-1.19,1.12,7.206,7.206,0,0,0,1.383-.844,6.992,6.992,0,0,0,1.19-1.12,7.557,7.557,0,0,0-1.4.809Zm-2.766-35.27-.214.159a6.953,6.953,0,0,0-1.19,1.113,6.916,6.916,0,0,0,1.383-.844l.145-.118Zm0,10.477a7.036,7.036,0,0,0-1.155-1.245,7.137,7.137,0,0,0,.844,1.383,7.035,7.035,0,0,0,1.12,1.2,7.006,7.006,0,0,0-.844-1.362Zm-4.661,18.956a6.744,6.744,0,0,0-1.12-1.189,6.951,6.951,0,0,0,.844,1.383,7.031,7.031,0,0,0,1.12,1.2,7.564,7.564,0,0,0-.878-1.418Zm-16.9-29.357a8.783,8.783,0,0,0-.692-.816,1.518,1.518,0,0,1-.138.173,10.083,10.083,0,0,0,.567.851,7.032,7.032,0,0,0,1.12,1.2,7.341,7.341,0,0,0-.892-1.432Zm.3,35.222a7.034,7.034,0,0,0-1.12-1.2,6.818,6.818,0,0,0,.844,1.383,7.033,7.033,0,0,0,1.12,1.2,7.342,7.342,0,0,0-.878-1.411Zm2.87-20.747a7.033,7.033,0,0,0-1.12-1.2,7.349,7.349,0,0,0,.844,1.383,7.033,7.033,0,0,0,1.12,1.2,6.82,6.82,0,0,0-.878-1.439Z" transform="translate(-309.347 -115.91)" fill="#fff"/>
        <path id="Path_4819" data-name="Path 4819" d="M356.435,191.438c.47-1.923.83-3.458,1.245-5.36s.851-3.859,1.245-5.8v-.124l-.076-.131a14.9,14.9,0,0,1-1.729-5.014,10.944,10.944,0,0,1-.111-2.649,9.081,9.081,0,0,1,.539-2.573,31.439,31.439,0,0,1,2.393-4.841c.927-1.563,1.688-2.877,2.711-4.4.166-.235.076-.3-.076-.111-1.01,1.231-2.13,2.946-3.008,4.281a27.05,27.05,0,0,0-2.663,4.841,9.21,9.21,0,0,0-.636,2.766,11.678,11.678,0,0,0,.09,2.822,14.655,14.655,0,0,0,1.895,5.277l-.048-.263q-.54,2.915-1,5.844c-.3,1.75-.629,3.638-.878,5.4C356.318,191.59,356.276,192.143,356.435,191.438Z" transform="translate(-309.225 -120.207)" fill="#263238"/>
        <path id="Path_4820" data-name="Path 4820" d="M362.278,162.61a8.374,8.374,0,0,0-1.044,1.777,7.652,7.652,0,0,0-.367.961,4.266,4.266,0,0,0-.207,1.024c.332-.609.643-1.21.927-1.833A12.061,12.061,0,0,0,362.278,162.61Z" transform="translate(-310.593 -120.91)" fill="#263238"/>
        <path id="Path_4821" data-name="Path 4821" d="M376.2,155.23c-.422,3.354-.92,6.694-1.432,10.035s-1.079,6.674-1.618,10.007-1.155,6.653-1.77,9.979l-.947,4.979c-.339,1.653-.65,3.313-1.01,4.966.2-1.681.45-3.347.692-5.021l.754-5.014c.512-3.34,1.079-6.674,1.618-10.007s1.155-6.653,1.777-9.979S375.492,158.529,376.2,155.23Z" transform="translate(-313.295 -118.634)" fill="#263238"/>
        <path id="Path_4822" data-name="Path 4822" d="M373.146,169.18a.643.643,0,0,0,.5.74.636.636,0,0,0,.74-.5.629.629,0,0,0-.5-.74.636.636,0,0,0-.74.5Z" transform="translate(-314.441 -122.777)" fill="#263238"/>
        <path id="Path_4823" data-name="Path 4823" d="M371.755,178.51a.636.636,0,1,0,.74-.5.629.629,0,0,0-.74.5Z" transform="translate(-314.011 -125.654)" fill="#263238"/>
        <path id="Path_4824" data-name="Path 4824" d="M370.369,187.812a.636.636,0,1,0,.4-.535A.636.636,0,0,0,370.369,187.812Z" transform="translate(-313.587 -128.505)" fill="#263238"/>
        <path id="Path_4825" data-name="Path 4825" d="M368.995,197.18a.636.636,0,1,0,.74-.5.629.629,0,0,0-.74.5Z" transform="translate(-313.16 -131.413)" fill="#263238"/>
        <path id="Path_4826" data-name="Path 4826" d="M367.575,206.51a.606.606,0,1,0,.74-.5A.636.636,0,0,0,367.575,206.51Z" transform="translate(-312.723 -134.291)" fill="#263238"/>
        <path id="Path_4827" data-name="Path 4827" d="M391.278,149.776c1.176,4.841,13.935,30.886,13.832,32.5,0,.387-6.286,2.6-6.48,3.209-.768,2.476,6.369,15.906,9.143,16.549,8.147,1.84,19.364,1.459,19.219-5.228-.228-10.491-18.673-36.474-28.12-45.644C392.661,145.115,390.116,145.032,391.278,149.776Z" transform="translate(-319.952 -115.912)" fill="#ffc4c0"/>
        <path id="Path_4828" data-name="Path 4828" d="M409.585,203.088l-9.814-18.721s4.474-1.618,4.571-2.663-10.74-23.341-13.085-29.9-.526-7.912,6.5-2.289,33.133,42.055,29.233,50.167C424.329,205.28,409.585,203.088,409.585,203.088Z" transform="translate(-319.732 -115.785)" fill="#2f8286"/>
        <path id="Path_4829" data-name="Path 4829" d="M404.078,158.927a6.82,6.82,0,0,1-.048,1.639,7.23,7.23,0,0,1-.394,1.591,6.817,6.817,0,0,1,.048-1.639A7.135,7.135,0,0,1,404.078,158.927Zm13.347,32.7a7.143,7.143,0,0,0-.055,1.632,7.794,7.794,0,0,0,.449-3.223,7.136,7.136,0,0,0-.394,1.591Zm-8.064-25.526a6.827,6.827,0,0,0,1.639.055,7.842,7.842,0,0,0-3.223-.45,6.813,6.813,0,0,0,1.584.394Zm-.256,19.793a6.811,6.811,0,0,0,1.639.055,7.842,7.842,0,0,0-3.223-.45,6.812,6.812,0,0,0,1.584.394Zm15.906,10.719a7.143,7.143,0,0,0,1.632.055,7.794,7.794,0,0,0-3.223-.45,7.137,7.137,0,0,0,1.6.394Zm-32.428-48.2a6.813,6.813,0,0,0,1.639.055,7.843,7.843,0,0,0-3.223-.477,6.813,6.813,0,0,0,1.6.422Zm11.4,22.435a6.974,6.974,0,0,0-1.19,1.113,6.647,6.647,0,0,0,1.383-.844,6.993,6.993,0,0,0,1.2-1.113,6.915,6.915,0,0,0-1.376.844Zm13.984,9.986a6.744,6.744,0,0,0-1.19,1.12,7.21,7.21,0,0,0,1.383-.844,6.992,6.992,0,0,0,1.189-1.12,7.56,7.56,0,0,0-1.383.844Zm-.228,20.408a7.032,7.032,0,0,0-1.2,1.12,6.817,6.817,0,0,0,1.383-.844,7.031,7.031,0,0,0,1.2-1.12A7.136,7.136,0,0,0,417.743,201.245Zm-20.153-46.467a6.952,6.952,0,0,0-1.19,1.113,6.917,6.917,0,0,0,1.383-.844,7.234,7.234,0,0,0,1.19-1.113,6.916,6.916,0,0,0-1.383.864Zm.2,10.318a7.033,7.033,0,0,0-1.12-1.2,7.134,7.134,0,0,0,.844,1.383,7.035,7.035,0,0,0,1.12,1.2,7.007,7.007,0,0,0-.844-1.362Zm13.341,11.252a7.034,7.034,0,0,0-1.12-1.2,7.137,7.137,0,0,0,.844,1.383,7.035,7.035,0,0,0,1.12,1.2,7.346,7.346,0,0,0-.844-1.383Zm-.982,19.025a6.743,6.743,0,0,0-1.12-1.189,7.288,7.288,0,0,0,.844,1.383,7.033,7.033,0,0,0,1.12,1.2,7.207,7.207,0,0,0-.844-1.383Z" transform="translate(-319.951 -116.397)" fill="#fff"/>
        <path id="Path_4830" data-name="Path 4830" d="M410.573,197.8a10.269,10.269,0,0,1,1.93.692q.941.415,1.867.851c1.224.567,2.441,1.155,3.624,1.805s2.331,1.342,3.458,2.075l.8.5.318.111c.45.159.9.332,1.328.533a21.189,21.189,0,0,1,2.427,1.335c.055.035,0,.118-.055.09a18.761,18.761,0,0,0-2.531-1.19l-.339-.124c.456.3.9.622,1.328.961a35.449,35.449,0,0,1,3.257,2.87c.048.048,0,.118-.076.069a30.767,30.767,0,0,0-6.439-4.364c-2.241-1.266-4.571-2.725-6.916-4.018-.692-.373-1.335-.726-2.019-1.065a20.744,20.744,0,0,1-2.04-1.017.067.067,0,1,1,.076-.111Z" transform="translate(-325.955 -131.761)" fill="#263238"/>
        <path id="Path_4831" data-name="Path 4831" d="M405.168,185.021c-.325-.781-.692-1.556-1.024-2.338-.657-1.5-1.383-2.988-2.075-4.475q-2.109-4.606-4.184-9.2c-.809-1.743-1.563-3.527-2.427-5.242,0-.041-.083,0-.069,0,.567,1.6,1.266,3.167,1.916,4.73l.235.539c-.131-.228-.256-.456-.394-.692-.387-.657-.768-1.321-1.141-1.985-.035-.062-.125,0-.1.062a22.6,22.6,0,0,0,1.113,2c.256.443.539.871.816,1.3.477,1.127.947,2.255,1.445,3.375,1.349,3.064,2.683,6.134,4.115,9.156.408.871.844,1.736,1.273,2.593s.941,1.681,1.383,2.538c0,.055.124,0,.1-.042C405.777,186.6,405.493,185.8,405.168,185.021Z" transform="translate(-321.304 -121.259)" fill="#263238"/>
        <rect id="Rectangle_384" data-name="Rectangle 384" width="31.992" height="1.867" transform="translate(51.256 77.648)" fill="#455a64"/>
        <rect id="Rectangle_385" data-name="Rectangle 385" width="19.447" height="1.867" transform="translate(63.802 77.648)" fill="#263238"/>
        <path id="Path_4832" data-name="Path 4832" d="M385.38,205.005l40.492.007,5.8-27.642h-40.5Z" transform="translate(-318.217 -125.462)" fill="#455a64"/>
        <path id="Path_4833" data-name="Path 4833" d="M415.271,196.246a2.178,2.178,0,0,0,2.206,2.476,2.815,2.815,0,0,0,2.725-2.476A2.185,2.185,0,0,0,418,193.77,2.808,2.808,0,0,0,415.271,196.246Z" transform="translate(-327.43 -130.52)" fill="#263238"/>
        <path id="Path_4834" data-name="Path 4834" d="M421.135,214c-2.5,1.383-5.533,4.585-7.607,4.945a2.414,2.414,0,0,1-2.628-1.2s-.934,2.144-2.877,2.158c-1,0-1.895-1.577-1.895-1.577a2.877,2.877,0,0,1-2.545,1.591c-1.383-.069-2.075-1.653-2.075-1.653s-1.542,1.252-2.925.692c-2.766-1.065-3.416-12.891.844-14.945,1.985-.961,1.978,1.936,1.978,1.936s1.01-4.149,3.458-4.35,2.206,3.569,2.206,3.569,1.017-4.025,3.562-3.97,1.77,3.783,1.77,3.783,1.639-2.725,3.575-2.234c3.2.809-.429,6.985.325,9.551h4.232Z" transform="translate(-321.607 -132.809)" fill="#ffc4c0"/>
        <path id="Path_4835" data-name="Path 4835" d="M426.436,221.27c2.476-1.072,3.665.692,6.224.36,2.877-.373,1.943-3.748-3.112-4.35H425.17Z" transform="translate(-330.489 -137.771)" fill="#ffc4c0"/>
        <path id="Path_4836" data-name="Path 4836" d="M403.185,220.044h-.062a20.512,20.512,0,0,1,.083-12.22c.048-.124.27-.1.249.042a41.7,41.7,0,0,0-.27,12.179Z" transform="translate(-323.415 -134.83)" fill="#263238"/>
        <path id="Path_4837" data-name="Path 4837" d="M410.076,220c0,.048-.069.055-.083,0a19.247,19.247,0,0,1,.92-13.32c.069-.145.277-.207.214,0C409.972,209.585,409.55,216.238,410.076,220Z" transform="translate(-325.569 -134.461)" fill="#263238"/>
        <path id="Path_4838" data-name="Path 4838" d="M418.8,206.294c-1.8,4.108-2.075,8.389-1.791,12.822a.048.048,0,1,1-.1,0,17.267,17.267,0,0,1-.394-7.192,11.9,11.9,0,0,1,2.137-5.712C418.7,206.162,418.866,206.2,418.8,206.294Z" transform="translate(-327.761 -134.351)" fill="#263238"/>
        <path id="Path_4839" data-name="Path 4839" d="M385.545,141.84c-.332.616-4.613,4.039-7.573,3.091-.968-.311.491-5.657.491-5.657v-.415l.249-5.865,7.607-2.421,1.086-.3s-.173,1.6-.408,3.6a.838.838,0,0,1-.035.284c-.035.1,0,.214-.035.318l-.048.871c-.035.228-.062.456-.1.692s-.076.477-.1.692A37.9,37.9,0,0,1,385.545,141.84Z" transform="translate(-315.83 -110.936)" fill="#ffc4c0"/>
        <path id="Path_4840" data-name="Path 4840" d="M387.408,133.816a11.757,11.757,0,0,1-8.548,4.993l.249-5.865,7.607-2.421,1.086-.3S387.643,131.824,387.408,133.816Z" transform="translate(-316.206 -110.92)" fill="#263238"/>
        <path id="Path_4841" data-name="Path 4841" d="M370.015,115.589c-2.178,10.069,3.6,12.511,5.775,12.974,1.971.429,8.742,1.618,11.944-8.168s-.781-13.991-5.242-15.215S372.193,105.52,370.015,115.589Z" transform="translate(-313.33 -103.087)" fill="#ffc4c0"/>
        <path id="Path_4842" data-name="Path 4842" d="M374.188,116.7h.692a1.141,1.141,0,0,0,.726-.131.36.36,0,0,0,.1-.436.913.913,0,0,0-.83-.4,1.328,1.328,0,0,0-.92.284.394.394,0,0,0,.235.685Z" transform="translate(-314.653 -106.45)" fill="#263238"/>
        <path id="Path_4843" data-name="Path 4843" d="M383.554,119.069a6.162,6.162,0,0,1-.65-.29,1.19,1.19,0,0,1-.609-.422.38.38,0,0,1,.1-.443.913.913,0,0,1,.92,0,1.383,1.383,0,0,1,.691.636.394.394,0,0,1-.449.519Z" transform="translate(-317.255 -107.086)" fill="#263238"/>
        <path id="Path_4844" data-name="Path 4844" d="M380.8,122.71s.042.048.035.076c-.187.692-.284,1.48.277,1.86h0C380.367,124.391,380.505,123.326,380.8,122.71Z" transform="translate(-316.731 -108.604)" fill="#263238"/>
        <path id="Path_4845" data-name="Path 4845" d="M381.575,121.9c1.12.18.692,2.4-.36,2.234S380.656,121.745,381.575,121.9Z" transform="translate(-316.75 -108.351)" fill="#263238"/>
        <path id="Path_4846" data-name="Path 4846" d="M382.524,122.181c.166.166.311.429.546.5s.512-.111.733-.3h0c-.076.429-.332.83-.8.8s-.65-.456-.692-.906C382.365,122.223,382.455,122.119,382.524,122.181Z" transform="translate(-317.27 -108.435)" fill="#263238"/>
        <path id="Path_4847" data-name="Path 4847" d="M375,121.17s-.062,0-.069.048c-.111.692-.353,1.473-1.017,1.577v.041C374.664,122.878,375,121.848,375,121.17Z" transform="translate(-314.68 -108.129)" fill="#263238"/>
        <path id="Path_4848" data-name="Path 4848" d="M374.282,119.988c-1.093-.3-1.6,1.909-.595,2.185S375.2,120.209,374.282,119.988Z" transform="translate(-314.443 -107.756)" fill="#263238"/>
        <path id="Path_4849" data-name="Path 4849" d="M373.537,119.837c-.2.083-.422.249-.629.214s-.367-.318-.47-.581H372.4c-.111.422-.069.892.311,1.065s.692-.138.906-.533A.107.107,0,0,0,373.537,119.837Z" transform="translate(-314.196 -107.605)" fill="#263238"/>
        <path id="Path_4850" data-name="Path 4850" d="M378.846,130.783c-.194.131-.394.332-.65.311a1.888,1.888,0,0,1-.692-.284h-.035a.934.934,0,0,0,.823.512.761.761,0,0,0,.643-.526.045.045,0,1,0-.09-.014Z" transform="translate(-315.778 -111.082)" fill="#263238"/>
        <path id="Path_4851" data-name="Path 4851" d="M375.534,123.366s-.36,1-.463,1.473c0,.048.1.1.27.138h0a2.365,2.365,0,0,0,2.421-.387c.042-.035,0-.1-.062-.083a3.52,3.52,0,0,1-2.227.159c0-.145.692-1.681.6-1.708a4.64,4.64,0,0,0-1.155,0c.692-2.075,1.708-4.053,2.365-6.148,0-.076-.083-.124-.118-.062a35.5,35.5,0,0,0-2.829,6.522C374.255,123.552,375.327,123.407,375.534,123.366Z" transform="translate(-314.81 -106.756)" fill="#263238"/>
        <path id="Path_4852" data-name="Path 4852" d="M376.28,128.41a2.586,2.586,0,0,0,.871,1,1.189,1.189,0,0,0,.692.187c.533-.035.636-.5.622-.913a2.675,2.675,0,0,0-.1-.657A3.4,3.4,0,0,1,376.28,128.41Z" transform="translate(-315.411 -110.245)" fill="#263238"/>
        <path id="Path_4853" data-name="Path 4853" d="M377.54,129.669a1.19,1.19,0,0,0,.692.187c.532-.035.636-.5.622-.913A1.217,1.217,0,0,0,377.54,129.669Z" transform="translate(-315.799 -110.521)" fill="#ff9cbd"/>
        <path id="Path_4854" data-name="Path 4854" d="M387.847,119.683c-1.086-.3-3.285-3.956-2.213-9.288a40.508,40.508,0,0,0-.429,5.629c.2.788-1.224-2.075-.422-6.369a17.691,17.691,0,0,1-4.9,1.321c-2.144.124-3.382-.166-3.458-.346s3.071-.463,4.08-1.217c0,0-5.934,1.328-8.451.975-.3-.041.692-6.024,5.042-7.683s9.869,2.365,11.155,4.3c0,0,1.86.692,3.32,3.99S389.016,120.015,387.847,119.683Z" transform="translate(-314.094 -102.313)" fill="#263238"/>
        <path id="Path_4855" data-name="Path 4855" d="M380.382,125.574a3.257,3.257,0,0,1-1.577-4.322h0a3.25,3.25,0,1,1,2.344,4.564A3.527,3.527,0,0,1,380.382,125.574Zm-1.183-4.149a2.815,2.815,0,1,0,3.735-1.383,2.566,2.566,0,0,0-.692-.214,2.808,2.808,0,0,0-3.043,1.611Z" transform="translate(-316.096 -107.574)" fill="#32e0c4"/>
        <path id="Path_4856" data-name="Path 4856" d="M371.065,122.543c-1.272-.394-1.874-2.075-1.342-3.824a3.866,3.866,0,0,1,1.335-1.964,2.026,2.026,0,0,1,3.306,1.03,3.887,3.887,0,0,1,0,2.379c-.5,1.618-1.846,2.663-3.071,2.434Zm.249-5.443a3.458,3.458,0,0,0-1.176,1.75c-.463,1.48,0,2.953,1.058,3.278s2.268-.616,2.732-2.075a3.457,3.457,0,0,0,0-2.075,1.729,1.729,0,0,0-1.086-1.169.594.594,0,0,0-.159-.041,1.8,1.8,0,0,0-1.369.332Z" transform="translate(-313.329 -106.611)" fill="#32e0c4"/>
        <path id="Path_4857" data-name="Path 4857" d="M378.069,122.1l.367-.235a1.8,1.8,0,0,0-2.275-.837l.214.373C377.273,120.893,378.041,122.055,378.069,122.1Z" transform="translate(-315.374 -108.031)" fill="#32e0c4"/>
        <path id="Path_4858" data-name="Path 4858" d="M395.124,128.2l.429-.076c-.035-.2-.367-1.964-1.252-2.4s-6.542-1.625-6.791-1.674l-.09.422c1.646.346,6.051,1.321,6.688,1.639S395.041,127.715,395.124,128.2Z" transform="translate(-318.846 -109.017)" fill="#32e0c4"/>
        <path id="Path_4859" data-name="Path 4859" d="M392.9,127.052s2.635-2.9,3.984-1.923-.92,5.387-2.7,5.8A1.729,1.729,0,0,1,392,129.68Z" transform="translate(-320.259 -109.288)" fill="#ffc4c0"/>
        <path id="Path_4860" data-name="Path 4860" d="M396.594,127v.048a4.378,4.378,0,0,0-2.607,2.448.954.954,0,0,1,1.459-.083s0,.069-.042.062a1.079,1.079,0,0,0-1.217.221,4.951,4.951,0,0,0-.692.878c-.069.1-.256,0-.2-.1h0C393.5,128.9,394.948,126.923,396.594,127Z" transform="translate(-320.655 -109.926)" fill="#263238"/>
        <path id="Path_4861" data-name="Path 4861" d="M377.828,143.082l1.2,4.889,6.584-5.042L386.992,145s-6.916,8.506-6.916,8.078l-1.342-4.26-3.174,2.455,1.217-6.916Z" transform="translate(-315.189 -114.84)" fill="#fbfbfb"/>
        <path id="Path_4862" data-name="Path 4862" d="M375.882,148.46c.235-1.141.45-2.3.74-3.416,0-.041.076-.055.076,0a65.1,65.1,0,0,1-1,6.542h0c.131-.1,2.9-2.075,2.912-2.04.325.692,1.314,3.8,1.383,4.073,1.1-1.349,5.7-6.639,6.95-7.884.035-.035.1,0,.062.048-1,1.452-6.971,8.444-7.04,8.41a45.8,45.8,0,0,1-1.383-4.5,31.741,31.741,0,0,1-3.3,2.545A34.48,34.48,0,0,1,375.882,148.46Z" transform="translate(-315.102 -115.481)" fill="#263238"/>
      </g>
      <g id="freepik--Plant--inject-324" transform="translate(40.582 223.619)">
        <path id="Path_4863" data-name="Path 4863" d="M88.991,317.5a58.782,58.782,0,0,1,1.383-9.571,21.633,21.633,0,0,1,3.416-8.078A10.277,10.277,0,0,1,100.5,295.7a9.371,9.371,0,0,1,7.054,2.5,34.729,34.729,0,0,1,6.051,7.393,91.926,91.926,0,0,1,5.221,9.143c.055.1-.1.194-.159.09A56.788,56.788,0,0,0,114,307.177a48.171,48.171,0,0,0-5.38-6.515c-1.805-1.764-4.094-3.409-6.708-3.492a8.251,8.251,0,0,0-6.563,3.382,20.278,20.278,0,0,0-3.306,7.759,58.736,58.736,0,0,0-1.342,9.122c-.519,6.307-.692,12.649-.8,18.977-.083,3.575-.131,7.158-.166,10.733l-.041,5.443a34.08,34.08,0,0,1-.207,5.249c-.062.353-.636.318-.692,0a31.315,31.315,0,0,1-.242-4.965q0-2.587-.055-5.159-.055-5.021-.041-10.028C88.452,330.926,88.535,324.19,88.991,317.5Z" transform="translate(-58.7 -293.352)" fill="#263238"/>
        <path id="Path_4864" data-name="Path 4864" d="M101.659,311.722a14.671,14.671,0,0,1,1.957-5.491c1.826-2.483,3.8-1.383,1.971,1.349a16.48,16.48,0,0,0-2.566,6.777A26,26,0,0,0,109.8,320.9a28.981,28.981,0,0,1-.3-6.777c.692-5.415,3.983-5.111,3.174-.809a37.448,37.448,0,0,0-.74,8.7,18.44,18.44,0,0,0,3.963,1.943c-.214-.629-.443-1.383-.692-2.3-1.314-4.841,1.923-6.376,2.026-3.638a38.673,38.673,0,0,0,1.259,6.916c1.777.595,3.25,1,4.149,1.321a15.152,15.152,0,0,1,6.072,4.149,19.185,19.185,0,0,0,4.149-5.353,64.4,64.4,0,0,0-5.4-4.149c-4.654-3.285-3.036-7.441.657-4.841,2.663,1.86,4.73,5.311,5.664,7.082a28.77,28.77,0,0,0,2.109-9.682c-3.652-3.458-12.7-8.216-9.973-8.216,2.455,0,7.946,3.6,9.959,4.986a26.081,26.081,0,0,0-.311-2.822c-3.458-2.255-14.641-5.768-12.856-6.777,1.964-1.107,9.772,2.5,12.13,3.651A14.3,14.3,0,0,0,132.759,300c-4.758-6.369-13.341-8.562-17.089-7.352-2.649.858-1.874,7.607-2.441,7.352C102.586,295.635,97.745,298.665,101.659,311.722Zm26.1-.74c.754-.913,4.246,1.77,3.237,3.237S126.777,312.157,127.759,310.982Zm-18.258-5.74c.913.588-.443,3.983-1.86,2.953C106.438,307.316,108.575,304.661,109.5,305.242Z" transform="translate(-62.357 -292.329)" fill="#32e0c4"/>
        <path id="Path_4865" data-name="Path 4865" d="M114.42,309.822c.484-.954.982-1.895,1.528-2.808a16.264,16.264,0,0,1,1.764-2.552l-.456-.56c-.062-.076.041-.18.111-.1.18.2.346.408.519.616a.166.166,0,0,1,.076.09q.982,1.183,1.867,2.427a28.171,28.171,0,0,1,3.091.892c1.044.353,2.075.692,3.091,1.141.111.048.055.221-.048.173-1-.443-2.026-.871-3.071-1.224s-1.985-.588-2.988-.871c.325.456.65.92.954,1.383a37.086,37.086,0,0,1,5.463,2.227c1.846.878,3.624,1.9,5.394,2.925.1.055,0,.207-.1.152a59.548,59.548,0,0,0-5.36-2.766c-1.715-.8-3.458-1.459-5.215-2.22,4.35,6.784,6.957,14.606,10.443,21.854.048.1-.118.194-.159.09-1.065-2.545-2.289-5.021-3.458-7.517-1.037-2.248-2.075-4.5-3.1-6.743q-.456-.989-.934-1.971a100.333,100.333,0,0,0,.692,10.892.09.09,0,1,1-.173,0c-.256-3.873-.934-7.683-.906-11.577v-.055c-.74-1.48-1.528-2.939-2.372-4.357a50.483,50.483,0,0,0-3.631,10.47c0,.111-.2.062-.173-.048a51.752,51.752,0,0,1,3.645-10.678,40.414,40.414,0,0,0-3.057-4.412c-.484.9-1.107,1.75-1.653,2.614s-1.065,1.687-1.563,2.552a37.609,37.609,0,0,0-2.718,5.747c0,.111-.214.055-.173-.048C112.615,313.612,113.473,311.7,114.42,309.822Z" transform="translate(-65.886 -295.858)" fill="#263238"/>
        <path id="Path_4866" data-name="Path 4866" d="M66.065,321.559c2.766-2.766,6.031-6.466,10.374-6.459,4.149,0,7.227,3.354,8.99,6.812,1.84,3.617,2.5,7.711,3.022,11.688a142.607,142.607,0,0,1,1.079,14.371c.076,2.663.062,5.339,0,8a53.424,53.424,0,0,1-.609,8.078c-.083.436-.775.449-.8,0-.124-2.248,0-4.5,0-6.75s0-4.433-.1-6.646c-.159-4.474-.484-8.942-1.01-13.4a65.461,65.461,0,0,0-1.992-11.632c-1.044-3.389-3.015-7.255-6.446-8.748-4.682-2.026-9.26,1.681-12.324,4.841C66.12,321.76,66.016,321.642,66.065,321.559Z" transform="translate(-51.791 -299.352)" fill="#263238"/>
        <path id="Path_4867" data-name="Path 4867" d="M45.472,324.945h0c0,.574.055,1.134.1,1.687a10.152,10.152,0,0,1,4.571-1.895c3.956-.415,3.7,2.593,1.058,2.718a15.132,15.132,0,0,0-5.429,1.086c.643,5.228,2.075,9.433,2.3,9.488a75.916,75.916,0,0,0,10.464-1.321c-.989-2.075-3.23-4.883-2.075-5.111s2.393,2.255,3.029,4.917a49.808,49.808,0,0,0,7.607-2.075c-1.743-1.508-4.433-3.389-3.409-4.184s3.167,1.84,4.447,3.762a15.794,15.794,0,0,0,3.285-1.84c-2.351-3.458-8.064-4.149-7.324-6.639s6.1.961,8.5,5.574a13.631,13.631,0,0,0,3.354-10.6c-2.462-.284-7.185.235-6.847-1.535s3.762-1.425,6.556-.394a9.82,9.82,0,0,0-1.639-3.887c-2.6-3.327-10.5.927-10.5.927s.844-7.939-2.172-9.316c-1.736-.788-4.8-.781-7.877,1.03,1.722.145,3.811.692,4.647,1.888,1.072,1.521-.622,2.351-1.694,1.653A8.555,8.555,0,0,0,51.7,308.6a15.635,15.635,0,0,0-2.849,3.16c-.29.408-.567.844-.837,1.314a10.837,10.837,0,0,1,9.253.166c3.423,1.7,1.515,5.256-1.438,3.873s-5.754-2.766-8.88-1.957a22.31,22.31,0,0,0-1.5,8.859,15.5,15.5,0,0,1,5.076-2.434c3.4-.892,4.433,1.141.692,1.521A15,15,0,0,0,45.472,324.945Zm4.149-5.47c-.235-1.1,2.185-1.418,2.587-.526.325.768-2.358,1.632-2.593.526Zm20.671,6.113c.228-.6,1.84.083,1.694.837-.207,1-1.923-.235-1.7-.837Zm-11.418,3.866c1.176-.47,3.015,2.455,1.736,3.126S57.913,329.848,58.874,329.454Z" transform="translate(-45.43 -296.486)" fill="#32e0c4"/>
        <path id="Path_4868" data-name="Path 4868" d="M49.91,341.925c1.777-2.967,3.527-5.954,5.394-8.866.864-1.383,1.777-2.69,2.718-3.99l-.443-.1-.692-.131c-.546-.1-1.093-.173-1.646-.228s-1.037-.083-1.556-.09a7.449,7.449,0,0,0-1.667.09.048.048,0,1,1,0-.09c.553,0,1.12-.048,1.674-.062a15.644,15.644,0,0,1,1.618.042c.533.041,1.01.083,1.515.159.277.042.553.09.823.145a3.978,3.978,0,0,1,.5.1c.961-1.321,1.964-2.621,2.995-3.887a35.656,35.656,0,0,0-9.682-3.105c-.055,0-.035-.1,0-.083a32.917,32.917,0,0,1,9.855,2.988l1.715-2.075c.643-.768,1.328-1.521,1.909-2.344a.048.048,0,1,1,.076.055,33.38,33.38,0,0,0-2.255,2.766h0a34.745,34.745,0,0,1,3.617,2.9q1.764,1.577,3.458,3.244a.044.044,0,1,1-.062.062c-1.107-1.1-2.255-2.144-3.458-3.147s-2.455-1.909-3.665-2.9h0l-.83,1.086-.415.546h0c-.463.6-.927,1.2-1.383,1.812A14.41,14.41,0,0,1,61.4,329.3c.325.844.685,1.708,1.017,2.573A36.592,36.592,0,0,1,63.9,337.4c0,.055-.076.083-.083,0a32.5,32.5,0,0,0-1.618-5.457c-.346-.906-.733-1.791-1.141-2.669s-.816-1.577-1.162-2.386c-.394.526-.8,1.058-1.183,1.591l-.332.47c0,.042,0,.083-.041.083h0c-1.217,1.7-2.379,3.458-3.506,5.208a1.555,1.555,0,0,1,.152.387c.076.214.145.429.207.65.124.436.228.871.311,1.321s.131.837.173,1.266a12.235,12.235,0,0,0,.1,1.432c0,.076-.1.076-.083,0a4.841,4.841,0,0,0-.1-1.342c-.069-.463-.152-.913-.256-1.383s-.207-.809-.332-1.21c-.055-.2-.124-.4-.194-.6s-.083-.214-.118-.325c-.533.823-1.058,1.66-1.57,2.5-1.024,1.66-2.033,3.327-3.057,4.986a.083.083,0,1,1-.166.007Z" transform="translate(-46.812 -300.977)" fill="#263238"/>
        <path id="Path_4869" data-name="Path 4869" d="M89.5,371.591c.041-1.687.311-3.375.491-5.048s.373-3.361.553-5.042a76.651,76.651,0,0,1,1.3-9.731A14.143,14.143,0,0,1,95.8,344.5a6.445,6.445,0,0,1,3.88-1.853,6.653,6.653,0,0,1,4.149,1.272,14.357,14.357,0,0,1,3.458,3.645,36.152,36.152,0,0,1,2.7,4.392c0,.055-.062.09-.1.042a22.456,22.456,0,0,0-5.844-6.556,6.916,6.916,0,0,0-3.686-1.535,5.021,5.021,0,0,0-3.569,1.425,13.447,13.447,0,0,0-3.776,6.681A67.65,67.65,0,0,0,91.56,361c-.235,1.777-.463,3.562-.692,5.339s-.38,3.589-.761,5.332a.307.307,0,1,1-.609-.083Z" transform="translate(-59.021 -307.848)" fill="#263238"/>
        <path id="Path_4870" data-name="Path 4870" d="M100.511,358.162a9.334,9.334,0,0,0,1.833,1.867c-.277-1.639-.616-4.557.214-6.114,1.286-2.407,2.808-1.2,2.075.892a17.289,17.289,0,0,0-1.238,5.941,25.819,25.819,0,0,0,5.588,2.635,9.44,9.44,0,0,1-.18-2.87c.256-2.58,2.227-2.531,1.715.152a16.841,16.841,0,0,0-.27,3.147,58.223,58.223,0,0,0,8.707,1.964,25.589,25.589,0,0,0,3.6-6.418c-2.075-.526-6.349-.643-6.224-2.144.118-2.019,4.232-.463,6.639,1a15.955,15.955,0,0,0,.726-5.429,26.771,26.771,0,0,0-5.782-.961c-4.322-.373-4.108-2.822-.982-2.766,2.31.042,5.235,1.459,6.618,2.192-.9-5.878-5.38-9.647-8.99-9.786-6.044-.249-3.873,7.275-3.873,7.275s-4.094-2.884-7.953-2.808S96.382,352.415,100.511,358.162Zm16.141-10.872c-.138-.844,2.559-1.051,2.7.035C119.515,348.542,116.79,348.148,116.652,347.29Zm4.336,8.824c-.055-.553,1.113-.65,1.383.042C122.537,356.613,121.037,356.661,120.988,356.115Zm-14.523.512c.913.131,1.432,3.389-.138,3.32-1.183-.048-.6-3.43.152-3.32Z" transform="translate(-61.762 -307.483)" fill="#32e0c4"/>
        <path id="Path_4871" data-name="Path 4871" d="M111.908,368.071c.152-.408.284-.816.415-1.231-.118.415-.221.837-.3,1.259C112.005,368.182,111.881,368.154,111.908,368.071Z" transform="translate(-65.932 -315.31)" fill="#263238"/>
        <path id="Path_4872" data-name="Path 4872" d="M113.733,358.392c.284-.837.6-1.66.927-2.476.173-.443.353-.871.546-1.307a5.271,5.271,0,0,1,.533-1.086,9.077,9.077,0,0,1-.484-1.058c0-.035,0-.055.055,0a12.449,12.449,0,0,1,1.176,1.826l.491.858a8.385,8.385,0,0,1,1.017.159c.36.069.726.138,1.086.221l1.072.249c.36.083.692.207,1.072.263.083,0,.048.138,0,.111a7.009,7.009,0,0,0-1.134-.3c-.346-.076-.692-.131-1.044-.187l-1.058-.124-.8-.069.436.761.062.124a3.051,3.051,0,0,1,.864.1c.318.055.629.111.934.18.636.138,1.259.29,1.881.463,1.307.367,2.6.782,3.894,1.2.069,0,0,.131-.048.111a36.342,36.342,0,0,0-3.907-1.086c-.616-.138-1.231-.284-1.853-.408l-.934-.2a5.131,5.131,0,0,1-.692-.159c.692,1.231,1.293,2.476,1.867,3.748,1.252,2.766,2.3,5.629,3.382,8.479a.062.062,0,0,1-.111.041,77.045,77.045,0,0,0-3.6-8.3l-.788-1.487a1.669,1.669,0,0,1-.069.3c-.062.339-.118.692-.173,1.01-.118.692-.228,1.383-.332,2.026a23.811,23.811,0,0,0-.484,4.2c0,.083-.131.083-.118,0,.1-.692.1-1.383.145-2.075s.1-1.383.18-2.116.166-1.383.277-2.033c.062-.339.118-.692.18-1.01a2.075,2.075,0,0,1,.194-.733c-.36-.692-.692-1.418-1.065-2.13l-1.024-1.985c-.145-.277-.3-.56-.456-.844a8.621,8.621,0,0,1-.4,1.017c-.159.387-.311.768-.47,1.148-.346.844-.692,1.694-.989,2.545-.456,1.21-.961,2.448-1.335,3.707C113.007,360.867,113.318,359.609,113.733,358.392Z" transform="translate(-66.159 -310.866)" fill="#263238"/>
        <path id="Path_4873" data-name="Path 4873" d="M112.51,366.71a.939.939,0,0,1,.09-.29C112.565,366.517,112.538,366.614,112.51,366.71Z" transform="translate(-66.119 -315.181)" fill="#263238"/>
        <path id="Path_4874" data-name="Path 4874" d="M74.89,379.77l.422,8.991L76.4,411.949h23.922l1.093-23.189.429-8.991Z" transform="translate(-54.516 -319.298)" fill="#37474f"/>
        <path id="Path_4875" data-name="Path 4875" d="M74.89,379.77l.422,8.991h26.107l.429-8.991Z" transform="translate(-54.516 -319.298)" fill="#263238"/>
        <rect id="Rectangle_386" data-name="Rectangle 386" width="30.36" height="7.275" transform="translate(49.026 64.103) rotate(180)" fill="#37474f"/>
        <rect id="Rectangle_387" data-name="Rectangle 387" width="4.198" height="3.811" transform="translate(39.676 92.651)" fill="#37474f"/>
        <rect id="Rectangle_388" data-name="Rectangle 388" width="4.198" height="1.902" transform="translate(39.676 92.651)" fill="#263238"/>
        <rect id="Rectangle_389" data-name="Rectangle 389" width="4.198" height="3.811" transform="translate(23.825 92.651)" fill="#37474f"/>
        <rect id="Rectangle_390" data-name="Rectangle 390" width="4.198" height="1.902" transform="translate(23.825 92.651)" fill="#263238"/>
      </g>
    </g>
  </g>
</svg>
