<svg xmlns="http://www.w3.org/2000/svg" width="271.063" height="269.363" viewBox="0 0 271.063 269.363">
  <g id="Group_127" data-name="Group 127" transform="translate(-44 -135.746)">
    <g id="Group_126" data-name="Group 126">
      <g id="Messages-cuate" transform="translate(5.38 87.114)">
        <g id="freepik--Shadow--inject-126" transform="translate(89.202 291.552)">
          <ellipse id="Ellipse_57" data-name="Ellipse 57" cx="84.949" cy="13.221" rx="84.949" ry="13.221" fill="#ebebeb"/>
        </g>
        <g id="freepik--Plant--inject-126" transform="translate(49.058 172.197)">
          <path id="Path_4876" data-name="Path 4876" d="M96.469,309.321a152.5,152.5,0,0,0-.224-16.331,207.672,207.672,0,0,0-5.129-33.271c-1.423-6.155-3.206-12.182-5.014-18.254-.051-.186-.346-.135-.295.058,5.662,21.313,10.3,43.311,9.983,65.47-.083,6.2-.8,12.291-1.391,18.453,0,.16.256.231.289.058A90.808,90.808,0,0,0,96.469,309.321Z" transform="translate(-65.988 -241.349)" fill="#36ccb4"/>
          <path id="Path_4877" data-name="Path 4877" d="M81.949,241.62s-8.572,21.768-6.655,26.884,5.88,6.207,5.88,6.207-5.245,7.489-1.584,14.516,11.817,6.694,12.355,14.657C91.945,303.884,92.4,270.575,81.949,241.62Z" transform="translate(-62.117 -241.446)" fill="#36ccb4"/>
          <path id="Path_4878" data-name="Path 4878" d="M94.22,292.7a.18.18,0,0,0,0-.115A199.06,199.06,0,0,0,85.885,248.8c0-.038-.083,0-.071,0q2.565,9.547,4.488,19.235a9.393,9.393,0,0,0-4.091-2.283s-.045,0,0,.045a10.9,10.9,0,0,1,4.225,2.821q.372,1.923.725,3.789c-1.924-2.142-4.572-3.206-7.232-4.213-.038,0-.058.038,0,.058a17.315,17.315,0,0,1,7.406,4.963q.981,5.424,1.725,10.9a10.394,10.394,0,0,0-5.129-2.93c-.058,0-.09.071,0,.09a10.9,10.9,0,0,1,5.187,3.321h0q.26,1.924.481,3.847a13.324,13.324,0,0,0-3.584-2.161s-.051.038,0,.058a12.235,12.235,0,0,1,3.565,2.334h.045c.147,1.218.289,2.436.41,3.661a17.427,17.427,0,0,0-7.271-5.194c-.058,0-.083.064,0,.09a18.908,18.908,0,0,1,7.168,5.514.16.16,0,0,0,.18.058c.186,1.872.353,3.744.487,5.623,0,0,.045.032.045,0Q94.438,295.587,94.22,292.7Z" transform="translate(-65.304 -244.017)" fill="#263238"/>
          <path id="Path_4879" data-name="Path 4879" d="M86.331,270.959A10.663,10.663,0,0,0,81.2,269.35c-.045,0-.045.058,0,.064a20.249,20.249,0,0,1,5.091,1.667.071.071,0,0,0,.038-.122Z" transform="translate(-64.325 -251.397)" fill="#263238"/>
          <path id="Path_4880" data-name="Path 4880" d="M88.677,307.057a10.778,10.778,0,0,0-3.847-1.327c-.045,0-.051.064,0,.077a14.266,14.266,0,0,1,3.847,1.34C88.683,307.185,88.722,307.083,88.677,307.057Z" transform="translate(-65.627 -264.451)" fill="#263238"/>
          <path id="Path_4881" data-name="Path 4881" d="M125.241,284.077a58.142,58.142,0,0,0-9.925,8.675,35.631,35.631,0,0,0-6.963,11.778,88.212,88.212,0,0,0-5.181,28.212,68.452,68.452,0,0,0,1.526,15.876.15.15,0,1,0,.295-.058,88.918,88.918,0,0,1,.16-27.75c1.475-9.009,3.783-18.806,9.509-26.121,3.142-3.93,6.989-7.066,10.836-10.31C125.709,284.212,125.446,283.929,125.241,284.077Z" transform="translate(-72.216 -256.666)" fill="#36ccb4"/>
          <path id="Path_4882" data-name="Path 4882" d="M105.14,326.109a53.6,53.6,0,0,1,7.239-9.246c4.289-4.289,7.9-7.335,8.457-10.175s-4.3-4.924-4.3-4.924,5.937,1.064,7.559-1.423,2.411-16.921,2.411-16.921-10.8,7.694-15.831,18.517S105.14,326.109,105.14,326.109Z" transform="translate(-72.927 -256.445)" fill="#36ccb4"/>
          <path id="Path_4883" data-name="Path 4883" d="M122.765,289.12c-4.54,4.488-9.117,9.214-11.791,15.08a58.147,58.147,0,0,0-2.385,6.219h0c-.135.423-.276.846-.4,1.282a.314.314,0,0,0,0,.071,122.723,122.723,0,0,0-3.065,13.33c0,.032.038.045.045,0,.462-2.251.975-4.527,1.552-6.79h.064a9.411,9.411,0,0,1,2.834-.725c.064,0,.058-.115,0-.115a10.965,10.965,0,0,0-2.8.513c.519-2.045,1.09-4.078,1.731-6.091a30.342,30.342,0,0,1,6.412-.834v-.038a24.116,24.116,0,0,0-6.3.539c.109-.346.224-.692.34-1.032a33.077,33.077,0,0,1,4.264-.725v-.045a20.755,20.755,0,0,0-4.174.507c.583-1.738,1.218-3.45,1.924-5.129a31.119,31.119,0,0,1,2.039-3.956,25.26,25.26,0,0,1,3.462-.641v-.058a9.329,9.329,0,0,0-3.206.314c.571-.917,1.167-1.815,1.8-2.687h0a18.3,18.3,0,0,1,7.354-.564c.045,0,.058-.064,0-.077a15.257,15.257,0,0,0-7.053.2c.256-.34.519-.673.782-1.007a15.894,15.894,0,0,1,4.527-.712V295.9a11.855,11.855,0,0,0-4.219.372c2.007-2.488,4.219-4.822,6.412-7.13C122.951,289.075,122.874,289.024,122.765,289.12Z" transform="translate(-72.92 -258.472)" fill="#263238"/>
          <path id="Path_4884" data-name="Path 4884" d="M131.2,304.433a10.016,10.016,0,0,0-2.148-.077.077.077,0,1,0,0,.154c.712,0,1.417-.032,2.129,0a.045.045,0,1,0,.019-.077Z" transform="translate(-81.482 -263.948)" fill="#263238"/>
          <path id="Path_4885" data-name="Path 4885" d="M118.468,326.32a9.708,9.708,0,0,0-3.328.641v.051c1.1-.263,2.212-.372,3.321-.551A.071.071,0,1,0,118.468,326.32Z" transform="translate(-76.516 -271.839)" fill="#263238"/>
          <path id="Path_4886" data-name="Path 4886" d="M115.891,318.78a7.053,7.053,0,0,0-1.417.128.045.045,0,0,0,0,.083,6.98,6.98,0,0,0,1.417-.071C115.975,318.921,115.975,318.78,115.891,318.78Z" transform="translate(-76.267 -269.133)" fill="#263238"/>
          <path id="Path_4887" data-name="Path 4887" d="M55.637,307.992a49.147,49.147,0,0,1,10.034,4.732,29.815,29.815,0,0,1,8.335,7.944,74.318,74.318,0,0,1,10.727,21.646A57.873,57.873,0,0,1,87.2,355.5a.128.128,0,0,1-.25,0,75.017,75.017,0,0,0-6.54-22.441c-3.289-6.905-7.425-14.3-13.728-18.9-3.443-2.507-7.316-4.142-11.176-5.88A.161.161,0,1,1,55.637,307.992Z" transform="translate(-55.079 -265.257)" fill="#36ccb4"/>
          <path id="Path_4888" data-name="Path 4888" d="M82.06,337.209a45.215,45.215,0,0,0-8-5.809c-4.488-2.481-8.092-4.11-9.2-6.277s2.34-4.982,2.34-4.982-4.559,2.238-6.412.6S54.9,307.6,54.9,307.6s10.522,3.744,17.094,11.33S82.06,337.209,82.06,337.209Z" transform="translate(-54.9 -265.122)" fill="#36ccb4"/>
          <path id="Path_4889" data-name="Path 4889" d="M84.139,336.257c-5.264-9.88-12.285-18.818-21.909-24.717h0a48.171,48.171,0,0,1,7.053,5.514,11.118,11.118,0,0,0-5.668,1.193v.058a15.581,15.581,0,0,1,5.822-.981.1.1,0,0,0,.064,0c.346.327.68.641,1.013.987a17.709,17.709,0,0,0-3.02.4s0,.051,0,.045a15.266,15.266,0,0,1,3.206-.263,65.927,65.927,0,0,1,4.963,5.636,5.027,5.027,0,0,0-2.116.154.038.038,0,1,0,0,.077,11.543,11.543,0,0,1,2.257-.032c.289.365.577.731.859,1.1a20.433,20.433,0,0,0-6.412.641v.051a25.57,25.57,0,0,1,6.559-.43l.782,1.084a13.889,13.889,0,0,0-3.8.436.038.038,0,0,0,0,.077,14.458,14.458,0,0,1,3.93-.308,55.186,55.186,0,0,1,3.36,4.732,3.6,3.6,0,0,0-1.673.1v.045a7.052,7.052,0,0,1,1.8.09c.936,1.455,1.847,2.93,2.712,4.411C84.011,336.482,84.209,336.385,84.139,336.257Z" transform="translate(-57.53 -266.536)" fill="#263238"/>
          <path id="Path_4890" data-name="Path 4890" d="M81.922,337.3a8.079,8.079,0,0,0-3.052.372v.045a23.025,23.025,0,0,1,3.039-.308C81.986,337.4,82,337.305,81.922,337.3Z" transform="translate(-63.501 -275.771)" fill="#263238"/>
          <path id="Path_4891" data-name="Path 4891" d="M68.51,318.521a5.206,5.206,0,0,0-1.411.083c-.058,0-.038.09,0,.083.462-.051.917-.032,1.379-.045a.064.064,0,0,0,.032-.122Z" transform="translate(-59.264 -269.035)" fill="#263238"/>
          <path id="Path_4892" data-name="Path 4892" d="M105.129,387.287H81.38l3.385-24.807.866-6.36h15.247l.866,6.36Z" transform="translate(-64.402 -282.532)" fill="#455a64"/>
          <path id="Path_4893" data-name="Path 4893" d="M103.638,362.48H86.66l.866-6.36h15.247Z" transform="translate(-66.296 -282.532)" fill="#263238"/>
          <rect id="Rectangle_391" data-name="Rectangle 391" width="19.607" height="5.386" transform="translate(19.049 71.382)" fill="#455a64"/>
        </g>
        <g id="freepik--Floor--inject-126" transform="translate(38.62 276.683)">
          <path id="Path_4894" data-name="Path 4894" d="M38.62,404.631l33.88-.154,33.886-.058,67.766-.109,67.766.109,33.886.058,33.88.154-33.88.16-33.886.051-67.766.109-67.766-.109L72.5,404.791Z" transform="translate(-38.62 -404.31)" fill="#263238"/>
        </g>
        <g id="freepik--Device--inject-126" transform="translate(110.937 68.103)">
          <path id="Path_4895" data-name="Path 4895" d="M267.2,79H162.047A10.733,10.733,0,0,0,151.41,89.836V306.264a10.74,10.74,0,0,0,10.637,10.829H267.2a10.746,10.746,0,0,0,10.643-10.829V89.861A10.74,10.74,0,0,0,267.2,79Zm3.995,220.564c0,5.694-4.264,10.3-9.528,10.3h-94.06c-5.277,0-9.541-4.61-9.541-10.3V98.062c0-11.605,4.264-12.182,9.541-12.182h18.806c1.1,0,1.994,1.244,1.994,2.783V89.3c0,3.616,1.975,3.623,4.4,3.623h43.6c2.449,0,4.4,0,4.4-3.623v-.641c0-1.539.885-2.783,2-2.783h18.838c5.264,0,9.528,1.539,9.528,12.182Z" transform="translate(-151.409 -79)" fill="#263238"/>
          <path id="Path_4896" data-name="Path 4896" d="M252.2,92.928H240.317a.744.744,0,0,1-.737-.737h0a.737.737,0,0,1,.737-.731H252.2a.731.731,0,0,1,.737.731h0a.737.737,0,0,1-.737.737Z" transform="translate(-183.047 -83.471)" fill="#fff"/>
          <path id="Path_4897" data-name="Path 4897" d="M274.9,101.912v201.5c0,5.694-4.264,10.3-9.521,10.3H171.331c-5.277,0-9.541-4.61-9.541-10.3v-201.5c0-11.605,4.264-12.182,9.541-12.182h18.806c1.1,0,1.994,1.244,1.994,2.783v.641c0,3.616,1.975,3.623,4.4,3.623h43.6c2.449,0,4.411,0,4.411-3.623v-.641c0-1.539.878-2.783,1.994-2.783h18.844C270.636,89.743,274.9,91.282,274.9,101.912Z" transform="translate(-155.134 -82.85)" fill="#fff"/>
          <path id="Path_4898" data-name="Path 4898" d="M274.9,101.912v15.036H161.79V101.912c0-11.605,4.264-12.182,9.534-12.182h18.844c1.1,0,1.988,1.244,1.988,2.783v.641c0,3.616,1.981,3.623,4.4,3.623h43.6c2.449,0,4.411,0,4.411-3.623v-.641c0-1.539.885-2.783,1.994-2.783H265.4C270.636,89.743,274.9,91.282,274.9,101.912Z" transform="translate(-155.134 -82.85)" fill="#2f8286"/>
          <path id="Path_4899" data-name="Path 4899" d="M177.781,117.224l-3.341-3.135,3.341-3.129.519.551-2.757,2.578,2.757,2.584Z" transform="translate(-159.673 -90.468)" fill="#fff"/>
          <path id="Path_4900" data-name="Path 4900" d="M324.852,113.471a.641.641,0,1,1-.641-.641A.641.641,0,0,1,324.852,113.471Z" transform="translate(-213.185 -91.139)" fill="#fff"/>
          <path id="Path_4901" data-name="Path 4901" d="M324.852,117.121a.641.641,0,1,1-.641-.641A.641.641,0,0,1,324.852,117.121Z" transform="translate(-213.185 -92.449)" fill="#fff"/>
          <path id="Path_4902" data-name="Path 4902" d="M324.852,120.761a.641.641,0,1,1-.641-.641A.641.641,0,0,1,324.852,120.761Z" transform="translate(-213.185 -93.755)" fill="#fff"/>
          <g id="freepik--u5Zjqx--inject-126" transform="translate(27.718 10.592)">
            <path id="Path_4903" data-name="Path 4903" d="M198.718,96.347l-.186.18-.1.1a2.469,2.469,0,0,0-3.507,0l-.1-.1-.18-.18h0l.231-.205a2.4,2.4,0,0,1,.532-.333,2.475,2.475,0,0,1,.705-.237.858.858,0,0,0,.353-.051h.571a2.8,2.8,0,0,1,.641.154,3.027,3.027,0,0,1,.436.205,3.312,3.312,0,0,1,.423.295l.192.173Z" transform="translate(-194.64 -95.52)" fill="#fff"/>
            <path id="Path_4904" data-name="Path 4904" d="M195.839,97.642l-.289-.282a2.071,2.071,0,0,1,2.93,0l-.289.289a1.667,1.667,0,0,0-2.353,0Z" transform="translate(-194.967 -95.962)" fill="#fff"/>
            <path id="Path_4905" data-name="Path 4905" d="M198.186,98.39l-.282.289a.859.859,0,0,0-1.212,0l-.282-.289A1.282,1.282,0,0,1,198.186,98.39Z" transform="translate(-195.275 -96.422)" fill="#fff"/>
            <path id="Path_4906" data-name="Path 4906" d="M197.906,99.3a.263.263,0,1,1-.256-.256.256.256,0,0,1,.256.256Z" transform="translate(-195.623 -96.783)" fill="#fff"/>
          </g>
          <path id="Path_4907" data-name="Path 4907" d="M173.29,97.24a.75.75,0,1,1,.75.75.75.75,0,0,1-.75-.75Z" transform="translate(-159.261 -85.276)" fill="#fff"/>
          <path id="Path_4908" data-name="Path 4908" d="M177,97.24a.744.744,0,1,1,.218.532A.75.75,0,0,1,177,97.24Z" transform="translate(-160.592 -85.276)" fill="#fff"/>
          <path id="Path_4909" data-name="Path 4909" d="M180.66,97.24a.744.744,0,1,1,.218.532.75.75,0,0,1-.218-.532Z" transform="translate(-161.905 -85.276)" fill="#fff"/>
          <path id="Path_4910" data-name="Path 4910" d="M184.34,97.24a.744.744,0,1,1,.218.532.75.75,0,0,1-.218-.532Z" transform="translate(-163.226 -85.276)" fill="#fff"/>
          <path id="Path_4911" data-name="Path 4911" d="M188,97.24a.75.75,0,1,1,.75.75A.75.75,0,0,1,188,97.24Z" transform="translate(-164.539 -85.276)" fill="#fff"/>
          <path id="Path_4912" data-name="Path 4912" d="M321.577,98.634H315.46V95.8h6.117Zm-5.771-.321h5.476V96.121h-5.476Z" transform="translate(-210.275 -85.028)" fill="#fff"/>
          <rect id="Rectangle_392" data-name="Rectangle 392" width="3.937" height="1.866" transform="translate(105.685 11.259)" fill="#fff"/>
          <rect id="Rectangle_393" data-name="Rectangle 393" width="0.545" height="1.513" transform="translate(111.283 11.432)" fill="#fff"/>
          <path id="Path_4913" data-name="Path 4913" d="M184.244,417.62h-.866v3.95h-1.6v-2.013h-2.847v2.013h-1.609v-3.95h-.859l3.892-4.02Z" transform="translate(-160.398 -199.063)" fill="#ebebeb"/>
          <rect id="Rectangle_394" data-name="Rectangle 394" width="9.374" height="1.34" transform="translate(100.992 214.537)" fill="#ebebeb"/>
          <rect id="Rectangle_395" data-name="Rectangle 395" width="9.374" height="1.34" transform="translate(100.992 217.852)" fill="#ebebeb"/>
          <rect id="Rectangle_396" data-name="Rectangle 396" width="9.374" height="1.34" transform="translate(100.992 221.166)" fill="#ebebeb"/>
          <path id="Path_4914" data-name="Path 4914" d="M251.175,418.736l-2.667,2.847-2.667-2.847.474-.436,2.193,2.34,2.193-2.34Z" transform="translate(-185.293 -200.75)" fill="#ebebeb"/>
          <path id="Path_4915" data-name="Path 4915" d="M247.284,422.575a4.847,4.847,0,1,1,4.841-4.847A4.847,4.847,0,0,1,247.284,422.575Zm0-9.047a4.2,4.2,0,1,1,0,.006Z" transform="translate(-184.07 -198.805)" fill="#ebebeb"/>
          <path id="Path_4916" data-name="Path 4916" d="M234,115.8a3.052,3.052,0,0,1,3.052-2.994,3.148,3.148,0,0,1,1.924.641.481.481,0,0,1-.583.757,2.071,2.071,0,0,0-1.34-.455,2.2,2.2,0,0,0-1.494.6,2.045,2.045,0,0,0-.609,1.449,2.013,2.013,0,0,0,.609,1.449,2.2,2.2,0,0,0,1.494.6,2.129,2.129,0,0,0,1.34-.455.507.507,0,0,1,.641.09.494.494,0,0,1-.083.641,3.148,3.148,0,0,1-1.924.641A3.046,3.046,0,0,1,234,115.8Z" transform="translate(-181.045 -91.132)" fill="#fff"/>
          <path id="Path_4917" data-name="Path 4917" d="M244.43,118.43v-4.9a.449.449,0,0,1,.455-.455.462.462,0,0,1,.468.455v1.994h2.154v-1.994a.449.449,0,0,1,.455-.455.462.462,0,0,1,.468.455v4.9a.462.462,0,0,1-.468.462.449.449,0,0,1-.455-.462v-1.994h-2.154v1.994a.462.462,0,0,1-.468.462.449.449,0,0,1-.455-.462Z" transform="translate(-184.787 -91.225)" fill="#fff"/>
          <path id="Path_4918" data-name="Path 4918" d="M255.56,117.528h-2.026l-.4,1.077a.468.468,0,0,1-.436.295.411.411,0,0,1-.154,0,.468.468,0,0,1-.276-.6l1.84-4.9a.474.474,0,0,1,.878,0l1.84,4.9a.468.468,0,0,1-.276.6.423.423,0,0,1-.16,0,.449.449,0,0,1-.423-.295Zm-.346-.917-.641-1.789-.673,1.789Z" transform="translate(-187.589 -91.24)" fill="#fff"/>
          <path id="Path_4919" data-name="Path 4919" d="M263.177,113.993h-1.321v4.437a.449.449,0,0,1-.455.462.462.462,0,0,1-.462-.462v-4.437h-1.314a.462.462,0,0,1-.455-.468.449.449,0,0,1,.455-.455h3.552a.455.455,0,0,1,.462.455A.474.474,0,0,1,263.177,113.993Z" transform="translate(-190.077 -91.225)" fill="#fff"/>
        </g>
        <g id="freepik--character-2--inject-126" transform="translate(156.904 125.12)">
          <rect id="Rectangle_397" data-name="Rectangle 397" width="142.911" height="48.159" transform="translate(0 85.657)" fill="#32e0c4"/>
          <path id="Path_4920" data-name="Path 4920" d="M240.88,390.274V376.63h11.56Z" transform="translate(-229.48 -242.815)" fill="#36ccb4"/>
          <rect id="Rectangle_398" data-name="Rectangle 398" width="118.771" height="1.039" transform="translate(8.611 110.797)" fill="#fff"/>
          <rect id="Rectangle_399" data-name="Rectangle 399" width="108.737" height="1.039" transform="translate(8.611 116.401)" fill="#fff"/>
          <rect id="Rectangle_400" data-name="Rectangle 400" width="111.66" height="1.039" transform="translate(8.611 99.596)" fill="#fff"/>
          <rect id="Rectangle_401" data-name="Rectangle 401" width="124.407" height="1.039" transform="translate(8.611 93.992)" fill="#fff"/>
          <rect id="Rectangle_402" data-name="Rectangle 402" width="112.757" height="1.039" transform="translate(8.611 122.005)" fill="#fff"/>
          <path id="Path_4921" data-name="Path 4921" d="M373.369,221.892c-3.033,12.336-10.381,31.5-16.869,31.418-5.931-.1-19.145-10.605-24.685-14.048s6.886-17.01,10.06-14.818c4.918,3.4,12.285,9.477,13.529,9.079,1.545-.494,3.52-4.309,12.362-15.555C371.381,213.352,374.657,216.641,373.369,221.892Z" transform="translate(-261.606 -185.093)" fill="#f7a9a0"/>
          <path id="Path_4922" data-name="Path 4922" d="M331.31,219.924c-2.61-.923-5.527-2.193-8.431-2.135s-5.309,3.886-5.309,4.982,1.1,7.931,4,7.931,1.148-5.251,1.282-5.854.218-1.372.763-1.314,10.124,4.6,10.124,4.6Z" transform="translate(-256.998 -185.818)" fill="#f7a9a0"/>
          <path id="Path_4923" data-name="Path 4923" d="M329.675,220.057c-.16,0-7.931-3.065-10.836-3.007s-5.309,3.885-5.309,4.982,1.1,7.931,3.995,7.931,1.154-5.251,1.282-5.854.218-1.372.763-1.314,10.124,4.6,10.124,4.6Z" transform="translate(-255.549 -185.553)" fill="#f7a9a0"/>
          <path id="Path_4924" data-name="Path 4924" d="M321.295,232.723a3.423,3.423,0,0,0,.481-1.712,6,6,0,0,0-.1-1.853,9.725,9.725,0,0,1-.353-1.6,3.206,3.206,0,0,1,.4-1.532c.224-.4.641-.269,1.019-.141a15.812,15.812,0,0,1,1.577.712c.551.276,1.1.564,1.648.846a15.391,15.391,0,0,1,1.686.93.045.045,0,0,1-.038.077,15.8,15.8,0,0,1-1.468-.641l-1.661-.763c-.519-.231-1.026-.487-1.552-.712-.18-.077-.551-.276-.763-.224s-.327.59-.378.769a2.712,2.712,0,0,0,.1,1.564,8.374,8.374,0,0,1,.295,1.59,4.149,4.149,0,0,1-.122,1.513,6.1,6.1,0,0,1-.686,1.282C321.346,232.838,321.256,232.774,321.295,232.723Z" transform="translate(-258.331 -188.678)" fill="#263238"/>
          <path id="Path_4925" data-name="Path 4925" d="M336.052,223.719s-8.034-7.329-9.707-8.784c-3.36-2.917-17.5-8.694-19.466-8.9s-2.68,3.847,6.912,8.027c5.059,2.212,5.957,5.129,5.86,6.713s-1.629,4.6-4.328,4.52-4.45-4.014-6.931-4.45-.84,4.11.91,6.739a16.561,16.561,0,0,0,7.265,5.668c2.334.878,9.56,3.988,9.56,3.988Z" transform="translate(-252.725 -181.598)" fill="#f7a9a0"/>
          <path id="Path_4926" data-name="Path 4926" d="M315.454,227.858c1.013.789,2.167,1.808,3.507,1.859a3.294,3.294,0,0,0,2.924-1.975,5.129,5.129,0,0,0,.705-3.732,6.271,6.271,0,0,0-1.847-3.026,15.246,15.246,0,0,0-3.661-2.436c-.058,0,0-.115.058-.09,1.237.558,5.129,2.142,5.88,5.553a5.238,5.238,0,0,1-.757,3.809,3.723,3.723,0,0,1-2.776,2.212c-1.6.135-2.969-1.167-4.116-2.135C315.319,227.851,315.4,227.819,315.454,227.858Z" transform="translate(-256.203 -186.057)" fill="#263238"/>
          <path id="Path_4927" data-name="Path 4927" d="M346.332,225.341,334.31,244.006s19.075,10.688,24.474,8.976,13.548-17.19,16.908-30.776-4.976-8.374-8.213-4.18-10.259,13.894-10.637,13.766S346.332,225.341,346.332,225.341Z" transform="translate(-263.005 -184.259)" fill="#c3c3c3"/>
          <path id="Path_4928" data-name="Path 4928" d="M355.28,251.8c4.347,1.77,8.611,3.058,10.836,2.5l.192-.051c5.4-1.731,13.548-17.2,16.914-30.776a21,21,0,0,0,.769-5.578v-.2a2.566,2.566,0,0,0-.032-.321.87.87,0,0,0,0-.135.732.732,0,0,0-.038-.289Z" transform="translate(-270.53 -185.517)" fill="#263238"/>
          <path id="Path_4929" data-name="Path 4929" d="M344.184,250.688q.571-.987,1.154-1.981c.776-1.314,5.431-9.137,7.271-11.541a.07.07,0,0,1,.115.077c-1.282,2.731-6.11,10.406-6.918,11.669-.41.641-.821,1.282-1.237,1.924s-.917,1.244-1.34,1.891a.059.059,0,1,1-.1-.058C343.5,252.053,343.805,251.348,344.184,250.688Z" transform="translate(-266.166 -192.762)" fill="#263238"/>
          <path id="Path_4930" data-name="Path 4930" d="M414.167,269.625h-47.03c-.609-.705,10.573-49.075,15.613-55.513,1.077-1.379,4.591-1.725,7.572-1.321a13.509,13.509,0,0,1,2.3.487h.077a5.616,5.616,0,0,1,1.68.84c8.233,6.713,15.209,29.27,16.773,36.246A130.6,130.6,0,0,1,414.167,269.625Z" transform="translate(-274.776 -183.968)" fill="#c3c3c3"/>
          <path id="Path_4931" data-name="Path 4931" d="M415.19,269.721a5.721,5.721,0,0,1-.782.353,3.949,3.949,0,0,1-2.231.122,3.533,3.533,0,0,1-1.859-1.231,14.5,14.5,0,0,1-1.25-1.859c-.205-.346-.41-.686-.641-1.019l-.077-.109a8.252,8.252,0,0,0-.519-.725,4.854,4.854,0,0,0-1.673-1.411,3.932,3.932,0,0,0-1.013-.34,2.931,2.931,0,0,0-1.084,0,3.918,3.918,0,0,0-1.924,1.032l-.109.1-.122.122c-.981.949-1.782,2.1-2.68,3.148a9.617,9.617,0,0,1-3.449,2.84,5.284,5.284,0,0,1-2.218.423,4.283,4.283,0,0,1-1.135-.154,3.847,3.847,0,0,1-1.032-.494,5.675,5.675,0,0,1-1.526-1.673,13.691,13.691,0,0,1-1.013-2.007c-.577-1.385-1.019-2.808-1.494-4.219-.365-1.084-.737-2.161-1.2-3.206l-.1-.212c-.109-.244-.231-.487-.353-.725a8.937,8.937,0,0,0-1.237-1.834,4.488,4.488,0,0,0-1.789-1.238,5.04,5.04,0,0,0-4.238.513,12.181,12.181,0,0,0-3.065,3.206l-.218.289a1.587,1.587,0,0,1,.07-.276l.058-.077a12.028,12.028,0,0,1,3.09-3.206,5.129,5.129,0,0,1,4.347-.545,4.707,4.707,0,0,1,1.859,1.282,9.439,9.439,0,0,1,1.282,1.859c.109.2.205.4.3.609l.1.205a34.976,34.976,0,0,1,1.282,3.334c.481,1.411.93,2.834,1.507,4.2a13,13,0,0,0,1.007,1.975,5.5,5.5,0,0,0,1.468,1.6,3.354,3.354,0,0,0,.975.474,4.278,4.278,0,0,0,1.071.154,5.213,5.213,0,0,0,2.141-.4,9.521,9.521,0,0,0,3.392-2.776,40.8,40.8,0,0,1,2.706-3.155.685.685,0,0,1,.122-.115.878.878,0,0,1,.109-.109,4.059,4.059,0,0,1,1.988-1.058,3.071,3.071,0,0,1,1.135,0,4.244,4.244,0,0,1,1.077.353,5.059,5.059,0,0,1,1.712,1.449,8.706,8.706,0,0,1,.532.744l.077.109c.218.34.417.686.641,1.026a13.4,13.4,0,0,0,1.231,1.847,3.43,3.43,0,0,0,1.8,1.205,3.847,3.847,0,0,0,2.18-.1,4.594,4.594,0,0,0,.8-.346.337.337,0,0,1-.019.032ZM412.7,258.936c-.365.776-.686,1.577-1.019,2.359a11.907,11.907,0,0,1-2.212,3.847,4.687,4.687,0,0,1-.987.789l-.115.071a4.956,4.956,0,0,1-2.885.641,4.488,4.488,0,0,1-2.039-.776,7.559,7.559,0,0,1-1.4-1.231.9.9,0,0,1-.109-.115,1.16,1.16,0,0,1-.122-.128,28.38,28.38,0,0,1-2.565-3.623l-.539-.853-.115-.18c-.577-.917-1.161-1.827-1.808-2.706a13.29,13.29,0,0,0-1.468-1.706,5.59,5.59,0,0,0-1.879-1.282,3.54,3.54,0,0,0-1.122-.231,4.187,4.187,0,0,0-1.135.115,5.329,5.329,0,0,0-2.058.943c-.122.09-.237.186-.353.289l-.141.128a10.644,10.644,0,0,0-2.174,3.167c-.09.18-.18.359-.256.539-.038.064-.064.128-.1.192a24.161,24.161,0,0,1-1.667,3.244,3.962,3.962,0,0,1-1.6,1.455,3.141,3.141,0,0,1-1.058.244,4.191,4.191,0,0,1-1.1-.077,4.956,4.956,0,0,1-1.956-.968,16.486,16.486,0,0,1-1.661-1.507,13.708,13.708,0,0,0-1.661-1.507,3.25,3.25,0,0,0-.346-.231.775.775,0,0,1-.032.115l.308.212a13.458,13.458,0,0,1,1.641,1.5,17.648,17.648,0,0,0,1.641,1.526,5.13,5.13,0,0,0,2.013,1,4.443,4.443,0,0,0,1.128.083,3.289,3.289,0,0,0,1.109-.25,4.129,4.129,0,0,0,1.673-1.507,21.9,21.9,0,0,0,1.629-3.123l.1-.2c.1-.224.212-.442.321-.641a10.818,10.818,0,0,1,2.071-3.039l.148-.135c.135-.115.269-.231.41-.333a5.129,5.129,0,0,1,1.981-.9,4.1,4.1,0,0,1,1.077-.109,3.321,3.321,0,0,1,1.058.224,5.482,5.482,0,0,1,1.808,1.205,12.969,12.969,0,0,1,1.455,1.673c.641.872,1.244,1.789,1.827,2.719l.115.173c.173.276.346.551.526.827a28.923,28.923,0,0,0,2.616,3.629l.128.135.109.122A8.593,8.593,0,0,0,403.354,266a4.623,4.623,0,0,0,2.1.789,5.129,5.129,0,0,0,2.981-.692l.115-.071a4.846,4.846,0,0,0,1-.808,12.221,12.221,0,0,0,2.225-3.847c.314-.763.609-1.532.955-2.283Zm-2.385-7.45a5.2,5.2,0,0,0-1.282-.25,4.643,4.643,0,0,0-2.2.468,8.741,8.741,0,0,0-1.879,1.237,28.406,28.406,0,0,0-3.135,3.206c-.981,1.122-1.923,2.263-2.994,3.309l-.289.276a1.361,1.361,0,0,1-.141.135,11.237,11.237,0,0,1-1.25,1.032,5.623,5.623,0,0,1-1.975.923,3.578,3.578,0,0,1-1.077.064,4.373,4.373,0,0,1-1.052-.269,5.207,5.207,0,0,1-1.821-1.186,9.5,9.5,0,0,1-2.084-3.847c-.128-.391-.244-.789-.359-1.186a.843.843,0,0,0-.064-.205,18.334,18.334,0,0,0-1.007-2.847,4.1,4.1,0,0,0-1.43-1.738,3.136,3.136,0,0,0-1.058-.41,4.449,4.449,0,0,0-1.128-.09,5.13,5.13,0,0,0-2.142.693,16.525,16.525,0,0,0-1.847,1.282,14.745,14.745,0,0,1-1.847,1.237,3.8,3.8,0,0,1-1.641.462.539.539,0,0,1-.032.109,3.751,3.751,0,0,0,1.725-.468,14.107,14.107,0,0,0,1.866-1.244,18.231,18.231,0,0,1,1.84-1.25,5.071,5.071,0,0,1,2.084-.641,4.452,4.452,0,0,1,1.09.09,3.014,3.014,0,0,1,1.013.4,3.994,3.994,0,0,1,1.366,1.68,19.419,19.419,0,0,1,1.007,2.9l.058.212c.109.372.218.744.34,1.109a9.72,9.72,0,0,0,2.1,3.943,5.264,5.264,0,0,0,1.924,1.237,4.3,4.3,0,0,0,1.1.289,3.847,3.847,0,0,0,1.148-.064,5.622,5.622,0,0,0,2.045-.968,10.574,10.574,0,0,0,1.244-1.026l.141-.128.314-.314c1.058-1.058,2.013-2.206,2.988-3.328a29.276,29.276,0,0,1,3.1-3.206,8.976,8.976,0,0,1,1.84-1.218,4.488,4.488,0,0,1,2.129-.462,4.712,4.712,0,0,1,1.321.276Z" transform="translate(-277.613 -197.413)" fill="#fff"/>
          <path id="Path_4932" data-name="Path 4932" d="M382.12,229.62c-2.142,12.573-12.7,36.092-19.575,38.3-7.957,2.565-35.6-6.271-41.035-10.259-2.161-1.577,9.348-15.5,12.035-14.516,11.253,4.142,21.229,6.264,22.678,5.283,2.225-1.513,11.3-14.523,17.209-22.595C380.857,215.713,383.082,223.978,382.12,229.62Z" transform="translate(-258.316 -186.993)" fill="#f7a9a0"/>
          <path id="Path_4933" data-name="Path 4933" d="M310.514,260.345c-1.231-.436-9.695-6.585-12.182-9.464a36.957,36.957,0,0,1-6.508-10.092c-2.513-5.854-3.693-10.131-3.09-12.054.705-2.225.9-2.565,6.758,7.123,3.308,5.488,6.469,6.11,9.207,6.059a42.132,42.132,0,0,1,19.415,4.347S315.246,262.031,310.514,260.345Z" transform="translate(-246.595 -189.281)" fill="#f7a9a0"/>
          <path id="Path_4934" data-name="Path 4934" d="M308.268,231.164l-10.406,4.36a1.706,1.706,0,0,1-1.834-.487l-15.606-18.5a.814.814,0,0,1,.269-1.366l10.413-4.36a1.7,1.7,0,0,1,1.834.481l15.606,18.5a.821.821,0,0,1-.276,1.372Z" transform="translate(-243.573 -183.279)" fill="#455a64"/>
          <path id="Path_4935" data-name="Path 4935" d="M292.395,210.267l-10.406,4.36a.814.814,0,0,0-.276,1.366L297.319,234.5a1.718,1.718,0,0,0,1.834.481l10.413-4.36a.821.821,0,0,0,.269-1.372l-15.606-18.5A1.7,1.7,0,0,0,292.395,210.267Zm16.3,18.69a.757.757,0,0,1-.2,1.282l-9.31,3.9a1.577,1.577,0,0,1-1.686-.487l-14.535-17.228c-.833-.994-.455-1.218.071-1.436l1.866-.782a.41.41,0,0,1,.4.154l.045.058c.263.308.455.231.7.128l4.315-1.808c.244-.1.436-.186.173-.494l-.045-.058c-.115-.135-.115-.276,0-.321l1.866-.782c.519-.218,1.052-.263,1.821.641Z" transform="translate(-244.037 -183.085)" fill="#263238"/>
          <path id="Path_4936" data-name="Path 4936" d="M291.639,214.511l-1.173.494a.122.122,0,0,1-.128-.032h0a.064.064,0,0,1,0-.1l1.18-.487a.1.1,0,0,1,.122,0h0a.061.061,0,0,1,0,.122Z" transform="translate(-247.219 -184.591)" fill="#fff"/>
          <line id="Line_40" data-name="Line 40" x1="0.038" y2="0.013" transform="translate(52.499 49.475)" fill="none"/>
          <path id="Path_4937" data-name="Path 4937" d="M294.738,212.165l14.529,17.228a.757.757,0,0,1-.2,1.282l-9.31,3.9a1.577,1.577,0,0,1-1.686-.487l-14.535-17.228c-.833-.994-.455-1.218.071-1.436l1.866-.782a.4.4,0,0,1,.4.154l.045.058c.263.308.455.231.7.128l4.315-1.808c.244-.1.436-.186.173-.494l-.045-.058c-.115-.135-.115-.276,0-.321l1.866-.782C293.437,211.3,293.969,211.254,294.738,212.165Z" transform="translate(-244.611 -183.521)" fill="#fff"/>
          <path id="Path_4938" data-name="Path 4938" d="M294.738,212.164l1.084,1.282-11.2,4.693-1.084-1.282c-.833-.994-.455-1.218.071-1.436l1.866-.782a.391.391,0,0,1,.4.154l.045.058c.263.308.462.224.7.128l4.315-1.808c.244-.1.436-.186.173-.494l-.045-.058c-.115-.135-.115-.276,0-.321l1.866-.782C293.437,211.3,293.969,211.253,294.738,212.164Z" transform="translate(-244.611 -183.52)" fill="#36ccb4"/>
          <path id="Path_4939" data-name="Path 4939" d="M286.138,219.9l-.558-.128.1-.4.09.026-.083.333.455.109Z" transform="translate(-245.519 -186.386)" fill="#fff"/>
          <path id="Path_4940" data-name="Path 4940" d="M300.323,213.539a.051.051,0,0,1,0,.083.109.109,0,0,1-.115-.032.051.051,0,0,1,0-.083A.109.109,0,0,1,300.323,213.539Z" transform="translate(-250.761 -184.28)" fill="#fff"/>
          <path id="Path_4941" data-name="Path 4941" d="M300.587,213.85a.051.051,0,0,1,0,.083.1.1,0,0,1-.109-.032.051.051,0,0,1,0-.083.109.109,0,0,1,.109.032Z" transform="translate(-250.858 -184.392)" fill="#fff"/>
          <path id="Path_4942" data-name="Path 4942" d="M300.843,214.168a.051.051,0,0,1,0,.083.122.122,0,0,1-.115,0,.051.051,0,0,1,0-.083A.09.09,0,0,1,300.843,214.168Z" transform="translate(-250.947 -184.511)" fill="#fff"/>
          <g id="freepik--u5zjqx--inject-126-2" data-name="freepik--u5zjqx--inject-126" transform="translate(40.464 31.638)">
            <path id="Path_4943" data-name="Path 4943" d="M286.608,217.27v.038a.379.379,0,0,0-.224,0,.192.192,0,0,0-.122.141h-.051V217.4a.385.385,0,0,1,.051-.051h.289Z" transform="translate(-286.21 -217.27)" fill="#fff"/>
            <path id="Path_4944" data-name="Path 4944" d="M286.4,217.524h-.045a.147.147,0,0,1,.071-.1.282.282,0,0,1,.218,0v.038a.25.25,0,0,0-.154,0A.141.141,0,0,0,286.4,217.524Z" transform="translate(-286.264 -217.319)" fill="#fff"/>
            <path id="Path_4945" data-name="Path 4945" d="M286.687,217.5v.038a.109.109,0,0,0-.077,0,.04.04,0,0,0-.038.045h-.051a.128.128,0,0,1,.167-.083Z" transform="translate(-286.321 -217.348)" fill="#fff"/>
            <path id="Path_4946" data-name="Path 4946" d="M286.725,217.588h-.045v-.038A.064.064,0,0,1,286.725,217.588Z" transform="translate(-286.379 -217.37)" fill="#fff"/>
          </g>
          <path id="Path_4947" data-name="Path 4947" d="M284.135,218.435a.051.051,0,0,1,0-.09.109.109,0,0,1,.128.032.058.058,0,0,1,0,.1.128.128,0,0,1-.128-.038Z" transform="translate(-244.992 -186.015)" fill="#fff"/>
          <path id="Path_4948" data-name="Path 4948" d="M284.506,218.283a.058.058,0,0,1,0-.1.135.135,0,0,1,.128.032.058.058,0,0,1,0,.1A.109.109,0,0,1,284.506,218.283Z" transform="translate(-245.125 -185.959)" fill="#fff"/>
          <path id="Path_4949" data-name="Path 4949" d="M284.866,218.132a.058.058,0,0,1,0-.1.115.115,0,0,1,.128.032c.032.038,0,.077,0,.1A.122.122,0,0,1,284.866,218.132Z" transform="translate(-245.254 -185.904)" fill="#fff"/>
          <path id="Path_4950" data-name="Path 4950" d="M285.236,217.941a.058.058,0,0,1,0-.1.109.109,0,0,1,.128.032.058.058,0,0,1,0,.1A.128.128,0,0,1,285.236,217.941Z" transform="translate(-245.387 -185.835)" fill="#fff"/>
          <path id="Path_4951" data-name="Path 4951" d="M285.6,217.823a.064.064,0,0,1,0-.1.122.122,0,0,1,.128.038.051.051,0,0,1,0,.09A.109.109,0,0,1,285.6,217.823Z" transform="translate(-245.518 -185.794)" fill="#fff"/>
          <path id="Path_4952" data-name="Path 4952" d="M298.128,212.61l-.4-.468.878-.372.4.474Z" transform="translate(-249.879 -183.658)" fill="#fff"/>
          <path id="Path_4953" data-name="Path 4953" d="M298.615,212.21l-.385.167.135.16.391-.167Z" transform="translate(-250.059 -183.816)" fill="#fff"/>
          <path id="Path_4954" data-name="Path 4954" d="M299.277,212.218l-.058.026-.109-.128.058-.026Z" transform="translate(-250.374 -183.773)" fill="#fff"/>
          <path id="Path_4955" data-name="Path 4955" d="M308.469,245.31l-.083.038.282.333-.154.071-.147-.173-.282.115.147.173-.16.071-.289-.34-.083.032.1-.5Z" transform="translate(-253.457 -195.629)" fill="#ebebeb"/>
          <path id="Path_4956" data-name="Path 4956" d="M321.389,239.389l-.923.391-.1-.115.923-.385Z" transform="translate(-258.003 -193.53)" fill="#ebebeb"/>
          <path id="Path_4957" data-name="Path 4957" d="M321.766,239.835l-.93.385-.1-.115.93-.385Z" transform="translate(-258.136 -193.688)" fill="#ebebeb"/>
          <path id="Path_4958" data-name="Path 4958" d="M322.136,240.275l-.93.385-.1-.109.93-.391Z" transform="translate(-258.269 -193.846)" fill="#ebebeb"/>
          <path id="Path_4959" data-name="Path 4959" d="M315.036,242.609l-.058.353-.468-.135.013-.058.385.109.051-.289Z" transform="translate(-255.9 -194.717)" fill="#ebebeb"/>
          <path id="Path_4960" data-name="Path 4960" d="M314.619,243.248a1.058,1.058,0,0,1-.782-.359.641.641,0,0,1,.237-1.077,1.026,1.026,0,0,1,1.148.289.7.7,0,0,1,.16.641.673.673,0,0,1-.4.462.968.968,0,0,1-.359.045Zm-.192-.866a.263.263,0,0,0-.1,0v.071a.4.4,0,0,0,.4.115c.032,0,0-.045,0-.077h0a.423.423,0,0,0-.3-.109Z" transform="translate(-255.586 -194.413)" fill="#ebebeb"/>
          <path id="Path_4961" data-name="Path 4961" d="M291.56,217.445a.231.231,0,0,1,.083-.385.423.423,0,0,1,.237,0,.07.07,0,0,1,.058.058.04.04,0,0,1-.064,0,.275.275,0,0,0-.16,0,.179.179,0,0,0-.109.109.205.205,0,0,0,.045.154.34.34,0,0,0,.167.1.327.327,0,0,0,.192,0,.148.148,0,0,0,.1-.09.058.058,0,0,1,.077,0,.051.051,0,0,1,.038.058.256.256,0,0,1-.147.135A.474.474,0,0,1,291.56,217.445Z" transform="translate(-247.64 -185.551)" fill="#fff"/>
          <path id="Path_4962" data-name="Path 4962" d="M292.7,217.216l-.353-.417a.032.032,0,0,1,0-.058.071.071,0,0,1,.077,0l.147.173.212-.09-.147-.173a.038.038,0,0,1,0-.058.083.083,0,0,1,.083,0l.353.423a.032.032,0,0,1,0,.058.083.083,0,0,1-.077,0l-.147-.173-.212.09.141.173a.032.032,0,0,1,0,.058.071.071,0,0,1-.077-.006Z" transform="translate(-247.942 -185.385)" fill="#fff"/>
          <path id="Path_4963" data-name="Path 4963" d="M293.864,216.714l-.2.083.038.115v.038h0a.077.077,0,0,1-.07-.038l-.173-.5v-.038a.058.058,0,0,1,.064,0l.532.34s.038.045,0,.064h0a.058.058,0,0,1-.064,0Zm-.1-.064-.2-.122.064.18Z" transform="translate(-248.347 -185.307)" fill="#fff"/>
          <path id="Path_4964" data-name="Path 4964" d="M294.257,216.082l-.128.058.321.378a.032.032,0,0,1,0,.058.083.083,0,0,1-.083,0l-.314-.378-.135.051a.071.071,0,0,1-.077,0v-.058l.353-.147a.071.071,0,0,1,.077,0,.032.032,0,0,1-.013.038Z" transform="translate(-248.483 -185.188)" fill="#fff"/>
          <path id="Path_4965" data-name="Path 4965" d="M295.847,229.247l8.015-3.353-1.834-2.174-8.008,3.353h0l1.827,2.174Z" transform="translate(-248.548 -187.946)" fill="#455a64"/>
          <path id="Path_4966" data-name="Path 4966" d="M309.792,226.423l-.737.314-.564-.667Z" transform="translate(-253.74 -188.79)" fill="#455a64"/>
          <path id="Path_4967" data-name="Path 4967" d="M302.353,224.645l-7.091,2.975-.032-.045,7.091-2.975Z" transform="translate(-248.982 -188.262)" fill="#fff"/>
          <path id="Path_4968" data-name="Path 4968" d="M301.175,225.955l-5.623,2.353-.032-.038,5.623-2.36Z" transform="translate(-249.086 -188.732)" fill="#fff"/>
          <path id="Path_4969" data-name="Path 4969" d="M302.65,226.068l-6.508,2.731-.032-.045,6.508-2.725Z" transform="translate(-249.298 -188.775)" fill="#fff"/>
          <path id="Path_4970" data-name="Path 4970" d="M303.523,226.038l-7.091,2.969-.032-.038L303.491,226Z" transform="translate(-249.402 -188.765)" fill="#fff"/>
          <path id="Path_4971" data-name="Path 4971" d="M303.82,226.385l-7.091,2.969-.038-.038,7.091-2.975Z" transform="translate(-249.506 -188.887)" fill="#fff"/>
          <path id="Path_4972" data-name="Path 4972" d="M302.151,228.015l-5.129,2.148-.032-.038,5.123-2.154Z" transform="translate(-249.614 -189.471)" fill="#fff"/>
          <path id="Path_4973" data-name="Path 4973" d="M302.594,237.247l8.008-3.353-1.827-2.174-8.015,3.36h0l1.834,2.167Z" transform="translate(-250.966 -190.817)" fill="#455a64"/>
          <path id="Path_4974" data-name="Path 4974" d="M316.542,234.423l-.744.314-.558-.667Z" transform="translate(-256.162 -191.66)" fill="#455a64"/>
          <path id="Path_4975" data-name="Path 4975" d="M309.1,232.645l-7.091,2.975-.038-.045,7.1-2.975Z" transform="translate(-251.401 -191.133)" fill="#fff"/>
          <path id="Path_4976" data-name="Path 4976" d="M307.925,233.955l-5.623,2.353-.032-.038,5.617-2.36Z" transform="translate(-251.508 -191.603)" fill="#fff"/>
          <path id="Path_4977" data-name="Path 4977" d="M309.4,234.068l-6.508,2.731-.038-.045,6.508-2.725Z" transform="translate(-251.716 -191.646)" fill="#fff"/>
          <path id="Path_4978" data-name="Path 4978" d="M310.273,234.038l-7.091,2.969-.032-.038L310.241,234Z" transform="translate(-251.824 -191.635)" fill="#fff"/>
          <path id="Path_4979" data-name="Path 4979" d="M310.57,234.385l-7.1,2.969-.032-.038,7.091-2.975Z" transform="translate(-251.928 -191.757)" fill="#fff"/>
          <path id="Path_4980" data-name="Path 4980" d="M308.891,236.015l-5.123,2.148-.038-.038,5.129-2.154Z" transform="translate(-252.032 -192.342)" fill="#fff"/>
          <path id="Path_4981" data-name="Path 4981" d="M299.483,218.844l-8.008,3.36-1.545-1.834,8.008-3.36Z" transform="translate(-247.08 -185.539)" fill="#36ccb4"/>
          <path id="Path_4982" data-name="Path 4982" d="M291.18,225.045l.744-.308-.564-.667Z" transform="translate(-247.529 -188.072)" fill="#36ccb4"/>
          <path id="Path_4983" data-name="Path 4983" d="M297.044,218.655l-5.905,2.475-.038-.045,5.912-2.475Z" transform="translate(-247.5 -186.113)" fill="#fff"/>
          <path id="Path_4984" data-name="Path 4984" d="M298.523,218.225l-7.091,2.969-.032-.038,7.091-2.975Z" transform="translate(-247.608 -185.959)" fill="#fff"/>
          <path id="Path_4985" data-name="Path 4985" d="M298.82,218.568l-7.091,2.975-.038-.038,7.091-2.975Z" transform="translate(-247.712 -186.084)" fill="#fff"/>
          <path id="Path_4986" data-name="Path 4986" d="M298.546,219.288l-6.527,2.738-.038-.045,6.534-2.731Z" transform="translate(-247.816 -186.342)" fill="#fff"/>
          <path id="Path_4987" data-name="Path 4987" d="M299.4,219.268l-7.091,2.975-.032-.045,7.091-2.969Z" transform="translate(-247.924 -186.335)" fill="#fff"/>
          <path id="Path_4988" data-name="Path 4988" d="M297.847,220.825l-5.245,2.193-.032-.038,5.238-2.2Z" transform="translate(-248.028 -186.891)" fill="#fff"/>
          <path id="Path_4989" data-name="Path 4989" d="M301.886,221.693l-8.008,3.36-1.148-1.359,8.008-3.353Z" transform="translate(-248.085 -186.734)" fill="#36ccb4"/>
          <path id="Path_4990" data-name="Path 4990" d="M293.36,227.631l.744-.314-.564-.667Z" transform="translate(-248.311 -188.998)" fill="#36ccb4"/>
          <path id="Path_4991" data-name="Path 4991" d="M301.017,221.2l-7.079,2.969-.038-.045,7.085-2.969Z" transform="translate(-248.505 -187.028)" fill="#fff"/>
          <path id="Path_4992" data-name="Path 4992" d="M300.06,222.375l-5.828,2.436-.032-.038,5.828-2.443Z" transform="translate(-248.613 -187.448)" fill="#fff"/>
          <path id="Path_4993" data-name="Path 4993" d="M300.94,222.338l-6.412,2.687-.038-.038L300.9,222.3Z" transform="translate(-248.717 -187.437)" fill="#fff"/>
          <path id="Path_4994" data-name="Path 4994" d="M299.762,223.645l-4.943,2.071-.038-.038,4.95-2.077Z" transform="translate(-248.821 -187.903)" fill="#fff"/>
          <path id="Path_4995" data-name="Path 4995" d="M308.354,229.367l-8.008,3.353-1.616-1.911,8.008-3.36Z" transform="translate(-250.238 -189.285)" fill="#dbdbdb"/>
          <path id="Path_4996" data-name="Path 4996" d="M300.09,235.611l.744-.314-.564-.667Z" transform="translate(-250.726 -191.861)" fill="#dbdbdb"/>
          <path id="Path_4997" data-name="Path 4997" d="M307.512,229.6l-6.7,2.8-.032-.038,6.694-2.808Z" transform="translate(-250.974 -190.042)" fill="#fff"/>
          <path id="Path_4998" data-name="Path 4998" d="M307.257,230.308l-6.155,2.578-.032-.038,6.155-2.578Z" transform="translate(-251.078 -190.297)" fill="#fff"/>
          <path id="Path_4999" data-name="Path 4999" d="M306.538,229.158l-6.316,2.648-.032-.038,6.309-2.648Z" transform="translate(-250.762 -189.884)" fill="#fff"/>
          <path id="Path_5000" data-name="Path 5000" d="M306.934,228.358l-7,2.937-.032-.038,7-2.937Z" transform="translate(-250.658 -189.597)" fill="#fff"/>
          <path id="Path_5001" data-name="Path 5001" d="M307.765,230.515l-6.367,2.667-.038-.038,6.373-2.674Z" transform="translate(-251.182 -190.369)" fill="#fff"/>
          <path id="Path_5002" data-name="Path 5002" d="M314.875,237.1l-8.008,3.36-1.346-1.6,8.008-3.36Z" transform="translate(-252.674 -192.173)" fill="#36ccb4"/>
          <path id="Path_5003" data-name="Path 5003" d="M306.46,243.165l.744-.308-.564-.667Z" transform="translate(-253.012 -194.574)" fill="#36ccb4"/>
          <path id="Path_5004" data-name="Path 5004" d="M313.8,236.345l-7.091,2.969-.032-.038,7.091-2.975Z" transform="translate(-253.091 -192.46)" fill="#fff"/>
          <path id="Path_5005" data-name="Path 5005" d="M314.1,236.695l-7.1,2.969-.032-.038,7.091-2.975Z" transform="translate(-253.195 -192.586)" fill="#fff"/>
          <path id="Path_5006" data-name="Path 5006" d="M313.826,237.408l-6.527,2.738-.038-.045,6.534-2.731Z" transform="translate(-253.299 -192.844)" fill="#fff"/>
          <path id="Path_5007" data-name="Path 5007" d="M314.683,237.388l-7.091,2.975-.032-.045,7.091-2.969Z" transform="translate(-253.406 -192.837)" fill="#fff"/>
          <path id="Path_5008" data-name="Path 5008" d="M313.127,238.945l-5.245,2.193-.032-.038,5.238-2.2Z" transform="translate(-253.511 -193.393)" fill="#fff"/>
          <path id="Path_5009" data-name="Path 5009" d="M307.935,243.839c2.828.038-6.367-5.7-6.508-8.919s3-2.206,5.469-.385c8.585,6.3,15.068,5.995,19.415,12.028S307.935,243.839,307.935,243.839Z" transform="translate(-251.204 -191.216)" fill="#f7a9a0"/>
          <path id="Path_5010" data-name="Path 5010" d="M324.885,243.828a22.345,22.345,0,0,1,5.29,2.071,13.727,13.727,0,0,1,3.847,3.578c.051.058-.032.141-.083.083-2.321-2.853-5.771-4.277-9.047-5.655C324.814,243.886,324.834,243.809,324.885,243.828Z" transform="translate(-259.607 -195.161)" fill="#263238"/>
          <path id="Path_5011" data-name="Path 5011" d="M360.254,247.148c-2.2.6-17.523-3.61-17.523-3.61l-8.611,20.819s26.679,6.213,32.911,4.059,15.92-23.319,19.056-35.617c2.949-11.541-.981-19.1-9.233-7.123C376.854,225.676,361.4,246.834,360.254,247.148Z" transform="translate(-262.937 -186.472)" fill="#c3c3c3"/>
          <path id="Path_5012" data-name="Path 5012" d="M379.9,274.789c5.219-2.674,11.657-16.671,12.894-19.408.789-1.757,1.513-3.539,2.225-5.335,1.423-3.584,2.731-7.213,3.982-10.861,0-.064.109,0,.1.032q-1.032,4.219-2.469,8.335a31.551,31.551,0,0,0,1.706-3.206.051.051,0,0,1,.09.038,17.571,17.571,0,0,1-1.981,3.68c-.981,2.757-2.084,5.469-3.321,8.117-.353.763-7.8,17.9-13.625,19.485-2.033.551-8.976.051-10.438-.282-.064,0-.083-.1,0-.1C371.027,275.289,378.01,275.744,379.9,274.789Z" transform="translate(-275.454 -193.486)" fill="#263238"/>
          <path id="Path_5013" data-name="Path 5013" d="M342.72,277.193c.256-.718.526-1.436.789-2.148.532-1.436,3.744-9.951,5.129-12.612.038-.071.147,0,.128.058-.782,2.917-4.187,11.317-4.758,12.708-.289.705-.583,1.417-.885,2.122s-.686,1.379-.981,2.09c-.032.071-.141.038-.115-.032C342.291,278.662,342.464,277.911,342.72,277.193Z" transform="translate(-265.773 -201.827)" fill="#263238"/>
          <path id="Path_5014" data-name="Path 5014" d="M347.45,250.774c1.282.051,12.74,2.719,15.273,3.289a5.168,5.168,0,0,0,1.872.256,2.7,2.7,0,0,0,1.5-1.122c.821-.943,9.791-12.823,10.438-13.381.25-.218.442-.263.212.115-.4.641-9.117,12.343-9.913,13.266s-1.43,1.757-2.661,1.706c-.545,0-16.029-3.494-16.773-3.809C347.238,251.018,347.251,250.774,347.45,250.774Z" transform="translate(-267.662 -193.663)" fill="#263238"/>
          <path id="Path_5015" data-name="Path 5015" d="M390.481,216.247c2.334-.051,7.527-3.847,8.284-7.412.051-.244-.93-2.347-1.994-4.956-.641-1.59-1.321-3.373-1.821-5.046-.1-.34-9.72,5.687-9.72,5.687a27.922,27.922,0,0,1,2.937,6.117,4.124,4.124,0,0,1,.135.705,1.078,1.078,0,0,0,0,.115C388.494,212.855,387.993,216.323,390.481,216.247Z" transform="translate(-281.277 -179.011)" fill="#f7a9a0"/>
          <path id="Path_5016" data-name="Path 5016" d="M388.27,211.454a.958.958,0,0,0,0,.115,7.4,7.4,0,0,0,1.09-.263c6.13-1.981,5.444-10.195,5.168-12.246-1.782.827-9.348,5.572-9.348,5.572a27.773,27.773,0,0,1,2.937,6.117A3.649,3.649,0,0,1,388.27,211.454Z" transform="translate(-281.259 -179.098)" fill="#263238"/>
          <path id="Path_5017" data-name="Path 5017" d="M388.24,175.421c2.135,3.45,3.033,14.8,1,17.953-2.937,4.527-9.175,6.546-13.388,2.687-4.078-3.744-4.982-18.594-2.565-21.55C376.8,170.086,385.079,170.33,388.24,175.421Z" transform="translate(-276.515 -169.167)" fill="#f7a9a0"/>
          <path id="Path_5018" data-name="Path 5018" d="M383.54,192.17s.058.032.064.064c.038.763.212,1.635.923,1.834v.038C383.674,194.061,383.45,192.9,383.54,192.17Z" transform="translate(-280.663 -176.625)" fill="#263238"/>
          <path id="Path_5019" data-name="Path 5019" d="M384.156,190.824c1.218-.192,1.52,2.263.391,2.449S383.13,190.991,384.156,190.824Z" transform="translate(-280.664 -176.139)" fill="#263238"/>
          <path id="Path_5020" data-name="Path 5020" d="M376.363,193.205c0-.032-.051.038-.051.071.122.763.128,1.648-.532,1.988v.038C376.62,195.084,376.6,193.9,376.363,193.205Z" transform="translate(-277.886 -176.994)" fill="#263238"/>
          <path id="Path_5021" data-name="Path 5021" d="M375.01,192.1c-1.237.058-1.032,2.526.115,2.469S376.048,192.035,375.01,192.1Z" transform="translate(-277.307 -176.6)" fill="#263238"/>
          <path id="Path_5022" data-name="Path 5022" d="M384.64,187.976a9.2,9.2,0,0,1-.994-.218,1.6,1.6,0,0,1-.968-.417.519.519,0,0,1,0-.641,1.282,1.282,0,0,1,1.282-.295,1.924,1.924,0,0,1,1.193.686.558.558,0,0,1-.513.885Z" transform="translate(-280.321 -174.535)" fill="#263238"/>
          <path id="Path_5023" data-name="Path 5023" d="M373.379,189.342a9.922,9.922,0,0,0,.943-.372,1.654,1.654,0,0,0,.9-.571.526.526,0,0,0-.109-.641,1.282,1.282,0,0,0-1.282-.083,1.924,1.924,0,0,0-1.071.866.564.564,0,0,0,.622.8Z" transform="translate(-276.78 -174.965)" fill="#263238"/>
          <path id="Path_5024" data-name="Path 5024" d="M385.189,203.045c-.16.2-.314.468-.583.526a2.116,2.116,0,0,1-.846-.09s-.045,0,0,.038a1.026,1.026,0,0,0,1.019.295.814.814,0,0,0,.513-.744C385.272,203.007,385.189,203.007,385.189,203.045Z" transform="translate(-280.741 -180.518)" fill="#263238"/>
          <path id="Path_5025" data-name="Path 5025" d="M381.728,195.269a2.61,2.61,0,0,1-1.584,1.366,3.244,3.244,0,0,1-.93.154h-.353a.2.2,0,0,1-.173-.154h0a.309.309,0,0,1,0-.077h0v-.064c-.083-.59-.141-1.488-.141-1.488-.2.135-1.231.763-1.25.455a39.484,39.484,0,0,1,.039-7.976c0-.083.141-.083.141,0,.256,2.449.07,4.931.289,7.393a4.54,4.54,0,0,1,1.173-.519c.09,0,.077,1.738.135,1.994a3.642,3.642,0,0,0,2.565-1.167C381.7,195.153,381.766,195.2,381.728,195.269Z" transform="translate(-278.364 -174.922)" fill="#263238"/>
          <path id="Path_5026" data-name="Path 5026" d="M380.87,200.818a3.116,3.116,0,0,0,1.353.808,1.43,1.43,0,0,0,.846-.051c.59-.237.532-.8.365-1.282a3.379,3.379,0,0,0-.365-.692A4.007,4.007,0,0,1,380.87,200.818Z" transform="translate(-279.712 -179.292)" fill="#263238"/>
          <path id="Path_5027" data-name="Path 5027" d="M383,202.014a1.43,1.43,0,0,0,.846-.051c.59-.237.532-.8.365-1.282A1.436,1.436,0,0,0,383,202.014Z" transform="translate(-280.476 -179.679)" fill="#ff9bbc"/>
          <path id="Path_5028" data-name="Path 5028" d="M387.689,184.045c-2.007.212-2.622-4.674-2.622-4.674s-3.123-.038-5.3-3.95c0,0-3.488,3.1-6.854,3.046-5.283-.071-6.258-6.758-4.565-8.431,2.4-2.379,7.694-.385,7.694-.385s6.989-3.264,10,1.327a3.809,3.809,0,0,1,4.123,3.167C391,177.723,389.189,183.885,387.689,184.045Z" transform="translate(-274.945 -168.141)" fill="#263238"/>
          <path id="Path_5029" data-name="Path 5029" d="M392.6,182.889a6.835,6.835,0,0,1-4.18-1.449,5.129,5.129,0,0,1-1.924-4.3.067.067,0,0,0-.135,0,5.893,5.893,0,0,0,1.622,4.732,4.783,4.783,0,0,0,4.623,1.167.077.077,0,0,0-.006-.154Z" transform="translate(-281.67 -171.21)" fill="#263238"/>
          <path id="Path_5030" data-name="Path 5030" d="M400.228,173.4c-1.225-1.116-2.8-1.058-4.315-.75-.083,0-.051.16.032.135a4.283,4.283,0,0,1,4.129,1.423,5.341,5.341,0,0,1,.962,4,10.8,10.8,0,0,1-3.206,7.053.034.034,0,0,0,.045.051,10.8,10.8,0,0,0,3.616-7.745C401.529,176.134,401.35,174.429,400.228,173.4Z" transform="translate(-285.092 -169.553)" fill="#263238"/>
          <path id="Path_5031" data-name="Path 5031" d="M376.3,169.641a5.072,5.072,0,0,0-3.206-1.686,6.111,6.111,0,0,0-4.18,1.141,3.424,3.424,0,0,0-1.282,3.206,6.085,6.085,0,0,0,1.968,3.558l.045-.045a6.085,6.085,0,0,1-1.622-3.257,3.206,3.206,0,0,1,1.372-3.065c1.924-1.282,5.052-1.641,6.784.269a.086.086,0,0,0,.122-.122Z" transform="translate(-274.947 -167.926)" fill="#263238"/>
          <path id="Path_5032" data-name="Path 5032" d="M372.829,195.472c-1.282.058-2.372-1.455-2.462-3.379s.878-3.526,2.148-3.584,2.372,1.462,2.462,3.379S374.1,195.421,372.829,195.472Zm-.289-6.5c-1.013.045-1.776,1.436-1.706,3.1s.962,2.981,1.975,2.937,1.77-1.436,1.7-3.1-.955-2.981-1.968-2.937Z" transform="translate(-275.941 -175.311)" fill="#455a64"/>
          <path id="Path_5033" data-name="Path 5033" d="M383.824,194.931a3.494,3.494,0,1,1,3.1-3.623,3.373,3.373,0,0,1-3.1,3.623Zm-.289-6.5a3.026,3.026,0,1,0,2.917,2.892,2.917,2.917,0,0,0-2.93-2.892Z" transform="translate(-279.376 -175.116)" fill="#455a64"/>
          <path id="Path_5034" data-name="Path 5034" d="M379.466,192.758c-1.629-.539-2.327.064-2.334.071l-.282-.353a2.826,2.826,0,0,1,2.738-.16Z" transform="translate(-278.27 -176.592)" fill="#455a64"/>
          <path id="Path_5035" data-name="Path 5035" d="M390.323,191.638l-.1-.455c.3-.071,6.021-1.4,6.79-1.475a9.372,9.372,0,0,1,2.981,1.007l-.212.417a8.957,8.957,0,0,0-2.687-.962h-.032C396.491,190.233,392.855,191.054,390.323,191.638Z" transform="translate(-283.067 -175.74)" fill="#455a64"/>
          <path id="Path_5036" data-name="Path 5036" d="M396.78,190.723s1.6-4.123,3.411-3.635,1.205,6.046-.5,7.2a1.956,1.956,0,0,1-2.8-.4Z" transform="translate(-285.421 -174.787)" fill="#f7a9a0"/>
          <path id="Path_5037" data-name="Path 5037" d="M400.551,189.59c.032,0,.045,0,0,.045a5,5,0,0,0-1.757,3.623,1.09,1.09,0,0,1,1.507-.641c.039,0,0,.077,0,.077a1.212,1.212,0,0,0-1.193.725,5.82,5.82,0,0,0-.359,1.193c0,.135-.263.122-.25,0v-.038C398.056,192.86,398.775,190.193,400.551,189.59Z" transform="translate(-285.992 -175.7)" fill="#263238"/>
          <path id="Path_5038" data-name="Path 5038" d="M388.536,217.74h.038c-.289,2.193-.814,7.284,2.533,7.194a7.06,7.06,0,0,0,3.712-1.609,19.17,19.17,0,0,0,3.033-2.783,28.764,28.764,0,0,0,2.9-3.635c.032-.058.109,0,.077.064-.885,1.282-1.641,2.648-2.648,3.847a16.767,16.767,0,0,1-3.276,3.084,7,7,0,0,1-3.943,1.545,2.674,2.674,0,0,1-2.565-2.276A12.682,12.682,0,0,1,388.536,217.74Z" transform="translate(-282.331 -185.493)" fill="#263238"/>
        </g>
        <g id="freepik--character-1--inject-126" transform="translate(42.32 48.632)">
          <path id="Path_5039" data-name="Path 5039" d="M54.01,229.149H196.921V174.54H54.01v54.609Z" transform="translate(-47.842 -93.811)" fill="#2f8286"/>
          <path id="Path_5040" data-name="Path 5040" d="M252.65,273.361V259.71H241.09Z" transform="translate(-114.971 -124.372)" fill="#455a64"/>
          <rect id="Rectangle_403" data-name="Rectangle 403" width="126.029" height="1.039" transform="translate(14.606 90.174)" fill="#fff"/>
          <rect id="Rectangle_404" data-name="Rectangle 404" width="98.946" height="1.039" transform="translate(14.606 95.778)" fill="#fff"/>
          <rect id="Rectangle_405" data-name="Rectangle 405" width="115.302" height="1.039" transform="translate(14.606 106.985)" fill="#fff"/>
          <rect id="Rectangle_406" data-name="Rectangle 406" width="126.029" height="1.039" transform="translate(14.606 112.589)" fill="#fff"/>
          <rect id="Rectangle_407" data-name="Rectangle 407" width="126.029" height="1.039" transform="translate(14.606 118.187)" fill="#fff"/>
          <rect id="Rectangle_408" data-name="Rectangle 408" width="89.886" height="1.039" transform="translate(14.606 123.79)" fill="#fff"/>
          <path id="Path_5041" data-name="Path 5041" d="M75.705,70.507c-2.327,6.572-6.258,14.125-5.315,21.319.725,5.636,4.392,10.393,8.579,14,9.22,7.931,23.935,13.061,34.623,4.751,4.257-3.321,7.425-11.958,3.462-16.671-2.039-2.417-4.937-3.712-7.566-5.354a12.772,12.772,0,0,1-6.245-9.156c-1.34-7.893.859-12.708,2.456-20.325a5.533,5.533,0,0,0-.641-4.437,9.8,9.8,0,0,0-3.661-3.777,9.746,9.746,0,0,0-4.283-2.109c-3.392-.641-7.463,1.423-10.573,2.565a9.181,9.181,0,0,0-6.117,5.937C78.776,61.627,77.276,66.077,75.705,70.507Z" transform="translate(-53.668 -48.632)" fill="#263238"/>
          <path id="Path_5042" data-name="Path 5042" d="M72.894,77.4c2.526-5.912,5.129-11.766,7.758-17.639,0-.032.077,0,.058,0-1.994,4.9-3.924,9.816-5.989,14.683S70.291,83.986,68.7,88.923C65.1,100.015,75.183,108,84.82,110.338c.436.109.218.8-.218.641-8.4-2.308-17.478-8.162-17.254-17.953C67.476,87.666,70.823,82.229,72.894,77.4Z" transform="translate(-52.626 -52.62)" fill="#263238"/>
          <path id="Path_5043" data-name="Path 5043" d="M123.32,63.7a.1.1,0,1,1,.18.058c-1.577,6.207-3.995,13.3-2.122,19.69a16.254,16.254,0,0,0,5.322,8.015c2.013,1.635,4.431,2.456,6.694,3.655,8.842,4.693,5.085,17.421-3.244,20.306-.173.058-.289-.244-.115-.308,5.969-2.379,9.669-8.867,7.3-15.17-1.924-5.052-8.335-5.585-11.964-9.1C117.857,83.566,120.434,72.538,123.32,63.7Z" transform="translate(-71.68 -54.009)" fill="#263238"/>
          <path id="Path_5044" data-name="Path 5044" d="M162.724,77.179l-9.092,19.6A.75.75,0,0,0,154.1,98l10.605,2.013a1.744,1.744,0,0,0,1.686-.814l9.092-19.6a.744.744,0,0,0-.468-1.218l-10.624-2.02A1.744,1.744,0,0,0,162.724,77.179Z" transform="translate(-83.526 -58.579)" fill="#a6a6a6"/>
          <path id="Path_5045" data-name="Path 5045" d="M164.694,77.538l-9.092,19.6a.75.75,0,0,0,.468,1.225l10.624,2.013a1.776,1.776,0,0,0,1.686-.814l9.085-19.6A.75.75,0,0,0,177,78.737l-10.624-2.013A1.738,1.738,0,0,0,164.694,77.538Z" transform="translate(-84.233 -58.707)" fill="#dbdbdb"/>
          <path id="Path_5046" data-name="Path 5046" d="M173.125,79.709a.91.91,0,1,1-.124-.693A.917.917,0,0,1,173.125,79.709Z" transform="translate(-89.933 -59.384)" fill="#263238"/>
          <path id="Path_5047" data-name="Path 5047" d="M104.912,110.42c3.456,13.971,13.625,33.245,19.184,34.431,2.648.558,7.258,2.135,11.342-.218,8.919-5.129,17.793-16.594,20.518-23.614.975-2.5-10.509-10.618-12.785-8.88-5.341,4.071-12.33,12.753-13.093,12.541-2.808-.782-12.118-12.291-18.594-20.383C103.623,94.474,103.534,104.855,104.912,110.42Z" transform="translate(-65.865 -67.149)" fill="#d3766a"/>
          <path id="Path_5048" data-name="Path 5048" d="M185.482,103.033c-.289-5.521-1.212-6.893,1.026-11.682,1.462-3.148.083-5.431-2.783-3.244-4.693,3.571-5.822,10.778-5.495,13.388Z" transform="translate(-92.397 -62.486)" fill="#d3766a"/>
          <path id="Path_5049" data-name="Path 5049" d="M174.285,117.146s3.8-6.861,4.084-12.772c.186-4.091-.391-13.035-10.618-19.729-2.424-1.59-7.008-2.135-3.988,1.924,2.148,2.866,4.373,4.033,5.315,5.924,0,0-5.912,0-7.406,2.494a53.732,53.732,0,0,0-3.443,6.771,11.224,11.224,0,0,0,1.212.763s-1.327,2.372-.16,6.354Z" transform="translate(-85.239 -61.127)" fill="#d3766a"/>
          <path id="Path_5050" data-name="Path 5050" d="M175.468,103.651a32.166,32.166,0,0,0-7.585-7.245c-3.738-2.283-11.541-5.668-13.2-2.9-1.218,2.039,1.654,3.591,1.654,3.591s-3.526-.718-4.219,1.359c-.641,1.924,1.654,2.962,1.654,2.962s-2.212-.071-2.469,1.872c-.308,2.334,4.379,2.1,6.1,4.732C157.765,108.62,175.468,103.651,175.468,103.651Z" transform="translate(-82.748 -64.361)" fill="#d3766a"/>
          <path id="Path_5051" data-name="Path 5051" d="M168.888,103.32a17.4,17.4,0,0,0-9.714-3.7c-.09,0-.141.064-.058.083a43.049,43.049,0,0,1,9.752,3.648S168.907,103.332,168.888,103.32Z" transform="translate(-85.542 -66.928)" fill="#263238"/>
          <path id="Path_5052" data-name="Path 5052" d="M165.016,109.426a19.533,19.533,0,0,0-9.919-3.116c-.09,0-.135.071-.051.09A45.908,45.908,0,0,1,165,109.458S165.035,109.438,165.016,109.426Z" transform="translate(-84.08 -69.328)" fill="#263238"/>
          <path id="Path_5053" data-name="Path 5053" d="M109.5,127.782l12.041-13.2s-8.207-10.349-13.6-14.747c-3.02-2.481-4.982-.167-4.764,3.353C103.937,115.523,109.5,127.782,109.5,127.782Z" transform="translate(-65.48 -66.635)" fill="#36ccb4"/>
          <path id="Path_5054" data-name="Path 5054" d="M107.021,102.2a.705.705,0,1,1-.7-.7A.705.705,0,0,1,107.021,102.2Zm-.7,10.111a.705.705,0,1,0,.7.705.705.705,0,0,0-.7-.705Zm7.938,0a.705.705,0,1,0,.7.705.705.705,0,0,0-.7-.705Zm-3.969-5.36a.705.705,0,1,0,.7.7A.705.705,0,0,0,110.291,106.95Zm3.969,16.19a.291.291,0,1,0,0-.013Zm-3.969-5.379a.293.293,0,1,0,0-.013Zm7.938,0a.293.293,0,1,0,0-.013Zm-7.938,10.817.09.205.147-.16a.577.577,0,0,0-.237-.058Z" transform="translate(-66.357 -67.602)" fill="#fff"/>
          <path id="Path_5055" data-name="Path 5055" d="M122.124,121.207A118.286,118.286,0,0,0,111.75,132.2s.064.1.083.083c3-2.834,8.56-8.912,10.413-10.951C122.278,121.29,122.169,121.175,122.124,121.207Z" transform="translate(-68.56 -74.671)" fill="#263238"/>
          <path id="Path_5056" data-name="Path 5056" d="M120.165,116.1,109.5,127.777s-5.559-12.278-6.322-24.6c-.154-2.424.731-4.27,2.276-4.386Z" transform="translate(-65.479 -66.63)" opacity="0.1"/>
          <path id="Path_5057" data-name="Path 5057" d="M102.625,146.592H58.07s5.251-30.52,19.607-46.863a9.063,9.063,0,0,1,13.016-.68,30.9,30.9,0,0,1,3.206,3.674c3.02,3.847,7.951,13.189,8.406,15.7.763,4.168-2.917,8.662-2.917,8.662Z" transform="translate(-49.299 -65.85)" fill="#36ccb4"/>
          <path id="Path_5058" data-name="Path 5058" d="M83.549,102.2a.705.705,0,1,1-.7-.7A.705.705,0,0,1,83.549,102.2Zm7.239-.7a.705.705,0,1,0,.7.7.705.705,0,0,0-.7-.7Zm-15.85,10.81a.705.705,0,1,0,.7.705.705.705,0,0,0-.7-.705Zm7.938,0a.722.722,0,1,1-.026,0Zm7.938,0a.722.722,0,1,1-.026,0Zm7.938,0a.722.722,0,1,1-.026,0Zm-19.87-5.36a.705.705,0,1,0,.7.7A.705.705,0,0,0,78.882,106.95Zm7.938,0a.705.705,0,1,0,.7.7A.705.705,0,0,0,86.819,106.95Zm7.938,0a.705.705,0,1,0,.7.7.705.705,0,0,0-.7-.7ZM66.975,123.127h-.147q-.218.545-.423,1.1a.686.686,0,0,0,.571.295.705.705,0,0,0,0-1.4Zm7.938,0a.686.686,0,1,0,.026,0Zm7.938,0a.705.705,0,1,0,.7.7A.705.705,0,0,0,82.85,123.127Zm7.938,0a.705.705,0,1,0,.7.7A.705.705,0,0,0,90.788,123.127Zm7.938,0a.705.705,0,1,0,.7.7A.705.705,0,0,0,98.726,123.127Zm-27.782-5.379a.705.705,0,1,0,.7.705.705.705,0,0,0-.7-.705Zm7.938,0a.705.705,0,1,0,.7.705.705.705,0,0,0-.7-.705Zm7.938,0a.705.705,0,1,0,.7.705.705.705,0,0,0-.7-.705Zm7.938,0a.705.705,0,1,0,.7.705.705.705,0,0,0-.7-.705Zm8.29.1a.641.641,0,0,0-.353-.1.705.705,0,1,0,0,1.4.692.692,0,0,0,.641-.519ZM66.975,133.937a.705.705,0,1,0,.7.705.705.705,0,0,0-.7-.705Zm7.938,0a.686.686,0,1,0,.026,0Zm7.938,0a.705.705,0,1,0,.7.705.705.705,0,0,0-.7-.705Zm7.938,0a.705.705,0,1,0,.7.705.705.705,0,0,0-.7-.705Zm7.938,0a.705.705,0,1,0,.7.705.705.705,0,0,0-.7-.705Zm-27.782-5.373a.705.705,0,1,0,.7.7.705.705,0,0,0-.7-.7Zm7.938,0a.705.705,0,1,0,.7.7.705.705,0,0,0-.7-.7Zm7.938,0a.705.705,0,1,0,.7.7.705.705,0,0,0-.7-.7Zm7.938,0a.705.705,0,1,0,.7.7.705.705,0,0,0-.7-.7ZM66.975,144.779a.705.705,0,1,0,.7.7A.705.705,0,0,0,66.975,144.779Zm7.963,0a.705.705,0,1,0,.7.7A.705.705,0,0,0,74.938,144.779Zm7.938,0a.732.732,0,1,1-.026,0Zm7.938,0a.732.732,0,1,1-.026,0Zm7.938,0a.732.732,0,1,1-.026,0ZM63.032,139.4a.67.67,0,1,0-.026-.026Zm7.938,0a.67.67,0,1,0-.026-.026Zm7.938,0a.67.67,0,1,0-.026-.026Zm7.938,0a.67.67,0,1,0-.026-.026Zm7.938,0a.67.67,0,1,0-.026-.026Zm7.918,0a.705.705,0,0,0,0,1.4.725.725,0,0,0,.205,0Z" transform="translate(-50.824 -67.602)" fill="#fff"/>
          <path id="Path_5059" data-name="Path 5059" d="M105.1,141.49a40.86,40.86,0,0,0-5.963.981c-.968.25-1.924.539-2.879.853-.474.16-.949.3-1.43.436a6.277,6.277,0,0,1-1.532.289.038.038,0,1,0,0,.071,10.386,10.386,0,0,0,1.481,0,10.7,10.7,0,0,0,1.411-.263c.987-.244,1.962-.532,2.943-.789,1.988-.507,3.975-1.019,5.995-1.385C105.226,141.637,105.2,141.483,105.1,141.49Z" transform="translate(-61.921 -81.951)" fill="#263238"/>
          <path id="Path_5060" data-name="Path 5060" d="M113.909,144.133a44.614,44.614,0,0,0-4.982-.244c-.834,0-1.661.071-2.488.147-.4.038-.8.09-1.186.135s-.859.173-1.282.218c-.045,0-.045.077,0,.077.41-.038.827,0,1.244,0l1.244-.032,2.488-.058c1.661-.058,3.315-.1,4.976-.1A.076.076,0,0,0,113.909,144.133Z" transform="translate(-65.757 -82.812)" fill="#263238"/>
          <path id="Path_5061" data-name="Path 5061" d="M69.216,102.928c-12.253,12.83-27.468,39.65-24.435,44.985,3.36,5.937,21.011-12.33,20.46-13.2-.474-.744,5.63-16.889,10.06-28.7S72.243,99.754,69.216,102.928Z" transform="translate(-44.39 -66.638)" fill="#d3766a"/>
          <path id="Path_5062" data-name="Path 5062" d="M59.71,118.315l17.581,3.167s4.386-12.458,5.258-19.376c.487-3.847-1.789-4.033-4.655-1.975C67.859,107.344,59.71,118.315,59.71,118.315Z" transform="translate(-49.887 -66.644)" fill="#36ccb4"/>
          <path id="Path_5063" data-name="Path 5063" d="M83.535,102.2a.705.705,0,1,1-.7-.7A.705.705,0,0,1,83.535,102.2ZM66.961,112.31a.705.705,0,1,0,.7.705.705.705,0,0,0-.7-.705Zm7.938,0a.687.687,0,1,0,.026,0Zm-3.411-5.091c-.34.321-.68.641-1.007.962a.686.686,0,0,0,.449.16.7.7,0,0,0,.7-.705A.68.68,0,0,0,71.487,107.219Zm7.38-.269a.705.705,0,1,0,.7.7A.705.705,0,0,0,78.867,106.95Zm-15.875,10.8a.705.705,0,1,0,.7.705.705.705,0,0,0-.7-.705Zm7.938,0a.705.705,0,1,0,.7.705.705.705,0,0,0-.7-.705Zm7.938,0a.705.705,0,1,0,.7.705.705.705,0,0,0-.7-.705Z" transform="translate(-50.809 -67.602)" fill="#fff"/>
          <path id="Path_5064" data-name="Path 5064" d="M78.69,128.03a118.617,118.617,0,0,0-14.824-2.93s-.058.109,0,.115c3.995,1.026,12.1,2.5,14.811,2.975C78.69,128.2,78.69,128.043,78.69,128.03Z" transform="translate(-51.369 -76.07)" fill="#263238"/>
          <path id="Path_5065" data-name="Path 5065" d="M83.79,127.435c.725.064,1.443.154,2.161.25l-.147.09c.519-1.924,1.1-3.809,1.731-5.694s1.282-3.751,2.045-5.591c-.462,1.924-1.013,3.847-1.6,5.732s-1.225,3.777-1.924,5.636l-.045.115H85.9C85.207,127.787,84.489,127.621,83.79,127.435Z" transform="translate(-58.528 -72.981)" fill="#263238"/>
          <path id="Path_5066" data-name="Path 5066" d="M91,121.227a5.6,5.6,0,0,1,.6-1.109,7.149,7.149,0,0,1,.8-.987,2.494,2.494,0,0,1-.212.6,3.93,3.93,0,0,1-.314.551A4.18,4.18,0,0,1,91,121.227Z" transform="translate(-61.115 -73.928)" fill="#263238"/>
          <path id="Path_5067" data-name="Path 5067" d="M44.885,167.989c2.872,3.962,10.515,4.6,29.609,8.008,2.648.468,10.99-17.28,8.194-17.953-3.52-.814-17.363-3.206-18.4-3.27C55.541,154.383,42.917,165.3,44.885,167.989Z" transform="translate(-44.494 -86.715)" fill="#d3766a"/>
          <path id="Path_5068" data-name="Path 5068" d="M90.822,158.66s8.085,1.084,12.182,2.969a28.809,28.809,0,0,1,10.541,8.887c2.975,4.065,7.361,15.946,4.161,17.805-2.9,1.68-6.764-10.688-6.764-10.688s6.021,11.958,2.161,13.343-7.534-13.227-7.534-13.227,5.912,12.432,1.706,13.227c-3.206.6-7.252-12.445-7.252-12.445s5.008,10.72,1.763,11.477c-3.584.846-8.1-10.964-8.1-10.964-8.572.551-12.875-2.7-15.664-5.367C77.3,173.029,90.822,158.66,90.822,158.66Z" transform="translate(-56.449 -88.113)" fill="#d3766a"/>
          <path id="Path_5069" data-name="Path 5069" d="M126.428,181.59c.757,1.379,1.539,2.77,2.167,4.213s1.218,2.911,1.718,4.4a26.712,26.712,0,0,1,1.372,5.995,56.457,56.457,0,0,0-3.488-10.259c-.635-1.462-1.193-2.911-1.827-4.347Z" transform="translate(-73.807 -96.341)" fill="#263238"/>
          <path id="Path_5070" data-name="Path 5070" d="M118.253,185c.891,1.8,1.84,3.559,2.654,5.405s1.417,3.642,2.1,5.527c.051.147-.045.128-.1,0-.757-1.853-1.6-3.514-2.372-5.36s-1.481-3.725-2.321-5.533C118.2,185,118.234,185,118.253,185Z" transform="translate(-70.877 -97.564)" fill="#263238"/>
          <path id="Path_5071" data-name="Path 5071" d="M110.667,186.667a44.819,44.819,0,0,1,3.43,8.572c.051.147-.071.109-.128-.038-1.084-2.872-1.924-5.129-3.392-8.483C110.552,186.667,110.635,186.609,110.667,186.667Z" transform="translate(-68.138 -98.153)" fill="#263238"/>
          <path id="Path_5072" data-name="Path 5072" d="M62.076,156.877c1.282-.8,4.86-2.687,8.4-2.167a.032.032,0,1,1,0,.064,23.562,23.562,0,0,0-8.367,2.154C62.069,156.948,62.018,156.9,62.076,156.877Z" transform="translate(-50.727 -86.663)" fill="#263238"/>
          <path id="Path_5073" data-name="Path 5073" d="M97,91.516c.115.75,3.206,5.835,6.6,5.957,1.1.038,1.59-5.963,1.59-5.963l.135-.43,1.924-6.091-6.893-5.3L99.327,79s-.417,1.7-.91,3.847a1.361,1.361,0,0,1-.071.3,1.187,1.187,0,0,0-.064.34c-.077.314-.154.641-.231.962s-.109.487-.154.744-.1.513-.16.776A42.435,42.435,0,0,0,97,91.516Z" transform="translate(-63.268 -59.529)" fill="#d3766a"/>
          <path id="Path_5074" data-name="Path 5074" d="M99.21,82.809a12.823,12.823,0,0,0,6.918,8.271l1.924-6.091-6.893-5.3L100.12,79S99.717,80.686,99.21,82.809Z" transform="translate(-64.061 -59.529)" fill="#263238"/>
          <path id="Path_5075" data-name="Path 5075" d="M117.41,68.031c-.7,11.176-7.438,12.022-9.88,11.868-2.193-.141-9.618-.891-10.086-12.08s4.963-14.4,9.964-14.349S118.109,56.849,117.41,68.031Z" transform="translate(-63.417 -50.367)" fill="#d3766a"/>
          <path id="Path_5076" data-name="Path 5076" d="M124.553,71.13c-.263-.064-.487-.16-.737-.244a1.282,1.282,0,0,1-.7-.391.4.4,0,0,1,.051-.487.987.987,0,0,1,.994-.115,1.449,1.449,0,0,1,.853.641.43.43,0,0,1-.462.6Z" transform="translate(-72.618 -56.231)" fill="#263238"/>
          <path id="Path_5077" data-name="Path 5077" d="M113.965,70.042a6.254,6.254,0,0,0,.769-.077,1.282,1.282,0,0,0,.776-.224.4.4,0,0,0,.051-.481.975.975,0,0,0-.943-.34,1.449,1.449,0,0,0-.962.4.43.43,0,0,0,.308.718Z" transform="translate(-69.205 -55.905)" fill="#263238"/>
          <path id="Path_5078" data-name="Path 5078" d="M115.444,75.32s-.058.032-.064.058c-.045.763-.224,1.629-.93,1.821v.045C115.309,77.2,115.534,76.051,115.444,75.32Z" transform="translate(-69.529 -58.208)" fill="#263238"/>
          <path id="Path_5079" data-name="Path 5079" d="M114.454,73.993c-1.212-.205-1.532,2.238-.41,2.424S115.467,74.153,114.454,73.993Z" transform="translate(-69.135 -57.728)" fill="#263238"/>
          <path id="Path_5080" data-name="Path 5080" d="M113.475,73.954c-.231.109-.468.327-.731.321s-.494-.295-.641-.564h-.045a.9.9,0,0,0,.545,1.109c.449.122.827-.25,1.007-.705C113.629,74.05,113.571,73.9,113.475,73.954Z" transform="translate(-68.657 -57.63)" fill="#263238"/>
          <path id="Path_5081" data-name="Path 5081" d="M122.795,75.7s.058.038.051.071c-.128.757-.147,1.635.5,1.981V77.8C122.513,77.559,122.551,76.392,122.795,75.7Z" transform="translate(-72.469 -58.344)" fill="#263238"/>
          <path id="Path_5082" data-name="Path 5082" d="M123.6,74.609c1.231.077.987,2.526-.147,2.456S122.575,74.545,123.6,74.609Z" transform="translate(-72.493 -57.953)" fill="#263238"/>
          <path id="Path_5083" data-name="Path 5083" d="M124.8,74.93c.18.147.346.4.577.442s.487-.205.686-.442h.032c-.032.468-.231.943-.692.987s-.68-.391-.744-.866C124.646,74.969,124.723,74.872,124.8,74.93Z" transform="translate(-73.192 -58.062)" fill="#263238"/>
          <path id="Path_5084" data-name="Path 5084" d="M114.212,84.522c.147.212.282.481.551.551a1.962,1.962,0,0,0,.84-.045v.045a1.026,1.026,0,0,1-1.026.244.814.814,0,0,1-.468-.769A.066.066,0,0,1,114.212,84.522Z" transform="translate(-69.407 -61.504)" fill="#263238"/>
          <path id="Path_5085" data-name="Path 5085" d="M118.732,76.55s0,1.154-.038,1.686a2.892,2.892,0,0,1-2.7-1.193c-.038-.058.045-.109.09-.064a3.847,3.847,0,0,0,2.251.936c.051-.141-.109-1.975,0-1.968a4.539,4.539,0,0,1,1.186.417c0-2.411-.34-4.8-.282-7.194a.071.071,0,1,1,.141,0,38.849,38.849,0,0,1,.641,7.739C120,77.2,118.937,76.666,118.732,76.55Z" transform="translate(-70.08 -55.976)" fill="#263238"/>
          <path id="Path_5086" data-name="Path 5086" d="M117.733,82.5a2.789,2.789,0,0,1-1.225.705,1.282,1.282,0,0,1-.763-.051c-.526-.218-.468-.725-.308-1.141a2.994,2.994,0,0,1,.333-.641,3.571,3.571,0,0,0,1.962,1.128Z" transform="translate(-69.843 -60.379)" fill="#263238"/>
          <path id="Path_5087" data-name="Path 5087" d="M116.508,83.563a1.282,1.282,0,0,1-.763-.051c-.526-.218-.468-.725-.308-1.141A1.282,1.282,0,0,1,116.508,83.563Z" transform="translate(-69.843 -60.738)" fill="#ff9bbc"/>
          <path id="Path_5088" data-name="Path 5088" d="M97.276,66.541c2.02.641,3.443-3.995,3.443-3.995s9.111.167,11.214-6.873a12.375,12.375,0,0,0,4.879,7.809s1.173-7.938-4.783-10.643c0,0-7.213-4.283-12.734,1.045S95.891,66.1,97.276,66.541Z" transform="translate(-62.8 -49.557)" fill="#263238"/>
          <path id="Path_5089" data-name="Path 5089" d="M115.845,57.35a7.989,7.989,0,0,1-1.013,3.206,8.335,8.335,0,0,1-2.212,2.565,7.657,7.657,0,0,1-.705.487l-.365.231-.378.186c-.263.122-.519.25-.782.359l-.808.256c-.141.038-.269.09-.41.122l-.417.077-.834.154c-.558.045-1.122.064-1.68.077.551-.128,1.1-.192,1.641-.327l.8-.212.4-.109c.128-.045.256-.1.385-.154.25-.1.507-.205.763-.295a6.436,6.436,0,0,0,.725-.372l.359-.186.34-.231a7.726,7.726,0,0,0,.641-.462,9.483,9.483,0,0,0,2.212-2.392,9.208,9.208,0,0,0,.782-1.443,9.406,9.406,0,0,0,.564-1.539Z" transform="translate(-66.583 -51.76)" fill="#263238"/>
          <path id="Path_5090" data-name="Path 5090" d="M97.792,74.956s-1.924-3.847-3.6-3.206-.641,5.912,1.109,6.873a1.924,1.924,0,0,0,2.661-.641Z" transform="translate(-61.957 -56.901)" fill="#d3766a"/>
          <path id="Path_5091" data-name="Path 5091" d="M95.21,74.16V74.2a4.793,4.793,0,0,1,2,3.334,1.039,1.039,0,0,0-1.494-.519c-.038,0,0,.077,0,.077a1.173,1.173,0,0,1,1.212.59,6.264,6.264,0,0,1,.455,1.116c.038.128.256.1.231-.045C97.884,77.084,96.948,74.59,95.21,74.16Z" transform="translate(-62.625 -57.792)" fill="#263238"/>
          <path id="Path_5092" data-name="Path 5092" d="M97.687,81.688a.455.455,0,1,1-.34-.545A.455.455,0,0,1,97.687,81.688Z" transform="translate(-63.192 -60.293)" fill="#fff"/>
          <path id="Path_5093" data-name="Path 5093" d="M96.387,80.267a.328.328,0,1,1-.641-.141.333.333,0,0,1,.4-.25.327.327,0,0,1,.244.391Z" transform="translate(-62.815 -59.84)" fill="#fff"/>
          <path id="Path_5094" data-name="Path 5094" d="M93.766,73.361l-.725-.231a.192.192,0,0,1-.128-.25V72.8a.2.2,0,0,1,.25-.128l.718.231a.192.192,0,0,1,.128.25v.077a.192.192,0,0,1-.244.128Z" transform="translate(-61.797 -57.255)" fill="#36ccb4"/>
          <rect id="Rectangle_409" data-name="Rectangle 409" width="1.154" height="0.481" rx="0.24" transform="translate(30.928 16.22) rotate(5.53)" fill="#36ccb4"/>
          <path id="Path_5095" data-name="Path 5095" d="M87.72,99.488s9.162,5.495,13.131,5.014a4.193,4.193,0,0,0,3.847-3.437,12.753,12.753,0,0,0-10.086-4.488C91.144,96.724,87.72,99.488,87.72,99.488Z" transform="translate(-59.938 -65.834)" fill="#d3766a"/>
        </g>
      </g>
      <rect id="Rectangle_410" data-name="Rectangle 410" width="44" height="12" transform="translate(158 175)" fill="#2f8286"/>
    </g>
  </g>
</svg>
