<svg xmlns="http://www.w3.org/2000/svg" xmlns:xlink="http://www.w3.org/1999/xlink" width="270.081" height="263.489" viewBox="0 0 270.081 263.489">
  <defs>
    <clipPath id="clip-path">
      <path id="Path_3606" data-name="Path 3606" d="M276.981,216.137a.859.859,0,0,0,0-.13,14.724,14.724,0,0,0-.74-4.635,53.314,53.314,0,0,0-1.348-5.543,13.073,13.073,0,0,0-6.026-7.851,5,5,0,0,0-.595-.363.546.546,0,0,0-.132-.078l-.139-.071c-3.767-2.036-8-1.083-11.233.363a10.447,10.447,0,0,0-4.064,3.19,15.838,15.838,0,0,0-2.934,5.1,14.963,14.963,0,0,0-2.247,16.343,21.474,21.474,0,0,0,.192,2.347c0,.1.159.084.159,0v-1.64a12.271,12.271,0,0,0,.661,1.05v.8c0,.376.568.784,1.533,1.193a15.687,15.687,0,0,0,23.253-.35,15.666,15.666,0,0,0,2.709-1.582c.416-.3.548-1.945.43-4.24a12.325,12.325,0,0,0,.37-1.64c.185,1.705.33,3.417.469,5.128,0,.123.2.11.2,0a71.968,71.968,0,0,0-.515-7.391Zm-5.134-15.151c-.139-.2-.291-.4-.436-.583a15.726,15.726,0,0,1,3.482,6.826c.172.648.33,1.335.476,2a15.1,15.1,0,0,0-.846-1.446h0A22.887,22.887,0,0,0,271.847,200.986Z" transform="translate(-246.05 -196.297)" fill="none"/>
    </clipPath>
    <clipPath id="clip-path-2">
      <path id="Path_3628" data-name="Path 3628" d="M286.967,139.522a15.279,15.279,0,0,1-12.743,14.96,15.534,15.534,0,0,1-17.263-9.658,15.058,15.058,0,0,1,6.634-18.378c.72-2.269,2.584-4.428,6.74-5.452,8.134-1.99,9.912,3.767,10.11,4.389h0a21.857,21.857,0,0,1,.72,2.256A15.012,15.012,0,0,1,286.967,139.522Z" transform="translate(-255.987 -120.578)" fill="none"/>
    </clipPath>
  </defs>
  <g id="Group_123" data-name="Group 123" transform="translate(-58 -74.511)">
    <g id="Online_Review-cuate" data-name="Online Review-cuate" transform="translate(15.276 33.211)">
      <g id="freepik--background-complete--inject-207" transform="translate(145.327 70.498)">
        <g id="freepik--xsrjP0--inject-207" transform="translate(0 0)">
          <path id="Path_3492" data-name="Path 3492" d="M211.793,106.774c-.515-.318-.958-.778-1.652-.713-.264,0-.2-.188-.2-.331V98.1a.413.413,0,0,1,.218-.441c1.982-.979,2.835-2.9,4.051-4.538a7.483,7.483,0,0,0,1.434-5.77c-.079-.577.192-.83.72-.947a1.336,1.336,0,0,1,1.474.454,10.085,10.085,0,0,1,1.137,3.332,11.7,11.7,0,0,1-.363,2.859c-.092.7-.258,1.394-.39,2.1.172.123.377.058.562.058h6.568c.925,0,1.374.259,1.507.856a1.722,1.722,0,0,1-.958,1.867c-.159.078-.456,0-.476.259s.284.227.436.331c.793.538.661,1.634-.271,2.269-.225.156-.661.084-.661.4s.4.253.575.428a1.424,1.424,0,0,1-.661,2.25,3.857,3.857,0,0,0-.383.143c-.112.071-.218.156,0,.3a1.264,1.264,0,0,1,0,2.269l-.284.2a1.906,1.906,0,0,1-1.156.246h-10.3a1.226,1.226,0,0,1-.919-.253Z" transform="translate(-202.046 -86.338)" fill="#dbdbdb" fill-rule="evenodd"/>
          <path id="Path_3493" data-name="Path 3493" d="M198,108.045V103.2c0-.324,0-.486.443-.486h6.026c.4,0,.456.13.456.473v9.724c0,.408-.112.532-.535.519h-5.841c-.489,0-.555-.162-.548-.577Z" transform="translate(-197.999 -92.096)" fill="#dbdbdb" fill-rule="evenodd"/>
        </g>
        <g id="freepik--xsrjp0--inject-207-2" data-name="freepik--xsrjp0--inject-207" transform="translate(136.607 88.233)">
          <path id="Path_3494" data-name="Path 3494" d="M419.81,223.727c.515.318.965.778,1.652.713.264,0,.2.188.211.331v7.63c0,.182,0,.337-.211.441-1.982.979-2.841,2.9-4.057,4.538a7.508,7.508,0,0,0-1.434,5.77c.086.577-.192.83-.714.947a1.336,1.336,0,0,1-1.48-.454,10.072,10.072,0,0,1-1.13-3.332,11.682,11.682,0,0,1,.357-2.859c.092-.7.258-1.387.4-2.1-.178-.123-.377-.058-.562-.058h-6.575c-.925,0-1.374-.259-1.5-.856a1.716,1.716,0,0,1,.952-1.867c.165-.078.463,0,.482-.259s-.291-.227-.436-.331c-.793-.538-.661-1.634.271-2.269.218-.156.661-.084.661-.4s-.39-.253-.575-.428a1.428,1.428,0,0,1,.661-2.25,2.928,2.928,0,0,0,.383-.143c.112-.071.218-.156,0-.3a1.268,1.268,0,0,1,0-2.269l.284-.2a1.906,1.906,0,0,1,1.156-.246h10.3A1.226,1.226,0,0,1,419.81,223.727Z" transform="translate(-404.734 -222.8)" fill="#dbdbdb" fill-rule="evenodd"/>
          <path id="Path_3495" data-name="Path 3495" d="M438.775,227.853V232.7c0,.324,0,.486-.443.486q-3.013-.039-6.026,0c-.4,0-.456-.13-.456-.473v-9.757c0-.408.112-.525.535-.519h5.848c.482,0,.548.162.548.577C438.762,224.618,438.775,226.232,438.775,227.853Z" transform="translate(-413.932 -222.44)" fill="#dbdbdb" fill-rule="evenodd"/>
        </g>
        <path id="Path_3496" data-name="Path 3496" d="M291.81,284.69v89.017h54.845V284.69Zm49.856,56.148H296.786V317.675h44.881Zm0-28.68H296.786V288.995h44.881Z" transform="translate(-229.821 -156.101)" fill="#ebebeb"/>
        <rect id="Rectangle_169" data-name="Rectangle 169" width="21.925" height="88.984" transform="translate(116.821 128.589)" fill="#dbdbdb"/>
        <rect id="Rectangle_170" data-name="Rectangle 170" width="10.665" height="23.163" transform="translate(66.971 132.888)" fill="#dbdbdb"/>
        <path id="Path_3497" data-name="Path 3497" d="M344.527,401.509H299.27V378.78h45.257Zm-44.6-.648h43.936V379.428H299.931Z" transform="translate(-232.352 -189.193)" fill="#dbdbdb"/>
        <rect id="Rectangle_171" data-name="Rectangle 171" width="8.855" height="4.395" transform="translate(83.246 196.122)" fill="#dbdbdb"/>
        <path id="Path_3498" data-name="Path 3498" d="M336.962,393.252H327.44V388.87h9.522ZM328.1,392.6h8.2v-3.086h-8.2Z" transform="translate(-241.907 -192.742)" fill="#dbdbdb"/>
        <rect id="Rectangle_172" data-name="Rectangle 172" width="10.665" height="23.163" transform="translate(66.971 161.574)" fill="#dbdbdb"/>
      </g>
      <g id="freepik--Floor--inject-207" transform="translate(67.692 287.65)">
        <path id="Path_3499" data-name="Path 3499" d="M80.51,421.618l29.365-.156,29.359-.058,58.731-.1,58.724.1,29.365.058,29.365.156-29.365.162-29.365.058-58.724.1-58.731-.1-29.359-.058Z" transform="translate(-80.51 -421.3)" fill="#263238"/>
      </g>
      <g id="freepik--Puff--inject-207" transform="translate(42.723 168.027)">
        <path id="Path_3500" data-name="Path 3500" d="M70.263,371.332l108.369.46c26.339-20.3,29.075-50.366,10.269-68.589-11.372-11.021-25.817-8.8-39.568-10.554h-.04a41.066,41.066,0,0,1-13.949-4.013C121.183,281.3,113.2,264,101.287,249.473c-1.487-1.822-3.04-3.6-4.665-5.3-9.8-10.262-29.3-10.6-39.5,3.831C31.223,284.656,43.1,339.223,70.263,371.332Z" transform="translate(-42.723 -236.779)" fill="#32e0c4"/>
        <path id="Path_3501" data-name="Path 3501" d="M80.674,292.929c2.841,43.623,54.184,59.909,86.266,46.839,27.885-11.365,18.76-37.3-4.777-41.64h-.053a41.064,41.064,0,0,1-13.949-4.013C134,286.783,126.018,269.48,114.1,254.952,96.368,245.9,78.593,260.988,80.674,292.929Z" transform="translate(-55.54 -242.258)" fill="#36ccb4"/>
      </g>
      <g id="freepik--Character--inject-207" transform="translate(78.221 141.756)">
        <path id="Path_3502" data-name="Path 3502" d="M198.566,405.85c-1.5-.538-35.392-27.118-36.033-28.933-.251-.687,3.41-5.757,8.009-11.76.991-1.3,2.022-2.593,3.079-3.974,6.852-8.758,14.326-17.893,14.326-17.893l22.724,17.718-14.947,17.4-3.3,3.825s8.339,15.87,8.822,17.932S200.066,406.388,198.566,405.85Z" transform="translate(-118.859 -247.969)" fill="#ad6359"/>
        <path id="Path_3503" data-name="Path 3503" d="M198.567,415.557c-1.5-.538-35.392-27.118-36.033-28.933-.3-.836,5.161-8.149,11.088-15.734l22.1,17.225-3.3,3.825s8.339,15.87,8.822,17.932S200.067,416.1,198.567,415.557Z" transform="translate(-118.859 -257.676)" fill="#fff"/>
        <path id="Path_3504" data-name="Path 3504" d="M198.566,417.713c-1.5-.538-35.392-27.118-36.033-28.933-.251-.687,3.41-5.757,8.009-11.76l21.9,17.076s8.339,15.87,8.822,17.932S200.066,418.251,198.566,417.713Z" transform="translate(-118.859 -259.832)" fill="#2f8286"/>
        <path id="Path_3505" data-name="Path 3505" d="M200.337,422.645c-5.57-4.59-28.48-22.6-34.361-26.723-.053-.032-.073,0,0,.039,5.418,4.668,28.48,22.489,34.295,26.774C200.37,422.827,200.436,422.743,200.337,422.645Z" transform="translate(-120.014 -266.476)" fill="#2f8286"/>
        <path id="Path_3506" data-name="Path 3506" d="M215.12,425.811a5.913,5.913,0,0,0-4.507-1.3,5.653,5.653,0,0,0-3.694,1.984c0,.033.033.084.066.052a6.855,6.855,0,0,1,8.075-.648.056.056,0,0,0,.076-.016A.053.053,0,0,0,215.12,425.811Z" transform="translate(-133.919 -276.519)" fill="#263238"/>
        <path id="Path_3507" data-name="Path 3507" d="M206.1,405.48c-2.253-1.815-5.531-3.092-8.432-2.379-.112.032-.066.188,0,.207a40.921,40.921,0,0,1,8.22,2.476.19.19,0,0,0,.261-.049A.182.182,0,0,0,206.1,405.48Z" transform="translate(-130.757 -268.934)" fill="#36ccb4"/>
        <path id="Path_3508" data-name="Path 3508" d="M207.92,408.6c-2.247-1.815-5.524-3.092-8.425-2.379-.112.032-.066.188,0,.207a41.051,41.051,0,0,1,8.24,2.5.194.194,0,0,0,.261-.075.187.187,0,0,0-.076-.256Z" transform="translate(-131.377 -270.032)" fill="#36ccb4"/>
        <path id="Path_3509" data-name="Path 3509" d="M209.749,411.8c-2.247-1.815-5.524-3.092-8.425-2.379-.112,0-.073.188,0,.2a41.3,41.3,0,0,1,8.214,2.483.19.19,0,0,0,.261-.049A.182.182,0,0,0,209.749,411.8Z" transform="translate(-131.997 -271.157)" fill="#36ccb4"/>
        <path id="Path_3510" data-name="Path 3510" d="M211.579,414.96c-2.247-1.815-5.524-3.092-8.425-2.379-.112,0-.073.182,0,.2a40.884,40.884,0,0,1,8.214,2.483.19.19,0,0,0,.261-.049.182.182,0,0,0-.05-.256Z" transform="translate(-132.618 -272.268)" fill="#36ccb4"/>
        <path id="Path_3511" data-name="Path 3511" d="M172.613,389.211c-2.557-1.99-5.716,1.906-3.159,3.89S175.176,391.208,172.613,389.211Z" transform="translate(-120.889 -263.926)" fill="#263238"/>
        <path id="Path_3512" data-name="Path 3512" d="M215.947,399.68c-.383-1.841-2.584-2.062-4.084-1.647a15.338,15.338,0,0,0-6.714,4.084.077.077,0,0,0,0,.123.338.338,0,0,0,0,.317.35.35,0,0,0,.264.182c2.511.169,5.181.648,7.672.065C214.559,402.487,216.317,401.418,215.947,399.68Zm-6.648,2.554c-1.242-.052-2.471-.169-3.707-.182,1.322-.791,2.577-1.634,3.965-2.3a17.1,17.1,0,0,1,2.055-.849c1.1-.35,4.85-.467,3.1,2.139-.958,1.446-3.938,1.258-5.412,1.193Z" transform="translate(-133.305 -267.16)" fill="#36ccb4"/>
        <path id="Path_3513" data-name="Path 3513" d="M194.944,396.289c1.738,1.848,4.229,2.9,6.416,4.123a.356.356,0,0,0,.323-.008.343.343,0,0,0,.179-.264c.046,0,.093,0,.086-.084a14.827,14.827,0,0,0-3.271-7.06c-1.011-1.167-2.96-2.178-4.328-.862S193.927,395.206,194.944,396.289Zm-.337-2.347c0-3.125,3.073-.979,3.786-.1a15.616,15.616,0,0,1,1.222,1.835,38.821,38.821,0,0,1,1.982,4.078c-1.037-.648-2.121-1.245-3.185-1.874C197.191,397.132,194.594,395.66,194.607,393.942Z" transform="translate(-129.424 -264.929)" fill="#36ccb4"/>
        <path id="Path_3514" data-name="Path 3514" d="M218.485,307.053c-.04,3.332-3.436,9.413-8.088,16.207-8.947,13.089-22.566,28.81-25.929,32.648l-.767.869-24.066-18.152.278-.35L181.1,311.047l-63.224-.363,24.006-18.314s1.949,1.1,5.993.519c13.956-2,45.416-6.438,52.83-6.146C210.278,287.144,218.63,296.331,218.485,307.053Z" transform="translate(-103.715 -228.076)" fill="#fbfbfb"/>
        <path id="Path_3515" data-name="Path 3515" d="M231.974,336.467c-8.947,13.089-22.566,28.81-25.929,32.648L181.49,351.488l21.191-27.228Z" transform="translate(-125.293 -241.276)" fill="#263238"/>
        <path id="Path_3516" data-name="Path 3516" d="M220.645,308.638a27.733,27.733,0,0,0-2.187,2.749l-2.253,2.878v.032c.132-.285.264-.571.4-.849.469-.959.846-1.945,1.407-2.865a.05.05,0,1,0-.086-.052c-.575.908-1.242,1.776-1.731,2.736-.231.447-.449.908-.661,1.368-.112.253-.231.512-.33.765-.046.123-.1.246-.139.376-.33.447-.661.895-.985,1.355-.714,1.011-1.322,2.081-2.068,3.092-.04.052.053.1.092.052.727-.946,1.546-1.828,2.293-2.768s1.474-1.945,2.181-2.93,1.368-1.945,2.062-2.9a29.651,29.651,0,0,0,2.081-2.989.045.045,0,0,0-.017-.062.046.046,0,0,0-.063.016Z" transform="translate(-135.644 -235.774)" fill="#263238"/>
        <path id="Path_3517" data-name="Path 3517" d="M130.4,251.332c4.48,5.413,20.749,20.888,30.9,23.157,5.6,1.251,32.643,4.966,36.343,1.653,4.348-3.89,2.333-18.483-1.123-18.619-10.533-.408-30.026,1.614-34.9.564-2.207-.48-13.876-7.87-26.352-13.776C130.595,242.075,127.377,247.65,130.4,251.332Z" transform="translate(-107.562 -212.977)" fill="#ad6359"/>
        <path id="Path_3518" data-name="Path 3518" d="M191.785,255.927s-.059.564-.159,1.523a1.9,1.9,0,0,1-.046.5c-.059.551-.126,1.2-.2,1.912v.253q-.086.895-.2,1.906c0,.162-.04.331-.053.5-.066.616-.139,1.258-.2,1.913v.253c-.073.648-.139,1.3-.211,1.945,0,.162-.04.331-.053.493-.073.648-.145,1.3-.218,1.912a.668.668,0,0,1-.033.253c-.073.648-.145,1.3-.218,1.912l-.059.493c-.053.408-.1.81-.145,1.2-.033.24-.066.48-.092.713v.253q-.073.545-.139,1.05c-.04.3-.079.59-.112.862a2.952,2.952,0,0,1-.079.493c-.132.888-.244,1.556-.344,1.945a.914.914,0,0,1-.086.253s-.033.039-.046.039l-.337-.039-.938-.1-.509-.052-1.084-.1-.859-.084H185.1l-1.943-.195-.509-.052-1.943-.194h-.264l-1.943-.2-.509-.052-1.943-.207h-.264l-1.943-.207-.509-.058-1.943-.22h-.264l-1.943-.227-.509-.058-.416-.052-1.526-.188-.264-.032-1.943-.253H164.4l-.383-.052-1.943-.272-.264-.039q-1.051-.156-1.943-.311l-.509-.091c-.767-.136-1.427-.266-1.943-.4l-.264-.065-.139-.039a8.274,8.274,0,0,1-1.559-.648l-.244-.123-.238-.13-.271-.149c-.6-.35-1.249-.759-1.943-1.232-.086-.052-.172-.117-.264-.182l-.5-.35-.694-.493-.747-.551-.509-.382-1.255-.979-.324-.253-.363-.292-.264-.214-.35-.279c-.449-.37-.912-.739-1.368-1.128a2.894,2.894,0,0,1-.225-.188l-.37-.3-.139-.117c-.661-.545-1.322-1.1-1.943-1.66l-.159-.136-.106-.091-.185-.162-1.758-1.549-.41-.363-.1-.091-.463-.408c-.5-.447-1-.9-1.487-1.348l-.37-.4-.357-.324-.277-.253-1.322-1.212-.509-.473-.244-.227-.535-.5-1.17-1.1-.258-.246-.581-.557-.271-.259-1.084-1.076-.5-.493-.363-.35-.423-.421-.073-.078a10.693,10.693,0,0,1-1.09-1.264c-.093-.117-.178-.24-.258-.363s-.126-.188-.185-.279a2.1,2.1,0,0,1-.159-.259,8.764,8.764,0,0,1-.879-1.906,4.782,4.782,0,0,1-.152-.5,6.271,6.271,0,0,1-.211-1.906v-.259a3.71,3.71,0,0,1,.72-1.906,3.2,3.2,0,0,1,.489-.5,2.8,2.8,0,0,1,.35-.253,2.417,2.417,0,0,1,.258-.149,4.557,4.557,0,0,1,1.949-.46h.529a9.485,9.485,0,0,1,1.639.22h0l.311.078a1.875,1.875,0,0,1,.258.065,15.365,15.365,0,0,1,1.526.493l.423.169.509.214.251.117c.337.149.661.318,1.044.506l.661.331.258.136,1.777.934.172.091.317.169a1.789,1.789,0,0,1,.192.1c.661.344,1.322.694,1.943,1.044l.264.143,1.123.648.819.454.086.045.423.233,1.943,1.083.264.149.786.441.463.259.661.389.509.292,1.943,1.089.238.136h0l.859.486,1.084.6.509.285,1.89,1.024h.053l.264.136.185.1c.661.331,1.222.648,1.758.888l.509.233a13.113,13.113,0,0,0,1.943.759h.1l.165.039a2.457,2.457,0,0,0,.278.045,16.1,16.1,0,0,0,1.665.032h.509c.568,0,1.222,0,1.943-.058h.264l.786-.032,1.156-.052h.509l1.943-.1h.264l1.943-.11h.509l1.943-.117h.264l1.943-.117.509-.032,1.943-.123h.264l1.943-.13.509-.032,1.943-.13h.264l1.943-.13.509-.039,1.943-.136h.264Z" transform="translate(-106.976 -212.657)" fill="#2f8286"/>
        <path id="Path_3519" data-name="Path 3519" d="M129.4,243.35v8.279c-.092-.117-.178-.24-.258-.363v-7.779A2.424,2.424,0,0,1,129.4,243.35Zm4.4-.156v12.92l.258.246v-13.1a1.874,1.874,0,0,0-.251-.065Zm-2.452-.3v10.852l.5.493V242.89Zm4.659,1.031v14.262l.509.473V244.135Zm2.452,1.167v15.377l.258.233V245.224Zm4.659,2.476v17.044l.106.091.159.136V247.707Zm-2.134-1.147-.317-.169v16.285h.1l.41.363V246.52a1.79,1.79,0,0,0-.192-.1Zm4.427,2.405-.086-.045v17.718l.139.117.37.3v-17.86Zm2.366,1.3v18.373l.264.214V250.287Zm4.9,2.755-.238-.136V272c.092.065.178.13.264.182V252.893Zm-2.689-1.485v18.872l.509.383V251.668Zm4.659,2.593v19.6h.271l.238.13V254.261Zm2.452,1.335v19.2l.264.065V255.46Zm4.758,2.139h-.1v17.919l.264.039V257.464Zm-2.551-1.018V274.98l.509.091V256.679Zm4.625,1.135v18.152h.509V257.567Zm2.452-.071v18.522l.264.032V257.5Zm4.626-.227v19.3h.264V257.269Zm-2.452.13V276.29l.509.058V257.386Zm4.626-.253v19.669l.509.058V257.133Zm2.452-.143v20.1h.264v-20.1Zm4.659-.292V277.58h.264V256.705Zm-2.452.156v20.447l.509.052V256.848Zm4.659-.3v21.225l.509.052v-21.27Zm2.452-.162V278.04h.264V256.394Zm4.659-.324v18.8q.066-.506.139-1.05v-.253a5.4,5.4,0,0,1,.092-.713v-16.8Zm-2.452.175v22l.509.052V256.225Zm-1.084,21.893,1.084.1.509.052.938.1h.383a.916.916,0,0,0,.086-.253Zm-21.806-2.405h.126l1.943.253.264.032,1.526.188h21.39a2.72,2.72,0,0,1,.079-.493Zm-9.429-2.165.238.13.244.123h34.526v-.253Zm-6.509-4.57.324.253h41.629a.668.668,0,0,1,.033-.253Zm2.835,2.165.694.493h38.18l.059-.493Zm-5.775-4.538.37.3a2.9,2.9,0,0,0,.225.188h44.656a4.159,4.159,0,0,1,.053-.493Zm-2.531-2.165.185.162.106.091h47.682v-.253Zm-5.108-4.57.278.253h53.286V259.9Zm2.379,2.159.463.408v.091h50.471a4.125,4.125,0,0,1,.053-.5Zm27.257-4.57-.786.032h-.264c-.72,0-1.374.052-1.943.058h-.509a16.106,16.106,0,0,1-1.665-.032,2.463,2.463,0,0,1-.278-.045v-.039H135.225l.535.5h55.85c0-.175.033-.344.046-.5Zm-10.1-2-.264-.136H132.946l.271.259H157.54Zm-8.451-4.745H128.8a2.105,2.105,0,0,0,.159.259h20.332Zm3.872,2.178H130.5l.073.078.423.421h22.572Zm-7.374-4.123-.819-.454H127.765a4.781,4.781,0,0,0,.152.5h17.491Zm-4.659-2.528-.172-.091H127.58v.259h13.427Zm-4.15-2.113L136,243.94l-.423-.169h-6.793a3.194,3.194,0,0,0-.489.5h8.465Z" transform="translate(-107.006 -212.657)" fill="#fff" opacity="0.2"/>
        <path id="Path_3520" data-name="Path 3520" d="M147.4,268.249c-6.3-5.109-13.513-11.942-16.863-15.261-4.625-4.57-4.143-11.416,2.927-9.861h0C135.392,246.252,143.777,261.591,147.4,268.249Z" transform="translate(-106.987 -212.662)" fill="#263238"/>
        <path id="Path_3521" data-name="Path 3521" d="M217.22,266.052c0-.058-.086-.078-.1,0-.3,1.5-.429,3.047-.6,4.57s-.337,3.144-.482,4.726c-.284,3.138-.621,6.3-.727,9.459a.106.106,0,0,0,.2,0c.482-3.1.74-6.25,1.037-9.368.145-1.543.291-3.092.4-4.642S217.24,267.628,217.22,266.052Z" transform="translate(-136.765 -220.786)" fill="#263238"/>
        <path id="Path_3522" data-name="Path 3522" d="M138.54,290.488a3.271,3.271,0,0,1-1.051.331l-.264.052-.661.136-1.255.22-.2.032-.3.045-1.943.3-.264.032c-.615.1-1.262.188-1.943.285l-.509.071-1.943.266-.264.032-1.943.259-.509.065-1.943.246-.264.032-.786.1-1.156.149h-.225a.719.719,0,0,0-.284.039l-1.943.233-.264.032-1.645.194-.3.032-.509.065-1.943.233-.264.032-1.943.22-.509.058-1.943.22-.264.032-1.943.22a3.3,3.3,0,0,0-.509.058l-1.943.207-.264.032h-.33l-1.612.169-.509.058-1.943.194-.264.032h-.093c-.72.071-1.322.13-1.85.169l-.509.045-.555.039a2.067,2.067,0,0,1-.449,0,.453.453,0,0,1-.04-.253,17.87,17.87,0,0,1,.093-1.906,2.205,2.205,0,0,1,.04-.5c.053-.564.119-1.2.2-1.912v-.253c.066-.6.139-1.232.218-1.912l.059-.493c.073-.609.152-1.251.238-1.945v-.253q.073-.506.139-1.031l.119-.882a4.386,4.386,0,0,1,.066-.493c.086-.648.178-1.258.271-1.912l.04-.253a.707.707,0,0,1,0-.11c.086-.59.172-1.193.264-1.8a3.283,3.283,0,0,1,.073-.493c.1-.648.2-1.264.3-1.912l.04-.253c.1-.648.2-1.3.3-1.945a3.347,3.347,0,0,1,.086-.493c.1-.648.211-1.3.317-1.913a.565.565,0,0,1,.04-.253c.112-.648.225-1.3.344-1.912a2.568,2.568,0,0,1,.086-.493c.033-.162.059-.35.093-.519l.258-1.394v-.045l.04-.207c.119-.648.244-1.3.37-1.912a2.173,2.173,0,0,1,.1-.493c.119-.648.251-1.3.377-1.945l.059-.253c.132-.648.264-1.3.4-1.913.04-.169.073-.331.106-.5.145-.648.291-1.3.443-1.906a.342.342,0,0,1,.046-.207c.046-.071,0-.032,0-.045.152-.648.311-1.3.463-1.912l.04-.149a1.373,1.373,0,0,1,.093-.35c.165-.648.33-1.3.5-1.906a.955.955,0,0,1,.073-.259c.178-.648.363-1.3.548-1.906l.159-.5c.185-.6.377-1.18.568-1.724a.5.5,0,0,1,.066-.182c.026-.058.059-.175.093-.259s.066-.194.106-.285c.112-.318.231-.648.35-.914s.192-.48.291-.707.152-.337.225-.5a12.248,12.248,0,0,1,1.064-1.906h0s.119-.169.178-.24a5.026,5.026,0,0,1,.33-.382l.185-.182.35-.311c.449-.389.866-.733,1.255-1.031a1.193,1.193,0,0,1,.152-.117l.264-.2.251-.182c.608-.441,1.163-.8,1.692-1.122l.615-.175.106-.065a4.407,4.407,0,0,1,.9-.4,8.52,8.52,0,0,1,.938-.246h.073l.192-.039a18.9,18.9,0,0,1,1.943-.24h.509c.661,0,1.322-.045,1.943,0h.264a18.467,18.467,0,0,1,1.943.117l.509.058a6.09,6.09,0,0,1,.905.162l.112.039a1.458,1.458,0,0,1,.357.22,5.245,5.245,0,0,1,.568.538l.264.292a12.451,12.451,0,0,1,.839,1.076c.119.162.238.324.357.5.245.357.5.746.747,1.154.152.24.311.493.456.752l.053.084.1.175c.35.609.661,1.251,1,1.906.086.162.165.331.244.5q.317.681.595,1.381c.073.175.139.35.2.525l.059.156.04.1a18.862,18.862,0,0,1,.568,1.841.19.19,0,0,1,0,.065c.04.143.079.311.132.5.126.5.291,1.141.5,1.906a1.022,1.022,0,0,0,.073.259c.152.577.317,1.212.509,1.906a1.879,1.879,0,0,0,.112.441.185.185,0,0,1,0,.058q.238.862.5,1.828v.084a1.189,1.189,0,0,0,.066.253l.515,1.906c.04.162.086.331.132.5.165.648.337,1.258.509,1.912a.912.912,0,0,0,.073.253c.165.648.337,1.3.509,1.945l.119.447a.409.409,0,0,1,0,.045c.086.3.165.616.251.927l.258.985a.913.913,0,0,0,.073.253c.165.648.337,1.3.5,1.912.046.162.093.324.132.493.172.648.344,1.3.509,1.912a1.19,1.19,0,0,0,.066.253c.132.506.271,1.011.4,1.517l.1.4c.046.162.086.331.132.493l.278,1.057c.073.292.145.577.225.856a.9.9,0,0,0,.066.253l.489,1.912c.046.169.086.331.132.493.165.648.33,1.3.482,1.912a1.192,1.192,0,0,0,.066.253l.476,1.912h0l.119.48c.046.214.1.421.145.648.112.447.218.882.311,1.3l.059.253c.172.733.311,1.374.423,1.945.04.175.073.344.1.493A3.822,3.822,0,0,1,138.54,290.488Z" transform="translate(-96.458 -211.795)" fill="#2f8286"/>
        <path id="Path_3523" data-name="Path 3523" d="M100.208,268.334V295.51l-.264.032v-25.77l.258-1.394A.359.359,0,0,0,100.208,268.334Zm-2.22,13.5-.04.253c-.093.648-.185,1.3-.271,1.912a4.021,4.021,0,0,1-.066.493l-.139.882V295.75l.509-.045V281.727A.706.706,0,0,0,97.988,281.838Zm4.625-24.765c-.152.648-.311,1.264-.463,1.912h0v36.3l.509-.058V256.924Zm2.128-7.222c0,.084-.066.169-.093.259s-.046.123-.066.182v44.777l.264-.032V249.553A1.353,1.353,0,0,1,104.741,249.851Zm4.5-6.593v51.293l.264-.032V243.044Zm-2.273,2.023c-.059.071-.119.156-.178.24v49.309a4.713,4.713,0,0,0,.509-.058V244.885q-.165.184-.311.383Zm4.48-3.527V294.3l.509-.058V241.423Zm2.524-1.044H113.9v53.309l.264-.032V240.658Zm4.586-.337v53.088l.264-.032V240.36Zm-2.452.058V293.74l.509-.065V240.392Zm4.625.058V293.2a.718.718,0,0,0,.284-.039h.225V240.535Zm2.452,1.018v51.377l.264-.032V241.786Zm4.916,8.344c-.066-.175-.132-.35-.2-.525v42.956l.264-.032v-42.4Zm-2.2-4.538c-.145-.259-.3-.512-.456-.752v48.077l.509-.065V245.352Zm4.216,11.805a.186.186,0,0,0,0-.058v34.93l.509-.071V258.927q-.271-.985-.509-1.854Zm2.451,9.141a.409.409,0,0,0,0-.045v25.445l.264-.032V267.186c-.1-.357-.178-.668-.264-.972Zm4.764,18.282-.119-.48v6.826l.264-.052V285.17c-.046-.253-.1-.46-.145-.674Zm-2.339-9.141c-.046-.162-.086-.331-.132-.493l-.1-.4v16.765l.3-.045.2-.032V276.431ZM96.448,295.549a.452.452,0,0,0,.04.253h.985v-.039l.509-.045c.509-.039,1.13-.1,1.85-.169Zm.132-2.405a2.042,2.042,0,0,1-.04.5h20.392l1.645-.194.264-.032,1.943-.233a.719.719,0,0,0,.284-.039Zm.225-2.165v.253h38.286l.2-.032,1.256-.22Zm40.969-4.57H97.353v.253h40.493Zm.482,2.165H97.082l-.059.493h41.345c-.026-.149-.06-.318-.1-.493Zm-1.057-4.538H97.677a4.021,4.021,0,0,1-.066.493h39.72Zm-.548-2.178H97.988l-.04.253h38.782c-.02-.1-.046-.188-.066-.272Zm-1.17-4.538H98.675l-.04.253H135.56c-.026-.136-.046-.22-.066-.3Zm.555,2.165h-37.7a3.055,3.055,0,0,1-.073.493h37.916c-.046-.214-.086-.376-.132-.545Zm-1.189-4.57H99.065a3.076,3.076,0,0,1-.086.493h36.013c-.046-.214-.086-.383-.132-.545Zm-.568-2.165H99.455a.565.565,0,0,1-.04.253H134.39a2.184,2.184,0,0,1-.1-.3Zm-1.216-4.57H100.248l-.04.207v.045h32.947a.853.853,0,0,0-.079-.3Zm.575,2.165H99.851a3.206,3.206,0,0,1-.086.493h34.05c-.073-.24-.119-.383-.165-.545Zm-1.1-4.123-.119-.447H100.7c-.04.162-.073.331-.1.493h31.949a.407.407,0,0,0,0-.1Zm-.7-2.593H101.153l-.059.253h30.832a.968.968,0,0,0-.092-.324Zm-1.222-4.57h-28.48v.045a.342.342,0,0,1-.046.208h28.592a1.433,1.433,0,0,0-.053-.324Zm.582,2.159H101.662a2.243,2.243,0,0,1-.106.5h29.788c-.046-.24-.092-.408-.132-.571Zm-1.11-4.13c-.04-.149-.079-.3-.112-.441H102.758a1.716,1.716,0,0,1-.093.35l-.04.149h27.489a.185.185,0,0,0-.013-.13Zm-.661-2.593h-26.1a1.27,1.27,0,0,1-.073.259h26.227c-.026-.175-.053-.259-.073-.363Zm-1.249-4.415v-.227H104.741c0,.084-.066.169-.093.259H128.2Zm.621,2.01H104.034l-.159.5h25.037c-.053-.272-.092-.441-.132-.583Zm-1.725-4.538H105.732c-.073.162-.152.324-.225.5h21.806a4.986,4.986,0,0,0-.258-.616Zm-1.1-2.081-.053-.084H106.988c-.059.071-.119.156-.178.24h19.255Zm-3.641-4.616-.112-.039h-8.3a8.5,8.5,0,0,0-.938.246h9.687a1.443,1.443,0,0,0-.357-.324Zm2.029,2.126H109.822l-.251.182-.264.2a1.191,1.191,0,0,0-.152.117H124.7a3.112,3.112,0,0,0-.357-.616Z" transform="translate(-96.444 -211.767)" fill="#bfbfbf" opacity="0.2"/>
        <path id="Path_3524" data-name="Path 3524" d="M126.468,295.156c-6.231.784-13.084,1.575-18.178,2.12l.945-46.45a10.991,10.991,0,0,1,2.286-3.935l.35-.311Z" transform="translate(-100.462 -213.955)" fill="#263238"/>
        <path id="Path_3525" data-name="Path 3525" d="M143.691,289.836q-.476-2.159-.958-4.318-.971-4.318-1.982-8.629-2.042-8.694-4.328-17.329c-.846-3.241-1.751-6.444-2.584-9.679a.053.053,0,0,0-.1,0c1.526,5.731,2.855,11.514,4.222,17.283s2.709,11.488,4.018,17.245l1.09,4.843c.363,1.634.661,3.319,1.137,4.914.053.182.377.143.35-.052C144.385,292.734,144,291.262,143.691,289.836Z" transform="translate(-109.095 -215.104)" fill="#263238"/>
        <path id="Path_3526" data-name="Path 3526" d="M129.957,243.24c-2.445.331-6.211-3.643-7.553-6.7a47.437,47.437,0,0,1,.932-4.83c.3-1.549.595-3.28.753-4.875,0-.331,1.11.376,1.11.376l2.055.7,6.813,2.308a25.138,25.138,0,0,0-1.579,6.042,3.181,3.181,0,0,0,0,.648v.11C132.581,238.3,132.323,242.916,129.957,243.24Z" transform="translate(-105.247 -206.979)" fill="#ad6359"/>
        <path id="Path_3527" data-name="Path 3527" d="M133.6,237.368v.11a6.572,6.572,0,0,1-1.051-.045c-6.866-.791-6.9-9.433-6.9-9.433l2.709.37,6.813,2.308a25.14,25.14,0,0,0-1.579,6.042A3.178,3.178,0,0,0,133.6,237.368Z" transform="translate(-106.351 -207.42)" fill="#263238"/>
        <path id="Path_3528" data-name="Path 3528" d="M126.078,205.027c-1.83,3.241-2.1,13.75-.053,16.518,2.98,4.019,8.921,5.562,12.674,1.815,3.634-3.637,3.74-17.3,1.322-19.928C136.525,199.562,128.788,200.191,126.078,205.027Z" transform="translate(-105.993 -197.893)" fill="#ad6359"/>
        <path id="Path_3529" data-name="Path 3529" d="M139.819,220.66s-.059.032-.059.058c0,.707-.119,1.517-.78,1.731v.039C139.786,222.4,139.932,221.328,139.819,220.66Z" transform="translate(-110.873 -204.839)" fill="#263238"/>
        <path id="Path_3530" data-name="Path 3530" d="M138.814,219.488c-1.156-.117-1.322,2.152-.244,2.269S139.778,219.591,138.814,219.488Z" transform="translate(-110.489 -204.425)" fill="#263238"/>
        <path id="Path_3531" data-name="Path 3531" d="M146.475,221.27s.059.039.053.071c-.073.7,0,1.517.6,1.8v.039C146.329,223.04,146.3,221.925,146.475,221.27Z" transform="translate(-113.385 -205.053)" fill="#263238"/>
        <path id="Path_3532" data-name="Path 3532" d="M147.173,220.21c1.163,0,1.09,2.269,0,2.275S146.2,220.216,147.173,220.21Z" transform="translate(-113.39 -204.68)" fill="#263238"/>
        <path id="Path_3533" data-name="Path 3533" d="M137.685,216.951a9.126,9.126,0,0,0,.919-.246,1.538,1.538,0,0,0,.885-.428.479.479,0,0,0-.033-.59,1.241,1.241,0,0,0-1.216-.207,1.788,1.788,0,0,0-1.084.687.5.5,0,0,0,0,.563.526.526,0,0,0,.527.222Z" transform="translate(-110.225 -202.99)" fill="#263238"/>
        <path id="Path_3534" data-name="Path 3534" d="M148.108,217.67c-.317-.078-.595-.194-.905-.3a1.554,1.554,0,0,1-.859-.48.473.473,0,0,1,.066-.583,1.255,1.255,0,0,1,1.229-.143,1.809,1.809,0,0,1,1.044.746.51.51,0,0,1-.038.561A.534.534,0,0,1,148.108,217.67Z" transform="translate(-113.346 -203.223)" fill="#263238"/>
        <path id="Path_3535" data-name="Path 3535" d="M138.949,230.272c.159.175.317.415.575.454a1.923,1.923,0,0,0,.786-.123v.039a.989.989,0,0,1-.938.318.755.755,0,0,1-.522-.648C138.857,230.253,138.949,230.246,138.949,230.272Z" transform="translate(-110.829 -208.214)" fill="#263238"/>
        <path id="Path_3536" data-name="Path 3536" d="M139.9,223.466a2.445,2.445,0,0,0,1.553,1.18,3.076,3.076,0,0,0,.879.1.75.75,0,0,0,.172,0h.159a.177.177,0,0,0,.152-.149h0a.259.259,0,0,0,0-.071h0v-.084c.053-.545.053-1.368.053-1.368.2.11,1.2.648,1.2.35a35.438,35.438,0,0,0-.43-7.326.066.066,0,0,0-.132,0c-.119,2.263.178,4.538.1,6.807a4.358,4.358,0,0,0-1.13-.428,14.221,14.221,0,0,0,0,1.848h0a3.439,3.439,0,0,1-2.471-.947C139.923,223.362,139.864,223.408,139.9,223.466Z" transform="translate(-111.182 -203.21)" fill="#263238"/>
        <path id="Path_3537" data-name="Path 3537" d="M140.01,205.341c-3.681,2.055-8.134-1.874-8.134-1.874a3.819,3.819,0,0,1-4.037,2.036s-1.176,5.718-2.729,5.582c-2.366-.207-2.425-8.149-1.546-9.634a4.27,4.27,0,0,1,2.921-1.718,3.842,3.842,0,0,1,1.8-2.165c1.718-1.083,7.15,1.011,7.15,1.011a5.154,5.154,0,0,1,1.592-1.776,1.489,1.489,0,0,1,1.123-.256,1.469,1.469,0,0,1,.965.619,3.376,3.376,0,0,0-.661,1.381c-.423,1.666.985,1.776,1.1.246a2.4,2.4,0,0,0-.416-1.627c.78-.947,1.943-1.18,2.584-.583C142.871,197.659,143.069,203.636,140.01,205.341Z" transform="translate(-105.466 -196.255)" fill="#263238"/>
        <path id="Path_3538" data-name="Path 3538" d="M125.31,218.891s-1.7-3.708-3.377-3.17-.826,5.608.826,6.587a1.872,1.872,0,0,0,1.415.293,1.845,1.845,0,0,0,1.2-.8Z" transform="translate(-104.782 -203.083)" fill="#ad6359"/>
        <path id="Path_3539" data-name="Path 3539" d="M122.811,218s-.04.032,0,.045a4.552,4.552,0,0,1,1.83,3.241,1.007,1.007,0,0,0-.6-.6,1.035,1.035,0,0,0-.852.056c-.033,0,0,.071,0,.071a1.142,1.142,0,0,1,1.156.609,5.535,5.535,0,0,1,.4,1.076c.04.123.251.1.231-.032h0C125.309,220.872,124.489,218.46,122.811,218Z" transform="translate(-105.382 -203.903)" fill="#263238"/>
        <path id="Path_3540" data-name="Path 3540" d="M131.554,241.642l-2.22,5.433-7.672-7.235-2.042,2.444s7.639,11.63,7.672,11.1l2.319-5.147,3.674,3.429-.548-8.856Z" transform="translate(-104.306 -211.585)" fill="#fcfcfc"/>
        <path id="Path_3541" data-name="Path 3541" d="M133.186,248.585c-.139-1.459-.238-2.937-.449-4.389a.053.053,0,0,0-.1,0c-.258,1.42.311,7,.344,8.337h0c-.159-.149-3.4-3.015-3.436-2.969-.509.823-2.214,4.538-2.333,4.908-1.209-1.848-6.324-9.121-7.738-10.859a.054.054,0,0,0-.062-.005.051.051,0,0,0-.024.057c1.077,1.945,7.685,11.559,7.777,11.533a55.774,55.774,0,0,0,2.425-5.439,34.433,34.433,0,0,0,3.852,3.65,44.9,44.9,0,0,0-.258-4.823Z" transform="translate(-104.227 -212.907)" fill="#263238"/>
        <path id="Path_3542" data-name="Path 3542" d="M183.41,283.027h26.835l5.068-37.257H188.485Z" transform="translate(-125.944 -213.67)" fill="#a6a6a6"/>
        <path id="Path_3543" data-name="Path 3543" d="M185.41,283.027h26.828l5.075-37.257H190.478Z" transform="translate(-126.623 -213.67)" fill="#dbdbdb"/>
        <path id="Path_3544" data-name="Path 3544" d="M210.813,270.253a2.886,2.886,0,0,1-2.841,2.561,2.374,2.374,0,0,1-1.779-.753,2.28,2.28,0,0,1-.6-1.808,2.879,2.879,0,0,1,2.835-2.593,2.38,2.38,0,0,1,1.795.763,2.286,2.286,0,0,1,.591,1.83Z" transform="translate(-133.464 -221.369)" fill="#fff"/>
        <path id="Path_3545" data-name="Path 3545" d="M110.2,254.373c-1.262,17.342,1.85,29.283,4.962,30.56,8.392,3.449,33.9,5.368,39.753,4.758,2.286-.233.78-18.833-1.678-18.8-6.092.162-28.414.344-28.7.214-1.9-.875-1.982-6.658-6.37-19.014C114.629,242.12,110.718,247.28,110.2,254.373Z" transform="translate(-101.013 -213.942)" fill="#ad6359"/>
        <path id="Path_3546" data-name="Path 3546" d="M193.012,277.559a2.649,2.649,0,0,1,0,3.066,4.023,4.023,0,0,1,2.088,1.77c.747,1.472-1.269,3.241-1.269,3.241a4.958,4.958,0,0,1,1.9,2.217c.575,1.478-1.2,3.572-1.2,3.572a4.258,4.258,0,0,1,.423,2.976c-.456,1.724-4.837,3.922-7.447,4.739s-10.784.746-12.35.882l-5.491-16.376s10.625-6.93,13.83-7.468C186.226,275.75,191.75,275.886,193.012,277.559Z" transform="translate(-121.28 -224.292)" fill="#ad6359"/>
        <path id="Path_3547" data-name="Path 3547" d="M200.207,282.78c-2.987-.2-5.868.48-8.788,1-.066,0-.046.11,0,.1,2.894-.551,5.868-.532,8.782-.966a.071.071,0,0,0,.007-.136Z" transform="translate(-128.646 -226.674)" fill="#263238"/>
        <path id="Path_3548" data-name="Path 3548" d="M201.827,290.608a7.875,7.875,0,0,0-1.982.318c-.707.162-1.407.337-2.108.519-1.394.37-2.789.771-4.163,1.212a.054.054,0,0,0-.061.018.051.051,0,0,0,0,.062.053.053,0,0,0,.061.018c1.394-.363,2.8-.713,4.2-1.018.707-.156,1.414-.3,2.121-.441a9.394,9.394,0,0,0,1.982-.5.1.1,0,0,0,.069-.12A.1.1,0,0,0,201.827,290.608Z" transform="translate(-129.368 -229.439)" fill="#263238"/>
        <path id="Path_3549" data-name="Path 3549" d="M203.365,299.86a5.442,5.442,0,0,0-1.8.382l-1.9.532c-1.275.35-2.544.694-3.826,1-.066,0-.046.117,0,.1,1.322-.3,2.643-.583,3.912-.9.661-.149,1.282-.311,1.923-.473a5.069,5.069,0,0,0,1.692-.577S203.4,299.86,203.365,299.86Z" transform="translate(-130.146 -232.694)" fill="#263238"/>
        <path id="Path_3550" data-name="Path 3550" d="M150.561,269.81v20.875l-1.692-.084h-1.077l-1.374-.071h-.264l-1.943-.123H143.7l-1.943-.13h-.264l-1.943-.149-.509-.039-1.943-.162h-.264l-1.943-.175-.509-.052-1.943-.2h-.264c-.661-.065-1.322-.143-1.943-.214l-.509-.058-1.943-.246-.258-.2-.945-.13-1-.143-.509-.078-.185-.032c-.6-.091-1.183-.188-1.758-.292l-.264-.045c-.661-.117-1.322-.24-1.943-.37l-.509-.11c-.661-.149-1.322-.3-1.943-.46l-.264-.071q-1.011-.272-1.844-.564l-.1-.032-.509-.194c-.211-.091-.416-.175-.6-.266a5.753,5.753,0,0,1-1.322-.81l-.066-.058-.2-.2a5.322,5.322,0,0,1-.661-.843c-.053-.078-.1-.162-.152-.253a12.5,12.5,0,0,1-.9-1.912l-.178-.493-.059-.182c-.178-.519-.35-1.076-.509-1.666v-.065l-.059-.253c-.165-.609-.311-1.251-.456-1.945a3.386,3.386,0,0,0-.093-.493c-.132-.616-.244-1.258-.35-1.912a1.7,1.7,0,0,0-.046-.253c-.1-.648-.192-1.264-.278-1.912a4.193,4.193,0,0,0-.066-.493c-.079-.648-.159-1.3-.225-1.912v-.253c-.066-.648-.126-1.3-.178-1.912l-.04-.493c-.04-.493-.073-.985-.106-1.478v-.687c-.04-.648-.066-1.3-.093-1.912v-.5c0-.648-.04-1.3-.053-1.906V258.53c0-.648,0-1.3.04-1.906v-.259c0-.648.046-1.3.086-1.906v-.5c0-.311.046-.6.073-.888s.073-.7.112-1.018v-.259c.059-.447.132-.849.2-1.2.053-.246.106-.48.172-.707s.1-.337.152-.5a7.488,7.488,0,0,1,.905-1.906l.2-.259.165-.194a3.134,3.134,0,0,1,.509-.473,2.538,2.538,0,0,1,1.943-.558l.264.052a4.183,4.183,0,0,1,1.929,1.173h0c.079.078.159.156.238.246s.185.2.271.311a10.787,10.787,0,0,1,1.084,1.595l.278.5c.2.383.39.791.581,1.232.086.207.178.421.264.648h0l.1.259c.192.512.383,1.057.562,1.634a1.083,1.083,0,0,0,.086.272c.026.091.1.331.159.5l.588,1.906.079.259c.119.4.238.784.357,1.16.079.253.159.5.231.745s.106.337.152.5.086.259.126.389l.476,1.523a.953.953,0,0,0,.086.253c.2.648.41,1.3.6,1.906.059.169.112.337.159.5.218.648.423,1.3.621,1.874v.039a1.394,1.394,0,0,0,.086.253l.165.48c.178.525.35,1,.509,1.433l.192.493a11.625,11.625,0,0,0,.879,1.912,1.564,1.564,0,0,0,.2.253.279.279,0,0,0,.159.071h.509l1.943-.039h2.716l1.943-.045h.264l1.943-.045h.509l1.943-.045h.264l1.943-.045h.509l1.943-.052h.264l1.943-.052h.509L146.2,270h.264l1.943-.052h.509Z" transform="translate(-100.727 -213.743)" fill="#2f8286"/>
        <path id="Path_3551" data-name="Path 3551" d="M109.068,253.131v12.408c-.04-.648-.066-1.3-.092-1.912v-.5c0-.648-.04-1.3-.053-1.906v-2.665c0-.648,0-1.3.04-1.906v-.259c0-.648.046-1.3.086-1.906v-.5A4.018,4.018,0,0,1,109.068,253.131ZM113.462,246v38.9l.2.2.066.058V246.078Zm-2.452,1.031v32.512c.159.59.33,1.147.509,1.666V246.583a3.134,3.134,0,0,0-.509.473Zm4.9.454c-.079-.091-.159-.169-.238-.246v38.988l.509.194v-38.6c-.086-.11-.178-.214-.271-.311Zm2.214,3.637v35.9l.264.071v-35.3c-.086-.22-.192-.434-.264-.642Zm4.758,14.645c-.033-.084-.059-.169-.086-.253s0,0,0-.039v22.554l.264.045v-21.8Zm-2.167-6.736c-.046-.162-.1-.331-.152-.5s-.152-.493-.231-.746v29.763l.509.11v-28.6Zm4.275,11.378V288.4l.509.078V270.428Zm2.452-.071v18.45l.264.039V270.363Zm4.625-.084v19.053h.264V270.272Zm-2.452.058v18.723l.509.058v-18.8Zm4.626-.11v19.332l.509.052V270.214Zm2.452-.058V289.76h.264v-19.6Zm4.625-.117v20.1h.264V270.045Zm-2.2.058h-.251v19.864l.509.039V270.1Zm4.407-.117v20.317h.509v-20.3Zm2.452-.058V290.44h.264V269.928Zm2.207-.058v20.706h.509V269.812ZM124.8,288.392l.185.032.509.078,1,.143h23.987v-.253Zm22.909,2.165h1.077l1.692.084v-.136Zm-32.643-4.57c.185.091.39.175.6.266l.509.194.1.032h34.2v-.493Zm-2.412-2.165c.053.091.1.175.152.253h37.665v-.253Zm-1.725-4.538.059.253h39.489v-.253Zm.661,2.165.178.493h38.722v-.493Zm-1.2-4.57a2.493,2.493,0,0,0,.093.493h40v-.493Zm-.4-2.165a.492.492,0,0,0,.046.253h40.447v-.253Zm-.595-4.57v.253h15.4a1.562,1.562,0,0,1-.2-.253Zm29.57,0h0l-1.943.045h-.264l-1.943.045h-.509l-1.943.045h-.3l-1.943.045h20.326v-.253Zm-29.319,2.165a3.148,3.148,0,0,0,.066.493h40.77v-.493Zm13.91-4.538H109.174l.04.493h14.537Zm-.747-2.23h-13.8v.253h13.837A.564.564,0,0,1,122.819,265.54Zm-1.48-4.57H108.85v.253H121.4c-.033-.084-.059-.169-.092-.253Zm.661,2.159H108.9v.5h13.216a1.766,1.766,0,0,0-.119-.5Zm-1.441-4.57H108.83v.5h11.894c-.059-.162-.112-.331-.165-.5Zm-.661-2.165H108.876v.259h11.1Zm-1.493-4.538H109.22v.259h9.317Zm.747,2.165H109v.5h10.341a4.033,4.033,0,0,1-.192-.532Zm-1.883-4.538h-7.526c-.053.162-.106.331-.152.5h7.929Zm-1.6-2.185h-4.824l-.2.259h5.286A.97.97,0,0,0,115.669,247.3Z" transform="translate(-100.646 -213.751)" fill="#fff" opacity="0.2"/>
        <path id="Path_3552" data-name="Path 3552" d="M156.305,275.569a.21.21,0,0,0-.009-.211.219.219,0,0,0-.189-.1c-3.344-.039-6.707.136-10.051.22s-6.7.149-10.051.259c-1.883.065-5.5.227-5.537.175s-1.044-3.138-1.262-3.78c-.423-1.251-.866-2.5-1.322-3.747-.126-.363-.258-.726-.39-1.083-.04-.246-.086-.493-.112-.733s-.079-.648-.119-1.011a18.411,18.411,0,0,0-.337-1.99.053.053,0,0,0-.064-.026.052.052,0,0,0-.035.058,10.94,10.94,0,0,1,.211,2.075l.04.5c-.661-1.724-.819-2.029-1.381-3.773a.051.051,0,0,0-.018-.06.054.054,0,0,0-.063,0,.051.051,0,0,0-.018.06c.661,2.522,1.018,3.6,1.824,6.094.41,1.258.813,2.515,1.242,3.773.211.609,1.176,3.462,1.487,4.032.04.071,3.436-.117,5.108-.143s3.35-.052,5.029-.091l10.051-.246c1.857-.045,3.727-.045,5.584-.149,0,.214.165,1.3.152,1.368a.05.05,0,1,0,.1,0C156.166,276.956,156.312,275.588,156.305,275.569Z" transform="translate(-106.333 -219.495)" fill="#263238"/>
        <path id="Path_3553" data-name="Path 3553" d="M165.743,285.285a.053.053,0,0,0-.106,0c-.211,1.446-.244,2.924-.33,4.382s-.152,3.021-.2,4.538c-.1,3.015-.251,6.042-.165,9.076a.1.1,0,0,0,.2,0c.3-2.976.377-5.99.489-8.979q.086-2.217.132-4.447C165.776,288.325,165.855,286.782,165.743,285.285Z" transform="translate(-119.669 -227.552)" fill="#263238"/>
        <path id="Path_3554" data-name="Path 3554" d="M157.045,301.12v-.966a.229.229,0,0,0,0-.143h0v-.182h-.053v.182h0v.045c-.059,1.562-.231,3.125-.3,4.687s-.1,3.144-.086,4.726c-1.817-.149-3.661-.13-5.485-.22s-3.78-.227-5.67-.376c-3.786-.3-7.566-.648-11.332-1.173l-3.139-.434c-1.064-.149-2.174-.227-3.218-.473-.066,0-.093.091,0,.1.958.117,1.91.376,2.861.545s1.863.324,2.8.467q2.8.441,5.623.778,5.63.687,11.3.966l3.244.136c1.064.032,2.141.1,3.2.045a.19.19,0,0,0,.178-.169c0-1.64.086-3.28.106-4.921v-2.412C157.065,301.924,157.058,301.522,157.045,301.12Z" transform="translate(-107.046 -232.684)" fill="#263238"/>
        <path id="Path_3555" data-name="Path 3555" d="M226.258,262.31c1.685,2.126,5.584,4.447,6.258,6.334a2.275,2.275,0,0,1-.74,2.645s2.194.538,2.518,2.347c.165.934-1.209,2.016-1.209,2.016a2.754,2.754,0,0,1,1.923,2.133,2.646,2.646,0,0,1-1.249,2.185s1.434,1.245,1.15,2.593c-.568,2.775-11.722,5.186-14.352,1.53-1.229-1.7,1.526-2.146,1.526-2.146s-4.117-.3-4.685-2.548,3.053-2.593,3.053-2.593-4-.324-4.341-2.71,3.3-2.243,3.3-2.243-2.848-1.109-2.689-3c.264-3.112,6.489-.46,8.815-1.562Z" transform="translate(-137.028 -219.487)" fill="#ad6359"/>
        <path id="Path_3556" data-name="Path 3556" d="M236.5,289.81v.058a20.161,20.161,0,0,1-11.643,1.815c-.126,0-.145-.233,0-.233A41.224,41.224,0,0,0,236.5,289.81Z" transform="translate(-139.969 -229.159)" fill="#263238"/>
        <path id="Path_3557" data-name="Path 3557" d="M235.235,282.9c.04,0,.066.058,0,.078a18.881,18.881,0,0,1-12.826,1.206c-.145-.039-.238-.227-.059-.188C225.31,284.618,231.706,283.983,235.235,282.9Z" transform="translate(-139.12 -226.729)" fill="#263238"/>
        <path id="Path_3558" data-name="Path 3558" d="M220.665,276.591a26.292,26.292,0,0,0,12.5-.311c.053,0,.066.058,0,.084a16.917,16.917,0,0,1-6.78,1.485,11.561,11.561,0,0,1-5.775-1.115C220.552,276.7,220.572,276.572,220.665,276.591Z" transform="translate(-138.552 -224.401)" fill="#263238"/>
        <path id="Path_3559" data-name="Path 3559" d="M317.3,386.806c-.555,1.465-27.753,34.638-29.6,35.26-.7.24-5.855-3.365-11.96-7.9-1.322-.979-2.643-2-4.044-3.034-8.9-6.749-18.185-14.113-18.185-14.113l18.125-22.243,17.689,14.729,3.885,3.241s16.2-8.13,18.31-8.6S317.857,385.334,317.3,386.806Z" transform="translate(-149.723 -259.044)" fill="#ad6359"/>
        <path id="Path_3560" data-name="Path 3560" d="M326.637,391.848c-.555,1.465-27.753,34.638-29.6,35.26-.859.285-8.286-5.1-16-10.93l17.63-21.627,3.885,3.241s16.2-8.13,18.31-8.6S327.192,390.376,326.637,391.848Z" transform="translate(-159.058 -264.086)" fill="#fff"/>
        <path id="Path_3561" data-name="Path 3561" d="M328.713,391.841c-.555,1.465-27.753,34.638-29.6,35.261-.7.24-5.855-3.365-11.96-7.9l17.471-21.432s16.2-8.13,18.31-8.6S329.268,390.369,328.713,391.841Z" transform="translate(-161.134 -264.079)" fill="#2f8286"/>
        <path id="Path_3562" data-name="Path 3562" d="M333.38,392.379c-4.7,5.452-23.127,27.876-27.35,33.607,0,.045,0,.071.033,0,4.777-5.3,23.022-27.876,27.409-33.555C333.565,392.333,333.479,392.268,333.38,392.379Z" transform="translate(-167.539 -265.214)" fill="#263238"/>
        <path id="Path_3563" data-name="Path 3563" d="M336.107,391a5.644,5.644,0,0,0-1.322,4.415,5.526,5.526,0,0,0,1.982,3.63c.033,0,.086-.032.053-.065a6.534,6.534,0,0,1-.661-7.929.045.045,0,0,0-.013-.039A.047.047,0,0,0,336.107,391Z" transform="translate(-177.277 -264.749)" fill="#263238"/>
        <path id="Path_3564" data-name="Path 3564" d="M315.759,399.8c-1.857,2.2-3.172,5.413-2.452,8.259,0,.11.192.071.211,0A38.872,38.872,0,0,1,316.069,400a.182.182,0,0,0-.05-.256.19.19,0,0,0-.261.049Z" transform="translate(-169.939 -267.814)" fill="#36ccb4"/>
        <path id="Path_3565" data-name="Path 3565" d="M318.929,397.956c-1.857,2.2-3.172,5.413-2.451,8.259,0,.11.185.071.2,0a38.893,38.893,0,0,1,2.557-8.052.182.182,0,0,0-.05-.256A.19.19,0,0,0,318.929,397.956Z" transform="translate(-171.015 -267.167)" fill="#36ccb4"/>
        <path id="Path_3566" data-name="Path 3566" d="M322.089,396.156c-1.857,2.2-3.172,5.413-2.452,8.259.033.11.192.071.211,0a38.877,38.877,0,0,1,2.551-8.052.182.182,0,0,0-.05-.256A.19.19,0,0,0,322.089,396.156Z" transform="translate(-172.086 -266.534)" fill="#36ccb4"/>
        <path id="Path_3567" data-name="Path 3567" d="M325.259,394.336c-1.857,2.2-3.172,5.413-2.452,8.259,0,.11.185.071.2,0a39,39,0,0,1,2.557-8.052.182.182,0,0,0-.05-.256A.19.19,0,0,0,325.259,394.336Z" transform="translate(-173.162 -265.894)" fill="#36ccb4"/>
        <path id="Path_3568" data-name="Path 3568" d="M299.348,435.009c-2.042,2.5,1.923,5.621,3.965,3.112S301.39,432.506,299.348,435.009Z" transform="translate(-165.08 -279.902)" fill="#263238"/>
        <path id="Path_3569" data-name="Path 3569" d="M310.041,388.734c-1.877.376-2.108,2.528-1.692,4a14.9,14.9,0,0,0,4.143,6.6.074.074,0,0,0,.119,0,.363.363,0,0,0,.325,0,.351.351,0,0,0,.19-.259c.178-2.464.661-5.076.093-7.527C312.836,390.109,311.779,388.378,310.041,388.734Zm2.577,6.535c-.06,1.212-.178,2.418-.192,3.637a45.094,45.094,0,0,1-2.332-3.89,15.971,15.971,0,0,1-.859-2.016c-.357-1.076-.463-4.758,2.187-3.034,1.427.934,1.262,3.857,1.163,5.3Z" transform="translate(-168.266 -263.936)" fill="#36ccb4"/>
        <path id="Path_3570" data-name="Path 3570" d="M306.571,410.948c1.89-1.7,2.967-4.143,4.229-6.282a.338.338,0,0,0-.008-.317.351.351,0,0,0-.27-.175.077.077,0,0,0-.025-.065.08.08,0,0,0-.068-.02,15.338,15.338,0,0,0-7.209,3.183c-1.189.985-2.227,2.9-.892,4.24S305.467,411.94,306.571,410.948Zm-2.392.324c-3.185-.032-.991-3.021-.079-3.715a15.991,15.991,0,0,1,1.87-1.2c1.322-.759,2.762-1.3,4.163-1.945-.661,1.011-1.275,2.075-1.923,3.112C307.443,408.764,305.93,411.285,304.179,411.272Z" transform="translate(-166.071 -269.352)" fill="#36ccb4"/>
        <path id="Path_3571" data-name="Path 3571" d="M235.695,359.54,216.83,384.512l-63.66-43.332L147.031,337s-1.738,1.147-4.355,2.593c-3.634,1.945-8.96,4.467-13.672,5.147-7.929,1.147-21.1,1.024-27.753-7.715-5.61-7.358-1.778-20.687-1.778-20.687l9.251-1s19.163-15.708,32.5-16.207c5.65-.22,13.876,3.98,21.5,8.369S235.695,359.54,235.695,359.54Z" transform="translate(-97.038 -232.433)" fill="#fbfbfb"/>
        <path id="Path_3572" data-name="Path 3572" d="M162.31,350.457s-1.738,1.147-4.355,2.593c-4.625-5.433-14.418-15.3-14.716-15.65Z" transform="translate(-112.318 -245.897)" fill="#263238"/>
        <path id="Path_3573" data-name="Path 3573" d="M116.511,317.077c-1.229.83-2.412,1.724-3.628,2.593s-2.418,1.64-3.548,2.561-2.247,1.945-3.3,2.95c-.522.486-1.044.979-1.546,1.478a14.588,14.588,0,0,0-1.48,1.575c-.04.052.04.117.093.084a18.561,18.561,0,0,0,1.645-1.3c.575-.473,1.137-.96,1.711-1.433,1.1-.921,2.227-1.815,3.3-2.742s2.108-1.945,3.192-2.846,2.379-1.945,3.588-2.866C116.557,317.1,116.537,317.058,116.511,317.077Z" transform="translate(-98.666 -238.748)" fill="#263238"/>
        <path id="Path_3574" data-name="Path 3574" d="M290.718,390.933c-1.229,1.3-2.359,2.69-3.5,4.058s-2.286,2.755-3.416,4.143c-2.26,2.768-4.546,5.53-6.766,8.331-1.222,1.543-2.425,3.092-3.562,4.694a.073.073,0,0,0,.013.1.076.076,0,0,0,.106-.013c2.438-2.626,4.625-5.426,6.918-8.194s4.52-5.562,6.733-8.369c1.216-1.536,2.471-3.066,3.588-4.674a.071.071,0,0,0-.028-.078.074.074,0,0,0-.085,0Z" transform="translate(-156.489 -264.72)" fill="#263238"/>
        <path id="Path_3575" data-name="Path 3575" d="M213.813,324.159c-2.24-2.548-11.848-9.232-17.987-12.22a.053.053,0,0,0-.061.027.051.051,0,0,0,.014.064c6.119,3.857,16.2,11.17,17.94,12.259C213.8,324.334,213.872,324.224,213.813,324.159Z" transform="translate(-130.133 -236.942)" fill="#263238"/>
      </g>
      <g id="freepik--Reviews--inject-207" transform="translate(173.444 41.3)">
        <rect id="Rectangle_173" data-name="Rectangle 173" width="99.488" height="39.021" transform="translate(0 99.701)" fill="#ebebeb"/>
        <path id="Path_3580" data-name="Path 3580" d="M240.58,255.29v7.754l7.163-7.754Z" transform="translate(-240.56 -116.562)" fill="#ebebeb"/>
        <ellipse id="Ellipse_41" data-name="Ellipse 41" cx="15.482" cy="15.189" rx="15.482" ry="15.189" transform="translate(3.601 104.997)" fill="#fff"/>
        <path id="Path_3581" data-name="Path 3581" d="M307.834,206.37l1.13,2.25,2.524.357-1.824,1.75.429,2.47-2.26-1.167-2.26,1.167.43-2.47-1.824-1.75,2.524-.357Z" transform="translate(-262.134 -99.357)" fill="#32e0c4"/>
        <path id="Path_3582" data-name="Path 3582" d="M322.891,206.37l1.13,2.25,2.524.357-1.83,1.75.436,2.47-2.26-1.167-2.26,1.167.43-2.47-1.83-1.75,2.531-.357Z" transform="translate(-267.239 -99.357)" fill="#c7c7c7"/>
        <path id="Path_3583" data-name="Path 3583" d="M337.944,206.37l1.13,2.25,2.531.357-1.83,1.75.43,2.47-2.26-1.167-2.26,1.167.436-2.47-1.83-1.75,2.524-.357Z" transform="translate(-272.348 -99.357)" fill="#c7c7c7"/>
        <path id="Path_3584" data-name="Path 3584" d="M353,206.37l1.13,2.25,2.531.357-1.83,1.75.43,2.47L353,212.03l-2.26,1.167.436-2.47-1.83-1.75,2.524-.357Z" transform="translate(-277.457 -99.357)" fill="#c7c7c7"/>
        <path id="Path_3585" data-name="Path 3585" d="M368.064,206.37l1.13,2.25,2.524.357-1.824,1.75.43,2.47-2.26-1.167L365.8,213.2l.43-2.47-1.824-1.75,2.524-.357Z" transform="translate(-282.565 -99.357)" fill="#c7c7c7"/>
        <rect id="Rectangle_174" data-name="Rectangle 174" width="47.207" height="0.972" transform="translate(42.046 119.214)" fill="#263238"/>
        <rect id="Rectangle_175" data-name="Rectangle 175" width="42.046" height="0.972" transform="translate(42.046 122.177)" fill="#fff"/>
        <rect id="Rectangle_176" data-name="Rectangle 176" width="34.757" height="0.972" transform="translate(42.046 125.139)" fill="#fff"/>
        <rect id="Rectangle_177" data-name="Rectangle 177" width="37.995" height="0.972" transform="translate(42.046 128.102)" fill="#fff"/>
        <g id="Group_99" data-name="Group 99" transform="translate(3.635 100.483)" clip-path="url(#clip-path)">
          <path id="Path_3586" data-name="Path 3586" d="M257.957,197.841c-7.17,3.164-8.716,13.076-8.247,27.183.073,2.146,18.562,5.874,27.508-.739,1.441-1.07-.608-18.327-4.156-23.293C268.662,194.814,262.391,195.884,257.957,197.841Z" transform="translate(-247.266 -196.303)" fill="#263238"/>
          <path id="Path_3587" data-name="Path 3587" d="M257.262,198.882c-3.747,1.874-6.159,5.595-7.269,9.5a58.745,58.745,0,0,0-1.487,8.823,34.045,34.045,0,0,0-.132,8.519.079.079,0,0,0,.159,0,71.969,71.969,0,0,1,1.685-15.9,15.877,15.877,0,0,1,7.163-10.658C257.559,199.064,257.427,198.8,257.262,198.882Z" transform="translate(-246.769 -197.201)" fill="#263238"/>
          <path id="Path_3588" data-name="Path 3588" d="M285.09,206.037a13.16,13.16,0,0,0-9-9.147v.052c4.969,1.841,7.758,5.556,9.013,10.483a97.821,97.821,0,0,1,2.372,16.3.1.1,0,0,0,.2,0A65.636,65.636,0,0,0,285.09,206.037Z" transform="translate(-256.24 -196.506)" fill="#263238"/>
          <path id="Path_3589" data-name="Path 3589" d="M254.18,246.482l.059.045c3.244,2.172,9.654,5.984,13.077,4.771a7.626,7.626,0,0,0,4.361-4.441,35.451,35.451,0,0,0-4.236-2.885C262.387,240.673,257.828,242.65,254.18,246.482Z" transform="translate(-248.808 -212.477)" fill="#a6a6a6"/>
          <path id="Path_3590" data-name="Path 3590" d="M261.5,238.868c.231.733,4.189,5.335,7.652,4.946,1.13-.123.694-6.2.694-6.2l.073-.454,1-6.379-7.817-4.246-1.13-.558s-.159,1.763-.33,3.961v.311a1.4,1.4,0,0,1-.033.363c0,.324-.059.648-.079.992s-.04.506-.046.771a5.385,5.385,0,0,1-.046.8A40.775,40.775,0,0,0,261.5,238.868Z" transform="translate(-251.247 -206.737)" fill="#f7a9a0"/>
          <path id="Path_3591" data-name="Path 3591" d="M261.74,229.941a13.136,13.136,0,0,0,8.306,7.222l1-6.379-7.817-4.246-1.13-.558S261.912,227.743,261.74,229.941Z" transform="translate(-251.372 -206.737)" fill="#263238"/>
          <path id="Path_3592" data-name="Path 3592" d="M277.392,210.264c1.811,11.19-4.817,13.517-7.269,13.9-2.227.344-9.436.875-12.416-10.068s1.322-14.911,6.37-15.993S275.574,199.087,277.392,210.264Z" transform="translate(-249.672 -196.843)" fill="#f7a9a0"/>
          <path id="Path_3593" data-name="Path 3593" d="M284.058,215.517a7.848,7.848,0,0,1-.76.227,1.265,1.265,0,0,1-.826.091.4.4,0,0,1-.244-.428,1.017,1.017,0,0,1,.767-.681,1.506,1.506,0,0,1,1.077,0,.431.431,0,0,1-.013.791Z" transform="translate(-258.321 -202.744)" fill="#263238"/>
          <path id="Path_3594" data-name="Path 3594" d="M272.121,215.968q.394.059.793.078a1.285,1.285,0,0,0,.826-.065.411.411,0,0,0,.152-.473,1.007,1.007,0,0,0-.885-.519,1.544,1.544,0,0,0-1.057.207.43.43,0,0,0-.166.44A.439.439,0,0,0,272.121,215.968Z" transform="translate(-254.776 -202.864)" fill="#263238"/>
          <path id="Path_3595" data-name="Path 3595" d="M274.761,220.51s-.059.045-.053.071c.112.765.112,1.66-.568,1.99v.045C275,222.4,274.992,221.217,274.761,220.51Z" transform="translate(-255.579 -204.813)" fill="#263238"/>
          <path id="Path_3596" data-name="Path 3596" d="M273.441,219.39c-1.269.045-1.084,2.528.086,2.489S274.5,219.357,273.441,219.39Z" transform="translate(-255.045 -204.419)" fill="#263238"/>
          <path id="Path_3597" data-name="Path 3597" d="M272.39,219.64c-.211.156-.41.421-.661.46s-.555-.188-.78-.428c0,0-.04,0-.04.032a.89.89,0,0,0,.773.985c.522.032.793-.408.879-.9C272.562,219.7,272.476,219.575,272.39,219.64Z" transform="translate(-254.483 -204.501)" fill="#263238"/>
          <path id="Path_3598" data-name="Path 3598" d="M282.458,219.43a.064.064,0,0,1,.066.065c0,.771.192,1.653.918,1.861v.045C282.564,221.336,282.359,220.169,282.458,219.43Z" transform="translate(-258.393 -204.433)" fill="#263238"/>
          <path id="Path_3599" data-name="Path 3599" d="M283.115,218.116c1.255-.169,1.513,2.308.35,2.463S282.058,218.265,283.115,218.116Z" transform="translate(-258.395 -203.968)" fill="#263238"/>
          <path id="Path_3600" data-name="Path 3600" d="M284.214,218.153c.211.11.436.331.661.324s.456-.3.6-.577h.046c.059.473-.046.979-.5,1.115s-.767-.246-.932-.707C284.076,218.25,284.129,218.107,284.214,218.153Z" transform="translate(-258.953 -203.895)" fill="#263238"/>
          <path id="Path_3601" data-name="Path 3601" d="M276.262,229.564c.192.175.39.421.661.434a2.012,2.012,0,0,0,.839-.214l.033.039a1.052,1.052,0,0,1-.985.441.818.818,0,0,1-.661-.648C276.176,229.557,276.236,229.538,276.262,229.564Z" transform="translate(-256.261 -207.993)" fill="#263238"/>
          <path id="Path_3602" data-name="Path 3602" d="M279.266,220.817s.258,1.135.3,1.673a8.694,8.694,0,0,0-3.423.473c-.059,0-.178-.071-.033-.175a4.918,4.918,0,0,1,3-.687c0-.149-.489-1.783-.4-1.8a5.186,5.186,0,0,1,1.275.175c-.469-2.373-1.322-4.661-1.758-7.034a.072.072,0,0,1,.043-.094.075.075,0,0,1,.1.042,38.982,38.982,0,0,1,2.227,7.507C280.641,221.206,279.491,220.9,279.266,220.817Z" transform="translate(-256.225 -202.294)" fill="#263238"/>
          <path id="Path_3603" data-name="Path 3603" d="M256.437,213.733c1.229-.169,4.183-3.773,3.793-9.653,0,0,0,5.3-.363,6.113s1.645-2.029,1.4-6.775a19.959,19.959,0,0,0,5.161,2.126c2.333.441,3.727.311,3.879.136s-3.3-.947-4.288-1.9c0,0,6.3,2.282,9.106,2.269.324,0-.066-5.9-4.626-8.324s-10.91.454-12.608,2.347c0,0-2.134.473-4.222,3.8S255.1,213.921,256.437,213.733Z" transform="translate(-248.415 -196.474)" fill="#263238"/>
          <path id="Path_3604" data-name="Path 3604" d="M259.774,222.994s-2.769-3.345-4.335-2.353.661,5.971,2.643,6.535a2.017,2.017,0,0,0,1.525-.083,1.958,1.958,0,0,0,1.012-1.123Z" transform="translate(-249.056 -204.794)" fill="#f7a9a0"/>
          <path id="Path_3605" data-name="Path 3605" d="M256.74,222.91v.052a4.892,4.892,0,0,1,2.762,2.846,1.083,1.083,0,0,0-1.626-.175.038.038,0,0,0-.006.048.04.04,0,0,0,.046.017,1.232,1.232,0,0,1,1.322.318,5.9,5.9,0,0,1,.707,1c.073.11.284.032.231-.1h0C260.09,225.211,258.59,222.968,256.74,222.91Z" transform="translate(-249.676 -205.657)" fill="#263238"/>
        </g>
        <rect id="Rectangle_178" data-name="Rectangle 178" width="99.488" height="39.021" transform="translate(6.608 49.854)" fill="#ebebeb"/>
        <path id="Path_3607" data-name="Path 3607" d="M250.58,178.39v7.754l7.163-7.754Z" transform="translate(-243.952 -89.516)" fill="#ebebeb"/>
        <ellipse id="Ellipse_42" data-name="Ellipse 42" cx="15.482" cy="15.189" rx="15.482" ry="15.189" transform="translate(10.209 55.15)" fill="#fff"/>
        <path id="Path_3608" data-name="Path 3608" d="M317.841,130.16l1.13,2.25,2.531.363-1.83,1.75L320.1,137l-2.26-1.173L315.574,137l.436-2.476-1.83-1.75,2.531-.363Z" transform="translate(-265.526 -72.553)" fill="#32e0c4"/>
        <path id="Path_3609" data-name="Path 3609" d="M332.927,130.16l1.13,2.25,2.531.363-1.83,1.75.43,2.476-2.26-1.173L330.661,137l.43-2.476-1.83-1.75,2.531-.363Z" transform="translate(-270.642 -72.553)" fill="#32e0c4"/>
        <path id="Path_3610" data-name="Path 3610" d="M348.011,130.16l1.137,2.25,2.531.363-1.83,1.75.429,2.476-2.266-1.173L345.751,137l.429-2.476-1.83-1.75,2.531-.363Z" transform="translate(-275.761 -72.553)" fill="#32e0c4"/>
        <path id="Path_3611" data-name="Path 3611" d="M363.1,130.16l1.13,2.25,2.531.363-1.83,1.75.436,2.476-2.267-1.173L360.834,137l.436-2.476-1.83-1.75,2.531-.363Z" transform="translate(-280.879 -72.553)" fill="#c7c7c7"/>
        <path id="Path_3612" data-name="Path 3612" d="M378.187,130.16l1.13,2.25,2.531.363-1.83,1.75.43,2.476-2.26-1.173L375.921,137l.436-2.476-1.837-1.75,2.531-.363Z" transform="translate(-285.995 -72.553)" fill="#c7c7c7"/>
        <rect id="Rectangle_179" data-name="Rectangle 179" width="47.207" height="0.972" transform="translate(48.654 69.361)" fill="#263238"/>
        <rect id="Rectangle_180" data-name="Rectangle 180" width="27.601" height="0.972" transform="translate(48.654 72.323)" fill="#fff"/>
        <rect id="Rectangle_181" data-name="Rectangle 181" width="40.751" height="0.972" transform="translate(48.654 75.292)" fill="#fff"/>
        <rect id="Rectangle_182" data-name="Rectangle 182" width="37.235" height="0.972" transform="translate(48.654 78.255)" fill="#fff"/>
        <g id="Group_100" data-name="Group 100" transform="translate(10.201 51.395)" clip-path="url(#clip-path-2)">
          <path id="Path_3613" data-name="Path 3613" d="M279.437,165.214l-1.374,6.087-9.357-6.3-2.326,3.365s6.126,8.13,12.647,8.13c3.429,0,4.1-7.708,4.1-7.708Z" transform="translate(-259.512 -136.201)" fill="#35c9b2"/>
          <path id="Path_3614" data-name="Path 3614" d="M279.047,167.113c-2.511.765-7.176-2.775-9.132-5.763a51.8,51.8,0,0,1,.119-5.245c.04-1.679.046-3.553-.073-5.258,0-.35,1.236.207,1.236.207l2.293.382,7.573,1.3a26.73,26.73,0,0,0-.588,6.626,3.3,3.3,0,0,0,.126.7,1.087,1.087,0,0,0,0,.117C280.937,161.473,281.486,166.374,279.047,167.113Z" transform="translate(-260.695 -131.183)" fill="#eb9481"/>
          <path id="Path_3615" data-name="Path 3615" d="M280.954,160.486a1.063,1.063,0,0,0,0,.117,7,7,0,0,1-1.117.136c-7.361.337-8.927-8.771-8.927-8.771l2.914-.078,7.573,1.3a26.782,26.782,0,0,0-.588,6.632A3.24,3.24,0,0,0,280.954,160.486Z" transform="translate(-261.049 -131.591)" fill="#263238"/>
          <path id="Path_3616" data-name="Path 3616" d="M268.333,126.8c-1.322,3.754.225,14.833,2.874,17.394,3.846,3.721,10.374,4.331,13.658-.253,3.178-4.447.872-18.846-2.115-21.2C278.357,119.278,270.329,121.262,268.333,126.8Z" transform="translate(-260.012 -120.735)" fill="#eb9481"/>
          <path id="Path_3617" data-name="Path 3617" d="M284.712,141.776c0-.032-.053.039-.046.071.126.746.139,1.614-.515,1.945v.045C285,143.617,284.969,142.456,284.712,141.776Z" transform="translate(-265.54 -128.03)" fill="#263238"/>
          <path id="Path_3618" data-name="Path 3618" d="M283.405,140.709c-1.236.071-1,2.489.145,2.425S284.443,140.651,283.405,140.709Z" transform="translate(-265.007 -127.658)" fill="#263238"/>
          <path id="Path_3619" data-name="Path 3619" d="M291.724,141.33a.064.064,0,0,1,.066.065c.046.752.231,1.6.952,1.789v.039C291.9,143.184,291.651,142.05,291.724,141.33Z" transform="translate(-268.105 -127.876)" fill="#263238"/>
          <path id="Path_3620" data-name="Path 3620" d="M292.332,139.993c1.222-.207,1.553,2.2.423,2.392S291.308,140.181,292.332,139.993Z" transform="translate(-268.105 -127.402)" fill="#263238"/>
          <path id="Path_3621" data-name="Path 3621" d="M281.818,138.166c.324-.117.608-.279.919-.421a1.6,1.6,0,0,0,.859-.6.512.512,0,0,0-.139-.616,1.344,1.344,0,0,0-1.322,0,1.9,1.9,0,0,0-1.018.908.543.543,0,0,0,.109.588A.569.569,0,0,0,281.818,138.166Z" transform="translate(-264.497 -126.126)" fill="#263238"/>
          <path id="Path_3622" data-name="Path 3622" d="M292.833,137.157a6.6,6.6,0,0,1-1-.156,1.651,1.651,0,0,1-1-.357.511.511,0,0,1,0-.648,1.338,1.338,0,0,1,1.262-.357,1.916,1.916,0,0,1,1.229.6.537.537,0,0,1,.09.629A.558.558,0,0,1,292.833,137.157Z" transform="translate(-267.767 -125.862)" fill="#263238"/>
          <path id="Path_3623" data-name="Path 3623" d="M284.954,152.606c.2.162.4.382.661.382a2.009,2.009,0,0,0,.806-.266l.04.039a1.036,1.036,0,0,1-.932.493.807.807,0,0,1-.661-.6C284.848,152.606,284.9,152.586,284.954,152.606Z" transform="translate(-265.782 -131.84)" fill="#263238"/>
          <path id="Path_3624" data-name="Path 3624" d="M285.609,144.779a6.092,6.092,0,0,0,3.4.532l-.212-1.8c.225.091,1.368.473,1.322.169a38.16,38.16,0,0,0-1.758-7.63.073.073,0,0,0-.139,0c.284,2.4.991,4.739,1.322,7.131a4.79,4.79,0,0,0-1.262-.253c-.086.032.3,1.679.3,1.945a8.072,8.072,0,0,1-2.8-.37C285.471,144.429,285.4,144.61,285.609,144.779Z" transform="translate(-265.995 -126.003)" fill="#263238"/>
          <path id="Path_3625" data-name="Path 3625" d="M269.395,135.593c.965-.24,1.87-3.345,1.9-6.353,0-1.945.813-4.376,3.013-5.1,1.46-.486,4,.694,5.465.344s1.725-1.16,2.584-1.141,1.817,2.1,1.817,2.1-1.533-6.554-10.13-4.447c-9.053,2.224-7.229,9.828-6.357,12.266A3.827,3.827,0,0,0,269.395,135.593Z" transform="translate(-259.699 -120.577)" fill="#263238"/>
          <path id="Path_3626" data-name="Path 3626" d="M269.168,142.342s-2.452-3.611-4.117-2.762.119,6.049,2.035,6.794a2.018,2.018,0,0,0,1.531.054,1.967,1.967,0,0,0,1.113-1.032Z" transform="translate(-258.838 -127.215)" fill="#eb9481"/>
          <path id="Path_3627" data-name="Path 3627" d="M266.22,142v.052a4.956,4.956,0,0,1,2.5,3.105,1.089,1.089,0,0,0-.732-.53,1.106,1.106,0,0,0-.887.2.045.045,0,0,0,0,.048.046.046,0,0,0,.042.024,1.208,1.208,0,0,1,1.322.447,5.072,5.072,0,0,1,.615,1.07c.06.117.284.058.238-.078V146.3C269.379,144.593,268.057,142.207,266.22,142Z" transform="translate(-259.458 -128.112)" fill="#263238"/>
        </g>
        <rect id="Rectangle_183" data-name="Rectangle 183" width="99.488" height="39.021" transform="translate(13.216)" fill="#ebebeb"/>
        <path id="Path_3629" data-name="Path 3629" d="M260.58,101.49v7.76l7.163-7.76Z" transform="translate(-247.344 -62.469)" fill="#ebebeb"/>
        <ellipse id="Ellipse_43" data-name="Ellipse 43" cx="15.482" cy="15.189" rx="15.482" ry="15.189" transform="translate(16.817 5.297)" fill="#fff"/>
        <path id="Path_3630" data-name="Path 3630" d="M327.841,54.06l1.13,2.25,2.531.363-1.83,1.75.43,2.476-2.26-1.167L325.574,60.9l.436-2.476-1.83-1.75,2.531-.363Z" transform="translate(-268.918 -45.788)" fill="#32e0c4"/>
        <path id="Path_3631" data-name="Path 3631" d="M342.927,54.06l1.13,2.25,2.531.363-1.83,1.75.43,2.476-2.26-1.167L340.661,60.9l.429-2.476-1.83-1.75,2.531-.363Z" transform="translate(-274.034 -45.788)" fill="#32e0c4"/>
        <path id="Path_3632" data-name="Path 3632" d="M358.011,54.06l1.137,2.25,2.531.363-1.83,1.75.429,2.476-2.266-1.167-2.26,1.167.43-2.476-1.83-1.75,2.531-.363Z" transform="translate(-279.153 -45.788)" fill="#32e0c4"/>
        <path id="Path_3633" data-name="Path 3633" d="M373.1,54.06l1.13,2.25,2.531.363-1.83,1.75.436,2.476L373.1,59.733,370.834,60.9l.436-2.476-1.83-1.75,2.531-.363Z" transform="translate(-284.271 -45.788)" fill="#32e0c4"/>
        <path id="Path_3634" data-name="Path 3634" d="M388.187,54.06l1.13,2.25,2.531.363-1.83,1.75.43,2.476-2.26-1.167L385.921,60.9l.436-2.476-1.837-1.75,2.531-.363Z" transform="translate(-289.387 -45.788)" fill="#32e0c4"/>
        <rect id="Rectangle_184" data-name="Rectangle 184" width="47.207" height="0.972" transform="translate(55.261 19.514)" fill="#263238"/>
        <rect id="Rectangle_185" data-name="Rectangle 185" width="35.121" height="0.972" transform="translate(55.261 22.476)" fill="#fff"/>
        <rect id="Rectangle_186" data-name="Rectangle 186" width="42.046" height="0.972" transform="translate(55.261 25.439)" fill="#fff"/>
        <rect id="Rectangle_187" data-name="Rectangle 187" width="18.039" height="0.972" transform="translate(55.261 28.402)" fill="#fff"/>
        <path id="Path_3635" data-name="Path 3635" d="M298.179,74.337h-1.322c-.132-1.653-1.2-4.181-.932-2.9a12.282,12.282,0,0,1,.172,2.9H273.73a23.428,23.428,0,0,1,.872-6.58,16.591,16.591,0,0,0-1.982,6.58h-2.108a15.114,15.114,0,0,1,.317-4.026,13.038,13.038,0,0,0-1.064,4.026H267.36a15.26,15.26,0,0,1,2.8-8.726c1.626-2.379-.383-3.767-.344-8.428A10.83,10.83,0,0,1,274.88,48c9.76-8.869,18.614-.648,19.559,5.219.918,5.731-.76,6.483,1.982,11.669C298.423,68.852,298.179,74.337,298.179,74.337Z" transform="translate(-249.644 -42.285)" fill="#263238"/>
        <path id="Path_3636" data-name="Path 3636" d="M274.18,93.44l.059.039c3.245,2.172,9.654,5.984,13.077,4.771a7.62,7.62,0,0,0,4.361-4.434,34.841,34.841,0,0,0-4.236-2.891C282.387,87.631,277.828,89.6,274.18,93.44Z" transform="translate(-251.958 -58.166)" fill="#455a64"/>
        <path id="Path_3637" data-name="Path 3637" d="M281.5,85.822c.231.733,4.189,5.335,7.652,4.946,1.13-.123.694-6.2.694-6.2l.073-.454,1-6.379-7.817-4.246-1.13-.551s-.159,1.757-.33,3.955v.318a1.328,1.328,0,0,1-.033.357c0,.324-.059.648-.079.992s-.04.506-.046.771a5.381,5.381,0,0,1-.046.8,40.775,40.775,0,0,0,.059,5.692Z" transform="translate(-254.397 -52.428)" fill="#dd6a57"/>
        <path id="Path_3638" data-name="Path 3638" d="M281.74,76.869a13.136,13.136,0,0,0,8.306,7.222l1-6.379-7.817-4.22-1.13-.551S281.912,74.7,281.74,76.869Z" transform="translate(-254.522 -52.428)" fill="#263238"/>
        <path id="Path_3639" data-name="Path 3639" d="M297.2,57.254c1.811,11.189-4.817,13.517-7.269,13.9-2.227.344-9.912,1.245-12.859-9.724s1.751-15.306,6.813-16.363S295.382,46.045,297.2,57.254Z" transform="translate(-252.629 -42.538)" fill="#dd6a57"/>
        <path id="Path_3640" data-name="Path 3640" d="M277.049,61.884C279.9,61.547,280,52.808,280,51.777c.04.648.238,4.233.529,4.357a2.951,2.951,0,0,0,.885-.24h0a8.21,8.21,0,0,1,0-1.3,5.6,5.6,0,0,1,.291,1.18l.515-.188a10.012,10.012,0,0,1,.046-2.723c.053-.344.271,1.16.714,2.451a35.433,35.433,0,0,1,7.388-1.893c.714-.084,1.322-.123,1.877-.143a18.829,18.829,0,0,1-.2-1.945,10.042,10.042,0,0,1,.615,1.945h.819c-.053-1.485-.971-3.793-.7-3.455a10.4,10.4,0,0,1,1.771,3.533c1.051.117,1.322.292,1.355,0A12.361,12.361,0,0,0,291.421,46c-3.866-3.015-11.075-3.241-14.669,2.159,0,0-3.139,2.392-3.37,5.835S275.4,62.072,277.049,61.884Z" transform="translate(-251.681 -42.208)" fill="#263238"/>
        <path id="Path_3641" data-name="Path 3641" d="M277.979,69.95s-2.769-3.352-4.341-2.36.661,5.971,2.643,6.535a1.977,1.977,0,0,0,1.529-.071,1.917,1.917,0,0,0,1-1.135Z" transform="translate(-251.594 -50.482)" fill="#dd6a57"/>
        <path id="Path_3642" data-name="Path 3642" d="M274.987,69.87c-.033,0-.033.039,0,.045a4.892,4.892,0,0,1,2.762,2.846,1.083,1.083,0,0,0-1.626-.175.038.038,0,0,0-.006.048.04.04,0,0,0,.046.017,1.232,1.232,0,0,1,1.322.318,5.9,5.9,0,0,1,.707,1c.073.117.284.039.225-.1h0C278.291,72.165,276.8,69.909,274.987,69.87Z" transform="translate(-252.223 -51.348)" fill="#263238"/>
        <path id="Path_3643" data-name="Path 3643" d="M299.4,73.75a3.11,3.11,0,0,1-1.064,1.206,1.475,1.475,0,0,1-.852.227c-.661-.039-.786-.6-.773-1.1a3.316,3.316,0,0,1,.132-.791A4.266,4.266,0,0,0,299.4,73.75Z" transform="translate(-259.6 -52.551)" fill="#fff"/>
        <path id="Path_3644" data-name="Path 3644" d="M303.522,61.206a6.6,6.6,0,0,1-.793-.091,1.285,1.285,0,0,1-.786-.246.4.4,0,0,1-.046-.493,1.043,1.043,0,0,1,.978-.318,1.526,1.526,0,0,1,.985.434.421.421,0,0,1,.071.465.437.437,0,0,1-.408.248Z" transform="translate(-261.338 -47.89)" fill="#263238"/>
        <path id="Path_3645" data-name="Path 3645" d="M292.11,62.557a6.371,6.371,0,0,0,.76-.227,1.29,1.29,0,0,0,.733-.376.4.4,0,0,0-.046-.493,1.02,1.02,0,0,0-1.018-.143,1.5,1.5,0,0,0-.892.6.421.421,0,0,0,.016.47.44.44,0,0,0,.447.172Z" transform="translate(-257.861 -48.314)" fill="#263238"/>
        <path id="Path_3646" data-name="Path 3646" d="M294.761,67.46s-.059.045-.053.071c.112.765.112,1.66-.568,1.99v.045C295,69.353,294.992,68.167,294.761,67.46Z" transform="translate(-258.729 -50.501)" fill="#263238"/>
        <path id="Path_3647" data-name="Path 3647" d="M293.441,66.34c-1.269.045-1.084,2.528.086,2.489S294.5,66.307,293.441,66.34Z" transform="translate(-258.195 -50.107)" fill="#263238"/>
        <path id="Path_3648" data-name="Path 3648" d="M292.39,66.59c-.211.156-.41.421-.661.467s-.555-.194-.78-.428h-.04a.9.9,0,0,0,.773.992c.522.039.793-.415.879-.9C292.562,66.655,292.476,66.526,292.39,66.59Z" transform="translate(-257.633 -50.189)" fill="#263238"/>
        <path id="Path_3649" data-name="Path 3649" d="M302.458,66.38s.066.032.066.065c0,.771.192,1.653.918,1.861v.045C302.564,68.286,302.359,67.119,302.458,66.38Z" transform="translate(-261.542 -50.121)" fill="#263238"/>
        <path id="Path_3650" data-name="Path 3650" d="M303.115,65.075c1.255-.175,1.513,2.3.35,2.464S302.058,65.218,303.115,65.075Z" transform="translate(-261.545 -49.659)" fill="#263238"/>
        <path id="Path_3651" data-name="Path 3651" d="M304.215,65.1c.211.117.436.331.661.324s.456-.3.6-.577h.046c.059.473-.046.979-.5,1.122s-.767-.253-.932-.713C304.076,65.2,304.129,65.064,304.215,65.1Z" transform="translate(-262.103 -49.583)" fill="#263238"/>
        <path id="Path_3652" data-name="Path 3652" d="M296.262,76.514c.192.175.39.421.661.434a2.012,2.012,0,0,0,.839-.214l.033.039a1.052,1.052,0,0,1-.985.441.818.818,0,0,1-.661-.648C296.176,76.507,296.236,76.488,296.262,76.514Z" transform="translate(-259.41 -53.681)" fill="#263238"/>
        <path id="Path_3653" data-name="Path 3653" d="M299.552,67.77s.258,1.135.3,1.673c0,.052-.126.091-.311.117h0a2.676,2.676,0,0,1-2.643-.752c-.04-.045,0-.11.079-.078a4.029,4.029,0,0,0,2.451.473c0-.156-.509-1.945-.423-1.945a4.925,4.925,0,0,1,1.275.182c-.469-2.379-1.322-4.668-1.758-7.04a.071.071,0,0,1,.046-.091.073.073,0,0,1,.092.045,38.794,38.794,0,0,1,2.214,7.533C300.926,68.159,299.776,67.841,299.552,67.77Z" transform="translate(-259.66 -47.984)" fill="#263238"/>
      </g>
      <g id="freepik--Plant--inject-207" transform="translate(225.137 173.435)">
        <path id="Path_3654" data-name="Path 3654" d="M396.3,343.5s15.2-3.371,23.484-10.885,12.958-20.979,12.958-20.979a131.958,131.958,0,0,0-17.009,4.382,27.7,27.7,0,0,0-5.148,7.131,33.258,33.258,0,0,1-.04-5.1,23.212,23.212,0,0,0-5.405,3.241C398.249,327.193,396.3,343.5,396.3,343.5Z" transform="translate(-345.076 -268.516)" fill="#32e0c4"/>
        <path id="Path_3655" data-name="Path 3655" d="M418.687,319.354c2.068-1.4,4.169-2.755,6.231-4.175a.115.115,0,0,0,.021-.149.12.12,0,0,0-.147-.045c-3.912,2.288-7.764,4.739-11.491,7.3-1.322.895-2.577,1.822-3.839,2.775l.264-.441c.456-.752.938-1.485,1.414-2.217a31.825,31.825,0,0,1,3.225-4.214c.04-.052-.033-.123-.079-.071-1.176,1.335-2.359,2.658-3.436,4.078a24.929,24.929,0,0,0-1.441,2.081c-.238.376-.463.746-.661,1.128l-.231.382c-1.982,1.511-3.866,3.086-5.689,4.752q-1.692,1.543-3.258,3.2c.581-1.8,1.1-3.624,1.778-5.394a.051.051,0,0,0-.018-.06.054.054,0,0,0-.063,0,.051.051,0,0,0-.018.06c-.661,1.861-1.388,3.728-1.9,5.64-1.163,1.232-2.273,2.5-3.3,3.831a1.038,1.038,0,0,1,.053-.24c.172-.7.35-1.4.542-2.1.37-1.342.773-2.684,1.236-4a23.194,23.194,0,0,1,4.077-7.553.051.051,0,0,0-.079-.065,28.811,28.811,0,0,0-5.808,11.9c-.159.648-.317,1.3-.463,1.906-.079.344-.165.687-.225,1.031-.463.609-.912,1.225-1.322,1.854a64.279,64.279,0,0,0-6.416,12.318,141.367,141.367,0,0,0-4.863,14.872c0,.1.126.13.159,0,2.967-8.707,5.993-17.5,11.075-25.322a58.131,58.131,0,0,1,3.463-4.752,29.177,29.177,0,0,0,7.374-1.439,33.054,33.054,0,0,0,7.394-3.507,44,44,0,0,0,3.786-2.807.052.052,0,0,0-.01-.1.053.053,0,0,0-.056.018,30.276,30.276,0,0,1-6.951,4.13,38.12,38.12,0,0,1-7.652,2.515c-1.117.24-2.253.421-3.39.571a61.546,61.546,0,0,1,4.474-4.862c.509-.5,1.037-.979,1.566-1.465a35.659,35.659,0,0,1,5.61-3.151c2.485-1.18,4.929-2.431,7.388-3.656,1.388-.694,2.769-1.4,4.169-2.068.06-.032,0-.117-.059-.091-2.491,1.186-5.022,2.289-7.54,3.417-2.366,1.063-4.764,2.133-7.037,3.384l-.284.169c2.055-1.75,4.183-3.423,6.357-5.037C414.57,322.22,416.625,320.761,418.687,319.354Z" transform="translate(-340.489 -269.689)" fill="#263238"/>
        <path id="Path_3656" data-name="Path 3656" d="M432.029,333.568c-1.236.525-2.491,1-3.707,1.556s-2.452,1.251-3.641,1.945a.045.045,0,0,0-.012.059.047.047,0,0,0,.058.019c1.209-.57,2.438-1.1,3.634-1.692s2.438-1.251,3.7-1.789C432.154,333.639,432.088,333.542,432.029,333.568Z" transform="translate(-354.697 -276.226)" fill="#263238"/>
        <path id="Path_3657" data-name="Path 3657" d="M321.74,245.12a21.036,21.036,0,0,1,4.533,12.356c.046,1.336-.165,3.2-.324,5.381a35.941,35.941,0,0,1,9.912,8.3,18.2,18.2,0,0,0-10-2.347,28.9,28.9,0,0,0,.581,4.447,17.315,17.315,0,0,1,6.43,1.245,14.653,14.653,0,0,0-5.8,1.134c2.7,8.428,10.738,17.108,32.927,20.791a44.9,44.9,0,0,0-3.925-30.638C349.407,252.951,321.74,245.12,321.74,245.12Z" transform="translate(-319.784 -245.12)" fill="#35c9b2"/>
        <path id="Path_3658" data-name="Path 3658" d="M370.72,335.689c-.383-3.6-.872-7.2-1.441-10.781a209.57,209.57,0,0,0-4.474-21.316,83.276,83.276,0,0,0-3.2-9.724,13.954,13.954,0,0,0,.086-1.744v-2.087c0-1.4-.079-2.788-.2-4.182a49.561,49.561,0,0,0-1.368-8.162c-.4-1.549-.879-3.079-1.321-4.616a.053.053,0,0,0-.064-.025.052.052,0,0,0-.035.058,58.79,58.79,0,0,1,1.626,8.123,73.575,73.575,0,0,1,.747,8.168c0,.752.04,1.5.046,2.25v.959a69.929,69.929,0,0,0-3.78-7.579,92.425,92.425,0,0,0-7.6-11.151,4.771,4.771,0,0,0-.178-1.219c-.106-.486-.211-.972-.324-1.459-.231-.992-.482-1.984-.76-2.963-.548-1.945-1.275-3.89-1.91-5.835a.053.053,0,0,0-.1,0c.588,1.945.978,3.929,1.427,5.893.225.966.443,1.945.661,2.911l.317,1.459v.11q-1.322-1.66-2.749-3.28c-4.242-4.875-8.888-9.374-13.559-13.841-.575-.551-1.17-1.083-1.751-1.627-.046-.045-.119,0-.073.078,4.474,4.538,8.874,9.2,13.037,14.042.991,1.154,1.982,2.314,2.927,3.494l-1.513-.985c-1.322-.83-2.6-1.634-3.965-2.373s-2.7-1.465-4.084-2.139-2.947-1.251-4.315-2.036c-.059-.032-.112.065-.053.091a31.662,31.662,0,0,1,4.051,2.2c1.322.784,2.7,1.575,4.024,2.405s2.643,1.608,3.912,2.438c1.077.687,2.141,1.439,3.264,2.075a103.44,103.44,0,0,1,7.11,10.152,75.157,75.157,0,0,1,3.674,6.839l-.8-.344-2-.849c-1.322-.57-2.643-1.122-3.925-1.686-2.491-1.057-5.022-2.036-7.46-3.2a34.115,34.115,0,0,1-3.965-2.165c-.053-.039-.106.052-.053.084,4.553,3.079,9.654,5.245,14.689,7.436l2.187.947c.6.259,1.2.551,1.817.778a75.266,75.266,0,0,1,3.753,10.087,202.194,202.194,0,0,1,4.85,21.063c1.269,7.131,2.128,14.262,2.8,21.465.086.895.165,1.789.271,2.684a.292.292,0,0,0,.575,0C371.486,342.943,371.11,339.287,370.72,335.689Z" transform="translate(-322.832 -248.247)" fill="#263238"/>
        <path id="Path_3659" data-name="Path 3659" d="M369.938,283.64c-.41-2.211-1.011-4.376-1.619-6.541,0-.065-.112-.039-.1,0,.562,2.126.965,4.3,1.374,6.483s.78,4.408,1.1,6.626c0,.039.066.039.059,0A57.685,57.685,0,0,0,369.938,283.64Z" transform="translate(-335.55 -256.353)" fill="#263238"/>
        <path id="Path_3660" data-name="Path 3660" d="M351.258,293.754a40.348,40.348,0,0,0-4.824-2.664c-.806-.408-1.626-.8-2.445-1.186s-1.725-.739-2.564-1.154a.053.053,0,0,0-.061.027.051.051,0,0,0,.014.064c.806.4,1.579.882,2.379,1.3l2.458,1.3c1.625.856,3.218,1.8,4.923,2.5a.126.126,0,0,0,.11-.055A.121.121,0,0,0,351.258,293.754Z" transform="translate(-326.439 -260.464)" fill="#263238"/>
        <path id="Path_3661" data-name="Path 3661" d="M396.72,300.545s14.035-3.287,20.484-12.525c6.159-8.823,8.147-23.857,8.306-25.18-.258,1.212-3.152,14.353-12.707,20.473C405.5,288.026,398.412,291.883,396.72,300.545Z" transform="translate(-345.218 -251.352)" fill="#263238" opacity="0.1"/>
        <path id="Path_3662" data-name="Path 3662" d="M413.671,284.322a17.56,17.56,0,0,0-5.181,8.363s.04.045.046,0a20.535,20.535,0,0,1,5.2-8.3C413.783,284.355,413.717,284.277,413.671,284.322Z" transform="translate(-349.211 -258.903)" fill="#263238"/>
        <path id="Path_3663" data-name="Path 3663" d="M396.583,300.492s14.035-3.287,20.484-12.525c6.159-8.823,8.147-23.857,8.306-25.18a.551.551,0,0,0,0-.1s-6.727,9.387-13.8,11.786S394.554,285.166,396.583,300.492Z" transform="translate(-345.081 -251.3)" fill="#35c9b2"/>
        <path id="Path_3664" data-name="Path 3664" d="M419.96,270.7a56.116,56.116,0,0,1-4.322,7.28,29.339,29.339,0,0,1-5.775,5.835c-1.9,1.485-3.918,2.833-5.848,4.285l.04-.065c.363-.532.753-1.044,1.15-1.543.806-1,1.685-1.945,2.57-2.9,1.745-1.854,3.522-3.676,5.088-5.686a21.329,21.329,0,0,0,2.247-3.559c.033-.058-.066-.091-.1-.032-2.273,4.655-6.819,7.63-10.064,11.559-.463.564-.9,1.141-1.322,1.744a7.54,7.54,0,0,0-.806,1.42,29.043,29.043,0,0,0-4.784,4.745,18.289,18.289,0,0,1,.562-2.671,13.477,13.477,0,0,1,1.487-3.488c.033-.058-.053-.11-.086-.058a16.533,16.533,0,0,0-1.639,3.468A11.755,11.755,0,0,0,397.85,294h0a27.022,27.022,0,0,0-1.9,2.891c.059-.292.112-.59.172-.882.278-1.374.588-2.742.952-4.091a24.205,24.205,0,0,1,3.377-7.78c.04-.052-.046-.11-.086-.058a29.218,29.218,0,0,0-3.74,7.591c-.449,1.349-.806,2.723-1.123,4.11-.152.681-.291,1.361-.423,2.042-.073.35-.145.713-.2,1.076a48.743,48.743,0,0,0-3.238,9.335,133.907,133.907,0,0,0-2.993,17.407,141.72,141.72,0,0,0-.971,18.5c0,.772.059,1.549.1,2.321a.162.162,0,0,0,.324,0c.139-3.06.218-6.113.4-9.167s.456-6.107.793-9.147a160.252,160.252,0,0,1,2.921-17.8c1.143-5.037,2.643-10.107,5.418-14.515a27.259,27.259,0,0,1,5.068-5.906c1.982-1.737,4.117-3.241,6.192-4.856a34.21,34.21,0,0,0,5.683-5.361,43.808,43.808,0,0,0,4.467-7.131c.33-.648.661-1.238,1-1.861C420.072,270.7,419.986,270.638,419.96,270.7Z" transform="translate(-342.145 -254.107)" fill="#263238"/>
        <path id="Path_3665" data-name="Path 3665" d="M431.266,273.8a46.017,46.017,0,0,1-3.125,5.368c0,.039.033.078.066.039a36.992,36.992,0,0,0,3.159-5.374C431.391,273.777,431.292,273.745,431.266,273.8Z" transform="translate(-355.876 -255.197)" fill="#263238"/>
        <path id="Path_3666" data-name="Path 3666" d="M318.78,311.64s-.225,19.565,11.7,25.218,18.317.94,26.431,2.833h0c-.311-.467-6.092-8.629-15.291-10.872C332.141,326.5,321.648,319.8,318.78,311.64Z" transform="translate(-318.78 -268.516)" fill="#32e0c4"/>
        <path id="Path_3667" data-name="Path 3667" d="M318.78,311.64s-.225,19.565,11.7,25.218,18.317.94,26.431,2.833h0a45.644,45.644,0,0,0-13.553-3.929C335.815,334.868,321.443,330.064,318.78,311.64Z" transform="translate(-318.78 -268.516)" fill="#263238" opacity="0.1"/>
        <path id="Path_3668" data-name="Path 3668" d="M360.382,346.519a20.051,20.051,0,0,0-4.738-3.151c-.258-.123-.522-.22-.78-.331-.126-.156-.264-.3-.4-.447-.357-.363-.727-.713-1.123-1.044a16.256,16.256,0,0,0-2.4-1.7c-1.982-1.141-4.137-1.945-6.159-3-.06-.032-.112.058-.053.084,1,.512,1.982,1.07,2.94,1.627s1.91,1.057,2.828,1.64a20.516,20.516,0,0,1,2.359,1.737c.211.182.416.376.615.577a30.913,30.913,0,0,0-4.031-1.05c-2.181-.434-4.388-.739-6.568-1.2a31.072,31.072,0,0,1-3.165-.836c-.991-.784-1.982-1.556-2.914-2.405a24.09,24.09,0,0,1-3.086-3.352c-.04-.058-.126,0-.086.052a36.276,36.276,0,0,0,4.89,5.29q-.773-.285-1.526-.648a24.5,24.5,0,0,1-10.163-8.292c-.033-.052-.126,0-.086.052a27.642,27.642,0,0,0,8.22,7.779,25.455,25.455,0,0,0,5.194,2.412,49.808,49.808,0,0,0,6.456,1.5,45.837,45.837,0,0,1,6.324,1.472,19.418,19.418,0,0,1,5.286,2.736,24.411,24.411,0,0,1,7.143,8.694,43.647,43.647,0,0,1,3.965,14.308c0,.207.357.207.337,0C369.091,360.788,366.851,352.23,360.382,346.519Z" transform="translate(-321.475 -274.993)" fill="#263238"/>
        <path id="Path_3669" data-name="Path 3669" d="M353.913,343.129a6.8,6.8,0,0,0-2.451-2.185,8.9,8.9,0,0,1-2.914-2.366c-.04-.052-.132,0-.093.052a9.8,9.8,0,0,0,2.577,2.263,8.978,8.978,0,0,1,2.808,2.275C353.873,343.214,353.946,343.175,353.913,343.129Z" transform="translate(-328.843 -277.983)" fill="#263238"/>
        <path id="Path_3670" data-name="Path 3670" d="M366.3,377.73l.542,10.755,1.659,32.881h25.024l1.659-32.881.542-10.755Z" transform="translate(-334.899 -291.76)" fill="#37474f"/>
        <path id="Path_3671" data-name="Path 3671" d="M366.3,377.73l.542,10.755h28.341l.542-10.755Z" transform="translate(-334.899 -291.76)" fill="#263238"/>
        <rect id="Rectangle_188" data-name="Rectangle 188" width="32.94" height="10.262" transform="translate(62.583 91.74) rotate(180)" fill="#37474f"/>
      </g>
    </g>
  </g>
</svg>
