<svg xmlns="http://www.w3.org/2000/svg" width="275.226" height="267.875" viewBox="0 0 275.226 267.875">
  <g id="Select-cuate" transform="translate(-38.68 -48.26)">
    <g id="freepik--Shadow--inject-247" transform="translate(46.297 288.173)">
      <ellipse id="Ellipse_51" data-name="Ellipse 51" cx="129.996" cy="13.981" rx="129.996" ry="13.981" transform="translate(0)" fill="#ebebeb"/>
    </g>
    <g id="freepik--Floor--inject-247" transform="translate(38.68 278.958)">
      <path id="Path_4643" data-name="Path 4643" d="M38.68,392.523l34.4-.141,34.4-.053,68.806-.1,68.806.1,34.4.053,34.4.141-34.4.146-34.4.047-68.806.1-68.806-.1-34.4-.053Z" transform="translate(-38.68 -392.23)" fill="#263238"/>
    </g>
    <g id="freepik--Device--inject-247" transform="translate(110.846 48.26)">
      <path id="Path_4644" data-name="Path 4644" d="M245.032,48.26H150.294c-5.344.055-9.636,5.01-9.584,11.066V286.674c-.045,6.053,4.243,11,9.584,11.066h94.739c5.344-.058,9.638-5.01,9.6-11.066V59.326C254.673,53.268,250.378,48.315,245.032,48.26Zm3.6,231.58c0,5.818-3.846,10.522-8.589,10.522H155.293c-4.754,0-8.6-4.7-8.6-10.522V67.7c0-11.855,3.846-12.433,8.6-12.433h16.978c.984,0,1.792,1.274,1.792,2.846v.663c0,3.689,1.756,3.7,3.969,3.7h39.261c2.207,0,3.981,0,3.981-3.7v-.663c0-1.572.8-2.846,1.8-2.846H240.05c4.742,0,8.589,1.579,8.589,12.433Z" transform="translate(-140.709 -48.26)" fill="#263238"/>
      <path id="Path_4645" data-name="Path 4645" d="M252.87,71.352V285.013c0,5.86-3.846,10.6-8.589,10.6H159.53c-4.754,0-8.6-4.737-8.6-10.6V71.352c0-11.941,3.846-12.522,8.6-12.522h16.978c.984,0,1.792,1.283,1.792,2.867v.668c0,3.715,1.756,3.729,3.969,3.729H221.53c2.207,0,3.981,0,3.981-3.729V61.7c0-1.584.8-2.867,1.8-2.867h16.978C249.023,58.83,252.87,60.42,252.87,71.352Z" transform="translate(-144.946 -52.642)" fill="#fff"/>
      <path id="Path_4646" data-name="Path 4646" d="M252.87,71.345V285.013c0,5.86-3.846,10.6-8.589,10.6H159.53c-4.754,0-8.6-4.737-8.6-10.6V71.345c0-11.934,3.846-12.515,8.6-12.515h16.978c.984,0,1.792,1.283,1.792,2.867v.668c0,3.722,1.756,3.735,3.969,3.735H221.53c2.207,0,3.981,0,3.981-3.735V61.7c0-1.584.8-2.867,1.8-2.867h16.978C249.023,58.83,252.87,60.42,252.87,71.345Z" transform="translate(-144.946 -52.642)" fill="#fff"/>
      <path id="Path_4647" data-name="Path 4647" d="M252.87,69.8V85.966H150.93V69.8c0-10.462,3.846-10.971,8.6-10.971h16.978c.984,0,1.792,1.124,1.792,2.512v.585c0,3.255,1.756,3.267,3.969,3.267H221.53c2.207,0,3.981,0,3.981-3.267v-.585c0-1.388.8-2.512,1.8-2.512h16.978C249.023,58.83,252.87,60.223,252.87,69.8Z" transform="translate(-144.946 -52.642)" fill="#2f8286"/>
      <g id="freepik--u5Zjqx--inject-247" transform="translate(24.959 9.52)">
        <path id="Path_4648" data-name="Path 4648" d="M187.011,65.269c-.053.053-.111.105-.164.164l-.094.094a2.231,2.231,0,0,0-3.161,0l-.088-.094c-.053-.053-.111-.105-.164-.164h0l.211-.187a2.294,2.294,0,0,1,.48-.3,2.447,2.447,0,0,1,.632-.217l.322-.041h.492a2.512,2.512,0,0,1,.585.141,2.412,2.412,0,0,1,.392.187,2.446,2.446,0,0,1,.381.263l.17.152Z" transform="translate(-183.34 -64.52)" fill="#fff"/>
        <path id="Path_4649" data-name="Path 4649" d="M184.478,66.546l-.258-.258a1.827,1.827,0,0,1,1.054-.533,1.856,1.856,0,0,1,1.587.527l-.263.258a1.5,1.5,0,0,0-2.119,0Z" transform="translate(-183.705 -65.024)" fill="#fff"/>
        <path id="Path_4650" data-name="Path 4650" d="M186.7,67.323l-.258.258a.726.726,0,0,0-.544-.222.761.761,0,0,0-.544.222l-.258-.258a1.13,1.13,0,0,1,1.6,0Z" transform="translate(-184.07 -65.544)" fill="#fff"/>
        <path id="Path_4651" data-name="Path 4651" d="M186.538,68.234A.234.234,0,1,1,186.3,68,.234.234,0,0,1,186.538,68.234Z" transform="translate(-184.472 -65.963)" fill="#fff"/>
      </g>
      <path id="Path_4652" data-name="Path 4652" d="M162.29,66.165a.679.679,0,1,1,.673.673A.679.679,0,0,1,162.29,66.165Z" transform="translate(-149.655 -55.398)" fill="#fff"/>
      <path id="Path_4653" data-name="Path 4653" d="M165.92,66.165a.679.679,0,1,1,.679.673.679.679,0,0,1-.679-.673Z" transform="translate(-151.16 -55.398)" fill="#fff"/>
      <path id="Path_4654" data-name="Path 4654" d="M169.56,66.165a.679.679,0,1,1,.673.673A.679.679,0,0,1,169.56,66.165Z" transform="translate(-152.669 -55.398)" fill="#fff"/>
      <path id="Path_4655" data-name="Path 4655" d="M173.19,66.165a.679.679,0,1,1,.679.673.679.679,0,0,1-.679-.673Z" transform="translate(-154.174 -55.398)" fill="#fff"/>
      <path id="Path_4656" data-name="Path 4656" d="M176.83,66.165a.673.673,0,1,1,.2.48.679.679,0,0,1-.2-.48Z" transform="translate(-155.683 -55.398)" fill="#fff"/>
      <path id="Path_4657" data-name="Path 4657" d="M308.1,67.357h-5.5V64.81h5.5Zm-5.216-.275h4.935V65.091h-4.935Z" transform="translate(-207.82 -55.121)" fill="#fff"/>
      <rect id="Rectangle_277" data-name="Rectangle 277" width="3.548" height="1.68" transform="translate(95.237 10.123)" fill="#fff"/>
      <rect id="Rectangle_278" data-name="Rectangle 278" width="0.492" height="1.364" transform="translate(100.283 10.286)" fill="#fff"/>
      <path id="Path_4658" data-name="Path 4658" d="M164.675,90.964l-3.015-2.822,3.015-2.822.463.5-2.476,2.324,2.476,2.324Z" transform="translate(-149.394 -63.623)" fill="#fff"/>
      <path id="Path_4659" data-name="Path 4659" d="M308.863,85.32l3.015,2.822-3.015,2.822-.463-.5,2.477-2.324L308.4,85.818Z" transform="translate(-210.224 -63.623)" fill="#fff"/>
      <path id="Path_4660" data-name="Path 4660" d="M239.09,61.843H228.382a.667.667,0,0,1-.662-.662h0a.667.667,0,0,1,.662-.662H239.09a.662.662,0,0,1,.662.662h0A.662.662,0,0,1,239.09,61.843Z" transform="translate(-176.779 -53.342)" fill="#fff"/>
      <rect id="Rectangle_279" data-name="Rectangle 279" width="88.111" height="22.148" transform="translate(12.904 47.514)" fill="#ebebeb"/>
      <path id="Path_4661" data-name="Path 4661" d="M179.262,140.121a7.752,7.752,0,1,1,5.49-2.262,7.746,7.746,0,0,1-5.49,2.262Zm0-14.408a6.668,6.668,0,1,0,6.663,6.663A6.668,6.668,0,0,0,179.262,125.713Z" transform="translate(-153.49 -73.514)" fill="#dbdbdb"/>
      <rect id="Rectangle_280" data-name="Rectangle 280" width="1.194" height="9.42" transform="translate(22.02 56.258) rotate(-45)" fill="#dbdbdb"/>
      <rect id="Rectangle_281" data-name="Rectangle 281" width="1.194" height="9.42" transform="translate(22.865 62.924) rotate(-135)" fill="#dbdbdb"/>
      <rect id="Rectangle_282" data-name="Rectangle 282" width="56.678" height="1.071" transform="translate(39.209 52.786)" fill="#dbdbdb"/>
      <rect id="Rectangle_283" data-name="Rectangle 283" width="56.678" height="1.071" transform="translate(39.209 57.638)" fill="#dbdbdb"/>
      <rect id="Rectangle_284" data-name="Rectangle 284" width="46.269" height="1.071" transform="translate(39.209 60.074)" fill="#dbdbdb"/>
      <rect id="Rectangle_285" data-name="Rectangle 285" width="30.707" height="1.071" transform="translate(39.209 62.517)" fill="#dbdbdb"/>
      <rect id="Rectangle_286" data-name="Rectangle 286" width="46.269" height="1.071" transform="translate(39.209 64.96)" fill="#dbdbdb"/>
      <rect id="Rectangle_287" data-name="Rectangle 287" width="88.111" height="22.148" transform="translate(12.904 112.732)" fill="#ebebeb"/>
      <path id="Path_4662" data-name="Path 4662" d="M179.27,237.15a7.746,7.746,0,1,1,5.49-2.258,7.74,7.74,0,0,1-5.49,2.258Zm0-14.408a6.668,6.668,0,1,0,6.662,6.668,6.668,6.668,0,0,0-6.662-6.668Z" transform="translate(-153.498 -105.604)" fill="#dbdbdb"/>
      <rect id="Rectangle_288" data-name="Rectangle 288" width="1.194" height="9.42" transform="translate(22.02 120.897) rotate(-45)" fill="#dbdbdb"/>
      <rect id="Rectangle_289" data-name="Rectangle 289" width="1.194" height="9.42" transform="translate(22.865 127.563) rotate(-135)" fill="#dbdbdb"/>
      <rect id="Rectangle_290" data-name="Rectangle 290" width="56.678" height="1.071" transform="translate(39.209 117.188)" fill="#dbdbdb"/>
      <rect id="Rectangle_291" data-name="Rectangle 291" width="56.678" height="1.071" transform="translate(39.209 122.04)" fill="#dbdbdb"/>
      <rect id="Rectangle_292" data-name="Rectangle 292" width="46.269" height="1.071" transform="translate(39.209 124.483)" fill="#dbdbdb"/>
      <rect id="Rectangle_293" data-name="Rectangle 293" width="30.707" height="1.071" transform="translate(39.209 126.926)" fill="#dbdbdb"/>
      <rect id="Rectangle_294" data-name="Rectangle 294" width="46.269" height="1.071" transform="translate(39.209 129.368)" fill="#dbdbdb"/>
      <rect id="Rectangle_295" data-name="Rectangle 295" width="88.111" height="22.148" transform="translate(12.904 145.761)" fill="#ebebeb"/>
      <path id="Path_4663" data-name="Path 4663" d="M179.271,286.3a7.746,7.746,0,1,1,5.5-2.267,7.74,7.74,0,0,1-5.5,2.267Zm0-14.408a6.668,6.668,0,1,0,6.662,6.645,6.668,6.668,0,0,0-6.662-6.645Z" transform="translate(-153.498 -121.857)" fill="#dbdbdb"/>
      <rect id="Rectangle_296" data-name="Rectangle 296" width="1.194" height="9.42" transform="translate(22.019 153.638) rotate(-45)" fill="#dbdbdb"/>
      <rect id="Rectangle_297" data-name="Rectangle 297" width="1.194" height="9.42" transform="translate(22.858 160.3) rotate(-135)" fill="#dbdbdb"/>
      <rect id="Rectangle_298" data-name="Rectangle 298" width="56.678" height="1.071" transform="translate(39.209 149.814)" fill="#dbdbdb"/>
      <rect id="Rectangle_299" data-name="Rectangle 299" width="56.678" height="1.071" transform="translate(39.209 154.666)" fill="#dbdbdb"/>
      <rect id="Rectangle_300" data-name="Rectangle 300" width="46.269" height="1.071" transform="translate(39.209 157.109)" fill="#dbdbdb"/>
      <rect id="Rectangle_301" data-name="Rectangle 301" width="30.707" height="1.071" transform="translate(39.209 159.545)" fill="#dbdbdb"/>
      <rect id="Rectangle_302" data-name="Rectangle 302" width="46.269" height="1.071" transform="translate(39.209 161.988)" fill="#dbdbdb"/>
      <rect id="Rectangle_303" data-name="Rectangle 303" width="88.111" height="22.148" transform="translate(12.904 178.79)" fill="#ebebeb"/>
      <path id="Path_4664" data-name="Path 4664" d="M179.27,335.44a7.746,7.746,0,1,1,5.49-2.258A7.74,7.74,0,0,1,179.27,335.44Zm0-14.408a6.668,6.668,0,1,0,6.662,6.668A6.668,6.668,0,0,0,179.27,321.031Z" transform="translate(-153.498 -138.107)" fill="#dbdbdb"/>
      <rect id="Rectangle_304" data-name="Rectangle 304" width="1.194" height="9.42" transform="translate(22.023 186.365) rotate(-45)" fill="#dbdbdb"/>
      <rect id="Rectangle_305" data-name="Rectangle 305" width="1.194" height="9.42" transform="translate(22.868 193.044) rotate(-135)" fill="#dbdbdb"/>
      <rect id="Rectangle_306" data-name="Rectangle 306" width="56.678" height="1.071" transform="translate(39.209 182.433)" fill="#dbdbdb"/>
      <rect id="Rectangle_307" data-name="Rectangle 307" width="56.678" height="1.071" transform="translate(39.209 187.285)" fill="#dbdbdb"/>
      <rect id="Rectangle_308" data-name="Rectangle 308" width="46.269" height="1.071" transform="translate(39.209 189.728)" fill="#dbdbdb"/>
      <rect id="Rectangle_309" data-name="Rectangle 309" width="30.707" height="1.071" transform="translate(39.209 192.171)" fill="#dbdbdb"/>
      <rect id="Rectangle_310" data-name="Rectangle 310" width="46.269" height="1.071" transform="translate(39.209 194.607)" fill="#dbdbdb"/>
      <rect id="Rectangle_311" data-name="Rectangle 311" width="93.89" height="23.6" transform="translate(10.012 79.281)" fill="#32e0c4"/>
      <path id="Path_4665" data-name="Path 4665" d="M252.3,190.329H154.31V162.42H252.3Zm-97.408-.585h96.823V163.005H154.9Z" transform="translate(-146.347 -85.392)" fill="#36ccb4"/>
      <path id="Path_4666" data-name="Path 4666" d="M177,187.5l-3.214-3.249,1.083-1.071,1.873,1.9,3.9-6.112,1.276.82Z" transform="translate(-154.423 -91.843)" fill="#fff"/>
      <path id="Path_4667" data-name="Path 4667" d="M175.389,188.658a8.249,8.249,0,1,1,8.249-8.249A8.249,8.249,0,0,1,175.389,188.658Zm0-15.351a7.107,7.107,0,1,0,7.107,7.1A7.107,7.107,0,0,0,175.389,173.307Z" transform="translate(-151.666 -89.18)" fill="#fff"/>
      <rect id="Rectangle_312" data-name="Rectangle 312" width="60.402" height="1.142" transform="translate(38.043 84.465)" fill="#fff"/>
      <rect id="Rectangle_313" data-name="Rectangle 313" width="60.402" height="1.142" transform="translate(38.043 89.637)" fill="#fff"/>
      <rect id="Rectangle_314" data-name="Rectangle 314" width="49.307" height="1.142" transform="translate(38.043 92.239)" fill="#fff"/>
      <rect id="Rectangle_315" data-name="Rectangle 315" width="32.721" height="1.142" transform="translate(38.043 94.841)" fill="#fff"/>
      <rect id="Rectangle_316" data-name="Rectangle 316" width="49.307" height="1.142" transform="translate(38.043 97.443)" fill="#fff"/>
      <path id="Path_4668" data-name="Path 4668" d="M224.524,389.676a1.452,1.452,0,1,1-1.446-1.446A1.452,1.452,0,0,1,224.524,389.676Z" transform="translate(-174.25 -159.874)" fill="#dbdbdb"/>
      <circle id="Ellipse_52" data-name="Ellipse 52" cx="2.377" cy="2.377" r="2.377" transform="translate(54.583 227.425)" fill="#dbdbdb"/>
      <path id="Path_4669" data-name="Path 4669" d="M252.314,389.676a1.452,1.452,0,1,1-1.452-1.446,1.452,1.452,0,0,1,1.452,1.446Z" transform="translate(-185.77 -159.874)" fill="#dbdbdb"/>
    </g>
    <g id="freepik--Character--inject-247" transform="translate(190.183 113.478)">
      <path id="Path_4670" data-name="Path 4670" d="M340.144,129.422l-.234.059a.141.141,0,0,1,.041-.07h0Z" transform="translate(-287.268 -117.8)" fill="#263238"/>
      <path id="Path_4671" data-name="Path 4671" d="M371.34,178h0" transform="translate(-300.297 -137.943)" fill="none" stroke="#ff98b9" stroke-linecap="round" stroke-linejoin="round" stroke-width="0"/>
      <path id="Path_4672" data-name="Path 4672" d="M371.34,178h0" transform="translate(-300.297 -137.943)" fill="none" stroke="#ff98b9" stroke-linecap="round" stroke-linejoin="round" stroke-width="0"/>
      <path id="Path_4673" data-name="Path 4673" d="M351.745,418.276h-.105V418.2Z" transform="translate(-292.13 -237.516)" fill="#f7a9a0"/>
      <path id="Path_4674" data-name="Path 4674" d="M368.009,160.393c3.05,15.122,13.056,39.448,14.051,42.891.837,2.927,18.436-2.553,17.224-4.25-1.551-2.172-17.066-29.489-24.519-39.337C368.606,151.57,366.574,153.286,368.009,160.393Z" transform="translate(-298.734 -128.117)" fill="#f7a9a0"/>
      <path id="Path_4675" data-name="Path 4675" d="M410.6,228.58c1.832,2.412,4.684,9.3,5.357,11.6s2.067,9.051.357,9.736-2.277-1.265-2.277-1.265.141,2.927-1.639,3.472-2.576-2.523-2.576-2.523-.07,3.039-1.885,3.437-2.1-2.8-2.1-2.8.064,2.775-1.575,2.477c-1.967-.357-1.5-5.5-2.418-7.98-.211-.585-5.029-11.124-5.029-11.124Z" transform="translate(-310.859 -158.91)" fill="#f7a9a0"/>
      <path id="Path_4676" data-name="Path 4676" d="M411.439,259.437c.334-3.776-.176-5.486-1.885-8.782-.035-.064.053-.129.094-.064,1.973,3.1,2.927,5.152,1.973,8.9C411.568,259.648,411.422,259.6,411.439,259.437Z" transform="translate(-316.135 -168.024)" fill="#263238"/>
      <path id="Path_4677" data-name="Path 4677" d="M418.017,257.964a20.013,20.013,0,0,0-2.067-9.42c0-.053.064-.094.088-.041,1.8,3.413,2.7,5.48,2.178,9.432C418.192,258.116,418.017,258.151,418.017,257.964Z" transform="translate(-318.79 -167.159)" fill="#263238"/>
      <path id="Path_4678" data-name="Path 4678" d="M424.657,255.644a17.889,17.889,0,0,0-2.717-9.2.071.071,0,1,1,.117-.082,12.817,12.817,0,0,1,2.711,9.262C424.757,255.86,424.675,255.884,424.657,255.644Z" transform="translate(-321.268 -166.268)" fill="#263238"/>
      <path id="Path_4679" data-name="Path 4679" d="M392.11,234a46.335,46.335,0,0,0,.773,6.809c.556,2.061,5.451,9,7.026,8.027,2.014-1.259,0-5.814-1.317-7.921,0,0,4.684-2.927,3.9-6.487S392.11,234,392.11,234Z" transform="translate(-308.907 -160.629)" fill="#f7a9a0"/>
      <path id="Path_4680" data-name="Path 4680" d="M404.741,249.541c1.007-2.471-.866-5.117-1.961-7.254a.217.217,0,0,1,.152-.322c1.868-1.347,4.1-3.794,4.1-6.223a.059.059,0,0,1,.111,0c.4,2.6-1.616,5.181-3.759,6.528,1.171,2.166,2.927,4.912,1.405,7.295Z" transform="translate(-313.318 -161.862)" fill="#263238"/>
      <path id="Path_4681" data-name="Path 4681" d="M396.822,192.689s-17.88,8-18.3,8.366c0,0-11.522-36.3-12.47-42.44s1.282-7.81,5.228-3.513C377.771,162.14,396.822,192.689,396.822,192.689Z" transform="translate(-298.016 -127.458)" fill="#2f8286"/>
      <path id="Path_4682" data-name="Path 4682" d="M369.231,164.794a.621.621,0,1,1-.621-.621.621.621,0,0,1,.621.621Zm6.961-.621a.621.621,0,1,0,.621.621A.621.621,0,0,0,376.192,164.174Zm-3.782-5.4a.643.643,0,1,1-.018,0Zm3.782,16.258a.621.621,0,1,0,.585.621A.621.621,0,0,0,376.192,175.028Zm7.564,0a.675.675,0,1,1-.018,0Zm-11.346-5.4a.643.643,0,1,1-.018,0Zm7.564,0a.643.643,0,1,1-.018,0Zm-3.782,16.258a.621.621,0,1,0,.621.621A.621.621,0,0,0,376.192,185.882Zm7.564,0a.643.643,0,1,1-.018,0Zm7.564,0a.643.643,0,1,1-.018,0Zm-18.91-5.4h-.117c.117.392.234.79.357,1.171a.621.621,0,0,0-.24-1.171Zm7.564,0a.643.643,0,1,1-.018,0Zm7.564,0a.643.643,0,1,1-.018,0Zm-3.782,16.258a.621.621,0,1,0,.621.621A.621.621,0,0,0,383.756,196.737Zm7.564,0a.621.621,0,1,0,.621.621A.621.621,0,0,0,391.32,196.737Zm-11.346-5.4a.621.621,0,1,0,.621.621.621.621,0,0,0-.621-.621Zm7.564,0a.621.621,0,1,0,.621.621.621.621,0,0,0-.621-.621Zm7.564,0a.621.621,0,1,0,.626.621.626.626,0,0,0-.644-.621Zm-15.128,10.854a.626.626,0,0,0-.621.621.586.586,0,0,0,.422.585l.785-.381a.585.585,0,0,0,.035-.2.621.621,0,0,0-.638-.621Z" transform="translate(-298.908 -129.971)" fill="#fff"/>
      <path id="Path_4683" data-name="Path 4683" d="M366.047,158.633c.948,6.153,12.476,42.44,12.476,42.44.31-.269,9.438-4.408,15.023-6.9l-24.2-40.795C366.638,151.561,365.268,153.581,366.047,158.633Z" transform="translate(-298.013 -127.463)" fill="#2f8286"/>
      <path id="Path_4684" data-name="Path 4684" d="M401.076,215c.047,0,.088.047.047.07-2.342,1.335-13.12,6.182-14.6,6.651-.047,0-.076-.059-.035-.076A155.631,155.631,0,0,1,401.076,215Z" transform="translate(-306.567 -153.281)" fill="#263238"/>
      <path id="Path_4685" data-name="Path 4685" d="M360.053,145.218c0,.585-2.055,4.842-4.684,5.216-.861.123-1.756-4.549-1.756-4.549l-.141-.334-2-4.625,4.982-4.719.726-.638s.468,1.3,1.03,2.927a.95.95,0,0,0,.076.228l.1.263.252.738c.064.187.129.375.187.585s.123.392.187.585A32.294,32.294,0,0,1,360.053,145.218Z" transform="translate(-292.06 -120.354)" fill="#f7a9a0"/>
      <path id="Path_4686" data-name="Path 4686" d="M358.229,138.5a10.105,10.105,0,0,1-4.736,7.055l-2-4.625,4.982-4.719.726-.638S357.643,136.87,358.229,138.5Z" transform="translate(-292.068 -120.354)" fill="#263238"/>
      <path id="Path_4687" data-name="Path 4687" d="M337.6,125.722c.34,8.84,5.65,9.724,7.576,9.561,1.727-.152,7.611-.521,8.2-9.367s-3.642-11.463-7.611-11.516S337.239,116.882,337.6,125.722Z" transform="translate(-286.3 -111.577)" fill="#f7a9a0"/>
      <path id="Path_4688" data-name="Path 4688" d="M337.948,129.712a4.809,4.809,0,0,0,.585-.193.954.954,0,0,0,.556-.3.31.31,0,0,0-.041-.381.773.773,0,0,0-.784-.1,1.171,1.171,0,0,0-.673.48.34.34,0,0,0,.357.5Z" transform="translate(-286.289 -117.493)" fill="#263238"/>
      <path id="Path_4689" data-name="Path 4689" d="M347.109,129.29a4.367,4.367,0,0,1-.585-.064.972.972,0,0,1-.585-.182.31.31,0,0,1-.041-.381.779.779,0,0,1,.744-.263,1.171,1.171,0,0,1,.761.328.334.334,0,0,1-.293.562Z" transform="translate(-289.73 -117.376)" fill="#263238"/>
      <path id="Path_4690" data-name="Path 4690" d="M346.161,133.86a.052.052,0,0,1,.053.053c.035.585.17,1.282.732,1.434v.035C346.272,135.347,346.1,134.434,346.161,133.86Z" transform="translate(-289.854 -119.645)" fill="#263238"/>
      <path id="Path_4691" data-name="Path 4691" d="M346.65,132.7c.96-.152,1.2,1.756.31,1.92S345.848,132.839,346.65,132.7Z" transform="translate(-289.856 -119.162)" fill="#263238"/>
      <path id="Path_4692" data-name="Path 4692" d="M347.6,132.677c.181.088.369.258.585.252s.392-.228.521-.439h.035c.053.369-.041.761-.433.866s-.656-.2-.79-.556C347.478,132.748,347.525,132.642,347.6,132.677Z" transform="translate(-290.416 -119.077)" fill="#263238"/>
      <path id="Path_4693" data-name="Path 4693" d="M340.3,134s-.047.035-.041.059c.1.585.111,1.288-.4,1.557v.035C340.527,135.458,340.492,134.533,340.3,134Z" transform="translate(-287.247 -119.703)" fill="#263238"/>
      <path id="Path_4694" data-name="Path 4694" d="M339.109,133c-.972.059-.79,1.991.105,1.944S339.946,133,339.109,133Z" transform="translate(-286.665 -119.288)" fill="#263238"/>
      <path id="Path_4695" data-name="Path 4695" d="M338.17,133.3c-.146.117-.281.322-.463.351s-.386-.164-.539-.351h-.029a.716.716,0,0,0,.544.785c.363.041.539-.3.585-.685C338.288,133.354,338.229,133.254,338.17,133.3Z" transform="translate(-286.119 -119.408)" fill="#263238"/>
      <path id="Path_4696" data-name="Path 4696" d="M346.38,141.731c-.117.164-.228.381-.439.433a1.581,1.581,0,0,1-.662-.041s-.035,0,0,.035a.8.8,0,0,0,.808.193.638.638,0,0,0,.381-.585C346.444,141.713,346.4,141.707,346.38,141.731Z" transform="translate(-289.487 -122.902)" fill="#263238"/>
      <path id="Path_4697" data-name="Path 4697" d="M341.779,134.393a12.793,12.793,0,0,0,0,1.329c0,.035.105.047.252.035h0a2.02,2.02,0,0,0,1.862-.966.047.047,0,0,0-.07-.053,3.033,3.033,0,0,1-1.756.732,15.181,15.181,0,0,0,0-1.551,3.922,3.922,0,0,0-.931.322c0-1.891.287-3.764.252-5.65a.059.059,0,0,0-.111,0,30.441,30.441,0,0,0-.48,6.077C340.789,134.9,341.621,134.481,341.779,134.393Z" transform="translate(-287.632 -117.444)" fill="#263238"/>
      <path id="Path_4698" data-name="Path 4698" d="M343,139.782a2.458,2.458,0,0,0,.989.773,1.1,1.1,0,0,0,.673.041c.486-.129.5-.585.41-.96a2.676,2.676,0,0,0-.217-.585A3.173,3.173,0,0,1,343,139.782Z" transform="translate(-288.549 -121.796)" fill="#263238"/>
      <path id="Path_4699" data-name="Path 4699" d="M344.64,140.969a1.1,1.1,0,0,0,.673.041c.486-.129.5-.585.41-.96a1.171,1.171,0,0,0-1.083.919Z" transform="translate(-289.228 -122.211)" fill="#ff9bbc"/>
      <path id="Path_4700" data-name="Path 4700" d="M425.913,381.2c.662,1.294,1.306,2.576,1.92,3.823q.585,1.171,1.107,2.266c2.3,4.719,3.917,8.4,3.653,8.864-.82,1.429-33,18.553-34.319,18.781s-2.049-3.542-1.329-5.2c.439-1.013,4.1-5.855,6.867-9.52h0c1.8-2.342,3.238-4.192,3.238-4.192l-2.1-3.729-9.607-16.978,21.557-11.4S421.639,372.749,425.913,381.2Z" transform="translate(-310.246 -215.015)" fill="#f7a9a0"/>
      <path id="Path_4701" data-name="Path 4701" d="M399.208,430.76c1.323-.222,33.506-17.359,34.319-18.787.269-.457-1.358-4.139-3.653-8.864-.158-.334-.328-.673-.5-1.019-4.133,2.488-18.331,14.566-25.268,16.978-2.482.866-.17-1.979-.17-1.979a100.973,100.973,0,0,0-6.059,8.448C397.159,427.212,397.885,430.976,399.208,430.76Z" transform="translate(-311.181 -230.838)" fill="#263238"/>
      <path id="Path_4702" data-name="Path 4702" d="M377.777,327.384c-.258-.129-15.351-32.405-19.15-44.419-4.935-15.608-10.8-45.431-12.137-51.4a87.7,87.7,0,0,1-5.55-21.422h28.892s7.576,14.5,3.671,24.736c-.328.943,5.79,33.143,8.583,39,2.418,5.07,20.087,40.291,20.561,40.537Z" transform="translate(-287.695 -151.266)" fill="#eee"/>
      <path id="Path_4703" data-name="Path 4703" d="M423.526,380.24c-2.875,1.171-13.987,6.791-16.756,8.2l-2.266,1.171a17.063,17.063,0,0,0-2.236,1.253c-.041.029,0,.1.047.088a14.425,14.425,0,0,0,2.055-.814c.714-.31,1.423-.632,2.125-.96,1.417-.644,15.591-7.91,17.066-8.864a.047.047,0,0,0-.035-.07Z" transform="translate(-313.111 -221.78)" fill="#263238"/>
      <path id="Path_4704" data-name="Path 4704" d="M385.17,321.887c-2.436-5.468-14.1-33.957-16.147-40.238s-3.741-12.57-5.351-18.922c-1.639-6.44-3.179-12.939-4.754-19.414-1.592-6.569-3.156-13.161-4.344-19.812-.152-.843-.3-1.686-.445-2.529,0-.059-.111-.047-.1,0,.948,6.715,2.248,13.378,3.729,19.993s3.079,13.1,4.713,19.619c1.592,6.393,3.284,12.763,5.269,19.051s16.492,41.567,17.347,42.293C385.135,321.981,385.2,321.946,385.17,321.887Z" transform="translate(-293.12 -155.74)" fill="#263238"/>
      <path id="Path_4705" data-name="Path 4705" d="M340.93,210.133a87.966,87.966,0,0,0,5.556,21.428c1.007,4.514,4.613,22.675,8.442,38.014l14.894-59.447S340.93,210.116,340.93,210.133Z" transform="translate(-287.691 -151.259)" fill="#263238"/>
      <path id="Path_4706" data-name="Path 4706" d="M334.138,408.078c0,1.458-.053,2.892-.088,4.28,0,.867-.053,1.71-.082,2.523-.176,5.24-.463,9.256-.913,9.543-1.388.878-37.844.984-39.12.585s-.152-4.1,1.259-5.222c.855-.685,6.346-3.279,10.538-5.2h0c2.681-1.229,4.818-2.2,4.818-2.2l-.117-4.28-.3-19.507h24.08S334.308,398.629,334.138,408.078Z" transform="translate(-267.978 -225.246)" fill="#f7a9a0"/>
      <path id="Path_4707" data-name="Path 4707" d="M349.221,235.988s-2.471,23.418-3.624,35.233c-.293,2.927-.492,5.158-.585,6.112,0,.375-.047,6.5-.059,14.508,0,7.026,1.756,39.542,1.756,39.542H319.38s1.171-50.566,1.581-56.274c.053-.662.094-1.347.14-2.043,1.077-16.159,1.669-39.682,9.6-62.925h30.239s.743,13.466-5.468,23.336A52.849,52.849,0,0,0,349.221,235.988Z" transform="translate(-278.757 -151.266)" fill="#eee"/>
      <path id="Path_4708" data-name="Path 4708" d="M345.727,407.08c-3.1-.193-15.544,0-18.653.041l-2.547.059a17.035,17.035,0,0,0-2.564.146c-.053,0-.047.094,0,.1a14.5,14.5,0,0,0,2.2.17q1.171.047,2.342.07c1.551.035,17.476-.287,19.221-.5C345.786,407.156,345.786,407.08,345.727,407.08Z" transform="translate(-279.813 -232.871)" fill="#263238"/>
      <path id="Path_4709" data-name="Path 4709" d="M337.772,215.743a199.533,199.533,0,0,0-5.012,20.8c-1.288,6.973-2.3,14-3.062,21.047-.779,7.148-1.317,14.32-1.68,21.5s-.521,14.332-.533,21.5-.1,24.911-.047,25.807a.047.047,0,0,0,.094,0c.041-7.131.544-15.883.556-23.014s.146-14.344.439-21.51.749-14.227,1.446-21.311,1.639-14.268,2.875-21.34,2.687-13.951,4.379-20.842c.217-.872.439-1.756.667-2.611a.064.064,0,0,0-.123-.029Z" transform="translate(-282.091 -153.573)" fill="#263238"/>
      <path id="Path_4710" data-name="Path 4710" d="M373.506,247.7a5.972,5.972,0,0,1-2.863,1.487c-1.136.293-2.3.468-3.448.685a50.553,50.553,0,0,1-7.734,1,15.883,15.883,0,0,1-4.4-.345.047.047,0,0,0,0,.088,19.164,19.164,0,0,0,3.893.8,19.6,19.6,0,0,0,4.016-.111c1.352-.164,2.7-.427,4.034-.708a29.788,29.788,0,0,0,3.565-.925,6.545,6.545,0,0,0,3.015-1.914C373.6,247.718,373.541,247.659,373.506,247.7Z" transform="translate(-293.535 -166.831)" fill="#263238"/>
      <path id="Path_4711" data-name="Path 4711" d="M293.946,441.959c1.282.416,37.727.31,39.12-.585.451-.281.738-4.3.913-9.537,0-.749.053-1.516.07-2.307-4.485.539-23.781,4.76-32.048,4.76-2.008,0,1.171-1.37.79-1.405a83.621,83.621,0,0,0-7.611,3.841C293.794,437.867,292.676,441.514,293.946,441.959Z" transform="translate(-267.983 -242.213)" fill="#263238"/>
      <path id="Path_4712" data-name="Path 4712" d="M337.376,177.121l-2.506,13.465s29.735.416,36.72-.076c0,0-7.3-28.441-14.812-36.6-3.753-4.1-8.2-3.776-10.977-.925-.708.726-9.2,11.937-10.087,16.223C334.946,172.965,337.376,177.121,337.376,177.121Z" transform="translate(-285.178 -126.684)" fill="#2f8286"/>
      <path id="Path_4713" data-name="Path 4713" d="M340.722,164.794a.626.626,0,0,1-.621.621.585.585,0,0,1-.4-.152c.217-.345.439-.685.662-1.03A.621.621,0,0,1,340.722,164.794Zm6.944-.621a.615.615,0,1,0,.441.18A.621.621,0,0,0,347.665,164.174Zm7.564,0a.621.621,0,1,0,.621.621A.621.621,0,0,0,355.229,164.174Zm-11.083-5.345-.72.984a.621.621,0,1,0,.72-.984Zm7.3-.059a.615.615,0,1,0,.441.18.621.621,0,0,0-.441-.18Zm7.113.2a.586.586,0,0,0-.17.422.626.626,0,0,0,.621.621.585.585,0,0,0,.222-.041c-.222-.345-.451-.685-.673-1ZM340.1,175.028a.621.621,0,1,0,.621.621.621.621,0,0,0-.621-.621Zm7.564,0a.615.615,0,1,0,.441.18.621.621,0,0,0-.441-.18Zm7.564,0a.621.621,0,1,0,.621.621.621.621,0,0,0-.621-.621Zm7.564,0a.595.595,0,1,0,.018,0Zm-25.865-4.906c-.105.222-.2.445-.293.656a.632.632,0,0,0,.3-.533A.8.8,0,0,0,336.928,170.122Zm6.955-.5a.621.621,0,1,0,.621.621A.621.621,0,0,0,343.883,169.624Zm7.564,0a.615.615,0,1,0,.441.18.621.621,0,0,0-.441-.18Zm7.564,0a.621.621,0,1,0,.621.621.621.621,0,0,0-.621-.621ZM340.1,185.882a.615.615,0,1,0,.441.18.621.621,0,0,0-.441-.18Zm7.564,0a.615.615,0,1,0,.44.18.621.621,0,0,0-.44-.18Zm7.564,0a.621.621,0,1,0,.621.621.621.621,0,0,0-.621-.621Zm7.564,0a.612.612,0,1,0,.017,0Zm7.025.34a.608.608,0,0,0,.24.814Zm-25.924-5.743a.64.64,0,1,1-.012,0Zm7.564,0a.64.64,0,1,1-.012,0Zm7.564,0a.633.633,0,1,1-.012,0Zm7.564,0a.633.633,0,1,1-.012,0Zm-30.256,10.854a.631.631,0,1,1-.012,0Zm7.564,0a.631.631,0,1,1-.012,0Zm7.564,0a.631.631,0,1,1-.012,0Zm7.564,0a.621.621,0,1,0,.621.621A.621.621,0,0,0,359.023,191.333Zm7.564,0a.621.621,0,1,0,.621.621A.621.621,0,0,0,366.587,191.333Z" transform="translate(-285.527 -129.971)" fill="#fff"/>
      <path id="Path_4714" data-name="Path 4714" d="M381.678,171.5c.714,1.569,1.393,3.144,2.055,4.736-.105-.48-.222-.96-.357-1.429,0-.07.088-.094.111,0a9.879,9.879,0,0,1,.533,2.16,140.888,140.888,0,0,1,5.392,15.807c.281,1.013.585,2.032.8,3.056s.586,2.125.7,3.208a.047.047,0,0,1-.094,0c-.345-.9-.585-1.856-.843-2.781s-.521-1.756-.79-2.67c-.544-1.815-1.089-3.63-1.657-5.439-1.124-3.577-2.342-7.107-3.624-10.638-.72-2.02-1.516-4.01-2.3-6.007C381.59,171.484,381.661,171.454,381.678,171.5Z" transform="translate(-304.552 -135.238)" fill="#263238"/>
      <path id="Path_4715" data-name="Path 4715" d="M328.873,158.909c-1.827,4.046-11.452,20.315-16.691,22.072-8.2,2.758-18.272,1-23.582.515-2.962-.275-.035-18.1,3.132-17.043,4.338,1.44,14.888,2.8,16.451,2.757s9.121-7.693,14.912-12.218C328.463,150.8,331.894,152.212,328.873,158.909Z" transform="translate(-265.488 -127.423)" fill="#f7a9a0"/>
      <path id="Path_4716" data-name="Path 4716" d="M250,169.166c-.217,2.594,8.852,2.957,8.852,2.957a3.583,3.583,0,0,0-1.669,1.786c-.521,1.388,1.429,2.81,1.429,2.81a4.455,4.455,0,0,0-1.458,2.166c-.363,1.382,1.4,3.091,1.4,3.091a3.911,3.911,0,0,0-.082,2.717c.89,2.342,4.637,3.068,7.026,3.554s9.432-.1,11.188-.457l3.3-16.012a44.08,44.08,0,0,0-13.161-4.52C264.441,166.865,250.272,166.233,250,169.166Z" transform="translate(-249.993 -133.347)" fill="#f7a9a0"/>
      <path id="Path_4717" data-name="Path 4717" d="M265.4,175.269a31.651,31.651,0,0,1,7.839.076.047.047,0,1,1,0,.088c-2.605-.217-5.216.082-7.828-.041A.062.062,0,0,1,265.4,175.269Z" transform="translate(-256.358 -136.716)" fill="#263238"/>
      <path id="Path_4718" data-name="Path 4718" d="M264.865,183.325a6.7,6.7,0,0,1,1.809.1c.632.076,1.27.164,1.9.263,1.265.2,2.529.427,3.782.7.059,0,.053.1,0,.088-1.265-.193-2.529-.375-3.8-.515-.638-.07-1.27-.141-1.909-.2a8.373,8.373,0,0,1-1.792-.258.094.094,0,0,1,.006-.176Z" transform="translate(-256.132 -140.141)" fill="#263238"/>
      <path id="Path_4719" data-name="Path 4719" d="M264.74,192.652a4.625,4.625,0,0,1,1.622.176l1.756.3c1.171.193,2.307.381,3.466.533.053,0,.047.1,0,.094-1.171-.152-2.342-.281-3.513-.439l-1.756-.246a4.391,4.391,0,0,1-1.551-.363Z" transform="translate(-256.107 -144.012)" fill="#263238"/>
      <path id="Path_4720" data-name="Path 4720" d="M300.933,164.657l-1.423,19.484s16.568-1.124,19.191-3.021c3.126-2.26,13.77-17.078,16.246-23.061s-.825-8-6-4.1-14.379,11.574-15.1,11.937S300.933,164.657,300.933,164.657Z" transform="translate(-270.52 -127.147)" fill="#2f8286"/>
      <path id="Path_4721" data-name="Path 4721" d="M327.319,164.794a.621.621,0,1,1-.621-.621A.621.621,0,0,1,327.319,164.794Zm6.944-.621a.621.621,0,0,0-.076,1.235l.585-.989A.585.585,0,0,0,334.263,164.174Zm-3.782-5.4a.621.621,0,1,0,.621.621.621.621,0,0,0-.621-.621Zm-26.474,16.258a.621.621,0,1,0,.621.621.621.621,0,0,0-.621-.621Zm7.564,0a.621.621,0,1,0,.621.621A.621.621,0,0,0,311.571,175.028Zm7.564,0a.621.621,0,1,0,.621.621A.621.621,0,0,0,319.135,175.028Zm7.564,0a.621.621,0,1,0,.621.621A.621.621,0,0,0,326.7,175.028Zm-18.91-5.4a.621.621,0,1,0,.621.621A.621.621,0,0,0,307.789,169.624Zm7.564,0a.621.621,0,1,0,.621.621A.621.621,0,0,0,315.353,169.624Zm7.564,0a.621.621,0,1,0,.621.621A.621.621,0,0,0,322.917,169.624Zm7.564,0a.621.621,0,1,0,.621.621A.621.621,0,0,0,330.481,169.624Zm-26.474,16.258a.62.62,0,0,0-.626.621.586.586,0,0,0,.07.281l1.171-.094a.663.663,0,0,0,.029-.187.621.621,0,0,0-.644-.621Zm7.564,0a.585.585,0,0,0-.334.1l.527-.064A.515.515,0,0,0,311.571,185.883Zm-3.782-5.4a.615.615,0,1,0,.441.18A.621.621,0,0,0,307.789,180.479Zm7.564,0a.615.615,0,1,0,.441.18.621.621,0,0,0-.441-.18Zm7.564,0a.621.621,0,0,0-.3,1.171c.252-.287.515-.585.79-.919a.585.585,0,0,0-.492-.252Z" transform="translate(-272.125 -129.971)" fill="#fff"/>
      <path id="Path_4722" data-name="Path 4722" d="M338.7,184.4c.176-.258,7.025-9.619,8.647-12.254.515-.855,1.054-1.756,1.575-2.553a.053.053,0,0,1,.088.059c-.24.527-.439.978-.7,1.44-.129.222-.252.445-.381.662.293-.3.585-.585.913-.872a.035.035,0,1,1,.053.047c-.281.345-.556.691-.866,1.013q-.211.223-.439.422h0l-.035.07a92.762,92.762,0,0,1-8.782,12C338.732,184.5,338.668,184.461,338.7,184.4Z" transform="translate(-286.763 -134.451)" fill="#263238"/>
      <path id="Path_4723" data-name="Path 4723" d="M308.06,176.872a.041.041,0,0,1,.082,0c.07,2.693-.738,14.484-1.024,16.012,0,.047-.088.041-.088,0C307.188,187.328,307.44,181.843,308.06,176.872Z" transform="translate(-273.638 -137.459)" fill="#263238"/>
      <path id="Path_4724" data-name="Path 4724" d="M342.215,111.395c-.585.334-4.684.708-5.375,4.016-.527,2.512,1.136,3.864,3.483,4.057a11.062,11.062,0,0,0,5.439-1.44c.585,2.558,1.294,5.855,2.26,6.223.785.31,1.7-.8,1.7-.8a18.172,18.172,0,0,1,1.06,7.482c-.544,2.289-2.342,5.656.621,8.085a5.879,5.879,0,0,0,5.626.187c2.459-1.224,2.594-3.284,3.478-4.127s3.805-1.171,4.49-2.927.187-3.63.474-4.49,1.458-1.212,1.54-2.974-1.692-2.154-2.4-3.372c-.5-.849,0-2-1.136-3.15-1.534-1.587-3.688-.258-5.351-1.85-1.3-1.247-4.83-6.147-9.461-6.68a9.133,9.133,0,0,0-6.446,1.762Z" transform="translate(-285.955 -109.58)" fill="#263238"/>
      <path id="Path_4725" data-name="Path 4725" d="M364.25,112.7a32.537,32.537,0,0,1,3.156,2.857c.521.474,1.019.972,1.575,1.4a4.2,4.2,0,0,0,.855.544.708.708,0,0,0,.217.082.9.9,0,0,0,.234.035h.539a20.792,20.792,0,0,1,2.254.035,3.513,3.513,0,0,1,2.1.808,2.113,2.113,0,0,1,.585.954,2.926,2.926,0,0,1,.047,1.124,4.684,4.684,0,0,0,.035,2.149,4.274,4.274,0,0,1-.269-2.143,2.675,2.675,0,0,0-.1-1.025,1.809,1.809,0,0,0-.585-.779,3.513,3.513,0,0,0-1.914-.667c-.714-.059-1.458,0-2.213,0h-.585a1.487,1.487,0,0,1-.585-.164,4.375,4.375,0,0,1-.931-.621,16.151,16.151,0,0,1-1.557-1.475l-1.428-1.569A16.437,16.437,0,0,0,364.25,112.7Z" transform="translate(-297.358 -110.873)" fill="#263238"/>
      <path id="Path_4726" data-name="Path 4726" d="M382.557,139.24a3.706,3.706,0,0,0,.1,1.475c.082.5.17,1,.228,1.5a7.154,7.154,0,0,1,.047,1.546,3.3,3.3,0,0,1-.468,1.522,4.21,4.21,0,0,1-2.722,1.475c-.5.1-1,.17-1.481.281a3.056,3.056,0,0,0-1.37.55,2.974,2.974,0,0,1,1.311-.767c.486-.152.978-.263,1.458-.4a4.236,4.236,0,0,0,2.43-1.388,3.014,3.014,0,0,0,.422-1.323,9.422,9.422,0,0,0,.035-1.469c0-.5-.064-1-.105-1.5v-.761A1.411,1.411,0,0,1,382.557,139.24Z" transform="translate(-302.598 -121.875)" fill="#263238"/>
      <path id="Path_4727" data-name="Path 4727" d="M347.749,122.84a7.908,7.908,0,0,1-1.622,1.253,7.735,7.735,0,0,1-1.85.8,7.973,7.973,0,0,1-.984.222l-.5.07-.509.029a9.951,9.951,0,0,1-1.025,0c-.34,0-.685-.059-1.036-.07.334.105.673.2,1.013.275a7.023,7.023,0,0,0,1.054.123,6.44,6.44,0,0,0,2.108-.252,6.318,6.318,0,0,0,1.914-.931,5.269,5.269,0,0,0,1.44-1.522Z" transform="translate(-287.396 -115.077)" fill="#263238"/>
      <path id="Path_4728" data-name="Path 4728" d="M352.381,122a10.924,10.924,0,0,0-.182,4.1,5.912,5.912,0,0,0,.632,1.985,2.576,2.576,0,0,0,1.551,1.329,2.973,2.973,0,0,1-1.259-1.475,7.552,7.552,0,0,1-.509-1.9A28.635,28.635,0,0,1,352.381,122Z" transform="translate(-292.315 -114.728)" fill="#263238"/>
      <path id="Path_4729" data-name="Path 4729" d="M357.441,132.787s1.587-2.968,2.927-2.441.369,4.684-1.025,5.4a1.493,1.493,0,0,1-2.084-.585Z" transform="translate(-294.46 -118.162)" fill="#f7a9a0"/>
      <path id="Path_4730" data-name="Path 4730" d="M360.558,132.41s.035.029,0,.041a3.762,3.762,0,0,0-1.657,2.582.831.831,0,0,1,1.171-.375c.029,0,0,.064,0,.059a.925.925,0,0,0-.966.445,4.634,4.634,0,0,0-.381.872c-.035.094-.211.064-.187-.041v-.029C358.4,134.664,359.188,132.714,360.558,132.41Z" transform="translate(-294.983 -119.044)" fill="#263238"/>
    </g>
    <g id="freepik--Cursor--inject-247" transform="translate(165.509 137.42)">
      <path id="Path_4731" data-name="Path 4731" d="M254.259,209.05l2.289,5.533-2.289.948-2.3-5.574L248.17,212.9V197.3l10.919,11.03Z" transform="translate(-238.457 -188.342)" fill="#263238"/>
      <path id="Path_4732" data-name="Path 4732" d="M249.792,186.848a9.322,9.322,0,0,1-.293-2.43,8.885,8.885,0,0,1,.293-2.418,8.888,8.888,0,0,1,.293,2.436A9.321,9.321,0,0,1,249.792,186.848Z" transform="translate(-239.008 -182)" fill="#263238"/>
      <path id="Path_4733" data-name="Path 4733" d="M240.417,190.807a9.04,9.04,0,0,1-1.926-1.51,8.856,8.856,0,0,1-1.51-1.926,10.334,10.334,0,0,1,3.437,3.437Z" transform="translate(-233.819 -184.226)" fill="#263238"/>
      <path id="Path_4734" data-name="Path 4734" d="M236.439,200.183a10.228,10.228,0,0,1-4.859,0A10.228,10.228,0,0,1,236.439,200.183Z" transform="translate(-231.58 -189.416)" fill="#263238"/>
      <path id="Path_4735" data-name="Path 4735" d="M240.417,207.55a10.333,10.333,0,0,1-3.437,3.437,8.858,8.858,0,0,1,1.51-1.926A9.04,9.04,0,0,1,240.417,207.55Z" transform="translate(-233.819 -192.592)" fill="#263238"/>
      <path id="Path_4736" data-name="Path 4736" d="M260.12,200.183a10.229,10.229,0,0,1,4.859,0A10.228,10.228,0,0,1,260.12,200.183Z" transform="translate(-243.411 -189.416)" fill="#263238"/>
      <path id="Path_4737" data-name="Path 4737" d="M257.15,190.807a9.062,9.062,0,0,1,1.516-1.926,8.9,8.9,0,0,1,1.926-1.51,10.281,10.281,0,0,1-3.442,3.437Z" transform="translate(-242.18 -184.226)" fill="#263238"/>
    </g>
    <g id="freepik--Plant--inject-247" transform="translate(41.768 215.645)">
      <path id="Path_4738" data-name="Path 4738" d="M92.33,347.107c3.718-7.64,10.222-11.563,17.564-9.4s8.472,12.388,3,14.97-10.948-4.953-13.834-6.5S92.33,347.107,92.33,347.107Z" transform="translate(-64.008 -306.071)" fill="#36ccb4"/>
      <path id="Path_4739" data-name="Path 4739" d="M86.171,368.767c0-.919.053-1.844.082-2.763.07-1.838.129-3.677.2-5.515a25.631,25.631,0,0,1,1.879-9.765,15.122,15.122,0,0,1,5.925-6.8,12.293,12.293,0,0,1,3.1-1.341,7.277,7.277,0,0,1,3.618-1.985,14.783,14.783,0,0,1,5.152-.129c.064,0,.064.105,0,.094a12.354,12.354,0,0,0-4.877.351,10.682,10.682,0,0,0-1.967.761,9.132,9.132,0,0,0-1.136.726,10.539,10.539,0,0,1,4.479.041,9.9,9.9,0,0,1,1.557.515,4.31,4.31,0,0,1,1.218-.105,7.245,7.245,0,0,1,1.587.223,12.031,12.031,0,0,1,3.015,1.317.053.053,0,0,1-.047.088,11.264,11.264,0,0,0-2.927-1.112,10.1,10.1,0,0,0-1.51-.223,8.092,8.092,0,0,0-.843,0,9.765,9.765,0,0,1,4.742,4.725c0,.059-.064.105-.088.047a8.917,8.917,0,0,0-6.042-4.842c-.158-.041-.328-.064-.492-.094a6.441,6.441,0,0,1,.082.738c.047.375.111.744.187,1.112a18.521,18.521,0,0,0,.585,2.237,17.328,17.328,0,0,0,.884,2.166,10.414,10.414,0,0,0,1.241,2.09.048.048,0,0,1-.076.059c-.439-.691-.954-1.323-1.358-2.043a15.679,15.679,0,0,1-1-2.131,14.971,14.971,0,0,1-.65-2.289c-.082-.416-.146-.826-.193-1.247a2.722,2.722,0,0,1-.047-.755,9.954,9.954,0,0,0-2.605-.053,14.278,14.278,0,0,0,1.7,5.3c.035.053-.053.1-.082.047a21.811,21.811,0,0,1-1.265-2.605,10.07,10.07,0,0,1-.626-2.717,12.067,12.067,0,0,0-4.3,1.44,14.25,14.25,0,0,0-5.732,6.27,23.7,23.7,0,0,0-2.125,8.987c-.24,3.905-.293,7.833-.685,11.709,0,.258-.427.34-.474.053A13.418,13.418,0,0,1,86.171,368.767Z" transform="translate(-61.444 -307.392)" fill="#263238"/>
      <path id="Path_4740" data-name="Path 4740" d="M100.851,343.686a4.274,4.274,0,0,1,.843-.779c.3-.252.621-.5.943-.72a7.089,7.089,0,0,1,2.114-.978c.059,0,.088.082,0,.094a5.643,5.643,0,0,0-2.084,1.025c-.31.228-.585.474-.9.726a5.27,5.27,0,0,1-.831.726A.064.064,0,0,1,100.851,343.686Z" transform="translate(-67.536 -307.767)" fill="#263238"/>
      <path id="Path_4741" data-name="Path 4741" d="M121.053,350.158a22.214,22.214,0,0,1,1.686,2.242A13.466,13.466,0,0,1,124,354.912s0,.041-.041,0a29.8,29.8,0,0,0-3-4.719C120.947,350.176,121.018,350.111,121.053,350.158Z" transform="translate(-75.876 -311.469)" fill="#263238"/>
      <path id="Path_4742" data-name="Path 4742" d="M107.4,348.854a5.633,5.633,0,0,0,.422,1.382,9.369,9.369,0,0,0,.708,1.224c0,.029,0,.053-.041.035a4.988,4.988,0,0,1-1.171-2.617C107.3,348.819,107.395,348.79,107.4,348.854Z" transform="translate(-70.221 -310.92)" fill="#263238"/>
      <path id="Path_4743" data-name="Path 4743" d="M69.2,351.121s-5.269-6.616-15.421-4.268c-9.654,2.225-14.115,19.935-4.356,22.048s8.027-14.262,11.592-17.043C63.623,349.815,67.4,350.243,69.2,351.121Z" transform="translate(-43.955 -309.897)" fill="#36ccb4"/>
      <path id="Path_4744" data-name="Path 4744" d="M47.317,357.5a19.776,19.776,0,0,1,2.09-1.592,9.365,9.365,0,0,1,2.231-1.112,13.733,13.733,0,0,1,1.341-1.715,12.95,12.95,0,0,1,3.056-2.441h-.3a14.9,14.9,0,0,0-1.616,0,9.062,9.062,0,0,0-3.132.779c-.059,0-.1-.064-.041-.088a14.207,14.207,0,0,1,3.132-.943,8.411,8.411,0,0,1,1.587-.135,8.26,8.26,0,0,1,.849.047h.164A14.051,14.051,0,0,1,59.6,349.22l-.281-.076a14.637,14.637,0,0,0-1.5-.246,12,12,0,0,0-3.039.047c-.064,0-.082-.088,0-.094a18.525,18.525,0,0,1,3.068-.123,12.712,12.712,0,0,1,2.558.328,12.965,12.965,0,0,1,1.85-.211c3.513-.152,7.406,1.171,9.584,4.1s2.611,6.8,3,10.316a78.791,78.791,0,0,1,.392,14.759c0,.293-.433.24-.439-.035-.135-4.174-.281-8.354-.679-12.511-.187-1.926-.392-3.864-.714-5.773a16.8,16.8,0,0,0-1.4-4.748,8.682,8.682,0,0,0-3.425-3.688,11.569,11.569,0,0,0-4.859-1.493,12.956,12.956,0,0,0-4.555.427,3.062,3.062,0,0,1,0,.9,4.806,4.806,0,0,1-.222,1.112,5.852,5.852,0,0,1-.427.984c-.187.351-.422.662-.632,1a.049.049,0,0,1-.082-.053,4.614,4.614,0,0,0,.79-2.008,7.61,7.61,0,0,0,.123-1.03q0-.4,0-.79a13.507,13.507,0,0,0-4.432,2.342c-.252.2-.486.41-.72.626a4.889,4.889,0,0,1,.861,1.054,10.865,10.865,0,0,1,.907,1.61,13.671,13.671,0,0,1,.943,3.513.047.047,0,1,1-.094,0A10.357,10.357,0,0,0,55,356.1a12.713,12.713,0,0,0-.9-1.487c-.17-.246-.345-.486-.533-.72-.1-.129-.2-.258-.3-.392a14.051,14.051,0,0,0-2.88,4.057h0a6.874,6.874,0,0,1,1.171,1.71A16.026,16.026,0,0,1,52.5,361.3a33.658,33.658,0,0,1,1.218,4.145.05.05,0,1,1-.1,0,17.352,17.352,0,0,0-1.44-4.1c-.3-.638-.621-1.265-.96-1.885a17.247,17.247,0,0,1-.954-1.756,12.973,12.973,0,0,0-1.171,4.684.053.053,0,0,1-.1,0,16.393,16.393,0,0,1,2.283-7.219c-.621.263-1.247.515-1.844.837a10.659,10.659,0,0,0-2.114,1.487C47.329,357.615,47.27,357.539,47.317,357.5Z" transform="translate(-45.341 -310.876)" fill="#263238"/>
      <path id="Path_4745" data-name="Path 4745" d="M59.984,364.334c.3,1.007.691,1.979.966,2.992a11.445,11.445,0,0,1,.445,2.986h-.047a29.274,29.274,0,0,0-1.452-5.954C59.867,364.3,59.954,364.27,59.984,364.334Z" transform="translate(-50.561 -317.337)" fill="#263238"/>
      <path id="Path_4746" data-name="Path 4746" d="M49.056,359.04a5.755,5.755,0,0,1,1.347-.96,9.642,9.642,0,0,1,1.557-.55c.059,0,.076.082,0,.094a6.227,6.227,0,0,0-1.5.621,10.4,10.4,0,0,0-1.382.849.035.035,0,0,1-.023-.053Z" transform="translate(-46.067 -314.532)" fill="#263238"/>
      <path id="Path_4747" data-name="Path 4747" d="M65.43,327.752s-.972-11.885-9.806-15.737c-7.383-3.238-11.58,5.076-6.387,10.152C53.458,326.27,60.22,324.414,65.43,327.752Z" transform="translate(-45.188 -295.362)" fill="#36ccb4"/>
      <path id="Path_4748" data-name="Path 4748" d="M53.617,315.8a37.609,37.609,0,0,1,3.928,1.862,30.281,30.281,0,0,1,3.05,2.026c-.146-.3-.275-.615-.422-.907-.228-.462-.48-.907-.749-1.346a12.594,12.594,0,0,0-1.95-2.488c-.041-.041,0-.111.07-.064a19.319,19.319,0,0,1,2.049,2.383,13.986,13.986,0,0,1,.843,1.346,5.27,5.27,0,0,1,.585,1.37l.1.07a29,29,0,0,1,4.221,4.127,1.309,1.309,0,0,0-.082-.34c-.164-.585-.345-1.171-.533-1.756a14.777,14.777,0,0,0-1.6-3.466c-.035-.053.053-.1.082-.047a27.027,27.027,0,0,1,1.85,3.378,13.277,13.277,0,0,1,.585,1.756,8.1,8.1,0,0,1,.287,1.171c.381.486.761.984,1.118,1.487a36.5,36.5,0,0,1,6.153,18.465,57.457,57.457,0,0,1,.1,5.855,35.906,35.906,0,0,1-.521,5.855c0,.123-.217.088-.211-.035.047-1.715.222-3.425.258-5.146a50.546,50.546,0,0,0-.17-5.158,47.9,47.9,0,0,0-1.868-10.011,36.176,36.176,0,0,0-4.514-9.531c-.375-.076-.744-.176-1.107-.269s-.884-.228-1.323-.351a13.225,13.225,0,0,1-2.465-.9.049.049,0,1,1,.053-.082,7.986,7.986,0,0,0,2.494.861c.7.141,1.411.228,2.108.386-.644-.931-1.323-1.838-2.055-2.7a15.468,15.468,0,0,1-5.029-.375,20.725,20.725,0,0,1-2.57-.8c-.89-.34-1.756-.779-2.6-1.142-.064-.029,0-.129.041-.088a14.725,14.725,0,0,0,5.093,1.663,31.724,31.724,0,0,0,4.766.4c-.626-.72-1.27-1.423-1.967-2.084a23.49,23.49,0,0,0-8.132-5.3C53.529,315.874,53.558,315.775,53.617,315.8Z" transform="translate(-47.935 -296.845)" fill="#263238"/>
      <path id="Path_4749" data-name="Path 4749" d="M65.881,316.509a13.8,13.8,0,0,1,1.083,1.587,8.385,8.385,0,0,1,.779,1.844h-.035c-.293-.585-.544-1.171-.843-1.756a8.818,8.818,0,0,0-1.054-1.6C65.77,316.533,65.84,316.462,65.881,316.509Z" transform="translate(-53.01 -297.521)" fill="#263238"/>
      <path id="Path_4750" data-name="Path 4750" d="M51.858,323.276a8.887,8.887,0,0,0,1.809.755,15.907,15.907,0,0,0,1.844.5v.053a8.82,8.82,0,0,1-1.909-.422,14.41,14.41,0,0,1-1.791-.8C51.752,323.334,51.8,323.247,51.858,323.276Z" transform="translate(-47.2 -300.33)" fill="#263238"/>
      <path id="Path_4751" data-name="Path 4751" d="M90.053,314.339c.053.509,1.335-4.315,8.782-8.6,6.785-3.893,14.882-14.022,8.232-20.415C101.722,280.16,87.559,291.413,90.053,314.339Z" transform="translate(-62.944 -284.087)" fill="#36ccb4"/>
      <path id="Path_4752" data-name="Path 4752" d="M81.45,344.793a131.61,131.61,0,0,1,1.171-15.023A67.527,67.527,0,0,1,85.776,316.3c.585-1.569,1.171-3.115,1.879-4.637a11.168,11.168,0,0,1,.029-1.756c.041-.761.105-1.522.176-2.283s.146-1.516.24-2.272.252-1.51.281-2.266a.047.047,0,0,1,.094,0,16.445,16.445,0,0,0-.275,2.477c-.053.732-.094,1.464-.117,2.2s0,1.475,0,2.207v.831c.708-1.487,1.458-2.927,2.272-4.368-.5-3.1.152-6.335.785-9.367,0-.059.105-.029.094.029a26.446,26.446,0,0,0-.492,4.8c0,1.271.029,2.547.035,3.817.182-.3.357-.585.544-.913.966-1.581,2-3.132,3.1-4.637a7.167,7.167,0,0,1,.07-2.207,17.934,17.934,0,0,1,.539-2.412c.24-.79.515-1.569.831-2.342s.755-1.528,1.066-2.342c0-.064.123,0,.088.041a11.438,11.438,0,0,0-.937,2.342,21.186,21.186,0,0,0-.585,2.342c-.158.785-.287,1.575-.4,2.371-.076.527-.123,1.071-.211,1.6a56.928,56.928,0,0,1,5.228-6.083c.047-.047.111,0,.07.07a68.631,68.631,0,0,0-7.611,10.327l-.24.416c.41-.258.878-.463,1.27-.673.72-.4,1.446-.8,2.178-1.2s1.411-.767,2.113-1.171c.363-.2.72-.416,1.089-.585a7.823,7.823,0,0,0,1.265-.7c.059-.041.117.047.059.082-.72.392-1.352.978-2.049,1.423s-1.405.878-2.131,1.282c-1.329.738-2.769,1.27-4.1,2.037-.907,1.587-1.756,3.214-2.512,4.877.79-.509,1.6-1,2.424-1.452.533-.3,1.06-.585,1.6-.872a7.967,7.967,0,0,0,1.5-.907.053.053,0,0,1,.07.07,14.407,14.407,0,0,1-2.816,2c-.96.556-1.926,1.1-2.927,1.587-.8,1.756-1.522,3.513-2.16,5.351-3.167,8.87-4.321,18.337-4.865,27.721-.164,2.8-.246,5.6-.281,8.4s.111,5.591.105,8.39a.073.073,0,0,1-.146,0c-.34-2.482-.4-5.006-.5-7.506S81.4,347.357,81.45,344.793Z" transform="translate(-59.486 -286.883)" fill="#263238"/>
      <path id="Path_4753" data-name="Path 4753" d="M104.64,311.04a35.889,35.889,0,0,0,3.969-2.055,40.936,40.936,0,0,0,3.77-2.395s.041,0,0,.035a31.611,31.611,0,0,1-3.618,2.535,37.007,37.007,0,0,1-4.1,1.961C104.629,311.151,104.582,311.063,104.64,311.04Z" transform="translate(-69.1 -293.415)" fill="#263238"/>
      <path id="Path_4754" data-name="Path 4754" d="M100.617,295.387c.111-.433.246-.861.392-1.288a.041.041,0,0,1,0-.047c.094-.24.193-.48.293-.72l.035-.088.053-.135h0c-.035,0-.047.17-.076.252a.586.586,0,0,1-.041.135,35.737,35.737,0,0,0-1.107,5.07.047.047,0,1,1-.088,0,17.223,17.223,0,0,1,.539-3.179Z" transform="translate(-67.219 -287.827)" fill="#263238"/>
      <path id="Path_4755" data-name="Path 4755" d="M67.99,386.12l.533,6.317,1.633,19.273H87.638l1.628-19.273.533-6.317Z" transform="translate(-53.918 -326.384)" fill="#455a64"/>
      <path id="Path_4756" data-name="Path 4756" d="M67.99,386.12l.533,6.317H89.266l.533-6.317Z" transform="translate(-53.918 -326.384)" fill="#263238"/>
      <rect id="Rectangle_317" data-name="Rectangle 317" width="25.239" height="6.059" transform="translate(37.601 63.261) rotate(180)" fill="#455a64"/>
    </g>
  </g>
</svg>
